<?xml version="1.0" encoding="utf-8"?>
<!-- Generator: Adobe Illustrator 19.2.0, SVG Export Plug-In . SVG Version: 6.00 Build 0)  -->
<!DOCTYPE svg PUBLIC "-//W3C//DTD SVG 1.1//EN" "http://www.w3.org/Graphics/SVG/1.1/DTD/svg11.dtd">
<svg version="1.1" id="Layer_1" xmlns="http://www.w3.org/2000/svg" xmlns:xlink="http://www.w3.org/1999/xlink" x="0px" y="0px"
	 width="361.4px" height="72px" viewBox="0 0 361.4 72" style="enable-background:new 0 0 361.4 72;" xml:space="preserve">
<style type="text/css">
	.st0{fill:#92BEB8;}
	.st1{fill:#FFF6C5;}
	.st2{fill:#333332;}
	.st3{fill:#F16E6A;}
	.st4{fill:#6CC1D9;}
	.st5{fill:#64B1C6;}
	.st6{fill:none;stroke:#F16E6A;stroke-miterlimit:10;}
	.st7{fill:#FFCB5C;}
</style>
<g>
	<path class="st0" d="M331.5,8.3H32.5C16.4,8.3,3.3,21.4,3.3,37.5l0,0c0,16.1,13.1,29.1,29.1,29.1l298.8,0c0.1,0,0.2,0,0.3,0
		c16.1,0,29.2-13.1,29.2-29.2C360.7,21.4,347.6,8.3,331.5,8.3z"/>
	<g>
		<path class="st1" d="M328.1,5.4L29,5.4v58.3l299.1,0c16.1,0,29.1-13.1,29.1-29.1v0C357.3,18.4,344.2,5.4,328.1,5.4z"/>
		<g>
			<g>
				<path class="st2" d="M68.6,29.2h1l1.6,5.7h0l1.7-5.7h1.1l1.7,5.7h0l1.6-5.7h1l-2.1,7.1h-1l-1.7-5.8h0l-1.7,5.8h-1L68.6,29.2z"/>
				<path class="st2" d="M78.9,28.8h0.9v3.6h0c0.1-0.3,0.3-0.5,0.6-0.6c0.3-0.2,0.6-0.2,1-0.2c0.2,0,0.4,0,0.7,0.1
					c0.2,0.1,0.4,0.2,0.5,0.3c0.2,0.1,0.3,0.3,0.4,0.6c0.1,0.2,0.1,0.5,0.1,0.8v3h-0.9v-2.8c0-0.2,0-0.4-0.1-0.6
					c-0.1-0.2-0.1-0.3-0.2-0.4c-0.1-0.1-0.2-0.2-0.3-0.2c-0.1,0-0.3-0.1-0.4-0.1c-0.2,0-0.4,0-0.5,0.1c-0.2,0.1-0.3,0.2-0.4,0.3
					c-0.1,0.1-0.2,0.3-0.3,0.5c-0.1,0.2-0.1,0.4-0.1,0.7v2.4h-0.9V28.8z"/>
				<path class="st2" d="M84.5,32.2c0.3-0.2,0.5-0.4,0.9-0.5c0.3-0.1,0.7-0.2,1-0.2c0.3,0,0.6,0,0.9,0.1c0.2,0.1,0.5,0.2,0.6,0.4
					s0.3,0.3,0.4,0.5s0.1,0.4,0.1,0.6v2.4c0,0.2,0,0.3,0,0.5c0,0.1,0,0.3,0,0.4h-0.8c0-0.2,0-0.5,0-0.7h0c-0.2,0.3-0.4,0.5-0.7,0.7
					c-0.3,0.1-0.6,0.2-1,0.2c-0.2,0-0.4,0-0.6-0.1c-0.2-0.1-0.4-0.1-0.5-0.3c-0.1-0.1-0.3-0.3-0.4-0.4c-0.1-0.2-0.1-0.4-0.1-0.6
					c0-0.3,0.1-0.6,0.2-0.8c0.1-0.2,0.3-0.4,0.6-0.5c0.2-0.1,0.5-0.2,0.8-0.3c0.3-0.1,0.7-0.1,1-0.1h0.7v-0.2c0-0.1,0-0.2-0.1-0.4
					c0-0.1-0.1-0.2-0.2-0.3c-0.1-0.1-0.2-0.2-0.3-0.2c-0.1-0.1-0.3-0.1-0.5-0.1c-0.2,0-0.3,0-0.5,0.1s-0.2,0.1-0.4,0.1
					c-0.1,0-0.2,0.1-0.3,0.2c-0.1,0.1-0.2,0.1-0.2,0.2L84.5,32.2z M87,34c-0.2,0-0.4,0-0.7,0c-0.2,0-0.4,0.1-0.6,0.1
					c-0.2,0.1-0.3,0.2-0.5,0.3c-0.1,0.1-0.2,0.3-0.2,0.5c0,0.3,0.1,0.5,0.3,0.6c0.2,0.1,0.4,0.2,0.7,0.2c0.2,0,0.5,0,0.6-0.1
					c0.2-0.1,0.3-0.2,0.4-0.3c0.1-0.1,0.2-0.3,0.2-0.4c0-0.2,0.1-0.3,0.1-0.5V34H87z"/>
				<path class="st2" d="M89.7,28.8h0.9v7.6h-0.9V28.8z"/>
				<path class="st2" d="M92.7,34.3c0,0.2,0,0.4,0.1,0.6c0.1,0.2,0.2,0.3,0.4,0.4s0.3,0.2,0.5,0.3c0.2,0.1,0.4,0.1,0.6,0.1
					c0.3,0,0.5-0.1,0.7-0.2c0.2-0.1,0.4-0.3,0.6-0.5l0.7,0.5c-0.5,0.6-1.2,1-2.1,1c-0.4,0-0.7-0.1-1-0.2c-0.3-0.1-0.6-0.3-0.8-0.5
					c-0.2-0.2-0.4-0.5-0.5-0.8c-0.1-0.3-0.2-0.6-0.2-1c0-0.4,0.1-0.7,0.2-1c0.1-0.3,0.3-0.6,0.5-0.8c0.2-0.2,0.5-0.4,0.8-0.5
					c0.3-0.1,0.6-0.2,1-0.2c0.4,0,0.8,0.1,1.1,0.2c0.3,0.1,0.5,0.3,0.7,0.6s0.3,0.5,0.4,0.8c0.1,0.3,0.1,0.6,0.1,0.9v0.3H92.7z
					 M95.5,33.6c0-0.2,0-0.4-0.1-0.6c-0.1-0.2-0.1-0.3-0.3-0.4c-0.1-0.1-0.3-0.2-0.4-0.3c-0.2-0.1-0.4-0.1-0.6-0.1
					c-0.2,0-0.4,0-0.6,0.1c-0.2,0.1-0.3,0.2-0.5,0.3c-0.1,0.1-0.2,0.3-0.3,0.4c-0.1,0.2-0.1,0.3-0.1,0.5H95.5z"/>
				<path class="st2" d="M100.1,32.8c-0.1-0.1-0.2-0.2-0.4-0.3c-0.2-0.1-0.3-0.1-0.6-0.1c-0.2,0-0.4,0-0.6,0.1
					c-0.2,0.1-0.2,0.2-0.2,0.4c0,0.1,0,0.3,0.1,0.3s0.2,0.2,0.3,0.2c0.1,0.1,0.3,0.1,0.4,0.1c0.1,0,0.3,0,0.4,0.1
					c0.2,0,0.4,0.1,0.5,0.2c0.2,0.1,0.3,0.2,0.4,0.3c0.1,0.1,0.2,0.2,0.3,0.4c0.1,0.2,0.1,0.3,0.1,0.6c0,0.3-0.1,0.5-0.2,0.7
					s-0.3,0.3-0.4,0.5c-0.2,0.1-0.4,0.2-0.6,0.3s-0.5,0.1-0.7,0.1c-0.4,0-0.7-0.1-1-0.2s-0.6-0.3-0.8-0.7l0.7-0.6
					c0.1,0.1,0.3,0.3,0.5,0.4c0.2,0.1,0.4,0.2,0.7,0.2c0.1,0,0.2,0,0.3,0c0.1,0,0.2-0.1,0.3-0.1c0.1,0,0.2-0.1,0.2-0.2
					c0.1-0.1,0.1-0.2,0.1-0.3c0-0.1,0-0.2-0.1-0.3c-0.1-0.1-0.2-0.2-0.3-0.2c-0.1,0-0.2-0.1-0.4-0.1c-0.1,0-0.2-0.1-0.3-0.1
					c-0.2,0-0.4-0.1-0.6-0.2C98.1,34,98,34,97.8,33.9c-0.1-0.1-0.2-0.2-0.3-0.4c-0.1-0.2-0.1-0.3-0.1-0.6c0-0.2,0.1-0.5,0.2-0.6
					c0.1-0.2,0.2-0.3,0.4-0.5c0.2-0.1,0.4-0.2,0.6-0.3s0.4-0.1,0.7-0.1c0.3,0,0.6,0.1,0.9,0.2c0.3,0.1,0.5,0.3,0.7,0.6L100.1,32.8z"
					/>
				<path class="st2" d="M107.3,32.8c-0.1-0.1-0.2-0.2-0.4-0.3c-0.2-0.1-0.3-0.1-0.6-0.1c-0.2,0-0.4,0-0.6,0.1
					c-0.2,0.1-0.2,0.2-0.2,0.4c0,0.1,0,0.3,0.1,0.3c0.1,0.1,0.2,0.2,0.3,0.2c0.1,0.1,0.3,0.1,0.4,0.1c0.1,0,0.3,0,0.4,0.1
					c0.2,0,0.4,0.1,0.5,0.2c0.2,0.1,0.3,0.2,0.4,0.3c0.1,0.1,0.2,0.2,0.3,0.4c0.1,0.2,0.1,0.3,0.1,0.6c0,0.3-0.1,0.5-0.2,0.7
					s-0.3,0.3-0.4,0.5c-0.2,0.1-0.4,0.2-0.6,0.3c-0.2,0.1-0.5,0.1-0.7,0.1c-0.4,0-0.7-0.1-1-0.2c-0.3-0.1-0.6-0.3-0.8-0.7l0.7-0.6
					c0.1,0.1,0.3,0.3,0.5,0.4c0.2,0.1,0.4,0.2,0.7,0.2c0.1,0,0.2,0,0.3,0s0.2-0.1,0.3-0.1c0.1,0,0.2-0.1,0.2-0.2
					c0.1-0.1,0.1-0.2,0.1-0.3c0-0.1,0-0.2-0.1-0.3c-0.1-0.1-0.2-0.2-0.3-0.2c-0.1,0-0.2-0.1-0.4-0.1c-0.1,0-0.2-0.1-0.3-0.1
					c-0.2,0-0.4-0.1-0.6-0.2s-0.3-0.1-0.5-0.2c-0.1-0.1-0.2-0.2-0.3-0.4s-0.1-0.3-0.1-0.6c0-0.2,0.1-0.5,0.2-0.6
					c0.1-0.2,0.2-0.3,0.4-0.5c0.2-0.1,0.4-0.2,0.6-0.3c0.2-0.1,0.4-0.1,0.7-0.1c0.3,0,0.6,0.1,0.9,0.2c0.3,0.1,0.5,0.3,0.7,0.6
					L107.3,32.8z"/>
				<path class="st2" d="M109,33.9c0-0.3,0.1-0.7,0.2-1c0.1-0.3,0.3-0.6,0.5-0.8s0.5-0.4,0.8-0.5s0.6-0.2,1-0.2s0.7,0.1,1,0.2
					s0.6,0.3,0.8,0.5s0.4,0.5,0.5,0.8c0.1,0.3,0.2,0.6,0.2,1s-0.1,0.7-0.2,1s-0.3,0.6-0.5,0.8c-0.2,0.2-0.5,0.4-0.8,0.5
					c-0.3,0.1-0.6,0.2-1,0.2s-0.7-0.1-1-0.2c-0.3-0.1-0.6-0.3-0.8-0.5c-0.2-0.2-0.4-0.5-0.5-0.8C109.1,34.6,109,34.3,109,33.9z
					 M110,33.9c0,0.2,0,0.5,0.1,0.7c0.1,0.2,0.2,0.4,0.3,0.5c0.1,0.1,0.3,0.3,0.5,0.3c0.2,0.1,0.4,0.1,0.6,0.1c0.2,0,0.5,0,0.7-0.1
					c0.2-0.1,0.4-0.2,0.5-0.3c0.1-0.1,0.2-0.3,0.3-0.5c0.1-0.2,0.1-0.4,0.1-0.7c0-0.2,0-0.5-0.1-0.7c-0.1-0.2-0.2-0.4-0.3-0.5
					c-0.1-0.1-0.3-0.3-0.5-0.3s-0.4-0.1-0.7-0.1c-0.2,0-0.5,0-0.6,0.1c-0.2,0.1-0.4,0.2-0.5,0.3c-0.1,0.1-0.2,0.3-0.3,0.5
					C110,33.5,110,33.7,110,33.9z"/>
				<path class="st2" d="M119.4,36.3h-0.9v-0.7h0c-0.1,0.3-0.3,0.5-0.6,0.6c-0.3,0.2-0.6,0.2-1,0.2c-0.2,0-0.5,0-0.7-0.1
					c-0.2-0.1-0.4-0.2-0.5-0.3c-0.2-0.1-0.3-0.3-0.4-0.6c-0.1-0.2-0.1-0.5-0.1-0.8v-3.1h0.9v2.8c0,0.2,0,0.4,0.1,0.6
					s0.1,0.3,0.2,0.4c0.1,0.1,0.2,0.2,0.3,0.2c0.1,0,0.3,0.1,0.4,0.1c0.2,0,0.4,0,0.5-0.1s0.3-0.2,0.4-0.3c0.1-0.1,0.2-0.3,0.3-0.5
					c0.1-0.2,0.1-0.4,0.1-0.7v-2.4h0.9V36.3z"/>
				<path class="st2" d="M120.7,31.6h0.9v0.7h0c0.1-0.3,0.3-0.5,0.6-0.6s0.6-0.2,1-0.2c0.2,0,0.4,0,0.7,0.1c0.2,0.1,0.4,0.2,0.6,0.3
					c0.2,0.1,0.3,0.3,0.4,0.6c0.1,0.2,0.1,0.5,0.1,0.8v3H124v-2.8c0-0.2,0-0.4-0.1-0.6c-0.1-0.2-0.1-0.3-0.2-0.4s-0.2-0.2-0.3-0.2
					c-0.1,0-0.3-0.1-0.4-0.1c-0.2,0-0.4,0-0.5,0.1s-0.3,0.2-0.4,0.3s-0.2,0.3-0.3,0.5c-0.1,0.2-0.1,0.4-0.1,0.7v2.4h-0.9V31.6z"/>
				<path class="st2" d="M131.1,36.3h-0.9v-0.7h0c-0.2,0.3-0.4,0.5-0.7,0.6c-0.3,0.1-0.6,0.2-0.9,0.2c-0.4,0-0.7-0.1-1-0.2
					c-0.3-0.1-0.5-0.3-0.8-0.5c-0.2-0.2-0.4-0.5-0.5-0.8c-0.1-0.3-0.2-0.6-0.2-1c0-0.4,0.1-0.7,0.2-1c0.1-0.3,0.3-0.6,0.5-0.8
					c0.2-0.2,0.5-0.4,0.8-0.5c0.3-0.1,0.6-0.2,1-0.2c0.3,0,0.7,0.1,1,0.2c0.3,0.1,0.5,0.3,0.7,0.6h0v-3.5h0.9V36.3z M128.6,35.6
					c0.2,0,0.5,0,0.6-0.1c0.2-0.1,0.4-0.2,0.5-0.3c0.1-0.1,0.2-0.3,0.3-0.5c0.1-0.2,0.1-0.4,0.1-0.7c0-0.2,0-0.5-0.1-0.7
					c-0.1-0.2-0.2-0.4-0.3-0.5c-0.1-0.1-0.3-0.3-0.5-0.3c-0.2-0.1-0.4-0.1-0.6-0.1c-0.2,0-0.5,0-0.7,0.1s-0.4,0.2-0.5,0.3
					c-0.1,0.1-0.2,0.3-0.3,0.5c-0.1,0.2-0.1,0.4-0.1,0.7c0,0.2,0,0.5,0.1,0.7c0.1,0.2,0.2,0.4,0.3,0.5c0.1,0.1,0.3,0.3,0.5,0.3
					C128.1,35.6,128.4,35.6,128.6,35.6z"/>
				<path class="st2" d="M134.9,32.8c-0.1-0.1-0.2-0.2-0.4-0.3c-0.2-0.1-0.3-0.1-0.6-0.1c-0.2,0-0.4,0-0.6,0.1
					c-0.2,0.1-0.2,0.2-0.2,0.4c0,0.1,0,0.3,0.1,0.3s0.2,0.2,0.3,0.2s0.3,0.1,0.4,0.1c0.1,0,0.3,0,0.4,0.1c0.2,0,0.4,0.1,0.5,0.2
					c0.2,0.1,0.3,0.2,0.4,0.3c0.1,0.1,0.2,0.2,0.3,0.4c0.1,0.2,0.1,0.3,0.1,0.6c0,0.3-0.1,0.5-0.2,0.7c-0.1,0.2-0.3,0.3-0.4,0.5
					c-0.2,0.1-0.4,0.2-0.6,0.3c-0.2,0.1-0.5,0.1-0.7,0.1c-0.4,0-0.7-0.1-1-0.2c-0.3-0.1-0.6-0.3-0.8-0.7l0.7-0.6
					c0.1,0.1,0.3,0.3,0.5,0.4c0.2,0.1,0.4,0.2,0.7,0.2c0.1,0,0.2,0,0.3,0c0.1,0,0.2-0.1,0.3-0.1c0.1,0,0.2-0.1,0.2-0.2
					c0.1-0.1,0.1-0.2,0.1-0.3c0-0.1,0-0.2-0.1-0.3c-0.1-0.1-0.2-0.2-0.3-0.2s-0.2-0.1-0.4-0.1c-0.1,0-0.2-0.1-0.3-0.1
					c-0.2,0-0.4-0.1-0.5-0.2s-0.3-0.1-0.5-0.2c-0.1-0.1-0.2-0.2-0.3-0.4c-0.1-0.2-0.1-0.3-0.1-0.6c0-0.2,0.1-0.5,0.2-0.6
					s0.2-0.3,0.4-0.5s0.4-0.2,0.6-0.3s0.4-0.1,0.7-0.1c0.3,0,0.6,0.1,0.9,0.2c0.3,0.1,0.5,0.3,0.7,0.6L134.9,32.8z"/>
				<path class="st2" d="M142.2,32.4h-1.3v2.1c0,0.1,0,0.3,0,0.4c0,0.1,0,0.2,0.1,0.4s0.1,0.2,0.2,0.2c0.1,0.1,0.2,0.1,0.4,0.1
					c0.1,0,0.2,0,0.3,0s0.2-0.1,0.3-0.1v0.8c-0.1,0.1-0.2,0.1-0.4,0.1s-0.3,0-0.4,0c-0.3,0-0.6,0-0.8-0.1s-0.3-0.2-0.4-0.4
					c-0.1-0.2-0.1-0.3-0.2-0.5s0-0.4,0-0.6v-2.5h-1v-0.8h1v-1.3h0.9v1.3h1.3V32.4z"/>
				<path class="st2" d="M143.3,31.6h0.9v0.7h0c0.1-0.1,0.1-0.2,0.2-0.3c0.1-0.1,0.2-0.2,0.3-0.3c0.1-0.1,0.3-0.1,0.4-0.2
					s0.3-0.1,0.4-0.1c0.1,0,0.3,0,0.4,0.1l0,1c-0.1,0-0.1,0-0.2,0s-0.1,0-0.2,0c-0.4,0-0.8,0.1-1,0.4s-0.3,0.6-0.3,1.1v2.4h-0.9
					V31.6z"/>
				<path class="st2" d="M147.1,32.2c0.3-0.2,0.5-0.4,0.9-0.5c0.3-0.1,0.7-0.2,1-0.2c0.3,0,0.6,0,0.9,0.1c0.2,0.1,0.5,0.2,0.6,0.4
					s0.3,0.3,0.4,0.5s0.1,0.4,0.1,0.6v2.4c0,0.2,0,0.3,0,0.5c0,0.1,0,0.3,0,0.4h-0.8c0-0.2,0-0.5,0-0.7h0c-0.2,0.3-0.4,0.5-0.7,0.7
					c-0.3,0.1-0.6,0.2-1,0.2c-0.2,0-0.4,0-0.6-0.1c-0.2-0.1-0.4-0.1-0.5-0.3c-0.1-0.1-0.3-0.3-0.4-0.4c-0.1-0.2-0.1-0.4-0.1-0.6
					c0-0.3,0.1-0.6,0.2-0.8c0.1-0.2,0.3-0.4,0.6-0.5c0.2-0.1,0.5-0.2,0.8-0.3c0.3-0.1,0.7-0.1,1-0.1h0.7v-0.2c0-0.1,0-0.2-0.1-0.4
					c0-0.1-0.1-0.2-0.2-0.3c-0.1-0.1-0.2-0.2-0.3-0.2c-0.1-0.1-0.3-0.1-0.5-0.1c-0.2,0-0.3,0-0.5,0.1s-0.2,0.1-0.4,0.1
					c-0.1,0-0.2,0.1-0.3,0.2c-0.1,0.1-0.2,0.1-0.2,0.2L147.1,32.2z M149.6,34c-0.2,0-0.4,0-0.7,0c-0.2,0-0.4,0.1-0.6,0.1
					c-0.2,0.1-0.3,0.2-0.5,0.3c-0.1,0.1-0.2,0.3-0.2,0.5c0,0.3,0.1,0.5,0.3,0.6c0.2,0.1,0.4,0.2,0.7,0.2c0.2,0,0.5,0,0.6-0.1
					c0.2-0.1,0.3-0.2,0.4-0.3c0.1-0.1,0.2-0.3,0.2-0.4c0-0.2,0.1-0.3,0.1-0.5V34H149.6z"/>
				<path class="st2" d="M151.7,31.6h1l1.4,3.6l1.4-3.6h1l-1.9,4.7h-1L151.7,31.6z"/>
				<path class="st2" d="M157.9,34.3c0,0.2,0,0.4,0.1,0.6s0.2,0.3,0.4,0.4c0.1,0.1,0.3,0.2,0.5,0.3c0.2,0.1,0.4,0.1,0.6,0.1
					c0.3,0,0.5-0.1,0.7-0.2c0.2-0.1,0.4-0.3,0.6-0.5l0.7,0.5c-0.5,0.6-1.2,1-2.1,1c-0.4,0-0.7-0.1-1-0.2c-0.3-0.1-0.6-0.3-0.8-0.5
					c-0.2-0.2-0.4-0.5-0.5-0.8c-0.1-0.3-0.2-0.6-0.2-1c0-0.4,0.1-0.7,0.2-1c0.1-0.3,0.3-0.6,0.5-0.8c0.2-0.2,0.5-0.4,0.8-0.5
					s0.6-0.2,1-0.2c0.4,0,0.8,0.1,1.1,0.2c0.3,0.1,0.5,0.3,0.7,0.6c0.2,0.2,0.3,0.5,0.4,0.8c0.1,0.3,0.1,0.6,0.1,0.9v0.3H157.9z
					 M160.7,33.6c0-0.2,0-0.4-0.1-0.6c-0.1-0.2-0.1-0.3-0.3-0.4c-0.1-0.1-0.3-0.2-0.4-0.3c-0.2-0.1-0.4-0.1-0.6-0.1
					c-0.2,0-0.4,0-0.6,0.1c-0.2,0.1-0.3,0.2-0.5,0.3s-0.2,0.3-0.3,0.4c-0.1,0.2-0.1,0.3-0.1,0.5H160.7z"/>
				<path class="st2" d="M162.9,28.8h0.9v7.6h-0.9V28.8z"/>
				<path class="st2" d="M172.2,36.3h-0.9v-0.7h0c-0.1,0.3-0.3,0.5-0.6,0.6c-0.3,0.2-0.6,0.2-1,0.2c-0.2,0-0.5,0-0.7-0.1
					c-0.2-0.1-0.4-0.2-0.5-0.3c-0.2-0.1-0.3-0.3-0.4-0.6c-0.1-0.2-0.1-0.5-0.1-0.8v-3.1h0.9v2.8c0,0.2,0,0.4,0.1,0.6
					c0.1,0.2,0.1,0.3,0.2,0.4c0.1,0.1,0.2,0.2,0.3,0.2c0.1,0,0.3,0.1,0.4,0.1c0.2,0,0.4,0,0.5-0.1c0.2-0.1,0.3-0.2,0.4-0.3
					c0.1-0.1,0.2-0.3,0.3-0.5c0.1-0.2,0.1-0.4,0.1-0.7v-2.4h0.9V36.3z"/>
				<path class="st2" d="M173.5,31.6h0.9v0.7h0c0.2-0.3,0.4-0.4,0.7-0.6c0.3-0.1,0.6-0.2,0.9-0.2c0.4,0,0.7,0.1,1,0.2
					c0.3,0.1,0.5,0.3,0.8,0.5c0.2,0.2,0.4,0.5,0.5,0.8c0.1,0.3,0.2,0.6,0.2,1c0,0.4-0.1,0.7-0.2,1c-0.1,0.3-0.3,0.6-0.5,0.8
					c-0.2,0.2-0.5,0.4-0.8,0.5c-0.3,0.1-0.6,0.2-1,0.2c-0.3,0-0.7-0.1-1-0.2c-0.3-0.1-0.5-0.3-0.7-0.6h0v3.5h-0.9V31.6z M176,32.3
					c-0.2,0-0.5,0-0.7,0.1s-0.4,0.2-0.5,0.3c-0.1,0.1-0.2,0.3-0.3,0.5c-0.1,0.2-0.1,0.4-0.1,0.7c0,0.2,0,0.5,0.1,0.7
					c0.1,0.2,0.2,0.4,0.3,0.5c0.1,0.1,0.3,0.3,0.5,0.3c0.2,0.1,0.4,0.1,0.7,0.1c0.2,0,0.5,0,0.6-0.1c0.2-0.1,0.4-0.2,0.5-0.3
					c0.1-0.1,0.2-0.3,0.3-0.5c0.1-0.2,0.1-0.4,0.1-0.7c0-0.2,0-0.5-0.1-0.7c-0.1-0.2-0.2-0.4-0.3-0.5c-0.1-0.1-0.3-0.3-0.5-0.3
					S176.2,32.3,176,32.3z"/>
				<path class="st2" d="M185,32.4h-1.3v2.1c0,0.1,0,0.3,0,0.4c0,0.1,0,0.2,0.1,0.4c0,0.1,0.1,0.2,0.2,0.2s0.2,0.1,0.4,0.1
					c0.1,0,0.2,0,0.3,0s0.2-0.1,0.3-0.1v0.8c-0.1,0.1-0.2,0.1-0.4,0.1s-0.3,0-0.4,0c-0.3,0-0.6,0-0.8-0.1s-0.3-0.2-0.4-0.4
					s-0.1-0.3-0.2-0.5s0-0.4,0-0.6v-2.5h-1v-0.8h1v-1.3h0.9v1.3h1.3V32.4z"/>
				<path class="st2" d="M185.9,33.9c0-0.3,0.1-0.7,0.2-1c0.1-0.3,0.3-0.6,0.5-0.8s0.5-0.4,0.8-0.5s0.6-0.2,1-0.2s0.7,0.1,1,0.2
					s0.6,0.3,0.8,0.5c0.2,0.2,0.4,0.5,0.5,0.8c0.1,0.3,0.2,0.6,0.2,1s-0.1,0.7-0.2,1c-0.1,0.3-0.3,0.6-0.5,0.8
					c-0.2,0.2-0.5,0.4-0.8,0.5c-0.3,0.1-0.6,0.2-1,0.2s-0.7-0.1-1-0.2c-0.3-0.1-0.6-0.3-0.8-0.5c-0.2-0.2-0.4-0.5-0.5-0.8
					S185.9,34.3,185.9,33.9z M186.8,33.9c0,0.2,0,0.5,0.1,0.7c0.1,0.2,0.2,0.4,0.3,0.5c0.1,0.1,0.3,0.3,0.5,0.3
					c0.2,0.1,0.4,0.1,0.7,0.1s0.5,0,0.7-0.1c0.2-0.1,0.4-0.2,0.5-0.3c0.1-0.1,0.2-0.3,0.3-0.5c0.1-0.2,0.1-0.4,0.1-0.7
					c0-0.2,0-0.5-0.1-0.7c-0.1-0.2-0.2-0.4-0.3-0.5c-0.1-0.1-0.3-0.3-0.5-0.3c-0.2-0.1-0.4-0.1-0.7-0.1s-0.5,0-0.7,0.1
					s-0.4,0.2-0.5,0.3c-0.1,0.1-0.2,0.3-0.3,0.5C186.9,33.5,186.8,33.7,186.8,33.9z"/>
				<path class="st2" d="M196.9,30.3l-1.3,1.2l-0.6-0.7l2-1.6h0.9v7.1h-1V30.3z"/>
				<path class="st2" d="M202.5,36.4c-0.3,0-0.6,0-0.9-0.1s-0.5-0.2-0.7-0.4c-0.2-0.2-0.4-0.4-0.5-0.7s-0.2-0.6-0.2-0.9
					c0-0.2,0-0.4,0.1-0.6c0.1-0.2,0.2-0.4,0.3-0.5s0.3-0.3,0.4-0.4s0.3-0.2,0.5-0.2v0c-0.1,0-0.3-0.1-0.4-0.2
					c-0.1-0.1-0.3-0.2-0.4-0.3s-0.2-0.3-0.3-0.5c-0.1-0.2-0.1-0.4-0.1-0.7c0-0.3,0.1-0.5,0.2-0.7c0.1-0.2,0.3-0.4,0.5-0.6
					c0.2-0.2,0.4-0.3,0.7-0.4c0.2-0.1,0.5-0.1,0.8-0.1s0.5,0,0.8,0.1c0.2,0.1,0.5,0.2,0.7,0.4c0.2,0.2,0.3,0.3,0.5,0.6
					c0.1,0.2,0.2,0.5,0.2,0.7c0,0.2,0,0.5-0.1,0.7c-0.1,0.2-0.2,0.4-0.3,0.5s-0.2,0.2-0.4,0.3c-0.1,0.1-0.3,0.1-0.4,0.2v0
					c0.2,0.1,0.4,0.1,0.5,0.2s0.3,0.2,0.4,0.4s0.2,0.3,0.3,0.5c0.1,0.2,0.1,0.4,0.1,0.6c0,0.3-0.1,0.6-0.2,0.9s-0.3,0.5-0.5,0.7
					c-0.2,0.2-0.5,0.3-0.7,0.4C203.1,36.4,202.8,36.4,202.5,36.4z M202.5,35.6c0.4,0,0.7-0.1,1-0.4s0.4-0.6,0.4-0.9
					c0-0.2,0-0.4-0.1-0.6c-0.1-0.2-0.2-0.3-0.3-0.4c-0.1-0.1-0.3-0.2-0.4-0.2c-0.2-0.1-0.3-0.1-0.5-0.1c-0.4,0-0.7,0.1-1,0.4
					c-0.3,0.2-0.4,0.6-0.4,0.9c0,0.2,0,0.4,0.1,0.6c0.1,0.2,0.2,0.3,0.3,0.4s0.3,0.2,0.4,0.3C202.1,35.6,202.3,35.6,202.5,35.6z
					 M201.4,31c0,0.1,0,0.3,0.1,0.4c0,0.1,0.1,0.3,0.2,0.4c0.1,0.1,0.2,0.2,0.3,0.3c0.1,0.1,0.3,0.1,0.5,0.1c0.2,0,0.3,0,0.5-0.1
					s0.3-0.1,0.3-0.2s0.2-0.2,0.2-0.4c0-0.1,0.1-0.3,0.1-0.4c0-0.3-0.1-0.6-0.3-0.8s-0.5-0.3-0.8-0.3c-0.3,0-0.6,0.1-0.8,0.3
					S201.4,30.7,201.4,31z"/>
				<path class="st2" d="M205.6,32.8c0-0.3,0-0.5,0-0.8c0-0.3,0.1-0.6,0.1-0.8c0.1-0.3,0.2-0.5,0.3-0.8c0.1-0.2,0.3-0.5,0.5-0.6
					c0.2-0.2,0.4-0.3,0.7-0.4c0.2-0.1,0.5-0.2,0.9-0.2c0.3,0,0.6,0.1,0.9,0.2c0.2,0.1,0.5,0.3,0.6,0.4c0.2,0.2,0.3,0.4,0.5,0.6
					c0.1,0.2,0.2,0.5,0.3,0.8c0.1,0.3,0.1,0.5,0.1,0.8c0,0.3,0,0.6,0,0.8c0,0.4,0,0.8-0.1,1.2c-0.1,0.4-0.2,0.8-0.4,1.2
					c-0.2,0.4-0.4,0.7-0.7,0.9c-0.3,0.2-0.7,0.4-1.2,0.4s-0.9-0.1-1.2-0.4c-0.3-0.2-0.6-0.5-0.7-0.9s-0.3-0.8-0.4-1.2
					C205.6,33.6,205.6,33.2,205.6,32.8z M206.6,32.8c0,0.2,0,0.5,0,0.8s0.1,0.6,0.2,0.9c0.1,0.3,0.2,0.5,0.4,0.8
					c0.2,0.2,0.5,0.3,0.8,0.3c0.3,0,0.6-0.1,0.8-0.3c0.2-0.2,0.3-0.5,0.4-0.8c0.1-0.3,0.2-0.6,0.2-0.9s0-0.6,0-0.8
					c0-0.2,0-0.3,0-0.5c0-0.2,0-0.4-0.1-0.6s-0.1-0.4-0.2-0.6c-0.1-0.2-0.2-0.4-0.3-0.5c-0.1-0.2-0.2-0.3-0.4-0.4
					c-0.2-0.1-0.3-0.1-0.6-0.1c-0.2,0-0.4,0-0.6,0.1c-0.2,0.1-0.3,0.2-0.4,0.4c-0.1,0.2-0.2,0.3-0.3,0.5s-0.1,0.4-0.2,0.6
					s-0.1,0.4-0.1,0.6C206.6,32.4,206.6,32.6,206.6,32.8z"/>
				<path class="st2" d="M211.2,32.8c0-0.3,0-0.5,0-0.8c0-0.3,0.1-0.6,0.1-0.8s0.2-0.5,0.3-0.8c0.1-0.2,0.3-0.5,0.5-0.6
					c0.2-0.2,0.4-0.3,0.7-0.4c0.2-0.1,0.5-0.2,0.9-0.2s0.6,0.1,0.9,0.2c0.2,0.1,0.5,0.3,0.6,0.4c0.2,0.2,0.3,0.4,0.5,0.6
					c0.1,0.2,0.2,0.5,0.3,0.8s0.1,0.5,0.1,0.8c0,0.3,0,0.6,0,0.8c0,0.4,0,0.8-0.1,1.2s-0.2,0.8-0.4,1.2s-0.4,0.7-0.7,0.9
					c-0.3,0.2-0.7,0.4-1.2,0.4s-0.9-0.1-1.2-0.4c-0.3-0.2-0.6-0.5-0.7-0.9c-0.2-0.4-0.3-0.8-0.4-1.2
					C211.2,33.6,211.2,33.2,211.2,32.8z M212.1,32.8c0,0.2,0,0.5,0,0.8c0,0.3,0.1,0.6,0.2,0.9c0.1,0.3,0.2,0.5,0.4,0.8
					s0.5,0.3,0.8,0.3s0.6-0.1,0.8-0.3s0.3-0.5,0.4-0.8c0.1-0.3,0.2-0.6,0.2-0.9c0-0.3,0-0.6,0-0.8c0-0.2,0-0.3,0-0.5
					c0-0.2,0-0.4-0.1-0.6c0-0.2-0.1-0.4-0.2-0.6c-0.1-0.2-0.2-0.4-0.3-0.5c-0.1-0.2-0.2-0.3-0.4-0.4c-0.2-0.1-0.4-0.1-0.6-0.1
					s-0.4,0-0.6,0.1c-0.2,0.1-0.3,0.2-0.4,0.4c-0.1,0.2-0.2,0.3-0.3,0.5s-0.1,0.4-0.2,0.6c0,0.2-0.1,0.4-0.1,0.6
					C212.1,32.4,212.1,32.6,212.1,32.8z"/>
				<path class="st2" d="M219.9,28.8h0.9v4.9l2-2h1.2l-2.2,2.1l2.4,2.6H223l-2.2-2.5v2.5h-0.9V28.8z"/>
				<path class="st2" d="M225,31.6h0.8v0.7h0c0-0.1,0.1-0.1,0.2-0.2c0.1-0.1,0.2-0.2,0.3-0.3c0.1-0.1,0.3-0.2,0.5-0.2
					c0.2-0.1,0.4-0.1,0.6-0.1c0.4,0,0.7,0.1,0.9,0.2c0.2,0.1,0.4,0.4,0.6,0.7c0.2-0.3,0.4-0.5,0.7-0.7c0.3-0.1,0.6-0.2,0.8-0.2
					c0.4,0,0.7,0.1,0.9,0.2c0.2,0.1,0.4,0.3,0.5,0.5c0.1,0.2,0.2,0.4,0.3,0.7c0.1,0.2,0.1,0.5,0.1,0.8v2.8h-0.9v-2.6
					c0-0.2,0-0.4,0-0.5c0-0.2-0.1-0.3-0.1-0.4c-0.1-0.1-0.2-0.2-0.3-0.3c-0.1-0.1-0.3-0.1-0.5-0.1c-0.4,0-0.7,0.1-0.9,0.4
					s-0.3,0.6-0.3,1v2.6h-0.9v-2.5c0-0.2,0-0.4,0-0.6c0-0.2-0.1-0.3-0.1-0.5c-0.1-0.1-0.2-0.2-0.3-0.3s-0.3-0.1-0.5-0.1
					c-0.2,0-0.3,0-0.5,0.1c-0.1,0.1-0.3,0.2-0.4,0.3c-0.1,0.1-0.2,0.3-0.3,0.5c-0.1,0.2-0.1,0.4-0.1,0.7v2.5H225V31.6z"/>
			</g>
		</g>
		<g>
			<path class="st3" d="M70.8,22.4h-1.6V11.9h1.6v4.5h1.9v-4.5h1.7v10.5h-1.7v-4.5h-1.9V22.4z"/>
			<path class="st3" d="M77.2,16.3h2.3v1.5h-2.3v3.1h2.9v1.5h-4.5V11.9h4.5v1.5h-2.9V16.3z"/>
			<path class="st3" d="M86.4,22.4h-1.7l-0.3-1.9h-2l-0.3,1.9h-1.5l1.7-10.5h2.4L86.4,22.4z M82.7,19.1h1.6l-0.8-5.3h0L82.7,19.1z"
				/>
			<path class="st3" d="M90.7,22.4c-0.1-0.3-0.1-0.4-0.1-1.3v-1.7c0-1-0.3-1.3-1.1-1.3h-0.6v4.3h-1.6V11.9h2.5
				c1.7,0,2.4,0.8,2.4,2.4v0.8c0,1.1-0.3,1.8-1.1,2.1v0c0.8,0.3,1.1,1.1,1.1,2.2v1.6c0,0.5,0,0.9,0.2,1.3H90.7z M88.9,13.4v3.2h0.6
				c0.6,0,1-0.3,1-1.1v-1c0-0.8-0.3-1.1-0.8-1.1H88.9z"/>
			<path class="st3" d="M93.2,11.9h1.6v10.5h-1.6V11.9z"/>
			<path class="st3" d="M97.6,14.8L97.6,14.8l0,7.6h-1.5V11.9h2.1l1.7,6.3h0v-6.3h1.5v10.5h-1.7L97.6,14.8z"/>
			<path class="st3" d="M105,16.6h2.3v3.3c0,1.7-0.8,2.6-2.5,2.6s-2.5-1-2.5-2.6v-5.5c0-1.7,0.8-2.6,2.5-2.6s2.5,1,2.5,2.6v1h-1.6
				v-1.1c0-0.8-0.3-1-0.9-1c-0.5,0-0.9,0.3-0.9,1V20c0,0.8,0.3,1,0.9,1c0.5,0,0.9-0.3,0.9-1v-1.9H105V16.6z"/>
		</g>
		<g>
			<g>
				<path class="st4" d="M26.5,36.6c0.9-1,0.8-2.4,0.8-2.5l0-0.1v0c0-0.4,0-1.5-1.9-2.2c-1.1-0.4-2.3-0.4-2.3-0.4l-0.9,0v-4.6
					c0-4,2.1-6.1,3.9-7.1c1.9-1.1,3.7-1.2,3.8-1.2h0.1c3.7,0,5.8,1.9,6.8,3.7c0,0,0.1,0.1,0.1,0.1c0.1,0.1,0.1,0.3,0.2,0.4
					c1,2,1.1,4,1.1,4.1c0,0.5-0.4,1-0.9,1c-0.5,0-1-0.4-1-0.9c0,0,0-1.1-0.5-2.3c0,0,0,0,0,0c0-0.1-0.1-0.2-0.1-0.3v0
					c-0.1-0.2-0.2-0.5-0.3-0.7c-1-2-2.8-3.1-5.3-3.1c-0.2,0-1.6,0.2-3,1C25,22.5,24,24.3,24,26.8v2.7c0.5,0.1,1.3,0.2,2,0.5
					c2.1,0.7,3.2,2.2,3.2,4c0,0.3,0.1,1.4-0.5,2.6c-0.1,0.2-0.2,0.3-0.3,0.5c-0.2,0.3-0.3,0.5-0.5,0.7c-1.1,1.2-2.7,1.8-4.9,1.8
					c-0.5,0-1-0.4-1-0.9c0-0.5,0.4-1,1-1C24.7,37.7,25.8,37.3,26.5,36.6z"/>
				<path class="st4" d="M54.8,26.1C51.3,15.7,41.5,8.2,29.9,8.2C15.4,8.2,3.6,20,3.6,34.5c0,14.5,11.8,26.3,26.3,26.3
					c0.2,0,0.5,0,0.7,0c14.2-0.4,25.6-12,25.6-26.3C56.2,31.6,55.7,28.8,54.8,26.1z M41.7,35.6c-1.2,2.7-3,4.8-4.8,6.9
					c-1.5,1.7-3,3.4-4,5.3c-0.2,0.4-0.4,0.8-0.6,1.3c-1,2-2,4-3.9,5.4c-1.2,0.9-2.8,1.4-4.4,1.4h-0.3c-1.2-0.1-2.4-0.4-3.4-1
					c0,0-0.1,0-0.1-0.1c0,0-0.1,0-0.1-0.1l-0.9-0.6c-1.8-1.5-2.8-3.7-2.8-6c0-0.5,0.4-0.9,0.9-0.9l1.4-22c-0.5-0.1-0.8-0.5-0.8-1
					c0.1-2.6,1.1-5,2.7-7c1.6-1.9,3.9-3.2,6.5-3.9c2.5-0.6,5.2-0.5,7.5,0.4c1.9,0.7,3.5,1.8,4.9,3.1c0,0,0,0,0.1,0
					c1,1.1,1.9,2.4,2.5,3.8c1,2.2,1.4,4.7,1.3,7.3C43.3,30.7,42.7,33.3,41.7,35.6z"/>
				<path class="st1" d="M58.3,28.3C55.5,15.2,43.8,5.3,29.9,5.3C13.8,5.3,0.7,18.4,0.7,34.5c0,16.1,13.1,29.2,29.2,29.2
					c1.7,0,3.4-0.1,5-0.4C48.6,60.8,59,48.9,59,34.5C59,32.4,58.8,30.3,58.3,28.3z M30.6,60.8c-0.2,0-0.5,0-0.7,0
					C15.4,60.8,3.6,49,3.6,34.5C3.6,20,15.4,8.2,29.9,8.2c11.6,0,21.5,7.5,24.9,17.9c0.9,2.6,1.4,5.4,1.4,8.3
					C56.2,48.8,44.8,60.4,30.6,60.8z"/>
			</g>
			<path class="st5" d="M56.2,34.5c0,14.3-11.4,25.9-25.6,26.3l-10.3-5.9c1,0.6,2.2,0.9,3.4,1H24c1.6,0,3.1-0.5,4.4-1.4
				c1.9-1.4,2.9-3.4,3.9-5.4c0.2-0.4,0.4-0.9,0.6-1.3c1-2,2.5-3.6,4-5.3c1.8-2.1,3.7-4.2,4.8-6.9c1-2.3,1.6-4.9,1.6-7.4
				c0.1-2.6-0.4-5.2-1.3-7.3c-0.6-1.5-1.5-2.7-2.5-3.8c0,0,0,0-0.1,0c-0.6-0.6-1.3-1.2-2-1.7l17.3,10.8
				C55.7,28.8,56.2,31.6,56.2,34.5z"/>
			<g>
				<g>
					<path class="st3" d="M43.3,28.2c-0.1,2.5-0.6,5.1-1.6,7.4c-1.2,2.7-3,4.8-4.8,6.9c-1.5,1.7-3,3.4-4,5.3
						c-0.2,0.4-0.4,0.8-0.6,1.3c-1,2-2,4-3.9,5.4c-1.2,0.9-2.8,1.4-4.4,1.4h-0.3c-1.2-0.1-2.4-0.4-3.4-1c0,0-0.1,0-0.1-0.1
						c0,0-0.1,0-0.1-0.1l-0.9-0.6c-1.8-1.5-2.8-3.7-2.8-6c0-0.5,0.4-0.9,0.9-0.9c0,0,0.1,0,0.1,0c0.5,0,0.9,0.4,0.9,1
						c0,1.6,0.7,3.2,1.8,4.3c0.1,0.1,0.2,0.2,0.3,0.2c0.2,0.1,0.4,0.3,0.6,0.4c1.9,1.2,4.5,1.2,6.3-0.2c1.5-1.1,2.4-2.9,3.3-4.7
						c0.2-0.4,0.4-0.9,0.7-1.3c1.2-2.2,2.7-4,4.3-5.7c1.8-2,3.5-4,4.5-6.4c1.9-4.4,2-9.4,0.3-13.2c-0.5-1.1-1.1-2-1.8-2.8
						c0,0,0,0,0,0c-1.2-1.4-2.7-2.4-4.6-3.1c-2-0.7-4.3-0.8-6.4-0.3c-2.2,0.5-4.1,1.7-5.4,3.2c-1.4,1.6-2.2,3.7-2.3,5.8
						c0,0.5-0.5,0.9-1,0.9c-0.1,0-0.1,0-0.2,0c-0.5-0.1-0.8-0.5-0.8-1c0.1-2.6,1.1-5,2.7-7c1.6-1.9,3.9-3.2,6.5-3.9
						c2.5-0.6,5.2-0.5,7.5,0.4c1,0.4,2,0.9,2.9,1.5c0,0,0,0,0,0c0.7,0.5,1.4,1,2,1.7c0,0,0,0,0.1,0c1,1.1,1.9,2.4,2.5,3.8
						C43,23,43.4,25.6,43.3,28.2z"/>
					<path class="st3" d="M38,26.7c0,0.5-0.4,1-0.9,1c-0.5,0-1-0.4-1-0.9c0,0,0-1.1-0.5-2.3c0,0,0,0,0,0c0-0.1-0.1-0.2-0.1-0.3v0
						c-0.1-0.2-0.2-0.5-0.3-0.7c-1-2-2.8-3.1-5.3-3.1c-0.2,0-1.6,0.2-3,1C25,22.5,24,24.3,24,26.8v2.7c0.5,0.1,1.3,0.2,2,0.5
						c2.1,0.7,3.2,2.2,3.2,4c0,0.3,0.1,1.4-0.5,2.6c-0.1,0.2-0.2,0.3-0.3,0.5c-0.2,0.3-0.3,0.5-0.5,0.7c-1.1,1.2-2.7,1.8-4.9,1.8
						c-0.5,0-1-0.4-1-0.9c0-0.5,0.4-1,1-1c1.6,0,2.7-0.4,3.4-1.2c0.9-1,0.8-2.4,0.8-2.5l0-0.1v0c0-0.4,0-1.5-1.9-2.2
						c-1.1-0.4-2.3-0.4-2.3-0.4l-0.9,0v-4.6c0-4,2.1-6.1,3.9-7.1c1.9-1.1,3.7-1.2,3.8-1.2h0.1c3.7,0,5.8,1.9,6.8,3.7
						c0,0,0.1,0.1,0.1,0.1c0.1,0.1,0.1,0.3,0.2,0.4C38,24.7,38,26.6,38,26.7z"/>
				</g>
				<path class="st7" d="M40.3,21.6c-0.5-1.1-1.1-2-1.8-2.8c0,0,0,0,0,0c-1.2-1.4-2.7-2.4-4.6-3.1c-2-0.7-4.3-0.8-6.4-0.3
					c-2.2,0.5-4.1,1.7-5.4,3.2c-1.4,1.6-2.2,3.7-2.3,5.8c0,0.5-0.5,0.9-1,0.9c-0.1,0-0.1,0-0.2,0l-1.4,22c0,0,0.1,0,0.1,0
					c0.5,0,0.9,0.4,0.9,1c0,1.6,0.7,3.2,1.8,4.3c0.1,0.1,0.2,0.2,0.3,0.2c0.2,0.1,0.4,0.3,0.6,0.4c1.9,1.2,4.5,1.2,6.3-0.2
					c1.5-1.1,2.4-2.9,3.3-4.7c0.2-0.4,0.4-0.9,0.7-1.3c1.2-2.2,2.7-4,4.3-5.7c1.8-2,3.5-4,4.5-6.4C41.8,30.5,42,25.4,40.3,21.6z
					 M37.1,27.7c-0.5,0-1-0.4-1-0.9c0,0,0-1.1-0.5-2.3v0c0-0.1-0.1-0.2-0.1-0.3v0c-0.1-0.2-0.2-0.5-0.3-0.7c-1-2-2.8-3.1-5.3-3.1
					c-0.2,0-1.6,0.2-3,1C25,22.5,24,24.3,24,26.8v2.7c0.5,0.1,1.3,0.2,2,0.5c2.1,0.7,3.2,2.2,3.2,4c0,0.3,0.1,1.4-0.5,2.6
					c-0.1,0.2-0.2,0.3-0.3,0.5c-0.2,0.3-0.3,0.5-0.5,0.7c-1.1,1.2-2.7,1.8-4.9,1.8c-0.5,0-1-0.4-1-0.9c0-0.5,0.4-1,1-1
					c1.6,0,2.7-0.4,3.4-1.2c0.9-1,0.8-2.4,0.8-2.5l0-0.1v0c0-0.4,0-1.5-1.9-2.2c-1.1-0.4-2.3-0.4-2.3-0.4l-0.9,0v-4.6
					c0-4,2.1-6.1,3.9-7.1c1.9-1.1,3.7-1.2,3.8-1.2h0.1c3.7,0,5.8,1.9,6.8,3.7c0,0,0.1,0.1,0.1,0.1c0.1,0.1,0.1,0.3,0.2,0.4
					c1,2,1.1,4,1.1,4.1C38,27.3,37.6,27.7,37.1,27.7z"/>
			</g>
		</g>
	</g>
</g>
</svg>
