<?xml version="1.0" encoding="utf-8"?>
<!-- Generator: Adobe Illustrator 19.2.0, SVG Export Plug-In . SVG Version: 6.00 Build 0)  -->
<!DOCTYPE svg PUBLIC "-//W3C//DTD SVG 1.1//EN" "http://www.w3.org/Graphics/SVG/1.1/DTD/svg11.dtd">
<svg version="1.1" id="Layer_1" xmlns="http://www.w3.org/2000/svg" xmlns:xlink="http://www.w3.org/1999/xlink" x="0px" y="0px"
	 width="361.4px" height="72px" viewBox="0 0 361.4 72" style="enable-background:new 0 0 361.4 72;" xml:space="preserve">
<style type="text/css">
	.st0{fill:#92BEB8;}
	.st1{fill:#FFF6C5;}
	.st2{fill:#333332;}
	.st3{fill:#F16E6A;}
	.st4{fill:#6CC1D9;}
	.st5{fill:#64B1C6;}
	.st6{fill:#FFCB5C;}
</style>
<g>
	<path class="st0" d="M331.5,8.7H32.5C16.4,8.7,3.3,21.8,3.3,37.9l0,0C3.3,54,16.4,67,32.5,67l298.8,0c0.1,0,0.2,0,0.3,0
		c16.1,0,29.2-13.1,29.2-29.2C360.7,21.8,347.6,8.7,331.5,8.7z"/>
	<g>
		<path class="st1" d="M29.8,5l299.1,0v58.3l-299.1,0c-16.1,0-29.1-13.1-29.1-29.1v0C0.7,18,13.7,5,29.8,5z"/>
		<g>
			<g>
				<path class="st2" d="M34,28.4h1v6.2h3.2v0.9H34V28.4z"/>
				<path class="st2" d="M38.8,33.1c0-0.3,0.1-0.7,0.2-1c0.1-0.3,0.3-0.6,0.5-0.8c0.2-0.2,0.5-0.4,0.8-0.5s0.6-0.2,1-0.2
					c0.4,0,0.7,0.1,1,0.2s0.6,0.3,0.8,0.5s0.4,0.5,0.5,0.8c0.1,0.3,0.2,0.6,0.2,1s-0.1,0.7-0.2,1s-0.3,0.6-0.5,0.8
					c-0.2,0.2-0.5,0.4-0.8,0.5c-0.3,0.1-0.6,0.2-1,0.2c-0.4,0-0.7-0.1-1-0.2c-0.3-0.1-0.6-0.3-0.8-0.5c-0.2-0.2-0.4-0.5-0.5-0.8
					S38.8,33.5,38.8,33.1z M39.7,33.1c0,0.2,0,0.5,0.1,0.7c0.1,0.2,0.2,0.4,0.3,0.5c0.1,0.1,0.3,0.3,0.5,0.3
					c0.2,0.1,0.4,0.1,0.7,0.1c0.2,0,0.5,0,0.6-0.1c0.2-0.1,0.4-0.2,0.5-0.3c0.1-0.1,0.2-0.3,0.3-0.5c0.1-0.2,0.1-0.4,0.1-0.7
					c0-0.2,0-0.5-0.1-0.7c-0.1-0.2-0.2-0.4-0.3-0.5c-0.1-0.1-0.3-0.3-0.5-0.3s-0.4-0.1-0.6-0.1c-0.2,0-0.5,0-0.7,0.1
					s-0.4,0.2-0.5,0.3c-0.1,0.1-0.2,0.3-0.3,0.5C39.8,32.7,39.7,32.9,39.7,33.1z"/>
				<path class="st2" d="M44.9,30.8h0.9v0.7h0c0.1-0.3,0.3-0.5,0.6-0.6c0.3-0.2,0.6-0.2,1-0.2c0.2,0,0.4,0,0.7,0.1
					c0.2,0.1,0.4,0.2,0.6,0.3c0.2,0.1,0.3,0.3,0.4,0.6c0.1,0.2,0.1,0.5,0.1,0.8v3h-0.9v-2.8c0-0.2,0-0.4-0.1-0.6
					c-0.1-0.2-0.1-0.3-0.2-0.4c-0.1-0.1-0.2-0.2-0.3-0.2c-0.1,0-0.3-0.1-0.4-0.1c-0.2,0-0.4,0-0.5,0.1s-0.3,0.2-0.4,0.3
					s-0.2,0.3-0.3,0.5c-0.1,0.2-0.1,0.4-0.1,0.7v2.4h-0.9V30.8z"/>
				<path class="st2" d="M55.2,35.5c0,0.4-0.1,0.7-0.2,1c-0.1,0.3-0.3,0.6-0.5,0.8c-0.2,0.2-0.5,0.4-0.8,0.5
					c-0.3,0.1-0.7,0.2-1.1,0.2c-0.5,0-0.9-0.1-1.2-0.2c-0.4-0.1-0.7-0.3-1.1-0.7l0.6-0.8c0.2,0.3,0.5,0.4,0.8,0.6
					c0.3,0.1,0.6,0.2,0.9,0.2c0.3,0,0.6,0,0.8-0.1s0.4-0.2,0.5-0.4c0.1-0.2,0.2-0.3,0.3-0.5c0.1-0.2,0.1-0.4,0.1-0.6v-0.7h0
					c-0.2,0.3-0.4,0.5-0.7,0.6s-0.6,0.2-0.9,0.2c-0.3,0-0.7-0.1-1-0.2c-0.3-0.1-0.6-0.3-0.8-0.5c-0.2-0.2-0.4-0.5-0.5-0.8
					c-0.1-0.3-0.2-0.6-0.2-1s0.1-0.7,0.2-1c0.1-0.3,0.3-0.6,0.5-0.8c0.2-0.2,0.5-0.4,0.8-0.5s0.6-0.2,1-0.2c0.3,0,0.6,0.1,0.9,0.2
					c0.3,0.1,0.5,0.3,0.7,0.6h0v-0.7h0.9V35.5z M52.8,31.5c-0.2,0-0.5,0-0.7,0.1s-0.4,0.2-0.5,0.3c-0.1,0.1-0.2,0.3-0.3,0.5
					c-0.1,0.2-0.1,0.4-0.1,0.7c0,0.5,0.1,0.9,0.4,1.2s0.7,0.4,1.1,0.4c0.5,0,0.9-0.1,1.1-0.4s0.4-0.7,0.4-1.2c0-0.2,0-0.5-0.1-0.7
					c-0.1-0.2-0.2-0.4-0.3-0.5c-0.1-0.1-0.3-0.3-0.5-0.3S53,31.5,52.8,31.5z"/>
				<path class="st2" d="M57.3,33.5c0,0.2,0,0.4,0.1,0.6c0.1,0.2,0.2,0.3,0.4,0.4s0.3,0.2,0.5,0.3c0.2,0.1,0.4,0.1,0.6,0.1
					c0.3,0,0.5-0.1,0.7-0.2c0.2-0.1,0.4-0.3,0.6-0.5l0.7,0.5c-0.5,0.6-1.2,1-2.1,1c-0.4,0-0.7-0.1-1-0.2c-0.3-0.1-0.6-0.3-0.8-0.5
					c-0.2-0.2-0.4-0.5-0.5-0.8c-0.1-0.3-0.2-0.6-0.2-1c0-0.4,0.1-0.7,0.2-1c0.1-0.3,0.3-0.6,0.5-0.8c0.2-0.2,0.5-0.4,0.8-0.5
					c0.3-0.1,0.6-0.2,1-0.2c0.4,0,0.8,0.1,1.1,0.2c0.3,0.1,0.5,0.3,0.7,0.6s0.3,0.5,0.4,0.8c0.1,0.3,0.1,0.6,0.1,0.9v0.3H57.3z
					 M60.1,32.7c0-0.2,0-0.4-0.1-0.6c-0.1-0.2-0.1-0.3-0.3-0.4c-0.1-0.1-0.3-0.2-0.4-0.3c-0.2-0.1-0.4-0.1-0.6-0.1
					c-0.2,0-0.4,0-0.6,0.1c-0.2,0.1-0.3,0.2-0.5,0.3s-0.2,0.3-0.3,0.4c-0.1,0.2-0.1,0.3-0.1,0.5H60.1z"/>
				<path class="st2" d="M64.7,32c-0.1-0.1-0.2-0.2-0.4-0.3c-0.2-0.1-0.3-0.1-0.6-0.1c-0.2,0-0.4,0-0.6,0.1
					c-0.2,0.1-0.2,0.2-0.2,0.4c0,0.1,0,0.3,0.1,0.3s0.2,0.2,0.3,0.2c0.1,0.1,0.3,0.1,0.4,0.1c0.1,0,0.3,0,0.4,0.1
					c0.2,0,0.4,0.1,0.5,0.2c0.2,0.1,0.3,0.2,0.4,0.3c0.1,0.1,0.2,0.2,0.3,0.4c0.1,0.2,0.1,0.3,0.1,0.6c0,0.3-0.1,0.5-0.2,0.7
					s-0.3,0.3-0.4,0.5c-0.2,0.1-0.4,0.2-0.6,0.3c-0.2,0.1-0.5,0.1-0.7,0.1c-0.4,0-0.7-0.1-1-0.2s-0.6-0.3-0.8-0.7l0.7-0.6
					c0.1,0.1,0.3,0.3,0.5,0.4c0.2,0.1,0.4,0.2,0.7,0.2c0.1,0,0.2,0,0.3,0c0.1,0,0.2-0.1,0.3-0.1c0.1,0,0.2-0.1,0.2-0.2
					c0.1-0.1,0.1-0.2,0.1-0.3c0-0.1,0-0.2-0.1-0.3c-0.1-0.1-0.2-0.2-0.3-0.2c-0.1,0-0.2-0.1-0.4-0.1c-0.1,0-0.2-0.1-0.3-0.1
					c-0.2,0-0.4-0.1-0.6-0.2c-0.2-0.1-0.3-0.1-0.5-0.2c-0.1-0.1-0.2-0.2-0.3-0.4S62,32.3,62,32.1c0-0.2,0.1-0.5,0.2-0.6
					c0.1-0.2,0.2-0.3,0.4-0.5s0.4-0.2,0.6-0.3s0.4-0.1,0.7-0.1c0.3,0,0.6,0.1,0.9,0.2c0.3,0.1,0.5,0.3,0.7,0.6L64.7,32z"/>
				<path class="st2" d="M69.1,31.5h-1.3v2.1c0,0.1,0,0.3,0,0.4s0,0.2,0.1,0.4s0.1,0.2,0.2,0.2s0.2,0.1,0.4,0.1c0.1,0,0.2,0,0.3,0
					s0.2-0.1,0.3-0.1v0.8c-0.1,0.1-0.2,0.1-0.4,0.1s-0.3,0-0.4,0c-0.3,0-0.6,0-0.8-0.1s-0.3-0.2-0.4-0.4S67,34.8,67,34.6
					s0-0.4,0-0.6v-2.5h-1v-0.8h1v-1.3h0.9v1.3h1.3V31.5z"/>
				<path class="st2" d="M73.2,27.9h0.9v7.6h-0.9V27.9z"/>
				<path class="st2" d="M75.3,29.1c0-0.2,0.1-0.3,0.2-0.5c0.1-0.1,0.3-0.2,0.5-0.2c0.2,0,0.3,0.1,0.5,0.2c0.1,0.1,0.2,0.3,0.2,0.5
					s-0.1,0.3-0.2,0.5s-0.3,0.2-0.5,0.2c-0.2,0-0.3-0.1-0.5-0.2C75.4,29.4,75.3,29.2,75.3,29.1z M75.6,30.8h0.9v4.7h-0.9V30.8z"/>
				<path class="st2" d="M77.3,30.8h1l1.4,3.6l1.4-3.6h1l-1.9,4.7h-1L77.3,30.8z"/>
				<path class="st2" d="M82.7,29.1c0-0.2,0.1-0.3,0.2-0.5c0.1-0.1,0.3-0.2,0.5-0.2s0.3,0.1,0.5,0.2c0.1,0.1,0.2,0.3,0.2,0.5
					s-0.1,0.3-0.2,0.5s-0.3,0.2-0.5,0.2s-0.3-0.1-0.5-0.2S82.7,29.2,82.7,29.1z M83,30.8h0.9v4.7H83V30.8z"/>
				<path class="st2" d="M85.3,30.8h0.9v0.7h0c0.1-0.3,0.3-0.5,0.6-0.6c0.3-0.2,0.6-0.2,1-0.2c0.2,0,0.4,0,0.7,0.1
					c0.2,0.1,0.4,0.2,0.6,0.3c0.2,0.1,0.3,0.3,0.4,0.6c0.1,0.2,0.1,0.5,0.1,0.8v3h-0.9v-2.8c0-0.2,0-0.4-0.1-0.6
					c-0.1-0.2-0.1-0.3-0.2-0.4c-0.1-0.1-0.2-0.2-0.3-0.2c-0.1,0-0.3-0.1-0.4-0.1c-0.2,0-0.4,0-0.5,0.1s-0.3,0.2-0.4,0.3
					s-0.2,0.3-0.3,0.5c-0.1,0.2-0.1,0.4-0.1,0.7v2.4h-0.9V30.8z"/>
				<path class="st2" d="M95.6,35.5c0,0.4-0.1,0.7-0.2,1c-0.1,0.3-0.3,0.6-0.5,0.8c-0.2,0.2-0.5,0.4-0.8,0.5
					c-0.3,0.1-0.7,0.2-1.1,0.2c-0.5,0-0.9-0.1-1.2-0.2c-0.4-0.1-0.7-0.3-1.1-0.7l0.6-0.8c0.2,0.3,0.5,0.4,0.8,0.6
					c0.3,0.1,0.6,0.2,0.9,0.2c0.3,0,0.6,0,0.8-0.1s0.4-0.2,0.5-0.4c0.1-0.2,0.2-0.3,0.3-0.5c0.1-0.2,0.1-0.4,0.1-0.6v-0.7h0
					c-0.2,0.3-0.4,0.5-0.7,0.6s-0.6,0.2-0.9,0.2c-0.3,0-0.7-0.1-1-0.2c-0.3-0.1-0.6-0.3-0.8-0.5c-0.2-0.2-0.4-0.5-0.5-0.8
					c-0.1-0.3-0.2-0.6-0.2-1s0.1-0.7,0.2-1c0.1-0.3,0.3-0.6,0.5-0.8c0.2-0.2,0.5-0.4,0.8-0.5s0.6-0.2,1-0.2c0.3,0,0.6,0.1,0.9,0.2
					c0.3,0.1,0.5,0.3,0.7,0.6h0v-0.7h0.9V35.5z M93.1,31.5c-0.2,0-0.5,0-0.7,0.1S92.1,31.8,92,32c-0.1,0.1-0.2,0.3-0.3,0.5
					c-0.1,0.2-0.1,0.4-0.1,0.7c0,0.5,0.1,0.9,0.4,1.2s0.7,0.4,1.1,0.4c0.5,0,0.9-0.1,1.1-0.4s0.4-0.7,0.4-1.2c0-0.2,0-0.5-0.1-0.7
					c-0.1-0.2-0.2-0.4-0.3-0.5c-0.1-0.1-0.3-0.3-0.5-0.3S93.4,31.5,93.1,31.5z"/>
				<path class="st2" d="M99.8,31.3c0.3-0.2,0.5-0.4,0.9-0.5s0.7-0.2,1-0.2c0.3,0,0.6,0,0.9,0.1c0.2,0.1,0.5,0.2,0.6,0.4
					c0.2,0.1,0.3,0.3,0.4,0.5c0.1,0.2,0.1,0.4,0.1,0.6v2.4c0,0.2,0,0.3,0,0.5s0,0.3,0,0.4h-0.8c0-0.2,0-0.5,0-0.7h0
					c-0.2,0.3-0.4,0.5-0.7,0.7c-0.3,0.1-0.6,0.2-1,0.2c-0.2,0-0.4,0-0.6-0.1c-0.2-0.1-0.4-0.1-0.5-0.3c-0.2-0.1-0.3-0.3-0.4-0.4
					c-0.1-0.2-0.1-0.4-0.1-0.6c0-0.3,0.1-0.6,0.2-0.8s0.3-0.4,0.6-0.5c0.2-0.1,0.5-0.2,0.8-0.3s0.7-0.1,1-0.1h0.7v-0.2
					c0-0.1,0-0.2-0.1-0.4s-0.1-0.2-0.2-0.3c-0.1-0.1-0.2-0.2-0.4-0.2c-0.1-0.1-0.3-0.1-0.5-0.1c-0.2,0-0.3,0-0.5,0.1
					c-0.1,0-0.2,0.1-0.4,0.1c-0.1,0-0.2,0.1-0.3,0.2c-0.1,0.1-0.2,0.1-0.2,0.2L99.8,31.3z M102.3,33.2c-0.2,0-0.4,0-0.7,0
					c-0.2,0-0.4,0.1-0.6,0.1c-0.2,0.1-0.3,0.2-0.5,0.3c-0.1,0.1-0.2,0.3-0.2,0.5c0,0.3,0.1,0.5,0.3,0.6c0.2,0.1,0.4,0.2,0.7,0.2
					c0.2,0,0.5,0,0.6-0.1c0.2-0.1,0.3-0.2,0.4-0.3s0.2-0.3,0.2-0.4c0-0.2,0.1-0.3,0.1-0.5v-0.3H102.3z"/>
				<path class="st2" d="M104.9,30.8h0.9v0.7h0c0.1-0.3,0.3-0.5,0.6-0.6c0.3-0.2,0.6-0.2,1-0.2c0.2,0,0.4,0,0.7,0.1
					c0.2,0.1,0.4,0.2,0.6,0.3c0.2,0.1,0.3,0.3,0.4,0.6c0.1,0.2,0.1,0.5,0.1,0.8v3h-0.9v-2.8c0-0.2,0-0.4-0.1-0.6
					c-0.1-0.2-0.1-0.3-0.2-0.4c-0.1-0.1-0.2-0.2-0.3-0.2c-0.1,0-0.3-0.1-0.4-0.1c-0.2,0-0.4,0-0.5,0.1s-0.3,0.2-0.4,0.3
					s-0.2,0.3-0.3,0.5c-0.1,0.2-0.1,0.4-0.1,0.7v2.4h-0.9V30.8z"/>
				<path class="st2" d="M110.3,29.1c0-0.2,0.1-0.3,0.2-0.5c0.1-0.1,0.3-0.2,0.5-0.2s0.3,0.1,0.5,0.2c0.1,0.1,0.2,0.3,0.2,0.5
					s-0.1,0.3-0.2,0.5s-0.3,0.2-0.5,0.2s-0.3-0.1-0.5-0.2S110.3,29.2,110.3,29.1z M110.6,30.8h0.9v4.7h-0.9V30.8z"/>
				<path class="st2" d="M112.9,30.8h0.8v0.7h0c0-0.1,0.1-0.1,0.2-0.2c0.1-0.1,0.2-0.2,0.3-0.3c0.1-0.1,0.3-0.2,0.5-0.2
					c0.2-0.1,0.4-0.1,0.6-0.1c0.4,0,0.7,0.1,0.9,0.2c0.2,0.1,0.4,0.4,0.6,0.7c0.2-0.3,0.4-0.5,0.6-0.7c0.3-0.1,0.6-0.2,0.9-0.2
					c0.4,0,0.7,0.1,0.9,0.2c0.2,0.1,0.4,0.3,0.6,0.5c0.1,0.2,0.2,0.4,0.3,0.7s0.1,0.5,0.1,0.8v2.8h-0.9v-2.6c0-0.2,0-0.4,0-0.5
					c0-0.2-0.1-0.3-0.1-0.4c-0.1-0.1-0.2-0.2-0.3-0.3c-0.1-0.1-0.3-0.1-0.5-0.1c-0.4,0-0.7,0.1-0.9,0.4c-0.2,0.3-0.3,0.6-0.3,1v2.6
					H116V33c0-0.2,0-0.4,0-0.6c0-0.2-0.1-0.3-0.1-0.5s-0.2-0.2-0.3-0.3s-0.3-0.1-0.5-0.1c-0.2,0-0.3,0-0.5,0.1s-0.3,0.2-0.4,0.3
					c-0.1,0.1-0.2,0.3-0.3,0.5c-0.1,0.2-0.1,0.4-0.1,0.7v2.5h-0.9V30.8z"/>
				<path class="st2" d="M121.4,31.3c0.3-0.2,0.5-0.4,0.9-0.5s0.7-0.2,1-0.2c0.3,0,0.6,0,0.9,0.1c0.2,0.1,0.5,0.2,0.6,0.4
					c0.2,0.1,0.3,0.3,0.4,0.5c0.1,0.2,0.1,0.4,0.1,0.6v2.4c0,0.2,0,0.3,0,0.5s0,0.3,0,0.4h-0.8c0-0.2,0-0.5,0-0.7h0
					c-0.2,0.3-0.4,0.5-0.7,0.7c-0.3,0.1-0.6,0.2-1,0.2c-0.2,0-0.4,0-0.6-0.1c-0.2-0.1-0.4-0.1-0.5-0.3c-0.2-0.1-0.3-0.3-0.4-0.4
					c-0.1-0.2-0.1-0.4-0.1-0.6c0-0.3,0.1-0.6,0.2-0.8s0.3-0.4,0.6-0.5c0.2-0.1,0.5-0.2,0.8-0.3s0.7-0.1,1-0.1h0.7v-0.2
					c0-0.1,0-0.2-0.1-0.4s-0.1-0.2-0.2-0.3c-0.1-0.1-0.2-0.2-0.4-0.2c-0.1-0.1-0.3-0.1-0.5-0.1c-0.2,0-0.3,0-0.5,0.1
					c-0.1,0-0.2,0.1-0.4,0.1c-0.1,0-0.2,0.1-0.3,0.2c-0.1,0.1-0.2,0.1-0.2,0.2L121.4,31.3z M124,33.2c-0.2,0-0.4,0-0.7,0
					c-0.2,0-0.4,0.1-0.6,0.1c-0.2,0.1-0.3,0.2-0.5,0.3c-0.1,0.1-0.2,0.3-0.2,0.5c0,0.3,0.1,0.5,0.3,0.6c0.2,0.1,0.4,0.2,0.7,0.2
					c0.2,0,0.5,0,0.6-0.1c0.2-0.1,0.3-0.2,0.4-0.3s0.2-0.3,0.2-0.4c0-0.2,0.1-0.3,0.1-0.5v-0.3H124z"/>
				<path class="st2" d="M126.7,27.9h0.9v7.6h-0.9V27.9z"/>
				<path class="st2" d="M131.6,29.1c0-0.2,0.1-0.3,0.2-0.5c0.1-0.1,0.3-0.2,0.5-0.2c0.2,0,0.3,0.1,0.5,0.2c0.1,0.1,0.2,0.3,0.2,0.5
					s-0.1,0.3-0.2,0.5s-0.3,0.2-0.5,0.2c-0.2,0-0.3-0.1-0.5-0.2C131.7,29.4,131.6,29.2,131.6,29.1z M131.8,30.8h0.9v4.7h-0.9V30.8z"
					/>
				<path class="st2" d="M136.7,32c-0.1-0.1-0.2-0.2-0.4-0.3c-0.2-0.1-0.3-0.1-0.6-0.1c-0.2,0-0.4,0-0.6,0.1
					c-0.2,0.1-0.2,0.2-0.2,0.4c0,0.1,0,0.3,0.1,0.3s0.2,0.2,0.3,0.2c0.1,0.1,0.3,0.1,0.4,0.1c0.1,0,0.3,0,0.4,0.1
					c0.2,0,0.4,0.1,0.5,0.2c0.2,0.1,0.3,0.2,0.4,0.3c0.1,0.1,0.2,0.2,0.3,0.4c0.1,0.2,0.1,0.3,0.1,0.6c0,0.3-0.1,0.5-0.2,0.7
					s-0.3,0.3-0.4,0.5c-0.2,0.1-0.4,0.2-0.6,0.3c-0.2,0.1-0.5,0.1-0.7,0.1c-0.4,0-0.7-0.1-1-0.2s-0.6-0.3-0.8-0.7l0.7-0.6
					c0.1,0.1,0.3,0.3,0.5,0.4c0.2,0.1,0.4,0.2,0.7,0.2c0.1,0,0.2,0,0.3,0c0.1,0,0.2-0.1,0.3-0.1c0.1,0,0.2-0.1,0.2-0.2
					c0.1-0.1,0.1-0.2,0.1-0.3c0-0.1,0-0.2-0.1-0.3c-0.1-0.1-0.2-0.2-0.3-0.2c-0.1,0-0.2-0.1-0.4-0.1c-0.1,0-0.2-0.1-0.3-0.1
					c-0.2,0-0.4-0.1-0.6-0.2c-0.2-0.1-0.3-0.1-0.5-0.2c-0.1-0.1-0.2-0.2-0.3-0.4s-0.1-0.3-0.1-0.6c0-0.2,0.1-0.5,0.2-0.6
					c0.1-0.2,0.2-0.3,0.4-0.5s0.4-0.2,0.6-0.3s0.4-0.1,0.7-0.1c0.3,0,0.6,0.1,0.9,0.2c0.3,0.1,0.5,0.3,0.7,0.6L136.7,32z"/>
				<path class="st2" d="M141.4,31.3c0.3-0.2,0.5-0.4,0.9-0.5s0.7-0.2,1-0.2c0.3,0,0.6,0,0.9,0.1c0.2,0.1,0.5,0.2,0.6,0.4
					c0.2,0.1,0.3,0.3,0.4,0.5c0.1,0.2,0.1,0.4,0.1,0.6v2.4c0,0.2,0,0.3,0,0.5s0,0.3,0,0.4h-0.8c0-0.2,0-0.5,0-0.7h0
					c-0.2,0.3-0.4,0.5-0.7,0.7c-0.3,0.1-0.6,0.2-1,0.2c-0.2,0-0.4,0-0.6-0.1c-0.2-0.1-0.4-0.1-0.5-0.3c-0.2-0.1-0.3-0.3-0.4-0.4
					c-0.1-0.2-0.1-0.4-0.1-0.6c0-0.3,0.1-0.6,0.2-0.8s0.3-0.4,0.6-0.5c0.2-0.1,0.5-0.2,0.8-0.3s0.7-0.1,1-0.1h0.7v-0.2
					c0-0.1,0-0.2-0.1-0.4s-0.1-0.2-0.2-0.3c-0.1-0.1-0.2-0.2-0.4-0.2c-0.1-0.1-0.3-0.1-0.5-0.1c-0.2,0-0.3,0-0.5,0.1
					c-0.1,0-0.2,0.1-0.4,0.1c-0.1,0-0.2,0.1-0.3,0.2c-0.1,0.1-0.2,0.1-0.2,0.2L141.4,31.3z M144,33.2c-0.2,0-0.4,0-0.7,0
					c-0.2,0-0.4,0.1-0.6,0.1c-0.2,0.1-0.3,0.2-0.5,0.3c-0.1,0.1-0.2,0.3-0.2,0.5c0,0.3,0.1,0.5,0.3,0.6c0.2,0.1,0.4,0.2,0.7,0.2
					c0.2,0,0.5,0,0.6-0.1c0.2-0.1,0.3-0.2,0.4-0.3s0.2-0.3,0.2-0.4c0-0.2,0.1-0.3,0.1-0.5v-0.3H144z"/>
				<path class="st2" d="M154.1,37.8h-0.9v-3h0c-0.2,0.2-0.4,0.4-0.7,0.6c-0.3,0.1-0.6,0.2-1,0.2c-0.4,0-0.7-0.1-1-0.2
					c-0.3-0.1-0.5-0.3-0.8-0.5c-0.2-0.2-0.4-0.5-0.5-0.8c-0.1-0.3-0.2-0.6-0.2-1c0-0.3,0.1-0.7,0.2-1c0.1-0.3,0.3-0.6,0.5-0.8
					c0.2-0.2,0.5-0.4,0.8-0.5s0.6-0.2,1-0.2c0.3,0,0.6,0.1,0.9,0.2c0.3,0.1,0.5,0.3,0.7,0.6h0v-0.7h0.9V37.8z M151.7,31.5
					c-0.2,0-0.5,0-0.7,0.1s-0.4,0.2-0.5,0.3c-0.1,0.1-0.2,0.3-0.3,0.5c-0.1,0.2-0.1,0.4-0.1,0.7c0,0.2,0,0.5,0.1,0.7
					c0.1,0.2,0.2,0.4,0.3,0.5c0.1,0.1,0.3,0.3,0.5,0.3c0.2,0.1,0.4,0.1,0.7,0.1c0.2,0,0.5,0,0.6-0.1c0.2-0.1,0.4-0.2,0.5-0.3
					c0.1-0.1,0.2-0.3,0.3-0.5c0.1-0.2,0.1-0.4,0.1-0.7c0-0.2,0-0.5-0.1-0.7c-0.1-0.2-0.2-0.4-0.3-0.5c-0.1-0.1-0.3-0.3-0.5-0.3
					S151.9,31.5,151.7,31.5z"/>
				<path class="st2" d="M159.7,35.5h-0.9v-0.7h0c-0.1,0.3-0.3,0.5-0.6,0.6c-0.3,0.2-0.6,0.2-1,0.2c-0.2,0-0.5,0-0.7-0.1
					c-0.2-0.1-0.4-0.2-0.5-0.3c-0.2-0.1-0.3-0.3-0.4-0.6c-0.1-0.2-0.1-0.5-0.1-0.8v-3.1h0.9v2.8c0,0.2,0,0.4,0.1,0.6
					c0.1,0.2,0.1,0.3,0.2,0.4c0.1,0.1,0.2,0.2,0.3,0.2c0.1,0,0.3,0.1,0.4,0.1c0.2,0,0.4,0,0.5-0.1s0.3-0.2,0.4-0.3
					c0.1-0.1,0.2-0.3,0.3-0.5c0.1-0.2,0.1-0.4,0.1-0.7v-2.4h0.9V35.5z"/>
				<path class="st2" d="M161.1,31.3c0.3-0.2,0.5-0.4,0.9-0.5s0.7-0.2,1-0.2c0.3,0,0.6,0,0.9,0.1c0.2,0.1,0.5,0.2,0.6,0.4
					c0.2,0.1,0.3,0.3,0.4,0.5c0.1,0.2,0.1,0.4,0.1,0.6v2.4c0,0.2,0,0.3,0,0.5s0,0.3,0,0.4h-0.8c0-0.2,0-0.5,0-0.7h0
					c-0.2,0.3-0.4,0.5-0.7,0.7c-0.3,0.1-0.6,0.2-1,0.2c-0.2,0-0.4,0-0.6-0.1c-0.2-0.1-0.4-0.1-0.5-0.3c-0.2-0.1-0.3-0.3-0.4-0.4
					c-0.1-0.2-0.1-0.4-0.1-0.6c0-0.3,0.1-0.6,0.2-0.8s0.3-0.4,0.6-0.5c0.2-0.1,0.5-0.2,0.8-0.3s0.7-0.1,1-0.1h0.7v-0.2
					c0-0.1,0-0.2-0.1-0.4s-0.1-0.2-0.2-0.3c-0.1-0.1-0.2-0.2-0.4-0.2c-0.1-0.1-0.3-0.1-0.5-0.1c-0.2,0-0.3,0-0.5,0.1
					c-0.1,0-0.2,0.1-0.4,0.1c-0.1,0-0.2,0.1-0.3,0.2c-0.1,0.1-0.2,0.1-0.2,0.2L161.1,31.3z M163.6,33.2c-0.2,0-0.4,0-0.7,0
					c-0.2,0-0.4,0.1-0.6,0.1c-0.2,0.1-0.3,0.2-0.5,0.3c-0.1,0.1-0.2,0.3-0.2,0.5c0,0.3,0.1,0.5,0.3,0.6c0.2,0.1,0.4,0.2,0.7,0.2
					c0.2,0,0.5,0,0.6-0.1c0.2-0.1,0.3-0.2,0.4-0.3s0.2-0.3,0.2-0.4c0-0.2,0.1-0.3,0.1-0.5v-0.3H163.6z"/>
				<path class="st2" d="M166.2,27.9h0.9v3.6h0c0.1-0.3,0.3-0.5,0.6-0.6c0.3-0.2,0.6-0.2,1-0.2c0.2,0,0.4,0,0.7,0.1
					c0.2,0.1,0.4,0.2,0.6,0.3c0.2,0.1,0.3,0.3,0.4,0.6c0.1,0.2,0.1,0.5,0.1,0.8v3h-0.9v-2.8c0-0.2,0-0.4-0.1-0.6
					c-0.1-0.2-0.1-0.3-0.2-0.4c-0.1-0.1-0.2-0.2-0.3-0.2c-0.1,0-0.3-0.1-0.4-0.1c-0.2,0-0.4,0-0.5,0.1s-0.3,0.2-0.4,0.3
					s-0.2,0.3-0.3,0.5c-0.1,0.2-0.1,0.4-0.1,0.7v2.4h-0.9V27.9z"/>
				<path class="st2" d="M171.6,33.1c0-0.3,0.1-0.7,0.2-1c0.1-0.3,0.3-0.6,0.5-0.8c0.2-0.2,0.5-0.4,0.8-0.5s0.6-0.2,1-0.2
					c0.4,0,0.7,0.1,1,0.2s0.6,0.3,0.8,0.5s0.4,0.5,0.5,0.8c0.1,0.3,0.2,0.6,0.2,1s-0.1,0.7-0.2,1s-0.3,0.6-0.5,0.8
					c-0.2,0.2-0.5,0.4-0.8,0.5c-0.3,0.1-0.6,0.2-1,0.2c-0.4,0-0.7-0.1-1-0.2c-0.3-0.1-0.6-0.3-0.8-0.5c-0.2-0.2-0.4-0.5-0.5-0.8
					S171.6,33.5,171.6,33.1z M172.5,33.1c0,0.2,0,0.5,0.1,0.7c0.1,0.2,0.2,0.4,0.3,0.5c0.1,0.1,0.3,0.3,0.5,0.3
					c0.2,0.1,0.4,0.1,0.7,0.1c0.2,0,0.5,0,0.6-0.1c0.2-0.1,0.4-0.2,0.5-0.3c0.1-0.1,0.2-0.3,0.3-0.5c0.1-0.2,0.1-0.4,0.1-0.7
					c0-0.2,0-0.5-0.1-0.7c-0.1-0.2-0.2-0.4-0.3-0.5c-0.1-0.1-0.3-0.3-0.5-0.3s-0.4-0.1-0.6-0.1c-0.2,0-0.5,0-0.7,0.1
					s-0.4,0.2-0.5,0.3c-0.1,0.1-0.2,0.3-0.3,0.5C172.5,32.7,172.5,32.9,172.5,33.1z"/>
				<path class="st2" d="M182.5,35.5c0,0.4-0.1,0.7-0.2,1c-0.1,0.3-0.3,0.6-0.5,0.8s-0.5,0.4-0.8,0.5c-0.3,0.1-0.7,0.2-1.1,0.2
					c-0.5,0-0.9-0.1-1.2-0.2s-0.7-0.3-1.1-0.7l0.6-0.8c0.2,0.3,0.5,0.4,0.8,0.6c0.3,0.1,0.6,0.2,0.9,0.2c0.3,0,0.6,0,0.8-0.1
					c0.2-0.1,0.4-0.2,0.5-0.4s0.2-0.3,0.3-0.5c0.1-0.2,0.1-0.4,0.1-0.6v-0.7h0c-0.2,0.3-0.4,0.5-0.7,0.6s-0.6,0.2-0.9,0.2
					c-0.3,0-0.7-0.1-1-0.2c-0.3-0.1-0.6-0.3-0.8-0.5c-0.2-0.2-0.4-0.5-0.5-0.8c-0.1-0.3-0.2-0.6-0.2-1s0.1-0.7,0.2-1
					c0.1-0.3,0.3-0.6,0.5-0.8c0.2-0.2,0.5-0.4,0.8-0.5c0.3-0.1,0.6-0.2,1-0.2c0.3,0,0.6,0.1,0.9,0.2c0.3,0.1,0.5,0.3,0.7,0.6h0v-0.7
					h0.9V35.5z M180,31.5c-0.2,0-0.5,0-0.7,0.1s-0.4,0.2-0.5,0.3c-0.1,0.1-0.2,0.3-0.3,0.5c-0.1,0.2-0.1,0.4-0.1,0.7
					c0,0.5,0.1,0.9,0.4,1.2c0.3,0.3,0.7,0.4,1.1,0.4c0.5,0,0.9-0.1,1.1-0.4c0.3-0.3,0.4-0.7,0.4-1.2c0-0.2,0-0.5-0.1-0.7
					c-0.1-0.2-0.2-0.4-0.3-0.5c-0.1-0.1-0.3-0.3-0.5-0.3S180.3,31.5,180,31.5z"/>
				<path class="st2" d="M190,32c-0.2-0.2-0.3-0.3-0.5-0.4s-0.4-0.1-0.7-0.1c-0.2,0-0.5,0-0.6,0.1c-0.2,0.1-0.3,0.2-0.5,0.4
					c-0.1,0.2-0.2,0.3-0.3,0.5c-0.1,0.2-0.1,0.4-0.1,0.6c0,0.2,0,0.4,0.1,0.6c0.1,0.2,0.2,0.4,0.3,0.5c0.1,0.1,0.3,0.3,0.5,0.3
					c0.2,0.1,0.4,0.1,0.6,0.1c0.3,0,0.5,0,0.7-0.1s0.3-0.2,0.5-0.4l0.6,0.6c-0.2,0.3-0.5,0.4-0.8,0.6c-0.3,0.1-0.6,0.2-1,0.2
					c-0.4,0-0.7-0.1-1-0.2s-0.6-0.3-0.8-0.5s-0.4-0.5-0.5-0.8c-0.1-0.3-0.2-0.6-0.2-1s0.1-0.7,0.2-1s0.3-0.6,0.5-0.8
					c0.2-0.2,0.5-0.4,0.8-0.5c0.3-0.1,0.6-0.2,1-0.2c0.3,0,0.7,0.1,1,0.2c0.3,0.1,0.6,0.3,0.8,0.6L190,32z"/>
				<path class="st2" d="M191.5,27.9h0.9v7.6h-0.9V27.9z"/>
				<path class="st2" d="M193.9,31.3c0.3-0.2,0.5-0.4,0.9-0.5c0.3-0.1,0.7-0.2,1-0.2c0.3,0,0.6,0,0.9,0.1c0.2,0.1,0.5,0.2,0.6,0.4
					s0.3,0.3,0.4,0.5c0.1,0.2,0.1,0.4,0.1,0.6v2.4c0,0.2,0,0.3,0,0.5c0,0.1,0,0.3,0,0.4h-0.8c0-0.2,0-0.5,0-0.7h0
					c-0.2,0.3-0.4,0.5-0.7,0.7c-0.3,0.1-0.6,0.2-1,0.2c-0.2,0-0.4,0-0.6-0.1c-0.2-0.1-0.4-0.1-0.5-0.3c-0.1-0.1-0.3-0.3-0.4-0.4
					c-0.1-0.2-0.1-0.4-0.1-0.6c0-0.3,0.1-0.6,0.2-0.8s0.3-0.4,0.6-0.5c0.2-0.1,0.5-0.2,0.8-0.3s0.7-0.1,1-0.1h0.7v-0.2
					c0-0.1,0-0.2-0.1-0.4c0-0.1-0.1-0.2-0.2-0.3c-0.1-0.1-0.2-0.2-0.3-0.2c-0.1-0.1-0.3-0.1-0.5-0.1c-0.2,0-0.3,0-0.5,0.1
					s-0.2,0.1-0.4,0.1c-0.1,0-0.2,0.1-0.3,0.2c-0.1,0.1-0.2,0.1-0.2,0.2L193.9,31.3z M196.4,33.2c-0.2,0-0.4,0-0.7,0
					c-0.2,0-0.4,0.1-0.6,0.1c-0.2,0.1-0.3,0.2-0.5,0.3c-0.1,0.1-0.2,0.3-0.2,0.5c0,0.3,0.1,0.5,0.3,0.6c0.2,0.1,0.4,0.2,0.7,0.2
					c0.2,0,0.5,0,0.6-0.1c0.2-0.1,0.3-0.2,0.4-0.3s0.2-0.3,0.2-0.4c0-0.2,0.1-0.3,0.1-0.5v-0.3H196.4z"/>
				<path class="st2" d="M199,30.8h0.8v0.7h0c0-0.1,0.1-0.1,0.2-0.2c0.1-0.1,0.2-0.2,0.3-0.3c0.1-0.1,0.3-0.2,0.5-0.2
					c0.2-0.1,0.4-0.1,0.6-0.1c0.4,0,0.6,0.1,0.9,0.2c0.2,0.1,0.4,0.4,0.6,0.7c0.2-0.3,0.4-0.5,0.7-0.7c0.3-0.1,0.6-0.2,0.8-0.2
					c0.4,0,0.7,0.1,0.9,0.2c0.2,0.1,0.4,0.3,0.5,0.5c0.1,0.2,0.2,0.4,0.3,0.7c0,0.2,0.1,0.5,0.1,0.8v2.8h-0.9v-2.6
					c0-0.2,0-0.4,0-0.5c0-0.2-0.1-0.3-0.1-0.4c-0.1-0.1-0.2-0.2-0.3-0.3s-0.3-0.1-0.5-0.1c-0.4,0-0.7,0.1-0.9,0.4s-0.3,0.6-0.3,1
					v2.6h-0.9V33c0-0.2,0-0.4,0-0.6c0-0.2-0.1-0.3-0.1-0.5c-0.1-0.1-0.2-0.2-0.3-0.3s-0.3-0.1-0.5-0.1c-0.2,0-0.3,0-0.5,0.1
					c-0.2,0.1-0.3,0.2-0.4,0.3c-0.1,0.1-0.2,0.3-0.3,0.5c-0.1,0.2-0.1,0.4-0.1,0.7v2.5H199V30.8z"/>
				<path class="st2" d="M208.2,36.8h-0.8l0.7-2.5h1L208.2,36.8z"/>
				<path class="st2" d="M215.6,31.5h-1.3v2.1c0,0.1,0,0.3,0,0.4s0,0.2,0.1,0.4s0.1,0.2,0.2,0.2s0.2,0.1,0.4,0.1c0.1,0,0.2,0,0.3,0
					s0.2-0.1,0.3-0.1v0.8c-0.1,0.1-0.2,0.1-0.4,0.1s-0.3,0-0.4,0c-0.3,0-0.6,0-0.8-0.1s-0.3-0.2-0.4-0.4s-0.1-0.3-0.2-0.5
					s0-0.4,0-0.6v-2.5h-1v-0.8h1v-1.3h0.9v1.3h1.3V31.5z"/>
				<path class="st2" d="M216.8,27.9h0.9v3.6h0c0.1-0.3,0.3-0.5,0.6-0.6c0.3-0.2,0.6-0.2,1-0.2c0.2,0,0.4,0,0.7,0.1
					c0.2,0.1,0.4,0.2,0.6,0.3c0.2,0.1,0.3,0.3,0.4,0.6c0.1,0.2,0.1,0.5,0.1,0.8v3h-0.9v-2.8c0-0.2,0-0.4-0.1-0.6
					c-0.1-0.2-0.1-0.3-0.2-0.4c-0.1-0.1-0.2-0.2-0.3-0.2c-0.1,0-0.3-0.1-0.4-0.1c-0.2,0-0.4,0-0.5,0.1s-0.3,0.2-0.4,0.3
					s-0.2,0.3-0.3,0.5c-0.1,0.2-0.1,0.4-0.1,0.7v2.4h-0.9V27.9z"/>
				<path class="st2" d="M223,33.5c0,0.2,0,0.4,0.1,0.6s0.2,0.3,0.4,0.4c0.1,0.1,0.3,0.2,0.5,0.3c0.2,0.1,0.4,0.1,0.6,0.1
					c0.3,0,0.5-0.1,0.7-0.2c0.2-0.1,0.4-0.3,0.6-0.5l0.7,0.5c-0.5,0.6-1.2,1-2.1,1c-0.4,0-0.7-0.1-1-0.2c-0.3-0.1-0.6-0.3-0.8-0.5
					c-0.2-0.2-0.4-0.5-0.5-0.8c-0.1-0.3-0.2-0.6-0.2-1c0-0.4,0.1-0.7,0.2-1c0.1-0.3,0.3-0.6,0.5-0.8c0.2-0.2,0.5-0.4,0.8-0.5
					s0.6-0.2,1-0.2c0.4,0,0.8,0.1,1.1,0.2c0.3,0.1,0.5,0.3,0.7,0.6s0.3,0.5,0.4,0.8c0.1,0.3,0.1,0.6,0.1,0.9v0.3H223z M225.9,32.7
					c0-0.2,0-0.4-0.1-0.6c-0.1-0.2-0.1-0.3-0.3-0.4c-0.1-0.1-0.3-0.2-0.4-0.3c-0.2-0.1-0.4-0.1-0.6-0.1c-0.2,0-0.4,0-0.6,0.1
					c-0.2,0.1-0.3,0.2-0.5,0.3c-0.1,0.1-0.2,0.3-0.3,0.4c-0.1,0.2-0.1,0.3-0.1,0.5H225.9z"/>
				<path class="st2" d="M230.7,30.8h0.9v0.7h0c0.1-0.1,0.1-0.2,0.2-0.3c0.1-0.1,0.2-0.2,0.3-0.3c0.1-0.1,0.3-0.1,0.4-0.2
					s0.3-0.1,0.4-0.1c0.1,0,0.3,0,0.4,0.1l0,1c-0.1,0-0.1,0-0.2,0s-0.1,0-0.2,0c-0.4,0-0.8,0.1-1,0.4c-0.2,0.2-0.4,0.6-0.4,1.1v2.4
					h-0.9V30.8z"/>
				<path class="st2" d="M234.9,33.5c0,0.2,0,0.4,0.1,0.6c0.1,0.2,0.2,0.3,0.4,0.4s0.3,0.2,0.5,0.3c0.2,0.1,0.4,0.1,0.6,0.1
					c0.3,0,0.5-0.1,0.7-0.2c0.2-0.1,0.4-0.3,0.6-0.5l0.7,0.5c-0.5,0.6-1.2,1-2.1,1c-0.4,0-0.7-0.1-1-0.2c-0.3-0.1-0.6-0.3-0.8-0.5
					c-0.2-0.2-0.4-0.5-0.5-0.8c-0.1-0.3-0.2-0.6-0.2-1c0-0.4,0.1-0.7,0.2-1c0.1-0.3,0.3-0.6,0.5-0.8c0.2-0.2,0.5-0.4,0.8-0.5
					c0.3-0.1,0.6-0.2,1-0.2c0.4,0,0.8,0.1,1.1,0.2c0.3,0.1,0.5,0.3,0.7,0.6s0.3,0.5,0.4,0.8c0.1,0.3,0.1,0.6,0.1,0.9v0.3H234.9z
					 M237.7,32.7c0-0.2,0-0.4-0.1-0.6c-0.1-0.2-0.1-0.3-0.3-0.4c-0.1-0.1-0.3-0.2-0.4-0.3c-0.2-0.1-0.4-0.1-0.6-0.1
					c-0.2,0-0.4,0-0.6,0.1c-0.2,0.1-0.3,0.2-0.5,0.3s-0.2,0.3-0.3,0.4c-0.1,0.2-0.1,0.3-0.1,0.5H237.7z"/>
				<path class="st2" d="M243.2,32c-0.2-0.2-0.3-0.3-0.5-0.4s-0.4-0.1-0.7-0.1c-0.2,0-0.5,0-0.6,0.1s-0.3,0.2-0.5,0.4
					s-0.2,0.3-0.3,0.5c-0.1,0.2-0.1,0.4-0.1,0.6c0,0.2,0,0.4,0.1,0.6c0.1,0.2,0.2,0.4,0.3,0.5c0.1,0.1,0.3,0.3,0.5,0.3
					c0.2,0.1,0.4,0.1,0.6,0.1c0.3,0,0.5,0,0.6-0.1c0.2-0.1,0.3-0.2,0.5-0.4l0.6,0.6c-0.2,0.3-0.5,0.4-0.8,0.6
					c-0.3,0.1-0.6,0.2-1,0.2c-0.4,0-0.7-0.1-1-0.2c-0.3-0.1-0.6-0.3-0.8-0.5c-0.2-0.2-0.4-0.5-0.5-0.8c-0.1-0.3-0.2-0.6-0.2-1
					s0.1-0.7,0.2-1s0.3-0.6,0.5-0.8c0.2-0.2,0.5-0.4,0.8-0.5c0.3-0.1,0.6-0.2,1-0.2c0.3,0,0.7,0.1,1,0.2c0.3,0.1,0.6,0.3,0.8,0.6
					L243.2,32z"/>
				<path class="st2" d="M244.4,33.1c0-0.3,0.1-0.7,0.2-1c0.1-0.3,0.3-0.6,0.5-0.8s0.5-0.4,0.8-0.5s0.6-0.2,1-0.2s0.7,0.1,1,0.2
					s0.6,0.3,0.8,0.5s0.4,0.5,0.5,0.8c0.1,0.3,0.2,0.6,0.2,1s-0.1,0.7-0.2,1s-0.3,0.6-0.5,0.8c-0.2,0.2-0.5,0.4-0.8,0.5
					c-0.3,0.1-0.6,0.2-1,0.2s-0.7-0.1-1-0.2c-0.3-0.1-0.6-0.3-0.8-0.5c-0.2-0.2-0.4-0.5-0.5-0.8S244.4,33.5,244.4,33.1z M245.3,33.1
					c0,0.2,0,0.5,0.1,0.7c0.1,0.2,0.2,0.4,0.3,0.5c0.1,0.1,0.3,0.3,0.5,0.3c0.2,0.1,0.4,0.1,0.7,0.1s0.5,0,0.7-0.1
					c0.2-0.1,0.4-0.2,0.5-0.3c0.1-0.1,0.2-0.3,0.3-0.5c0.1-0.2,0.1-0.4,0.1-0.7c0-0.2,0-0.5-0.1-0.7c-0.1-0.2-0.2-0.4-0.3-0.5
					c-0.1-0.1-0.3-0.3-0.5-0.3s-0.4-0.1-0.7-0.1s-0.5,0-0.7,0.1s-0.4,0.2-0.5,0.3c-0.1,0.1-0.2,0.3-0.3,0.5
					C245.4,32.7,245.3,32.9,245.3,33.1z"/>
				<path class="st2" d="M250.5,30.8h0.9v0.7h0c0.1-0.1,0.1-0.2,0.2-0.3c0.1-0.1,0.2-0.2,0.3-0.3c0.1-0.1,0.3-0.1,0.4-0.2
					s0.3-0.1,0.4-0.1c0.1,0,0.3,0,0.4,0.1l0,1c-0.1,0-0.1,0-0.2,0s-0.1,0-0.2,0c-0.4,0-0.8,0.1-1,0.4c-0.2,0.2-0.4,0.6-0.4,1.1v2.4
					h-0.9V30.8z"/>
				<path class="st2" d="M258.8,35.5h-0.9v-0.7h0c-0.2,0.3-0.4,0.5-0.7,0.6c-0.3,0.1-0.6,0.2-0.9,0.2c-0.4,0-0.7-0.1-1-0.2
					c-0.3-0.1-0.5-0.3-0.8-0.5c-0.2-0.2-0.4-0.5-0.5-0.8c-0.1-0.3-0.2-0.6-0.2-1c0-0.4,0.1-0.7,0.2-1s0.3-0.6,0.5-0.8
					c0.2-0.2,0.5-0.4,0.8-0.5s0.6-0.2,1-0.2c0.3,0,0.7,0.1,1,0.2c0.3,0.1,0.5,0.3,0.7,0.6h0v-3.5h0.9V35.5z M256.3,34.8
					c0.2,0,0.5,0,0.6-0.1c0.2-0.1,0.4-0.2,0.5-0.3c0.1-0.1,0.2-0.3,0.3-0.5c0.1-0.2,0.1-0.4,0.1-0.7c0-0.2,0-0.5-0.1-0.7
					c-0.1-0.2-0.2-0.4-0.3-0.5c-0.1-0.1-0.3-0.3-0.5-0.3s-0.4-0.1-0.6-0.1c-0.2,0-0.5,0-0.7,0.1s-0.4,0.2-0.5,0.3
					c-0.1,0.1-0.2,0.3-0.3,0.5c-0.1,0.2-0.1,0.4-0.1,0.7c0,0.2,0,0.5,0.1,0.7c0.1,0.2,0.2,0.4,0.3,0.5c0.1,0.1,0.3,0.3,0.5,0.3
					C255.9,34.7,256.1,34.8,256.3,34.8z"/>
				<path class="st2" d="M262.8,29.1c0-0.2,0.1-0.3,0.2-0.5c0.1-0.1,0.3-0.2,0.5-0.2s0.3,0.1,0.5,0.2c0.1,0.1,0.2,0.3,0.2,0.5
					s-0.1,0.3-0.2,0.5s-0.3,0.2-0.5,0.2s-0.3-0.1-0.5-0.2S262.8,29.2,262.8,29.1z M263,30.8h0.9v4.7H263V30.8z"/>
				<path class="st2" d="M267.9,32c-0.1-0.1-0.2-0.2-0.4-0.3c-0.2-0.1-0.3-0.1-0.6-0.1c-0.2,0-0.4,0-0.6,0.1
					c-0.2,0.1-0.2,0.2-0.2,0.4c0,0.1,0,0.3,0.1,0.3c0.1,0.1,0.2,0.2,0.3,0.2s0.3,0.1,0.4,0.1c0.1,0,0.3,0,0.4,0.1
					c0.2,0,0.4,0.1,0.5,0.2c0.2,0.1,0.3,0.2,0.4,0.3c0.1,0.1,0.2,0.2,0.3,0.4c0.1,0.2,0.1,0.3,0.1,0.6c0,0.3-0.1,0.5-0.2,0.7
					s-0.3,0.3-0.4,0.5c-0.2,0.1-0.4,0.2-0.6,0.3c-0.2,0.1-0.5,0.1-0.7,0.1c-0.4,0-0.7-0.1-1-0.2c-0.3-0.1-0.6-0.3-0.8-0.7l0.7-0.6
					c0.1,0.1,0.3,0.3,0.5,0.4c0.2,0.1,0.4,0.2,0.7,0.2c0.1,0,0.2,0,0.3,0c0.1,0,0.2-0.1,0.3-0.1c0.1,0,0.2-0.1,0.2-0.2
					c0.1-0.1,0.1-0.2,0.1-0.3c0-0.1,0-0.2-0.1-0.3c-0.1-0.1-0.2-0.2-0.3-0.2c-0.1,0-0.2-0.1-0.4-0.1c-0.1,0-0.2-0.1-0.3-0.1
					c-0.2,0-0.4-0.1-0.5-0.2c-0.2-0.1-0.3-0.1-0.5-0.2c-0.1-0.1-0.2-0.2-0.3-0.4s-0.1-0.3-0.1-0.6c0-0.2,0.1-0.5,0.2-0.6
					s0.2-0.3,0.4-0.5s0.4-0.2,0.6-0.3s0.4-0.1,0.7-0.1c0.3,0,0.6,0.1,0.9,0.2c0.3,0.1,0.5,0.3,0.7,0.6L267.9,32z"/>
				<path class="st2" d="M36.5,45.9h-3v-1l2.8-4.5h1.2v4.7h1v0.8h-1v1.6h-1V45.9z M36.5,41.6L36.5,41.6l-2.2,3.5h2.2V41.6z"/>
				<path class="st2" d="M39,44c0-0.3,0-0.5,0-0.8c0-0.3,0.1-0.6,0.1-0.8s0.2-0.5,0.3-0.8c0.1-0.2,0.3-0.5,0.4-0.6
					c0.2-0.2,0.4-0.3,0.7-0.4c0.2-0.1,0.5-0.2,0.9-0.2s0.6,0.1,0.9,0.2c0.2,0.1,0.5,0.3,0.7,0.4c0.2,0.2,0.3,0.4,0.4,0.6
					c0.1,0.2,0.2,0.5,0.3,0.8s0.1,0.5,0.1,0.8c0,0.3,0,0.5,0,0.8c0,0.4,0,0.8-0.1,1.2s-0.2,0.8-0.4,1.2c-0.2,0.4-0.4,0.7-0.7,0.9
					c-0.3,0.2-0.7,0.4-1.2,0.4s-0.9-0.1-1.2-0.4c-0.3-0.2-0.6-0.5-0.7-0.9c-0.2-0.4-0.3-0.8-0.4-1.2C39.1,44.7,39,44.3,39,44z
					 M40,44c0,0.2,0,0.5,0,0.8c0,0.3,0.1,0.6,0.2,0.9c0.1,0.3,0.2,0.5,0.4,0.8c0.2,0.2,0.5,0.3,0.8,0.3s0.6-0.1,0.8-0.3
					c0.2-0.2,0.3-0.5,0.4-0.8c0.1-0.3,0.2-0.6,0.2-0.9c0-0.3,0-0.6,0-0.8c0-0.2,0-0.3,0-0.5c0-0.2,0-0.4-0.1-0.6
					c0-0.2-0.1-0.4-0.2-0.6c-0.1-0.2-0.2-0.4-0.3-0.5c-0.1-0.2-0.2-0.3-0.4-0.4c-0.2-0.1-0.4-0.1-0.6-0.1s-0.4,0-0.6,0.1
					c-0.2,0.1-0.3,0.2-0.4,0.4c-0.1,0.2-0.2,0.3-0.3,0.5c-0.1,0.2-0.1,0.4-0.2,0.6c0,0.2-0.1,0.4-0.1,0.6C40,43.6,40,43.8,40,44z"/>
				<path class="st2" d="M49,41.3h-2.9l0,1.8c0,0,0.1,0,0.2-0.1c0.1,0,0.2,0,0.3,0c0.1,0,0.2,0,0.3,0c0.1,0,0.2,0,0.2,0
					c0.3,0,0.6,0.1,0.9,0.2c0.3,0.1,0.5,0.3,0.7,0.5s0.3,0.5,0.4,0.7s0.2,0.6,0.2,0.9c0,0.4-0.1,0.7-0.2,1s-0.3,0.5-0.5,0.7
					c-0.2,0.2-0.5,0.4-0.8,0.5c-0.3,0.1-0.6,0.2-1,0.2c-0.5,0-0.9-0.1-1.3-0.4s-0.7-0.6-0.8-1.1l1-0.3c0.1,0.3,0.3,0.6,0.5,0.7
					c0.2,0.1,0.5,0.2,0.8,0.2c0.2,0,0.4,0,0.5-0.1c0.2-0.1,0.3-0.2,0.4-0.3c0.1-0.1,0.2-0.3,0.3-0.5c0.1-0.2,0.1-0.4,0.1-0.6
					c0-0.5-0.2-0.9-0.5-1.2c-0.3-0.3-0.7-0.4-1.2-0.4c-0.2,0-0.4,0-0.7,0.1s-0.5,0.2-0.8,0.3l0.1-3.7H49V41.3z"/>
				<path class="st2" d="M52.6,45.5h-2.5v-0.8h2.5V45.5z"/>
				<path class="st2" d="M56.3,45.9h-3v-1l2.8-4.5h1.2v4.7h1v0.8h-1v1.6h-1V45.9z M56.3,41.6L56.3,41.6l-2.2,3.5h2.2V41.6z"/>
				<path class="st2" d="M61.2,41.5l-1.3,1.2l-0.6-0.7l2-1.6h0.9v7.1h-1V41.5z"/>
				<path class="st2" d="M64.4,44c0-0.3,0-0.5,0-0.8c0-0.3,0.1-0.6,0.1-0.8s0.2-0.5,0.3-0.8c0.1-0.2,0.3-0.5,0.4-0.6
					c0.2-0.2,0.4-0.3,0.7-0.4c0.2-0.1,0.5-0.2,0.9-0.2s0.6,0.1,0.9,0.2c0.2,0.1,0.5,0.3,0.7,0.4c0.2,0.2,0.3,0.4,0.4,0.6
					c0.1,0.2,0.2,0.5,0.3,0.8s0.1,0.5,0.1,0.8c0,0.3,0,0.5,0,0.8c0,0.4,0,0.8-0.1,1.2S69,46,68.8,46.4c-0.2,0.4-0.4,0.7-0.7,0.9
					c-0.3,0.2-0.7,0.4-1.2,0.4s-0.9-0.1-1.2-0.4c-0.3-0.2-0.6-0.5-0.7-0.9c-0.2-0.4-0.3-0.8-0.4-1.2C64.5,44.7,64.4,44.3,64.4,44z
					 M65.4,44c0,0.2,0,0.5,0,0.8c0,0.3,0.1,0.6,0.2,0.9c0.1,0.3,0.2,0.5,0.4,0.8c0.2,0.2,0.5,0.3,0.8,0.3s0.6-0.1,0.8-0.3
					c0.2-0.2,0.3-0.5,0.4-0.8c0.1-0.3,0.2-0.6,0.2-0.9c0-0.3,0-0.6,0-0.8c0-0.2,0-0.3,0-0.5c0-0.2,0-0.4-0.1-0.6
					c0-0.2-0.1-0.4-0.2-0.6c-0.1-0.2-0.2-0.4-0.3-0.5c-0.1-0.2-0.2-0.3-0.4-0.4c-0.2-0.1-0.4-0.1-0.6-0.1s-0.4,0-0.6,0.1
					c-0.2,0.1-0.3,0.2-0.4,0.4c-0.1,0.2-0.2,0.3-0.3,0.5c-0.1,0.2-0.1,0.4-0.2,0.6c0,0.2-0.1,0.4-0.1,0.6
					C65.4,43.6,65.4,43.8,65.4,44z"/>
				<path class="st2" d="M72.5,42.8h1l1.4,3.7h0l1.3-3.7h1l-2.2,5.8c-0.1,0.2-0.2,0.4-0.2,0.6c-0.1,0.2-0.2,0.3-0.3,0.4
					c-0.1,0.1-0.3,0.2-0.4,0.3c-0.2,0.1-0.4,0.1-0.6,0.1c-0.1,0-0.3,0-0.4,0c-0.1,0-0.3-0.1-0.4-0.1l0.1-0.8
					c0.2,0.1,0.4,0.1,0.5,0.1c0.1,0,0.3,0,0.4-0.1c0.1,0,0.2-0.1,0.2-0.2c0.1-0.1,0.1-0.2,0.2-0.2c0-0.1,0.1-0.2,0.1-0.3l0.3-0.8
					L72.5,42.8z"/>
				<path class="st2" d="M78.8,45.5c0,0.2,0,0.4,0.1,0.6s0.2,0.3,0.4,0.4c0.1,0.1,0.3,0.2,0.5,0.3s0.4,0.1,0.6,0.1
					c0.3,0,0.5-0.1,0.7-0.2c0.2-0.1,0.4-0.3,0.6-0.5l0.7,0.5c-0.5,0.6-1.2,1-2.1,1c-0.4,0-0.7-0.1-1-0.2s-0.6-0.3-0.8-0.5
					c-0.2-0.2-0.4-0.5-0.5-0.8c-0.1-0.3-0.2-0.6-0.2-1c0-0.4,0.1-0.7,0.2-1c0.1-0.3,0.3-0.6,0.5-0.8c0.2-0.2,0.5-0.4,0.8-0.5
					s0.6-0.2,1-0.2c0.4,0,0.8,0.1,1.1,0.2c0.3,0.1,0.5,0.3,0.7,0.6c0.2,0.2,0.3,0.5,0.4,0.8c0.1,0.3,0.1,0.6,0.1,0.9v0.3H78.8z
					 M81.6,44.7c0-0.2,0-0.4-0.1-0.6c-0.1-0.2-0.1-0.3-0.3-0.4c-0.1-0.1-0.3-0.2-0.4-0.3c-0.2-0.1-0.4-0.1-0.6-0.1
					c-0.2,0-0.4,0-0.6,0.1c-0.2,0.1-0.3,0.2-0.5,0.3c-0.1,0.1-0.2,0.3-0.3,0.4c-0.1,0.2-0.1,0.3-0.1,0.5H81.6z"/>
				<path class="st2" d="M83.7,43.3c0.3-0.2,0.5-0.4,0.9-0.5c0.3-0.1,0.7-0.2,1-0.2c0.3,0,0.6,0,0.9,0.1c0.2,0.1,0.5,0.2,0.6,0.4
					s0.3,0.3,0.4,0.5c0.1,0.2,0.1,0.4,0.1,0.6v2.4c0,0.2,0,0.3,0,0.5c0,0.1,0,0.3,0,0.4h-0.8c0-0.2,0-0.5,0-0.7h0
					c-0.2,0.3-0.4,0.5-0.7,0.7s-0.6,0.2-1,0.2c-0.2,0-0.4,0-0.6-0.1c-0.2-0.1-0.4-0.1-0.5-0.3c-0.1-0.1-0.3-0.3-0.4-0.4
					c-0.1-0.2-0.1-0.4-0.1-0.6c0-0.3,0.1-0.6,0.2-0.8c0.1-0.2,0.3-0.4,0.6-0.5s0.5-0.2,0.8-0.3s0.7-0.1,1-0.1h0.7v-0.2
					c0-0.1,0-0.2-0.1-0.4c0-0.1-0.1-0.2-0.2-0.3c-0.1-0.1-0.2-0.2-0.3-0.2s-0.3-0.1-0.5-0.1c-0.2,0-0.3,0-0.5,0.1s-0.2,0.1-0.4,0.1
					c-0.1,0-0.2,0.1-0.3,0.2c-0.1,0.1-0.2,0.1-0.2,0.2L83.7,43.3z M86.2,45.2c-0.2,0-0.4,0-0.7,0c-0.2,0-0.4,0.1-0.6,0.1
					c-0.2,0.1-0.3,0.2-0.5,0.3c-0.1,0.1-0.2,0.3-0.2,0.5c0,0.3,0.1,0.5,0.3,0.6c0.2,0.1,0.4,0.2,0.7,0.2c0.2,0,0.5,0,0.6-0.1
					c0.2-0.1,0.3-0.2,0.4-0.3s0.2-0.3,0.2-0.4c0-0.2,0.1-0.3,0.1-0.5v-0.3H86.2z"/>
				<path class="st2" d="M88.9,42.8h0.9v0.7h0c0.1-0.1,0.1-0.2,0.2-0.3c0.1-0.1,0.2-0.2,0.3-0.3c0.1-0.1,0.3-0.1,0.4-0.2
					s0.3-0.1,0.4-0.1c0.1,0,0.3,0,0.4,0.1l0,1c-0.1,0-0.1,0-0.2,0s-0.1,0-0.2,0c-0.4,0-0.8,0.1-1,0.4c-0.2,0.2-0.4,0.6-0.4,1.1v2.4
					h-0.9V42.8z"/>
				<path class="st2" d="M95.1,44c-0.1-0.1-0.2-0.2-0.4-0.3s-0.3-0.1-0.6-0.1c-0.2,0-0.4,0-0.6,0.1c-0.2,0.1-0.2,0.2-0.2,0.4
					c0,0.1,0,0.3,0.1,0.3c0.1,0.1,0.2,0.2,0.3,0.2c0.1,0.1,0.3,0.1,0.4,0.1c0.1,0,0.3,0.1,0.4,0.1c0.2,0,0.4,0.1,0.5,0.2
					c0.2,0.1,0.3,0.2,0.4,0.3c0.1,0.1,0.2,0.2,0.3,0.4c0.1,0.2,0.1,0.3,0.1,0.6c0,0.3-0.1,0.5-0.2,0.7c-0.1,0.2-0.3,0.3-0.4,0.5
					c-0.2,0.1-0.4,0.2-0.6,0.3c-0.2,0.1-0.5,0.1-0.7,0.1c-0.4,0-0.7-0.1-1-0.2c-0.3-0.1-0.6-0.3-0.8-0.7l0.7-0.6
					c0.1,0.1,0.3,0.3,0.5,0.4c0.2,0.1,0.4,0.2,0.7,0.2c0.1,0,0.2,0,0.3,0c0.1,0,0.2-0.1,0.3-0.1c0.1,0,0.2-0.1,0.2-0.2
					s0.1-0.2,0.1-0.3c0-0.1,0-0.2-0.1-0.3c-0.1-0.1-0.2-0.2-0.3-0.2c-0.1,0-0.2-0.1-0.4-0.1c-0.1,0-0.2-0.1-0.3-0.1
					c-0.2,0-0.4-0.1-0.5-0.2c-0.2-0.1-0.3-0.1-0.5-0.2c-0.1-0.1-0.2-0.2-0.3-0.4s-0.1-0.3-0.1-0.6c0-0.2,0.1-0.5,0.2-0.6
					s0.2-0.3,0.4-0.5s0.4-0.2,0.6-0.3c0.2-0.1,0.4-0.1,0.7-0.1c0.3,0,0.6,0.1,0.9,0.2c0.3,0.1,0.5,0.3,0.7,0.6L95.1,44z"/>
				<path class="st2" d="M101.9,45.5h-2.5v-0.8h2.5V45.5z"/>
				<path class="st2" d="M108.2,44c-0.1-0.1-0.2-0.2-0.4-0.3c-0.2-0.1-0.3-0.1-0.6-0.1c-0.2,0-0.4,0-0.6,0.1
					c-0.2,0.1-0.2,0.2-0.2,0.4c0,0.1,0,0.3,0.1,0.3c0.1,0.1,0.2,0.2,0.3,0.2c0.1,0.1,0.3,0.1,0.4,0.1c0.1,0,0.3,0.1,0.4,0.1
					c0.2,0,0.4,0.1,0.5,0.2s0.3,0.2,0.4,0.3c0.1,0.1,0.2,0.2,0.3,0.4c0.1,0.2,0.1,0.3,0.1,0.6c0,0.3-0.1,0.5-0.2,0.7
					c-0.1,0.2-0.3,0.3-0.4,0.5c-0.2,0.1-0.4,0.2-0.6,0.3c-0.2,0.1-0.5,0.1-0.7,0.1c-0.4,0-0.7-0.1-1-0.2c-0.3-0.1-0.6-0.3-0.8-0.7
					l0.7-0.6c0.1,0.1,0.3,0.3,0.5,0.4c0.2,0.1,0.4,0.2,0.7,0.2c0.1,0,0.2,0,0.3,0c0.1,0,0.2-0.1,0.3-0.1c0.1,0,0.2-0.1,0.2-0.2
					s0.1-0.2,0.1-0.3c0-0.1,0-0.2-0.1-0.3c-0.1-0.1-0.2-0.2-0.3-0.2c-0.1,0-0.2-0.1-0.4-0.1c-0.1,0-0.2-0.1-0.3-0.1
					c-0.2,0-0.4-0.1-0.6-0.2c-0.2-0.1-0.3-0.1-0.5-0.2c-0.1-0.1-0.2-0.2-0.3-0.4s-0.1-0.3-0.1-0.6c0-0.2,0.1-0.5,0.2-0.6
					c0.1-0.2,0.2-0.3,0.4-0.5s0.4-0.2,0.6-0.3c0.2-0.1,0.4-0.1,0.7-0.1c0.3,0,0.6,0.1,0.9,0.2c0.3,0.1,0.5,0.3,0.7,0.6L108.2,44z"/>
				<path class="st2" d="M109.9,45.1c0-0.3,0.1-0.7,0.2-1c0.1-0.3,0.3-0.6,0.5-0.8s0.5-0.4,0.8-0.5s0.6-0.2,1-0.2s0.7,0.1,1,0.2
					s0.6,0.3,0.8,0.5s0.4,0.5,0.5,0.8c0.1,0.3,0.2,0.6,0.2,1s-0.1,0.7-0.2,1c-0.1,0.3-0.3,0.6-0.5,0.8c-0.2,0.2-0.5,0.4-0.8,0.5
					s-0.6,0.2-1,0.2s-0.7-0.1-1-0.2s-0.6-0.3-0.8-0.5c-0.2-0.2-0.4-0.5-0.5-0.8C110,45.8,109.9,45.5,109.9,45.1z M110.9,45.1
					c0,0.2,0,0.5,0.1,0.7s0.2,0.4,0.3,0.5c0.1,0.1,0.3,0.3,0.5,0.3c0.2,0.1,0.4,0.1,0.7,0.1s0.5,0,0.7-0.1c0.2-0.1,0.4-0.2,0.5-0.3
					c0.1-0.1,0.2-0.3,0.3-0.5s0.1-0.4,0.1-0.7c0-0.2,0-0.5-0.1-0.7s-0.2-0.4-0.3-0.5c-0.1-0.1-0.3-0.3-0.5-0.3
					c-0.2-0.1-0.4-0.1-0.7-0.1s-0.5,0-0.7,0.1c-0.2,0.1-0.4,0.2-0.5,0.3c-0.1,0.1-0.2,0.3-0.3,0.5S110.9,44.9,110.9,45.1z"/>
				<path class="st2" d="M116.1,42.8h0.8v0.7h0c0-0.1,0.1-0.2,0.2-0.2c0.1-0.1,0.2-0.2,0.3-0.3c0.1-0.1,0.3-0.2,0.5-0.2
					c0.2-0.1,0.4-0.1,0.6-0.1c0.4,0,0.6,0.1,0.9,0.2c0.2,0.1,0.4,0.4,0.6,0.7c0.2-0.3,0.4-0.5,0.7-0.7c0.3-0.1,0.6-0.2,0.8-0.2
					c0.4,0,0.7,0.1,0.9,0.2c0.2,0.1,0.4,0.3,0.5,0.5c0.1,0.2,0.2,0.4,0.3,0.7c0,0.2,0.1,0.5,0.1,0.8v2.8h-0.9v-2.6
					c0-0.2,0-0.4,0-0.5c0-0.2-0.1-0.3-0.1-0.4c-0.1-0.1-0.2-0.2-0.3-0.3c-0.1-0.1-0.3-0.1-0.5-0.1c-0.4,0-0.7,0.1-0.9,0.4
					s-0.3,0.6-0.3,1v2.6h-0.9V45c0-0.2,0-0.4,0-0.6c0-0.2-0.1-0.3-0.1-0.5c-0.1-0.1-0.2-0.2-0.3-0.3c-0.1-0.1-0.3-0.1-0.5-0.1
					c-0.2,0-0.3,0-0.5,0.1c-0.2,0.1-0.3,0.2-0.4,0.3c-0.1,0.1-0.2,0.3-0.3,0.5c-0.1,0.2-0.1,0.4-0.1,0.7v2.5h-0.9V42.8z"/>
				<path class="st2" d="M125.3,45.5c0,0.2,0,0.4,0.1,0.6c0.1,0.2,0.2,0.3,0.4,0.4s0.3,0.2,0.5,0.3s0.4,0.1,0.6,0.1
					c0.3,0,0.5-0.1,0.7-0.2c0.2-0.1,0.4-0.3,0.6-0.5l0.7,0.5c-0.5,0.6-1.2,1-2.1,1c-0.4,0-0.7-0.1-1-0.2c-0.3-0.1-0.6-0.3-0.8-0.5
					c-0.2-0.2-0.4-0.5-0.5-0.8c-0.1-0.3-0.2-0.6-0.2-1c0-0.4,0.1-0.7,0.2-1c0.1-0.3,0.3-0.6,0.5-0.8c0.2-0.2,0.5-0.4,0.8-0.5
					c0.3-0.1,0.6-0.2,1-0.2c0.4,0,0.8,0.1,1.1,0.2c0.3,0.1,0.5,0.3,0.7,0.6c0.2,0.2,0.3,0.5,0.4,0.8c0.1,0.3,0.1,0.6,0.1,0.9v0.3
					H125.3z M128.1,44.7c0-0.2,0-0.4-0.1-0.6c-0.1-0.2-0.1-0.3-0.3-0.4c-0.1-0.1-0.3-0.2-0.4-0.3s-0.4-0.1-0.6-0.1
					c-0.2,0-0.4,0-0.6,0.1c-0.2,0.1-0.3,0.2-0.5,0.3c-0.1,0.1-0.2,0.3-0.3,0.4s-0.1,0.3-0.1,0.5H128.1z"/>
				<path class="st2" d="M132.7,43.5h-1.3v2.1c0,0.1,0,0.3,0,0.4s0,0.2,0.1,0.4c0,0.1,0.1,0.2,0.2,0.2c0.1,0.1,0.2,0.1,0.4,0.1
					c0.1,0,0.2,0,0.3,0s0.2-0.1,0.3-0.1v0.8c-0.1,0.1-0.2,0.1-0.4,0.1s-0.3,0-0.4,0c-0.3,0-0.6,0-0.8-0.1c-0.2-0.1-0.3-0.2-0.4-0.4
					c-0.1-0.2-0.1-0.3-0.2-0.5c0-0.2,0-0.4,0-0.6v-2.5h-1v-0.8h1v-1.3h0.9v1.3h1.3V43.5z"/>
				<path class="st2" d="M133.7,41.1c0-0.2,0.1-0.3,0.2-0.5c0.1-0.1,0.3-0.2,0.5-0.2c0.2,0,0.3,0.1,0.5,0.2c0.1,0.1,0.2,0.3,0.2,0.5
					c0,0.2-0.1,0.3-0.2,0.5c-0.1,0.1-0.3,0.2-0.5,0.2c-0.2,0-0.3-0.1-0.5-0.2C133.8,41.4,133.7,41.2,133.7,41.1z M133.9,42.8h0.9
					v4.7h-0.9V42.8z"/>
				<path class="st2" d="M136.3,42.8h0.8v0.7h0c0-0.1,0.1-0.2,0.2-0.2c0.1-0.1,0.2-0.2,0.3-0.3c0.1-0.1,0.3-0.2,0.5-0.2
					c0.2-0.1,0.4-0.1,0.6-0.1c0.4,0,0.6,0.1,0.9,0.2c0.2,0.1,0.4,0.4,0.6,0.7c0.2-0.3,0.4-0.5,0.7-0.7c0.3-0.1,0.6-0.2,0.8-0.2
					c0.4,0,0.7,0.1,0.9,0.2c0.2,0.1,0.4,0.3,0.5,0.5c0.1,0.2,0.2,0.4,0.3,0.7c0,0.2,0.1,0.5,0.1,0.8v2.8h-0.9v-2.6
					c0-0.2,0-0.4,0-0.5c0-0.2-0.1-0.3-0.1-0.4c-0.1-0.1-0.2-0.2-0.3-0.3c-0.1-0.1-0.3-0.1-0.5-0.1c-0.4,0-0.7,0.1-0.9,0.4
					s-0.3,0.6-0.3,1v2.6h-0.9V45c0-0.2,0-0.4,0-0.6c0-0.2-0.1-0.3-0.1-0.5c-0.1-0.1-0.2-0.2-0.3-0.3c-0.1-0.1-0.3-0.1-0.5-0.1
					c-0.2,0-0.3,0-0.5,0.1c-0.2,0.1-0.3,0.2-0.4,0.3c-0.1,0.1-0.2,0.3-0.3,0.5c-0.1,0.2-0.1,0.4-0.1,0.7v2.5h-0.9V42.8z"/>
				<path class="st2" d="M145.5,45.5c0,0.2,0,0.4,0.1,0.6c0.1,0.2,0.2,0.3,0.4,0.4s0.3,0.2,0.5,0.3s0.4,0.1,0.6,0.1
					c0.3,0,0.5-0.1,0.7-0.2c0.2-0.1,0.4-0.3,0.6-0.5l0.7,0.5c-0.5,0.6-1.2,1-2.1,1c-0.4,0-0.7-0.1-1-0.2c-0.3-0.1-0.6-0.3-0.8-0.5
					c-0.2-0.2-0.4-0.5-0.5-0.8c-0.1-0.3-0.2-0.6-0.2-1c0-0.4,0.1-0.7,0.2-1c0.1-0.3,0.3-0.6,0.5-0.8c0.2-0.2,0.5-0.4,0.8-0.5
					c0.3-0.1,0.6-0.2,1-0.2c0.4,0,0.8,0.1,1.1,0.2c0.3,0.1,0.5,0.3,0.7,0.6c0.2,0.2,0.3,0.5,0.4,0.8c0.1,0.3,0.1,0.6,0.1,0.9v0.3
					H145.5z M148.3,44.7c0-0.2,0-0.4-0.1-0.6c-0.1-0.2-0.1-0.3-0.3-0.4c-0.1-0.1-0.3-0.2-0.4-0.3s-0.4-0.1-0.6-0.1
					c-0.2,0-0.4,0-0.6,0.1c-0.2,0.1-0.3,0.2-0.5,0.3c-0.1,0.1-0.2,0.3-0.3,0.4s-0.1,0.3-0.1,0.5H148.3z"/>
				<path class="st2" d="M152.9,44c-0.1-0.1-0.2-0.2-0.4-0.3c-0.2-0.1-0.3-0.1-0.6-0.1c-0.2,0-0.4,0-0.6,0.1
					c-0.2,0.1-0.2,0.2-0.2,0.4c0,0.1,0,0.3,0.1,0.3c0.1,0.1,0.2,0.2,0.3,0.2c0.1,0.1,0.3,0.1,0.4,0.1c0.1,0,0.3,0.1,0.4,0.1
					c0.2,0,0.4,0.1,0.5,0.2s0.3,0.2,0.4,0.3c0.1,0.1,0.2,0.2,0.3,0.4c0.1,0.2,0.1,0.3,0.1,0.6c0,0.3-0.1,0.5-0.2,0.7
					c-0.1,0.2-0.3,0.3-0.4,0.5c-0.2,0.1-0.4,0.2-0.6,0.3c-0.2,0.1-0.5,0.1-0.7,0.1c-0.4,0-0.7-0.1-1-0.2c-0.3-0.1-0.6-0.3-0.8-0.7
					l0.7-0.6c0.1,0.1,0.3,0.3,0.5,0.4c0.2,0.1,0.4,0.2,0.7,0.2c0.1,0,0.2,0,0.3,0c0.1,0,0.2-0.1,0.3-0.1c0.1,0,0.2-0.1,0.2-0.2
					s0.1-0.2,0.1-0.3c0-0.1,0-0.2-0.1-0.3c-0.1-0.1-0.2-0.2-0.3-0.2c-0.1,0-0.2-0.1-0.4-0.1c-0.1,0-0.2-0.1-0.3-0.1
					c-0.2,0-0.4-0.1-0.6-0.2c-0.2-0.1-0.3-0.1-0.5-0.2c-0.1-0.1-0.2-0.2-0.3-0.4s-0.1-0.3-0.1-0.6c0-0.2,0.1-0.5,0.2-0.6
					c0.1-0.2,0.2-0.3,0.4-0.5s0.4-0.2,0.6-0.3c0.2-0.1,0.4-0.1,0.7-0.1c0.3,0,0.6,0.1,0.9,0.2c0.3,0.1,0.5,0.3,0.7,0.6L152.9,44z"/>
				<path class="st2" d="M160.1,43.5h-1.3v2.1c0,0.1,0,0.3,0,0.4s0,0.2,0.1,0.4c0,0.1,0.1,0.2,0.2,0.2c0.1,0.1,0.2,0.1,0.4,0.1
					c0.1,0,0.2,0,0.3,0s0.2-0.1,0.3-0.1v0.8c-0.1,0.1-0.2,0.1-0.4,0.1s-0.3,0-0.4,0c-0.3,0-0.6,0-0.8-0.1c-0.2-0.1-0.3-0.2-0.4-0.4
					c-0.1-0.2-0.1-0.3-0.2-0.5c0-0.2,0-0.4,0-0.6v-2.5h-1v-0.8h1v-1.3h0.9v1.3h1.3V43.5z"/>
				<path class="st2" d="M161,45.1c0-0.3,0.1-0.7,0.2-1c0.1-0.3,0.3-0.6,0.5-0.8s0.5-0.4,0.8-0.5s0.6-0.2,1-0.2s0.7,0.1,1,0.2
					s0.6,0.3,0.8,0.5s0.4,0.5,0.5,0.8c0.1,0.3,0.2,0.6,0.2,1s-0.1,0.7-0.2,1c-0.1,0.3-0.3,0.6-0.5,0.8c-0.2,0.2-0.5,0.4-0.8,0.5
					s-0.6,0.2-1,0.2s-0.7-0.1-1-0.2s-0.6-0.3-0.8-0.5c-0.2-0.2-0.4-0.5-0.5-0.8C161.1,45.8,161,45.5,161,45.1z M162,45.1
					c0,0.2,0,0.5,0.1,0.7s0.2,0.4,0.3,0.5c0.1,0.1,0.3,0.3,0.5,0.3c0.2,0.1,0.4,0.1,0.7,0.1s0.5,0,0.7-0.1c0.2-0.1,0.4-0.2,0.5-0.3
					c0.1-0.1,0.2-0.3,0.3-0.5s0.1-0.4,0.1-0.7c0-0.2,0-0.5-0.1-0.7s-0.2-0.4-0.3-0.5c-0.1-0.1-0.3-0.3-0.5-0.3
					c-0.2-0.1-0.4-0.1-0.7-0.1s-0.5,0-0.7,0.1c-0.2,0.1-0.4,0.2-0.5,0.3c-0.1,0.1-0.2,0.3-0.3,0.5S162,44.9,162,45.1z"/>
				<path class="st2" d="M167.2,42.8h0.9v0.7h0c0.1-0.1,0.1-0.2,0.2-0.3c0.1-0.1,0.2-0.2,0.3-0.3c0.1-0.1,0.3-0.1,0.4-0.2
					s0.3-0.1,0.4-0.1c0.1,0,0.3,0,0.4,0.1l0,1c-0.1,0-0.1,0-0.2,0s-0.1,0-0.2,0c-0.4,0-0.8,0.1-1,0.4c-0.2,0.2-0.4,0.6-0.4,1.1v2.4
					h-0.9V42.8z"/>
				<path class="st2" d="M173.5,43.5h-1.3v2.1c0,0.1,0,0.3,0,0.4s0,0.2,0.1,0.4s0.1,0.2,0.2,0.2c0.1,0.1,0.2,0.1,0.4,0.1
					c0.1,0,0.2,0,0.3,0s0.2-0.1,0.3-0.1v0.8c-0.1,0.1-0.2,0.1-0.4,0.1s-0.3,0-0.4,0c-0.3,0-0.6,0-0.8-0.1c-0.2-0.1-0.3-0.2-0.4-0.4
					c-0.1-0.2-0.1-0.3-0.2-0.5s0-0.4,0-0.6v-2.5h-1v-0.8h1v-1.3h0.9v1.3h1.3V43.5z"/>
				<path class="st2" d="M174.4,45.1c0-0.3,0.1-0.7,0.2-1c0.1-0.3,0.3-0.6,0.5-0.8s0.5-0.4,0.8-0.5s0.6-0.2,1-0.2s0.7,0.1,1,0.2
					s0.6,0.3,0.8,0.5s0.4,0.5,0.5,0.8c0.1,0.3,0.2,0.6,0.2,1s-0.1,0.7-0.2,1c-0.1,0.3-0.3,0.6-0.5,0.8c-0.2,0.2-0.5,0.4-0.8,0.5
					s-0.6,0.2-1,0.2s-0.7-0.1-1-0.2s-0.6-0.3-0.8-0.5c-0.2-0.2-0.4-0.5-0.5-0.8C174.4,45.8,174.4,45.5,174.4,45.1z M175.3,45.1
					c0,0.2,0,0.5,0.1,0.7s0.2,0.4,0.3,0.5c0.1,0.1,0.3,0.3,0.5,0.3c0.2,0.1,0.4,0.1,0.7,0.1s0.5,0,0.7-0.1c0.2-0.1,0.4-0.2,0.5-0.3
					c0.1-0.1,0.2-0.3,0.3-0.5s0.1-0.4,0.1-0.7c0-0.2,0-0.5-0.1-0.7s-0.2-0.4-0.3-0.5c-0.1-0.1-0.3-0.3-0.5-0.3
					c-0.2-0.1-0.4-0.1-0.7-0.1s-0.5,0-0.7,0.1c-0.2,0.1-0.4,0.2-0.5,0.3c-0.1,0.1-0.2,0.3-0.3,0.5S175.3,44.9,175.3,45.1z"/>
				<path class="st2" d="M180.4,41.1c0-0.2,0.1-0.3,0.2-0.5c0.1-0.1,0.3-0.2,0.5-0.2s0.3,0.1,0.5,0.2c0.1,0.1,0.2,0.3,0.2,0.5
					c0,0.2-0.1,0.3-0.2,0.5c-0.1,0.1-0.3,0.2-0.5,0.2s-0.3-0.1-0.5-0.2C180.5,41.4,180.4,41.2,180.4,41.1z M180.6,42.8h0.9v4.7h-0.9
					V42.8z"/>
				<path class="st2" d="M185.5,44c-0.1-0.1-0.2-0.2-0.4-0.3s-0.3-0.1-0.6-0.1c-0.2,0-0.4,0-0.6,0.1c-0.2,0.1-0.2,0.2-0.2,0.4
					c0,0.1,0,0.3,0.1,0.3c0.1,0.1,0.2,0.2,0.3,0.2c0.1,0.1,0.3,0.1,0.4,0.1c0.1,0,0.3,0.1,0.4,0.1c0.2,0,0.4,0.1,0.5,0.2
					c0.2,0.1,0.3,0.2,0.4,0.3c0.1,0.1,0.2,0.2,0.3,0.4c0.1,0.2,0.1,0.3,0.1,0.6c0,0.3-0.1,0.5-0.2,0.7c-0.1,0.2-0.3,0.3-0.4,0.5
					c-0.2,0.1-0.4,0.2-0.6,0.3c-0.2,0.1-0.5,0.1-0.7,0.1c-0.4,0-0.7-0.1-1-0.2c-0.3-0.1-0.6-0.3-0.8-0.7l0.7-0.6
					c0.1,0.1,0.3,0.3,0.5,0.4c0.2,0.1,0.4,0.2,0.7,0.2c0.1,0,0.2,0,0.3,0c0.1,0,0.2-0.1,0.3-0.1c0.1,0,0.2-0.1,0.2-0.2
					s0.1-0.2,0.1-0.3c0-0.1,0-0.2-0.1-0.3c-0.1-0.1-0.2-0.2-0.3-0.2c-0.1,0-0.2-0.1-0.4-0.1c-0.1,0-0.2-0.1-0.3-0.1
					c-0.2,0-0.4-0.1-0.5-0.2c-0.2-0.1-0.3-0.1-0.5-0.2c-0.1-0.1-0.2-0.2-0.3-0.4s-0.1-0.3-0.1-0.6c0-0.2,0.1-0.5,0.2-0.6
					s0.2-0.3,0.4-0.5s0.4-0.2,0.6-0.3c0.2-0.1,0.4-0.1,0.7-0.1c0.3,0,0.6,0.1,0.9,0.2c0.3,0.1,0.5,0.3,0.7,0.6L185.5,44z"/>
				<path class="st2" d="M188.1,45.5c0,0.2,0,0.4,0.1,0.6s0.2,0.3,0.4,0.4c0.1,0.1,0.3,0.2,0.5,0.3s0.4,0.1,0.6,0.1
					c0.3,0,0.5-0.1,0.7-0.2c0.2-0.1,0.4-0.3,0.6-0.5l0.7,0.5c-0.5,0.6-1.2,1-2.1,1c-0.4,0-0.7-0.1-1-0.2s-0.6-0.3-0.8-0.5
					c-0.2-0.2-0.4-0.5-0.5-0.8c-0.1-0.3-0.2-0.6-0.2-1c0-0.4,0.1-0.7,0.2-1c0.1-0.3,0.3-0.6,0.5-0.8c0.2-0.2,0.5-0.4,0.8-0.5
					s0.6-0.2,1-0.2c0.4,0,0.8,0.1,1.1,0.2c0.3,0.1,0.5,0.3,0.7,0.6c0.2,0.2,0.3,0.5,0.4,0.8c0.1,0.3,0.1,0.6,0.1,0.9v0.3H188.1z
					 M190.9,44.7c0-0.2,0-0.4-0.1-0.6c-0.1-0.2-0.1-0.3-0.3-0.4c-0.1-0.1-0.3-0.2-0.4-0.3c-0.2-0.1-0.4-0.1-0.6-0.1
					c-0.2,0-0.4,0-0.6,0.1c-0.2,0.1-0.3,0.2-0.5,0.3c-0.1,0.1-0.2,0.3-0.3,0.4c-0.1,0.2-0.1,0.3-0.1,0.5H190.9z"/>
				<path class="st2" d="M195.5,44c-0.1-0.1-0.2-0.2-0.4-0.3s-0.3-0.1-0.6-0.1c-0.2,0-0.4,0-0.6,0.1c-0.2,0.1-0.2,0.2-0.2,0.4
					c0,0.1,0,0.3,0.1,0.3c0.1,0.1,0.2,0.2,0.3,0.2c0.1,0.1,0.3,0.1,0.4,0.1c0.1,0,0.3,0.1,0.4,0.1c0.2,0,0.4,0.1,0.5,0.2
					c0.2,0.1,0.3,0.2,0.4,0.3c0.1,0.1,0.2,0.2,0.3,0.4c0.1,0.2,0.1,0.3,0.1,0.6c0,0.3-0.1,0.5-0.2,0.7c-0.1,0.2-0.3,0.3-0.4,0.5
					c-0.2,0.1-0.4,0.2-0.6,0.3c-0.2,0.1-0.5,0.1-0.7,0.1c-0.4,0-0.7-0.1-1-0.2c-0.3-0.1-0.6-0.3-0.8-0.7l0.7-0.6
					c0.1,0.1,0.3,0.3,0.5,0.4c0.2,0.1,0.4,0.2,0.7,0.2c0.1,0,0.2,0,0.3,0c0.1,0,0.2-0.1,0.3-0.1c0.1,0,0.2-0.1,0.2-0.2
					s0.1-0.2,0.1-0.3c0-0.1,0-0.2-0.1-0.3c-0.1-0.1-0.2-0.2-0.3-0.2c-0.1,0-0.2-0.1-0.4-0.1c-0.1,0-0.2-0.1-0.3-0.1
					c-0.2,0-0.4-0.1-0.5-0.2c-0.2-0.1-0.3-0.1-0.5-0.2c-0.1-0.1-0.2-0.2-0.3-0.4s-0.1-0.3-0.1-0.6c0-0.2,0.1-0.5,0.2-0.6
					s0.2-0.3,0.4-0.5s0.4-0.2,0.6-0.3c0.2-0.1,0.4-0.1,0.7-0.1c0.3,0,0.6,0.1,0.9,0.2c0.3,0.1,0.5,0.3,0.7,0.6L195.5,44z"/>
				<path class="st2" d="M200.2,39.9h0.9v7.6h-0.9V39.9z"/>
				<path class="st2" d="M202.4,41.1c0-0.2,0.1-0.3,0.2-0.5c0.1-0.1,0.3-0.2,0.5-0.2s0.3,0.1,0.5,0.2c0.1,0.1,0.2,0.3,0.2,0.5
					c0,0.2-0.1,0.3-0.2,0.5c-0.1,0.1-0.3,0.2-0.5,0.2s-0.3-0.1-0.5-0.2C202.5,41.4,202.4,41.2,202.4,41.1z M202.6,42.8h0.9v4.7h-0.9
					V42.8z"/>
				<path class="st2" d="M204.4,42.8h1l1.4,3.6l1.4-3.6h1l-1.9,4.7h-1L204.4,42.8z"/>
				<path class="st2" d="M210.7,45.5c0,0.2,0,0.4,0.1,0.6c0.1,0.2,0.2,0.3,0.4,0.4s0.3,0.2,0.5,0.3s0.4,0.1,0.6,0.1
					c0.3,0,0.5-0.1,0.7-0.2c0.2-0.1,0.4-0.3,0.6-0.5l0.7,0.5c-0.5,0.6-1.2,1-2.1,1c-0.4,0-0.7-0.1-1-0.2c-0.3-0.1-0.6-0.3-0.8-0.5
					c-0.2-0.2-0.4-0.5-0.5-0.8c-0.1-0.3-0.2-0.6-0.2-1c0-0.4,0.1-0.7,0.2-1c0.1-0.3,0.3-0.6,0.5-0.8c0.2-0.2,0.5-0.4,0.8-0.5
					c0.3-0.1,0.6-0.2,1-0.2c0.4,0,0.8,0.1,1.1,0.2c0.3,0.1,0.5,0.3,0.7,0.6c0.2,0.2,0.3,0.5,0.4,0.8c0.1,0.3,0.1,0.6,0.1,0.9v0.3
					H210.7z M213.5,44.7c0-0.2,0-0.4-0.1-0.6c-0.1-0.2-0.1-0.3-0.3-0.4c-0.1-0.1-0.3-0.2-0.4-0.3s-0.4-0.1-0.6-0.1
					c-0.2,0-0.4,0-0.6,0.1c-0.2,0.1-0.3,0.2-0.5,0.3c-0.1,0.1-0.2,0.3-0.3,0.4s-0.1,0.3-0.1,0.5H213.5z"/>
				<path class="st2" d="M222.5,47.5h-0.9v-0.7h0c-0.1,0.3-0.3,0.5-0.6,0.6c-0.3,0.2-0.6,0.2-1,0.2c-0.2,0-0.5,0-0.7-0.1
					c-0.2-0.1-0.4-0.2-0.5-0.3c-0.2-0.1-0.3-0.3-0.4-0.6c-0.1-0.2-0.1-0.5-0.1-0.8v-3.1h0.9v2.8c0,0.2,0,0.4,0.1,0.6
					c0.1,0.2,0.1,0.3,0.2,0.4c0.1,0.1,0.2,0.2,0.3,0.2s0.3,0.1,0.4,0.1c0.2,0,0.4,0,0.5-0.1c0.2-0.1,0.3-0.2,0.4-0.3
					c0.1-0.1,0.2-0.3,0.3-0.5c0.1-0.2,0.1-0.4,0.1-0.7v-2.4h0.9V47.5z"/>
				<path class="st2" d="M223.9,42.8h0.9v0.7h0c0.2-0.3,0.4-0.4,0.7-0.6c0.3-0.1,0.6-0.2,0.9-0.2c0.4,0,0.7,0.1,1,0.2
					s0.5,0.3,0.8,0.5c0.2,0.2,0.4,0.5,0.5,0.8c0.1,0.3,0.2,0.6,0.2,1c0,0.4-0.1,0.7-0.2,1c-0.1,0.3-0.3,0.6-0.5,0.8
					c-0.2,0.2-0.5,0.4-0.8,0.5s-0.6,0.2-1,0.2c-0.3,0-0.7-0.1-1-0.2c-0.3-0.1-0.5-0.3-0.7-0.6h0v3.5h-0.9V42.8z M226.3,43.5
					c-0.2,0-0.5,0-0.7,0.1c-0.2,0.1-0.4,0.2-0.5,0.3c-0.1,0.1-0.2,0.3-0.3,0.5s-0.1,0.4-0.1,0.7c0,0.2,0,0.5,0.1,0.7
					s0.2,0.4,0.3,0.5c0.1,0.1,0.3,0.3,0.5,0.3c0.2,0.1,0.4,0.1,0.7,0.1c0.2,0,0.5,0,0.6-0.1c0.2-0.1,0.4-0.2,0.5-0.3
					c0.1-0.1,0.2-0.3,0.3-0.5s0.1-0.4,0.1-0.7c0-0.2,0-0.5-0.1-0.7s-0.2-0.4-0.3-0.5c-0.1-0.1-0.3-0.3-0.5-0.3
					C226.8,43.5,226.6,43.5,226.3,43.5z"/>
				<path class="st2" d="M235.3,43.5H234v2.1c0,0.1,0,0.3,0,0.4s0,0.2,0.1,0.4c0,0.1,0.1,0.2,0.2,0.2c0.1,0.1,0.2,0.1,0.4,0.1
					c0.1,0,0.2,0,0.3,0s0.2-0.1,0.3-0.1v0.8c-0.1,0.1-0.2,0.1-0.4,0.1s-0.3,0-0.4,0c-0.3,0-0.6,0-0.8-0.1c-0.2-0.1-0.3-0.2-0.4-0.4
					c-0.1-0.2-0.1-0.3-0.2-0.5c0-0.2,0-0.4,0-0.6v-2.5h-1v-0.8h1v-1.3h0.9v1.3h1.3V43.5z"/>
				<path class="st2" d="M236.2,45.1c0-0.3,0.1-0.7,0.2-1c0.1-0.3,0.3-0.6,0.5-0.8s0.5-0.4,0.8-0.5s0.6-0.2,1-0.2s0.7,0.1,1,0.2
					s0.6,0.3,0.8,0.5s0.4,0.5,0.5,0.8c0.1,0.3,0.2,0.6,0.2,1s-0.1,0.7-0.2,1c-0.1,0.3-0.3,0.6-0.5,0.8c-0.2,0.2-0.5,0.4-0.8,0.5
					s-0.6,0.2-1,0.2s-0.7-0.1-1-0.2s-0.6-0.3-0.8-0.5c-0.2-0.2-0.4-0.5-0.5-0.8C236.3,45.8,236.2,45.5,236.2,45.1z M237.2,45.1
					c0,0.2,0,0.5,0.1,0.7s0.2,0.4,0.3,0.5c0.1,0.1,0.3,0.3,0.5,0.3c0.2,0.1,0.4,0.1,0.7,0.1s0.5,0,0.7-0.1c0.2-0.1,0.4-0.2,0.5-0.3
					c0.1-0.1,0.2-0.3,0.3-0.5s0.1-0.4,0.1-0.7c0-0.2,0-0.5-0.1-0.7s-0.2-0.4-0.3-0.5c-0.1-0.1-0.3-0.3-0.5-0.3
					c-0.2-0.1-0.4-0.1-0.7-0.1s-0.5,0-0.7,0.1c-0.2,0.1-0.4,0.2-0.5,0.3c-0.1,0.1-0.2,0.3-0.3,0.5S237.2,44.9,237.2,45.1z"/>
				<path class="st2" d="M245,46.5l2.8-2.8c0.1-0.1,0.2-0.2,0.3-0.3c0.1-0.1,0.2-0.2,0.2-0.3c0.1-0.1,0.1-0.2,0.2-0.4
					s0.1-0.3,0.1-0.4c0-0.2,0-0.3-0.1-0.5c-0.1-0.1-0.1-0.3-0.3-0.4c-0.1-0.1-0.2-0.2-0.4-0.2c-0.2-0.1-0.3-0.1-0.5-0.1
					c-0.3,0-0.6,0.1-0.9,0.3s-0.4,0.5-0.4,0.8l-1-0.1c0-0.3,0.1-0.6,0.3-0.8c0.1-0.2,0.3-0.4,0.5-0.6c0.2-0.2,0.4-0.3,0.7-0.3
					c0.3-0.1,0.5-0.1,0.9-0.1s0.6,0,0.9,0.1c0.3,0.1,0.5,0.2,0.7,0.4c0.2,0.2,0.4,0.4,0.5,0.6c0.1,0.2,0.2,0.5,0.2,0.9
					c0,0.2,0,0.5-0.1,0.7c-0.1,0.2-0.2,0.4-0.3,0.6s-0.2,0.3-0.4,0.5c-0.1,0.2-0.3,0.3-0.5,0.5l-2.3,2.2h3.6v0.8H245V46.5z"/>
				<path class="st2" d="M250.4,44c0-0.3,0-0.5,0-0.8c0-0.3,0.1-0.6,0.1-0.8s0.2-0.5,0.3-0.8c0.1-0.2,0.3-0.5,0.4-0.6
					c0.2-0.2,0.4-0.3,0.7-0.4c0.2-0.1,0.5-0.2,0.9-0.2s0.6,0.1,0.9,0.2c0.2,0.1,0.5,0.3,0.7,0.4c0.2,0.2,0.3,0.4,0.4,0.6
					c0.1,0.2,0.2,0.5,0.3,0.8s0.1,0.5,0.1,0.8c0,0.3,0,0.5,0,0.8c0,0.4,0,0.8-0.1,1.2s-0.2,0.8-0.4,1.2c-0.2,0.4-0.4,0.7-0.7,0.9
					c-0.3,0.2-0.7,0.4-1.2,0.4s-0.9-0.1-1.2-0.4c-0.3-0.2-0.6-0.5-0.7-0.9c-0.2-0.4-0.3-0.8-0.4-1.2C250.4,44.7,250.4,44.3,250.4,44
					z M251.4,44c0,0.2,0,0.5,0,0.8c0,0.3,0.1,0.6,0.2,0.9c0.1,0.3,0.2,0.5,0.4,0.8c0.2,0.2,0.5,0.3,0.8,0.3s0.6-0.1,0.8-0.3
					c0.2-0.2,0.3-0.5,0.4-0.8c0.1-0.3,0.2-0.6,0.2-0.9c0-0.3,0-0.6,0-0.8c0-0.2,0-0.3,0-0.5c0-0.2,0-0.4-0.1-0.6
					c0-0.2-0.1-0.4-0.2-0.6c-0.1-0.2-0.2-0.4-0.3-0.5c-0.1-0.2-0.2-0.3-0.4-0.4c-0.2-0.1-0.4-0.1-0.6-0.1s-0.4,0-0.6,0.1
					c-0.2,0.1-0.3,0.2-0.4,0.4c-0.1,0.2-0.2,0.3-0.3,0.5c-0.1,0.2-0.1,0.4-0.2,0.6c0,0.2-0.1,0.4-0.1,0.6
					C251.4,43.6,251.4,43.8,251.4,44z"/>
				<path class="st2" d="M256,44c0-0.3,0-0.5,0-0.8c0-0.3,0.1-0.6,0.1-0.8c0.1-0.3,0.2-0.5,0.3-0.8s0.3-0.5,0.5-0.6
					c0.2-0.2,0.4-0.3,0.6-0.4c0.2-0.1,0.5-0.2,0.9-0.2c0.3,0,0.6,0.1,0.9,0.2c0.2,0.1,0.5,0.3,0.7,0.4c0.2,0.2,0.3,0.4,0.5,0.6
					c0.1,0.2,0.2,0.5,0.3,0.8c0.1,0.3,0.1,0.5,0.1,0.8c0,0.3,0,0.5,0,0.8c0,0.4,0,0.8-0.1,1.2c-0.1,0.4-0.2,0.8-0.4,1.2
					c-0.2,0.4-0.4,0.7-0.7,0.9s-0.7,0.4-1.2,0.4s-0.9-0.1-1.2-0.4s-0.6-0.5-0.7-0.9c-0.2-0.4-0.3-0.8-0.4-1.2S256,44.3,256,44z
					 M256.9,44c0,0.2,0,0.5,0,0.8s0.1,0.6,0.2,0.9c0.1,0.3,0.2,0.5,0.4,0.8c0.2,0.2,0.5,0.3,0.8,0.3c0.3,0,0.6-0.1,0.8-0.3
					c0.2-0.2,0.3-0.5,0.4-0.8c0.1-0.3,0.2-0.6,0.2-0.9s0-0.6,0-0.8c0-0.2,0-0.3,0-0.5c0-0.2,0-0.4-0.1-0.6c0-0.2-0.1-0.4-0.2-0.6
					c-0.1-0.2-0.2-0.4-0.3-0.5c-0.1-0.2-0.2-0.3-0.4-0.4c-0.2-0.1-0.3-0.1-0.6-0.1c-0.2,0-0.4,0-0.6,0.1c-0.2,0.1-0.3,0.2-0.4,0.4
					c-0.1,0.2-0.2,0.3-0.3,0.5c-0.1,0.2-0.1,0.4-0.2,0.6c0,0.2-0.1,0.4-0.1,0.6C256.9,43.6,256.9,43.8,256.9,44z"/>
				<path class="st2" d="M264.1,42.8h1l1.4,3.7h0l1.3-3.7h1l-2.2,5.8c-0.1,0.2-0.2,0.4-0.2,0.6s-0.2,0.3-0.3,0.4
					c-0.1,0.1-0.3,0.2-0.4,0.3c-0.2,0.1-0.4,0.1-0.6,0.1c-0.1,0-0.3,0-0.4,0s-0.3-0.1-0.4-0.1l0.1-0.8c0.2,0.1,0.4,0.1,0.5,0.1
					c0.1,0,0.3,0,0.4-0.1c0.1,0,0.2-0.1,0.2-0.2c0.1-0.1,0.1-0.2,0.2-0.2c0-0.1,0.1-0.2,0.1-0.3l0.3-0.8L264.1,42.8z"/>
				<path class="st2" d="M270.3,45.5c0,0.2,0,0.4,0.1,0.6c0.1,0.2,0.2,0.3,0.4,0.4s0.3,0.2,0.5,0.3s0.4,0.1,0.6,0.1
					c0.3,0,0.5-0.1,0.7-0.2c0.2-0.1,0.4-0.3,0.6-0.5l0.7,0.5c-0.5,0.6-1.2,1-2.1,1c-0.4,0-0.7-0.1-1-0.2c-0.3-0.1-0.6-0.3-0.8-0.5
					c-0.2-0.2-0.4-0.5-0.5-0.8c-0.1-0.3-0.2-0.6-0.2-1c0-0.4,0.1-0.7,0.2-1c0.1-0.3,0.3-0.6,0.5-0.8c0.2-0.2,0.5-0.4,0.8-0.5
					c0.3-0.1,0.6-0.2,1-0.2c0.4,0,0.8,0.1,1.1,0.2c0.3,0.1,0.5,0.3,0.7,0.6c0.2,0.2,0.3,0.5,0.4,0.8c0.1,0.3,0.1,0.6,0.1,0.9v0.3
					H270.3z M273.2,44.7c0-0.2,0-0.4-0.1-0.6c-0.1-0.2-0.1-0.3-0.3-0.4c-0.1-0.1-0.3-0.2-0.4-0.3s-0.4-0.1-0.6-0.1
					c-0.2,0-0.4,0-0.6,0.1c-0.2,0.1-0.3,0.2-0.5,0.3c-0.1,0.1-0.2,0.3-0.3,0.4s-0.1,0.3-0.1,0.5H273.2z"/>
				<path class="st2" d="M275.2,43.3c0.3-0.2,0.5-0.4,0.9-0.5c0.3-0.1,0.7-0.2,1-0.2c0.3,0,0.6,0,0.9,0.1c0.2,0.1,0.5,0.2,0.6,0.4
					c0.2,0.1,0.3,0.3,0.4,0.5c0.1,0.2,0.1,0.4,0.1,0.6v2.4c0,0.2,0,0.3,0,0.5c0,0.1,0,0.3,0,0.4h-0.8c0-0.2,0-0.5,0-0.7h0
					c-0.2,0.3-0.4,0.5-0.7,0.7s-0.6,0.2-1,0.2c-0.2,0-0.4,0-0.6-0.1c-0.2-0.1-0.4-0.1-0.5-0.3c-0.2-0.1-0.3-0.3-0.4-0.4
					c-0.1-0.2-0.1-0.4-0.1-0.6c0-0.3,0.1-0.6,0.2-0.8c0.1-0.2,0.3-0.4,0.6-0.5c0.2-0.1,0.5-0.2,0.8-0.3s0.7-0.1,1-0.1h0.7v-0.2
					c0-0.1,0-0.2-0.1-0.4s-0.1-0.2-0.2-0.3c-0.1-0.1-0.2-0.2-0.4-0.2c-0.1-0.1-0.3-0.1-0.5-0.1c-0.2,0-0.3,0-0.5,0.1
					c-0.1,0-0.2,0.1-0.4,0.1c-0.1,0-0.2,0.1-0.3,0.2c-0.1,0.1-0.2,0.1-0.2,0.2L275.2,43.3z M277.8,45.2c-0.2,0-0.4,0-0.7,0
					c-0.2,0-0.4,0.1-0.6,0.1c-0.2,0.1-0.3,0.2-0.5,0.3c-0.1,0.1-0.2,0.3-0.2,0.5c0,0.3,0.1,0.5,0.3,0.6c0.2,0.1,0.4,0.2,0.7,0.2
					c0.2,0,0.5,0,0.6-0.1c0.2-0.1,0.3-0.2,0.4-0.3s0.2-0.3,0.2-0.4s0.1-0.3,0.1-0.5v-0.3H277.8z"/>
				<path class="st2" d="M280.4,42.8h0.9v0.7h0c0.1-0.1,0.1-0.2,0.2-0.3s0.2-0.2,0.3-0.3s0.3-0.1,0.4-0.2c0.1,0,0.3-0.1,0.4-0.1
					s0.3,0,0.4,0.1l0,1c-0.1,0-0.1,0-0.2,0c-0.1,0-0.1,0-0.2,0c-0.4,0-0.8,0.1-1,0.4c-0.2,0.2-0.3,0.6-0.3,1.1v2.4h-0.9V42.8z"/>
				<path class="st2" d="M286.6,44c-0.1-0.1-0.2-0.2-0.4-0.3s-0.3-0.1-0.6-0.1c-0.2,0-0.4,0-0.6,0.1c-0.2,0.1-0.2,0.2-0.2,0.4
					c0,0.1,0,0.3,0.1,0.3c0.1,0.1,0.2,0.2,0.3,0.2c0.1,0.1,0.3,0.1,0.4,0.1c0.1,0,0.3,0.1,0.4,0.1c0.2,0,0.4,0.1,0.5,0.2
					c0.2,0.1,0.3,0.2,0.4,0.3c0.1,0.1,0.2,0.2,0.3,0.4c0.1,0.2,0.1,0.3,0.1,0.6c0,0.3-0.1,0.5-0.2,0.7c-0.1,0.2-0.3,0.3-0.4,0.5
					c-0.2,0.1-0.4,0.2-0.6,0.3c-0.2,0.1-0.5,0.1-0.7,0.1c-0.4,0-0.7-0.1-1-0.2c-0.3-0.1-0.6-0.3-0.8-0.7l0.7-0.6
					c0.1,0.1,0.3,0.3,0.5,0.4c0.2,0.1,0.4,0.2,0.7,0.2c0.1,0,0.2,0,0.3,0c0.1,0,0.2-0.1,0.3-0.1c0.1,0,0.2-0.1,0.2-0.2
					s0.1-0.2,0.1-0.3c0-0.1,0-0.2-0.1-0.3c-0.1-0.1-0.2-0.2-0.3-0.2c-0.1,0-0.2-0.1-0.4-0.1c-0.1,0-0.2-0.1-0.3-0.1
					c-0.2,0-0.4-0.1-0.5-0.2c-0.2-0.1-0.3-0.1-0.5-0.2c-0.1-0.1-0.2-0.2-0.3-0.4s-0.1-0.3-0.1-0.6c0-0.2,0.1-0.5,0.2-0.6
					s0.2-0.3,0.4-0.5s0.4-0.2,0.6-0.3c0.2-0.1,0.4-0.1,0.7-0.1c0.3,0,0.6,0.1,0.9,0.2c0.3,0.1,0.5,0.3,0.7,0.6L286.6,44z"/>
			</g>
		</g>
		<g>
			<path class="st3" d="M33.7,11.4h1.6v9h2.7v1.5h-4.4V11.4z"/>
			<path class="st3" d="M38.8,11.4h1.6v10.5h-1.6V11.4z"/>
			<path class="st3" d="M43.3,16.1h2.1v1.5h-2.1v4.3h-1.6V11.4H46v1.5h-2.7V16.1z"/>
			<path class="st3" d="M48.5,15.9h2.3v1.5h-2.3v3.1h2.8v1.5h-4.5V11.4h4.5v1.5h-2.8V15.9z"/>
			<path class="st3" d="M54.6,11.3c1.6,0,2.4,1,2.4,2.6v0.3h-1.6v-0.4c0-0.8-0.3-1-0.8-1s-0.8,0.3-0.8,1c0,0.8,0.3,1.3,1.4,2.3
				c1.4,1.2,1.8,2.1,1.8,3.3c0,1.7-0.8,2.6-2.5,2.6c-1.6,0-2.5-1-2.5-2.6v-0.6h1.6v0.8c0,0.8,0.3,1,0.9,1s0.9-0.3,0.9-1
				c0-0.8-0.3-1.3-1.4-2.3c-1.4-1.2-1.8-2.1-1.8-3.3C52.1,12.3,53,11.3,54.6,11.3z"/>
			<path class="st3" d="M62.8,14v1.4c0,1.7-0.8,2.6-2.5,2.6h-0.8v3.9h-1.6V11.4h2.4C62,11.4,62.8,12.4,62.8,14z M59.6,12.9v3.6h0.8
				c0.5,0,0.8-0.2,0.8-1v-1.6c0-0.8-0.3-1-0.8-1H59.6z"/>
			<path class="st3" d="M68.7,21.9h-1.7L66.8,20h-2l-0.3,1.9H63l1.7-10.5h2.4L68.7,21.9z M65,18.6h1.6l-0.8-5.3h0L65,18.6z"/>
			<path class="st3" d="M71,14.3L71,14.3l0,7.6h-1.5V11.4h2.1l1.7,6.3h0v-6.3h1.5v10.5H73L71,14.3z"/>
		</g>
		<g>
			<g>
				<path class="st4" d="M355,33.9c-0.1-14.4-11.9-26-26.3-26c-14.5,0-26.3,11.8-26.3,26.3s11.8,26.3,26.3,26.3
					c1.7,0,3.3-0.2,4.9-0.5c12.2-2.3,21.4-13,21.4-25.9C355,34.1,355,34,355,33.9z M345.2,26.6h-1c0.1,0.4,0.2,0.7,0.2,1.1
					c0.3,2.6-0.4,5.3-2.2,7.5l-14.8,17.1l0,0l0,0l0,0l-14.9-17.2c-3.4-4-3-10,1-13.5c4-3.4,10-3,13.5,1l0.1,0.1l0.4,0.4l0,0l0.4-0.5
					c2.3-2.7,5.8-3.8,9.1-3.1v-1.4c0-1.2,1-2.3,2.3-2.3c0.9,0,1.7,0.5,2.1,1.3c0,0,0,0.1,0.1,0.1c0.1,0.3,0.2,0.5,0.2,0.8v3.9h3.9
					c0.9,0,1.7,0.5,2,1.3c0,0,0,0.1,0.1,0.1c0.1,0.2,0.2,0.5,0.2,0.8C347.4,25.6,346.4,26.6,345.2,26.6z"/>
				<path class="st1" d="M328.7,5c-16.1,0-29.2,13.1-29.2,29.2s13.1,29.2,29.2,29.2c2.4,0,4.7-0.3,6.9-0.8
					c11.7-2.9,20.7-12.8,22.1-25c0.1-1.1,0.2-2.2,0.2-3.3C357.9,18.1,344.8,5,328.7,5z M333.6,60c-1.6,0.3-3.2,0.5-4.9,0.5
					c-14.5,0-26.3-11.8-26.3-26.3s11.8-26.3,26.3-26.3c14.4,0,26.2,11.6,26.3,26c0,0.1,0,0.2,0,0.3C355,47,345.8,57.7,333.6,60z"/>
			</g>
			<path class="st5" d="M355,34.2c0,12.8-9.2,23.6-21.4,25.9l-6.9-8.3l0.7,0.5l14.8-17.1c1.8-2.1,2.6-4.9,2.2-7.5
				c0-0.4-0.1-0.7-0.2-1.1h1c1.2,0,2.3-1,2.3-2.3c0-0.3-0.1-0.6-0.2-0.8l7.7,10.3C355,34,355,34.1,355,34.2z"/>
			<g>
				<path class="st6" d="M342.1,35.2l-14.8,17.1l0,0l0,0l0,0l-14.9-17.2c-3.4-4-3-10,1-13.5c4-3.4,10-3,13.5,1l0.1,0.1l0.4,0.4l0,0
					l0.4-0.5c2.3-2.7,5.8-3.8,9.1-3.1v2.5h-3.9c-1.3,0-2.3,1-2.3,2.3c0,0.9,0.5,1.7,1.3,2.1c0.3,0.1,0.6,0.2,0.9,0.2h3.9v3.9
					c0,0.4,0.1,0.8,0.3,1.1c0.2,0.4,0.6,0.8,1,1c0.3,0.1,0.6,0.2,0.9,0.2c1.3,0,2.3-1,2.3-2.3v-3.9h2.9c0.1,0.4,0.2,0.7,0.2,1.1
					C344.7,30.3,343.9,33,342.1,35.2z"/>
				<path class="st3" d="M347.4,24.3c0,1.3-1,2.3-2.3,2.3h-3.9v3.9c0,1.2-1,2.3-2.3,2.3c-0.3,0-0.7-0.1-0.9-0.2
					c-0.4-0.2-0.8-0.5-1-1c-0.2-0.3-0.3-0.7-0.3-1.1v-3.9h-3.9c-0.3,0-0.7-0.1-0.9-0.2c-0.8-0.3-1.3-1.1-1.3-2.1
					c0-1.2,1-2.3,2.3-2.3h3.9v-3.9c0-1.2,1-2.3,2.3-2.3c0.9,0,1.7,0.5,2.1,1.3c0,0,0,0.1,0.1,0.1c0.1,0.3,0.2,0.5,0.2,0.8v3.9h3.9
					c0.9,0,1.7,0.5,2,1.3c0,0,0,0.1,0.1,0.1C347.4,23.8,347.4,24,347.4,24.3z"/>
			</g>
		</g>
	</g>
</g>
</svg>
