<?xml version="1.0" encoding="utf-8"?>
<!-- Generator: Adobe Illustrator 19.2.0, SVG Export Plug-In . SVG Version: 6.00 Build 0)  -->
<!DOCTYPE svg PUBLIC "-//W3C//DTD SVG 1.1//EN" "http://www.w3.org/Graphics/SVG/1.1/DTD/svg11.dtd">
<svg version="1.1" id="Layer_1" xmlns="http://www.w3.org/2000/svg" xmlns:xlink="http://www.w3.org/1999/xlink" x="0px" y="0px"
	 width="361.4px" height="72px" viewBox="0 0 361.4 72" style="enable-background:new 0 0 361.4 72;" xml:space="preserve">
<style type="text/css">
	.st0{fill:#92BEB8;}
	.st1{fill:#FFF6C5;}
	.st2{fill:#6CC1D9;}
	.st3{clip-path:url(#SVGID_2_);fill:#64B1C6;}
	.st4{fill:#FFCB5C;}
	.st5{fill:#F16E6A;}
	.st6{fill:#333332;}
</style>
<g>
	<path class="st0" d="M52.8,66.8h279.5c16.1,0,29.1-13.1,29.1-29.1S348.3,8.5,332.2,8.5H32C16,8.5,2.9,21.6,2.9,37.7
		C2.9,53.7,16,66.8,32,66.8h10.3"/>
	<path class="st1" d="M329.3,5.2H29.1v58.3h300.2c16.1,0,29.1-13.1,29.1-29.1v0C358.5,18.2,345.4,5.2,329.3,5.2z"/>
	<g>
		<path class="st2" d="M29.1,6.6C13.8,6.6,1.4,19,1.4,34.3s12.4,27.7,27.7,27.7c15.3,0,27.7-12.4,27.7-27.7S44.5,6.6,29.1,6.6z
			 M31.1,41c-0.2-0.3-0.3-0.6-0.5-0.9c-0.2-0.6-0.4-1.1-0.4-1.6c0-0.2,0.2-0.4,0.4-0.2c0.1,0.1,0.3,0.3,0.5,0.5
			c0.2,0.2,0.4,0.3,0.7,0.5c0.8,0.5,1.8,1.1,3,1.5c2,0.8,3.8,1,4.8,0.9c0.2,0,0.3,0.2,0.1,0.4c-1.1,1.1-3.6,2.1-5.9,1.2
			C32.6,42.9,31.7,42,31.1,41z M32.4,29.5c0.5,0,1.2,0.1,1.8,0.3c1.6,0.6,2.6,1.8,2.2,2.7c-0.3,0.9-1.9,1.1-3.5,0.5
			c-0.1,0-0.2-0.1-0.3-0.1c-0.3-0.1-0.6-0.3-0.8-0.5c-0.9-0.6-1.3-1.4-1.1-2.1c0.1-0.3,0.4-0.6,0.8-0.7
			C31.8,29.5,32.1,29.5,32.4,29.5z M26.4,28.7c-0.6,0.2-1.2,0.4-1.7,0.4c-0.9,0-1.5-0.3-1.7-0.8c-0.3-0.9,0.6-2.1,2.2-2.7
			c0.6-0.2,1.2-0.4,1.7-0.4c0.8,0,1.5,0.3,1.7,0.8C29,26.8,28,28,26.4,28.7z M18,32c-0.6,0.2-1.2,0.4-1.7,0.4
			c-0.9,0-1.5-0.3-1.7-0.8c-0.3-0.9,0.6-2.1,2.2-2.7c0.6-0.2,1.2-0.4,1.7-0.4c0.9,0,1.5,0.3,1.7,0.8C20.5,30.1,19.5,31.3,18,32z
			 M27.6,36.4c0,0.1,0,0.2,0,0.3c0,0.3,0,0.6,0,0.8c-0.7,0.2-1.5,0.4-2.3,0.7c-2,0.8-3.5,1.9-4.1,2.6c0,0-0.1,0.1-0.1,0.1
			c-0.1,0-0.2-0.1-0.2-0.3c0.1-1.5,1.3-4,3.5-4.9c0.6-0.2,1.2-0.3,1.8-0.3c0.5,0,1,0.1,1.5,0.2C27.6,35.8,27.6,36.1,27.6,36.4z
			 M39.2,33.6c0.3-0.9,1.9-1.1,3.5-0.5c1.6,0.6,2.6,1.8,2.2,2.7c-0.3,0.9-1.9,1.1-3.5,0.5C39.9,35.7,38.9,34.5,39.2,33.6z"/>
		<g>
			<defs>
				<circle id="SVGID_1_" cx="29.1" cy="34.3" r="27.7"/>
			</defs>
			<clipPath id="SVGID_2_">
				<use xlink:href="#SVGID_1_"  style="overflow:visible;"/>
			</clipPath>
			<polyline class="st3" points="21,43.3 52.1,62.7 60.5,37.7 29.4,18.3 			"/>
		</g>
		<path class="st1" d="M29.1,63.5C13.1,63.5,0,50.4,0,34.3S13.1,5.2,29.1,5.2s29.1,13.1,29.1,29.1S45.2,63.5,29.1,63.5z M29.1,8
			C14.7,8,2.9,19.8,2.9,34.3s11.8,26.3,26.3,26.3s26.3-11.8,26.3-26.3S43.6,8,29.1,8z"/>
		<g>
			<path class="st4" d="M27.6,36.4c0,0.1,0,0.2,0,0.3c-0.8,0.2-1.7,0.4-2.6,0.8c-1.1,0.4-2.1,1-2.9,1.5c0.5-1,1.3-2.1,2.5-2.6
				c0.5-0.2,1-0.3,1.5-0.3C26.6,36.2,27.1,36.2,27.6,36.4z"/>
			<path class="st5" d="M24.3,35.7c0.6-0.2,1.2-0.3,1.8-0.3c0.5,0,1,0.1,1.5,0.2c0.3-3.6,1.2-7.7,2.8-11.8c0,0,0,0,0,0
				c-0.4-1.4-0.9-2.9-1.5-4.4L9.8,26.9c3.9,10,10.6,17,15.7,17c0.7,0,1.3-0.1,1.9-0.3c0.3-0.1,0.6-0.3,0.9-0.5
				c-0.5-1.6-0.7-3.5-0.7-5.6c-0.7,0.2-1.5,0.4-2.3,0.7c-2,0.8-3.5,1.9-4.1,2.6c0,0-0.1,0.1-0.1,0.1c-0.1,0-0.2-0.1-0.2-0.3
				C20.8,39,22,36.5,24.3,35.7z M25.1,25.4c0.6-0.2,1.2-0.4,1.7-0.4c0.8,0,1.5,0.3,1.7,0.8c0.3,0.9-0.6,2.1-2.2,2.7
				c-0.6,0.2-1.2,0.4-1.7,0.4c-0.9,0-1.5-0.3-1.7-0.8C22.6,27.3,23.6,26.1,25.1,25.4z M18,32c-0.6,0.2-1.2,0.4-1.7,0.4
				c-0.9,0-1.5-0.3-1.7-0.8c-0.3-0.9,0.6-2.1,2.2-2.7c0.6-0.2,1.2-0.4,1.7-0.4c0.9,0,1.5,0.3,1.7,0.8C20.5,30.1,19.5,31.3,18,32z"/>
			<path class="st4" d="M22,39c0.8-0.5,1.8-1.1,2.9-1.5c0.9-0.4,1.8-0.6,2.6-0.8c0,0.3,0,0.6,0,0.8c-0.7,0.2-1.5,0.4-2.3,0.7
				c-2,0.8-3.5,1.9-4.1,2.6c0,0-0.1,0.1-0.1,0.1c-0.1,0-0.2-0.1-0.2-0.3c0.1-1.5,1.3-4,3.5-4.9c0.6-0.2,1.2-0.3,1.8-0.3
				c0.5,0,1,0.1,1.5,0.2c0,0.3,0,0.6,0,0.8c-0.5-0.1-1-0.2-1.5-0.2c-0.5,0-1.1,0.1-1.5,0.3C23.4,36.9,22.5,38,22,39z"/>
			<path class="st5" d="M31.3,24.1l-1-0.4c-0.4-1.4-0.9-2.9-1.5-4.4L9.8,26.9c3.9,10,10.6,17,15.7,17c0.7,0,1.3-0.1,1.9-0.3
				c0.3-0.1,0.6-0.3,0.9-0.5c0.1,0.3,0.2,0.5,0.3,0.8c-0.3,0.2-0.6,0.3-0.8,0.4c-0.7,0.3-1.4,0.4-2.2,0.4c-1.4,0-2.9-0.5-4.5-1.4
				c-1.5-0.9-3-2.1-4.4-3.7c-3-3.2-5.7-7.6-7.6-12.5l-0.3-0.8l0.8-0.3l19.1-7.5l0.8-0.3l0.3,0.8C30.3,20.7,30.9,22.4,31.3,24.1z"/>
			<path class="st4" d="M20.2,29.2c-0.2-0.5-0.9-0.8-1.7-0.8c-0.5,0-1.1,0.1-1.7,0.4c-1.6,0.6-2.6,1.8-2.2,2.7
				c0.2,0.5,0.9,0.8,1.7,0.8c0.5,0,1.1-0.1,1.7-0.4C19.5,31.3,20.5,30.1,20.2,29.2z M17.7,31.2c-0.5,0.2-1,0.3-1.4,0.3
				c-0.6,0-0.9-0.2-1-0.3c0-0.1,0-0.3,0.3-0.6c0.3-0.4,0.9-0.8,1.5-1c0.5-0.2,1-0.3,1.4-0.3c0.6,0,0.9,0.2,1,0.3
				C19.5,29.8,18.9,30.7,17.7,31.2z"/>
			<path class="st4" d="M17.7,31.2c-0.5,0.2-1,0.3-1.4,0.3c-0.6,0-0.9-0.2-1-0.3c0-0.1,0-0.3,0.3-0.6c0.3-0.4,0.9-0.8,1.5-1
				c0.5-0.2,1-0.3,1.4-0.3c0.6,0,0.9,0.2,1,0.3C19.5,29.8,18.9,30.7,17.7,31.2z"/>
			<path class="st4" d="M28.6,25.9c-0.2-0.5-0.9-0.8-1.7-0.8c-0.5,0-1.1,0.1-1.7,0.4c-1.6,0.6-2.6,1.8-2.2,2.7
				c0.2,0.5,0.9,0.8,1.7,0.8c0.5,0,1.1-0.1,1.7-0.4C28,28,29,26.8,28.6,25.9z M26.1,27.9c-0.5,0.2-1,0.3-1.4,0.3
				c-0.6,0-0.9-0.2-1-0.3c-0.1-0.3,0.5-1.2,1.7-1.7c0.5-0.2,1-0.3,1.4-0.3c0.5,0,0.9,0.2,1,0.3C28,26.5,27.4,27.4,26.1,27.9z"/>
			<path class="st4" d="M26.1,27.9c-0.5,0.2-1,0.3-1.4,0.3c-0.6,0-0.9-0.2-1-0.3c-0.1-0.3,0.5-1.2,1.7-1.7c0.5-0.2,1-0.3,1.4-0.3
				c0.5,0,0.9,0.2,1,0.3C28,26.5,27.4,27.4,26.1,27.9z"/>
			<path class="st4" d="M31.3,24.1l-1-0.4c0,0,0,0,0,0c-1.6,4.1-2.5,8.2-2.8,11.8c0,0.3,0,0.6,0,0.8c0,0.1,0,0.2,0,0.3
				c0,0.3,0,0.6,0,0.8c0,2.1,0.2,4,0.7,5.6c0.1,0.3,0.2,0.5,0.3,0.8c0.8,2,1.9,3.4,3.5,4c5.3,2,13.1-5.5,17.5-16.8L31.3,24.1z
				 M30.8,30.3c0.1-0.3,0.4-0.6,0.8-0.7c0.2-0.1,0.5-0.1,0.8-0.1c0.5,0,1.2,0.1,1.8,0.3c1.6,0.6,2.6,1.8,2.2,2.7
				c-0.3,0.9-1.9,1.1-3.5,0.5c-0.1,0-0.2-0.1-0.3-0.1c-0.3-0.1-0.6-0.3-0.8-0.5C31,31.8,30.5,30.9,30.8,30.3z M39.7,42.2
				c-1.1,1.1-3.6,2.1-5.9,1.2c-1.2-0.5-2.1-1.4-2.7-2.4c-0.2-0.3-0.3-0.6-0.5-0.9c-0.2-0.6-0.4-1.1-0.4-1.6c0-0.2,0.2-0.4,0.4-0.2
				c0.1,0.1,0.3,0.3,0.5,0.5c0.2,0.2,0.4,0.3,0.7,0.5c0.8,0.5,1.8,1.1,3,1.5c2,0.8,3.8,1,4.8,0.9C39.8,41.7,39.9,42,39.7,42.2z
				 M41.4,36.3c-1.6-0.6-2.6-1.8-2.2-2.7c0.3-0.9,1.9-1.1,3.5-0.5c1.6,0.6,2.6,1.8,2.2,2.7C44.6,36.7,43,36.9,41.4,36.3z"/>
			<path class="st5" d="M39.7,42.2c-1.1,1.1-3.6,2.1-5.9,1.2c-1.2-0.5-2.1-1.4-2.7-2.4c-0.2-0.3-0.3-0.6-0.5-0.9
				c-0.2-0.6-0.4-1.1-0.4-1.6c0-0.2,0.2-0.4,0.4-0.2c0.1,0.1,0.3,0.3,0.5,0.5c0.2,0.2,0.4,0.3,0.7,0.5c0.8,0.5,1.8,1.1,3,1.5
				c2,0.8,3.8,1,4.8,0.9C39.8,41.7,39.9,42,39.7,42.2z"/>
			<ellipse transform="matrix(0.3597 -0.9331 0.9331 0.3597 -5.4234 61.4301)" class="st5" cx="42" cy="34.7" rx="1.7" ry="3.1"/>
			<path class="st5" d="M36.5,32.5c-0.3,0.9-1.9,1.1-3.5,0.5c-0.1,0-0.2-0.1-0.3-0.1c-0.3-0.1-0.6-0.3-0.8-0.5
				c-0.9-0.6-1.3-1.4-1.1-2.1c0.1-0.3,0.4-0.6,0.8-0.7c0.2-0.1,0.5-0.1,0.8-0.1c0.5,0,1.2,0.1,1.8,0.3
				C35.8,30.4,36.8,31.6,36.5,32.5z"/>
		</g>
	</g>
	<g>
		<g>
			<path class="st6" d="M67.5,27.7h4.6v0.9h-3.6v2.1h3.4v0.9h-3.4v2.3h3.8v0.9h-4.8V27.7z"/>
			<path class="st6" d="M73.5,27.2h0.9v7.6h-0.9V27.2z"/>
			<path class="st6" d="M76.5,32.7c0,0.2,0,0.4,0.1,0.6c0.1,0.2,0.2,0.3,0.4,0.4c0.1,0.1,0.3,0.2,0.5,0.3c0.2,0.1,0.4,0.1,0.6,0.1
				c0.3,0,0.5-0.1,0.7-0.2s0.4-0.3,0.6-0.5l0.7,0.5c-0.5,0.6-1.2,1-2.1,1c-0.4,0-0.7-0.1-1-0.2c-0.3-0.1-0.6-0.3-0.8-0.5
				c-0.2-0.2-0.4-0.5-0.5-0.8c-0.1-0.3-0.2-0.6-0.2-1c0-0.4,0.1-0.7,0.2-1s0.3-0.6,0.5-0.8c0.2-0.2,0.5-0.4,0.8-0.5
				c0.3-0.1,0.6-0.2,1-0.2c0.4,0,0.8,0.1,1.1,0.2c0.3,0.1,0.5,0.3,0.7,0.6s0.3,0.5,0.4,0.8c0.1,0.3,0.1,0.6,0.1,0.9v0.3H76.5z
				 M79.3,32c0-0.2,0-0.4-0.1-0.6c-0.1-0.2-0.1-0.3-0.3-0.4c-0.1-0.1-0.3-0.2-0.4-0.3c-0.2-0.1-0.4-0.1-0.6-0.1
				c-0.2,0-0.4,0-0.6,0.1c-0.2,0.1-0.3,0.2-0.5,0.3c-0.1,0.1-0.2,0.3-0.3,0.4c-0.1,0.2-0.1,0.3-0.1,0.5H79.3z"/>
			<path class="st6" d="M81.4,30h0.9v0.7h0c0.2-0.3,0.4-0.4,0.7-0.6s0.6-0.2,0.9-0.2c0.4,0,0.7,0.1,1,0.2c0.3,0.1,0.5,0.3,0.8,0.5
				c0.2,0.2,0.4,0.5,0.5,0.8c0.1,0.3,0.2,0.6,0.2,1c0,0.4-0.1,0.7-0.2,1c-0.1,0.3-0.3,0.6-0.5,0.8c-0.2,0.2-0.5,0.4-0.8,0.5
				c-0.3,0.1-0.6,0.2-1,0.2c-0.3,0-0.7-0.1-1-0.2c-0.3-0.1-0.5-0.3-0.7-0.6h0v3.5h-0.9V30z M83.8,30.8c-0.2,0-0.5,0-0.6,0.1
				c-0.2,0.1-0.4,0.2-0.5,0.3c-0.1,0.1-0.2,0.3-0.3,0.5c-0.1,0.2-0.1,0.4-0.1,0.7c0,0.2,0,0.5,0.1,0.7c0.1,0.2,0.2,0.4,0.3,0.5
				c0.1,0.1,0.3,0.3,0.5,0.3c0.2,0.1,0.4,0.1,0.6,0.1c0.2,0,0.5,0,0.6-0.1c0.2-0.1,0.4-0.2,0.5-0.3c0.1-0.1,0.2-0.3,0.3-0.5
				c0.1-0.2,0.1-0.4,0.1-0.7c0-0.2,0-0.5-0.1-0.7c-0.1-0.2-0.2-0.4-0.3-0.5c-0.1-0.1-0.3-0.3-0.5-0.3S84.1,30.8,83.8,30.8z"/>
			<path class="st6" d="M87.5,27.2h0.9v3.6h0c0.1-0.3,0.3-0.5,0.6-0.6c0.3-0.2,0.6-0.2,1-0.2c0.2,0,0.4,0,0.7,0.1
				c0.2,0.1,0.4,0.2,0.6,0.3c0.2,0.1,0.3,0.3,0.4,0.6c0.1,0.2,0.1,0.5,0.1,0.8v3h-0.9V32c0-0.2,0-0.4-0.1-0.6
				c-0.1-0.2-0.1-0.3-0.2-0.4s-0.2-0.2-0.3-0.2c-0.1,0-0.3-0.1-0.4-0.1c-0.2,0-0.4,0-0.5,0.1c-0.2,0.1-0.3,0.2-0.4,0.3
				s-0.2,0.3-0.3,0.5c-0.1,0.2-0.1,0.4-0.1,0.7v2.4h-0.9V27.2z"/>
			<path class="st6" d="M93.1,30.6c0.3-0.2,0.5-0.4,0.9-0.5c0.3-0.1,0.7-0.2,1-0.2c0.3,0,0.6,0,0.9,0.1c0.2,0.1,0.5,0.2,0.6,0.4
				c0.2,0.1,0.3,0.3,0.4,0.5s0.1,0.4,0.1,0.6v2.4c0,0.2,0,0.3,0,0.5c0,0.1,0,0.3,0,0.4h-0.8c0-0.2,0-0.5,0-0.7h0
				c-0.2,0.3-0.4,0.5-0.7,0.7c-0.3,0.1-0.6,0.2-1,0.2c-0.2,0-0.4,0-0.6-0.1c-0.2-0.1-0.4-0.1-0.5-0.3c-0.1-0.1-0.3-0.3-0.4-0.4
				c-0.1-0.2-0.1-0.4-0.1-0.6c0-0.3,0.1-0.6,0.2-0.8s0.3-0.4,0.6-0.5c0.2-0.1,0.5-0.2,0.8-0.3s0.7-0.1,1-0.1h0.7v-0.2
				c0-0.1,0-0.2-0.1-0.4c0-0.1-0.1-0.2-0.2-0.3c-0.1-0.1-0.2-0.2-0.4-0.2c-0.1-0.1-0.3-0.1-0.5-0.1c-0.2,0-0.3,0-0.5,0.1
				c-0.1,0-0.2,0.1-0.4,0.1c-0.1,0-0.2,0.1-0.3,0.2c-0.1,0.1-0.2,0.1-0.2,0.2L93.1,30.6z M95.6,32.5c-0.2,0-0.4,0-0.7,0
				c-0.2,0-0.4,0.1-0.6,0.1c-0.2,0.1-0.3,0.2-0.5,0.3s-0.2,0.3-0.2,0.5c0,0.3,0.1,0.5,0.3,0.6c0.2,0.1,0.4,0.2,0.7,0.2
				c0.2,0,0.5,0,0.6-0.1c0.2-0.1,0.3-0.2,0.4-0.3s0.2-0.3,0.2-0.4c0-0.2,0.1-0.3,0.1-0.5v-0.3H95.6z"/>
			<path class="st6" d="M98.2,30h0.9v0.7h0c0.1-0.3,0.3-0.5,0.6-0.6c0.3-0.2,0.6-0.2,1-0.2c0.2,0,0.4,0,0.7,0.1
				c0.2,0.1,0.4,0.2,0.6,0.3c0.2,0.1,0.3,0.3,0.4,0.6c0.1,0.2,0.1,0.5,0.1,0.8v3h-0.9V32c0-0.2,0-0.4-0.1-0.6
				c-0.1-0.2-0.1-0.3-0.2-0.4s-0.2-0.2-0.3-0.2c-0.1,0-0.3-0.1-0.4-0.1c-0.2,0-0.4,0-0.5,0.1c-0.2,0.1-0.3,0.2-0.4,0.3
				s-0.2,0.3-0.3,0.5c-0.1,0.2-0.1,0.4-0.1,0.7v2.4h-0.9V30z"/>
			<path class="st6" d="M106.3,30.8H105V33c0,0.1,0,0.3,0,0.4s0,0.2,0.1,0.4c0,0.1,0.1,0.2,0.2,0.2c0.1,0.1,0.2,0.1,0.4,0.1
				c0.1,0,0.2,0,0.3,0s0.2-0.1,0.3-0.1v0.8c-0.1,0.1-0.2,0.1-0.4,0.1s-0.3,0-0.4,0c-0.3,0-0.6,0-0.8-0.1c-0.2-0.1-0.3-0.2-0.4-0.4
				c-0.1-0.2-0.1-0.3-0.2-0.5c0-0.2,0-0.4,0-0.6v-2.5h-1V30h1v-1.3h0.9V30h1.3V30.8z"/>
			<path class="st6" d="M110,31.2c-0.1-0.1-0.2-0.2-0.4-0.3c-0.2-0.1-0.3-0.1-0.6-0.1c-0.2,0-0.4,0-0.6,0.1
				c-0.2,0.1-0.2,0.2-0.2,0.4c0,0.1,0,0.3,0.1,0.3c0.1,0.1,0.2,0.2,0.3,0.2c0.1,0.1,0.3,0.1,0.4,0.1c0.1,0,0.3,0,0.4,0.1
				c0.2,0,0.4,0.1,0.5,0.2c0.2,0.1,0.3,0.2,0.4,0.3c0.1,0.1,0.2,0.2,0.3,0.4c0.1,0.2,0.1,0.3,0.1,0.6c0,0.3-0.1,0.5-0.2,0.7
				s-0.3,0.3-0.4,0.5c-0.2,0.1-0.4,0.2-0.6,0.3s-0.5,0.1-0.7,0.1c-0.4,0-0.7-0.1-1-0.2c-0.3-0.1-0.6-0.3-0.8-0.7l0.7-0.6
				c0.1,0.1,0.3,0.3,0.5,0.4c0.2,0.1,0.4,0.2,0.7,0.2c0.1,0,0.2,0,0.3,0s0.2-0.1,0.3-0.1c0.1,0,0.2-0.1,0.2-0.2
				c0.1-0.1,0.1-0.2,0.1-0.3c0-0.1,0-0.2-0.1-0.3s-0.2-0.2-0.3-0.2s-0.2-0.1-0.4-0.1c-0.1,0-0.2-0.1-0.3-0.1c-0.2,0-0.4-0.1-0.6-0.2
				s-0.3-0.1-0.5-0.2c-0.1-0.1-0.2-0.2-0.3-0.4s-0.1-0.3-0.1-0.6c0-0.2,0.1-0.5,0.2-0.6c0.1-0.2,0.2-0.3,0.4-0.5s0.4-0.2,0.6-0.3
				s0.4-0.1,0.7-0.1c0.3,0,0.6,0.1,0.9,0.2c0.3,0.1,0.5,0.3,0.7,0.6L110,31.2z"/>
			<path class="st6" d="M115.1,30.8h-1V30h1V29c0-0.6,0.1-1.1,0.4-1.4c0.2-0.3,0.7-0.5,1.3-0.5c0.1,0,0.2,0,0.3,0
				c0.1,0,0.2,0,0.4,0.1l-0.1,0.8c-0.1,0-0.2-0.1-0.2-0.1c-0.1,0-0.2,0-0.3,0c-0.2,0-0.3,0-0.4,0.1c-0.1,0.1-0.2,0.1-0.2,0.2
				c-0.1,0.1-0.1,0.2-0.1,0.3s0,0.3,0,0.4V30h1.1v0.8H116v4h-0.9V30.8z"/>
			<path class="st6" d="M118.7,32.7c0,0.2,0,0.4,0.1,0.6c0.1,0.2,0.2,0.3,0.4,0.4c0.1,0.1,0.3,0.2,0.5,0.3c0.2,0.1,0.4,0.1,0.6,0.1
				c0.3,0,0.5-0.1,0.7-0.2s0.4-0.3,0.6-0.5l0.7,0.5c-0.5,0.6-1.2,1-2.1,1c-0.4,0-0.7-0.1-1-0.2c-0.3-0.1-0.6-0.3-0.8-0.5
				c-0.2-0.2-0.4-0.5-0.5-0.8c-0.1-0.3-0.2-0.6-0.2-1c0-0.4,0.1-0.7,0.2-1s0.3-0.6,0.5-0.8c0.2-0.2,0.5-0.4,0.8-0.5
				c0.3-0.1,0.6-0.2,1-0.2c0.4,0,0.8,0.1,1.1,0.2c0.3,0.1,0.5,0.3,0.7,0.6s0.3,0.5,0.4,0.8c0.1,0.3,0.1,0.6,0.1,0.9v0.3H118.7z
				 M121.6,32c0-0.2,0-0.4-0.1-0.6c-0.1-0.2-0.1-0.3-0.3-0.4c-0.1-0.1-0.3-0.2-0.4-0.3c-0.2-0.1-0.4-0.1-0.6-0.1
				c-0.2,0-0.4,0-0.6,0.1c-0.2,0.1-0.3,0.2-0.5,0.3c-0.1,0.1-0.2,0.3-0.3,0.4c-0.1,0.2-0.1,0.3-0.1,0.5H121.6z"/>
			<path class="st6" d="M124.3,32.7c0,0.2,0,0.4,0.1,0.6c0.1,0.2,0.2,0.3,0.4,0.4c0.1,0.1,0.3,0.2,0.5,0.3c0.2,0.1,0.4,0.1,0.6,0.1
				c0.3,0,0.5-0.1,0.7-0.2s0.4-0.3,0.6-0.5l0.7,0.5c-0.5,0.6-1.2,1-2.1,1c-0.4,0-0.7-0.1-1-0.2c-0.3-0.1-0.6-0.3-0.8-0.5
				c-0.2-0.2-0.4-0.5-0.5-0.8c-0.1-0.3-0.2-0.6-0.2-1c0-0.4,0.1-0.7,0.2-1s0.3-0.6,0.5-0.8c0.2-0.2,0.5-0.4,0.8-0.5
				c0.3-0.1,0.6-0.2,1-0.2c0.4,0,0.8,0.1,1.1,0.2c0.3,0.1,0.5,0.3,0.7,0.6s0.3,0.5,0.4,0.8c0.1,0.3,0.1,0.6,0.1,0.9v0.3H124.3z
				 M127.1,32c0-0.2,0-0.4-0.1-0.6c-0.1-0.2-0.1-0.3-0.3-0.4c-0.1-0.1-0.3-0.2-0.4-0.3c-0.2-0.1-0.4-0.1-0.6-0.1
				c-0.2,0-0.4,0-0.6,0.1c-0.2,0.1-0.3,0.2-0.5,0.3c-0.1,0.1-0.2,0.3-0.3,0.4c-0.1,0.2-0.1,0.3-0.1,0.5H127.1z"/>
			<path class="st6" d="M133.9,34.8H133v-0.7h0c-0.2,0.3-0.4,0.5-0.7,0.6c-0.3,0.1-0.6,0.2-0.9,0.2c-0.4,0-0.7-0.1-1-0.2
				c-0.3-0.1-0.6-0.3-0.8-0.5c-0.2-0.2-0.4-0.5-0.5-0.8c-0.1-0.3-0.2-0.6-0.2-1c0-0.4,0.1-0.7,0.2-1c0.1-0.3,0.3-0.6,0.5-0.8
				c0.2-0.2,0.5-0.4,0.8-0.5c0.3-0.1,0.6-0.2,1-0.2c0.3,0,0.7,0.1,1,0.2c0.3,0.1,0.5,0.3,0.7,0.6h0v-3.5h0.9V34.8z M131.4,34.1
				c0.2,0,0.5,0,0.6-0.1c0.2-0.1,0.4-0.2,0.5-0.3c0.1-0.1,0.2-0.3,0.3-0.5c0.1-0.2,0.1-0.4,0.1-0.7c0-0.2,0-0.5-0.1-0.7
				c-0.1-0.2-0.2-0.4-0.3-0.5c-0.1-0.1-0.3-0.3-0.5-0.3s-0.4-0.1-0.6-0.1c-0.2,0-0.5,0-0.7,0.1s-0.4,0.2-0.5,0.3
				c-0.1,0.1-0.2,0.3-0.3,0.5c-0.1,0.2-0.1,0.4-0.1,0.7c0,0.2,0,0.5,0.1,0.7c0.1,0.2,0.2,0.4,0.3,0.5c0.1,0.1,0.3,0.3,0.5,0.3
				C131,34,131.2,34.1,131.4,34.1z"/>
			<path class="st6" d="M138.1,30.6c0.3-0.2,0.5-0.4,0.9-0.5c0.3-0.1,0.7-0.2,1-0.2c0.3,0,0.6,0,0.9,0.1c0.2,0.1,0.5,0.2,0.6,0.4
				c0.2,0.1,0.3,0.3,0.4,0.5s0.1,0.4,0.1,0.6v2.4c0,0.2,0,0.3,0,0.5c0,0.1,0,0.3,0,0.4h-0.8c0-0.2,0-0.5,0-0.7h0
				c-0.2,0.3-0.4,0.5-0.7,0.7c-0.3,0.1-0.6,0.2-1,0.2c-0.2,0-0.4,0-0.6-0.1c-0.2-0.1-0.4-0.1-0.5-0.3c-0.1-0.1-0.3-0.3-0.4-0.4
				c-0.1-0.2-0.1-0.4-0.1-0.6c0-0.3,0.1-0.6,0.2-0.8s0.3-0.4,0.6-0.5c0.2-0.1,0.5-0.2,0.8-0.3s0.7-0.1,1-0.1h0.7v-0.2
				c0-0.1,0-0.2-0.1-0.4c0-0.1-0.1-0.2-0.2-0.3c-0.1-0.1-0.2-0.2-0.4-0.2c-0.1-0.1-0.3-0.1-0.5-0.1c-0.2,0-0.3,0-0.5,0.1
				c-0.1,0-0.2,0.1-0.4,0.1c-0.1,0-0.2,0.1-0.3,0.2c-0.1,0.1-0.2,0.1-0.2,0.2L138.1,30.6z M140.6,32.5c-0.2,0-0.4,0-0.7,0
				c-0.2,0-0.4,0.1-0.6,0.1c-0.2,0.1-0.3,0.2-0.5,0.3s-0.2,0.3-0.2,0.5c0,0.3,0.1,0.5,0.3,0.6c0.2,0.1,0.4,0.2,0.7,0.2
				c0.2,0,0.5,0,0.6-0.1c0.2-0.1,0.3-0.2,0.4-0.3s0.2-0.3,0.2-0.4c0-0.2,0.1-0.3,0.1-0.5v-0.3H140.6z"/>
			<path class="st6" d="M143.2,30h0.9v0.7h0c0.1-0.3,0.3-0.5,0.6-0.6c0.3-0.2,0.6-0.2,1-0.2c0.2,0,0.4,0,0.7,0.1
				c0.2,0.1,0.4,0.2,0.6,0.3c0.2,0.1,0.3,0.3,0.4,0.6c0.1,0.2,0.1,0.5,0.1,0.8v3h-0.9V32c0-0.2,0-0.4-0.1-0.6
				c-0.1-0.2-0.1-0.3-0.2-0.4s-0.2-0.2-0.3-0.2c-0.1,0-0.3-0.1-0.4-0.1c-0.2,0-0.4,0-0.5,0.1c-0.2,0.1-0.3,0.2-0.4,0.3
				s-0.2,0.3-0.3,0.5c-0.1,0.2-0.1,0.4-0.1,0.7v2.4h-0.9V30z"/>
			<path class="st6" d="M153.5,34.8h-0.9v-0.7h0c-0.2,0.3-0.4,0.5-0.7,0.6c-0.3,0.1-0.6,0.2-0.9,0.2c-0.4,0-0.7-0.1-1-0.2
				c-0.3-0.1-0.6-0.3-0.8-0.5c-0.2-0.2-0.4-0.5-0.5-0.8c-0.1-0.3-0.2-0.6-0.2-1c0-0.4,0.1-0.7,0.2-1c0.1-0.3,0.3-0.6,0.5-0.8
				c0.2-0.2,0.5-0.4,0.8-0.5c0.3-0.1,0.6-0.2,1-0.2c0.3,0,0.7,0.1,1,0.2c0.3,0.1,0.5,0.3,0.7,0.6h0v-3.5h0.9V34.8z M151.1,34.1
				c0.2,0,0.5,0,0.6-0.1c0.2-0.1,0.4-0.2,0.5-0.3c0.1-0.1,0.2-0.3,0.3-0.5c0.1-0.2,0.1-0.4,0.1-0.7c0-0.2,0-0.5-0.1-0.7
				c-0.1-0.2-0.2-0.4-0.3-0.5c-0.1-0.1-0.3-0.3-0.5-0.3s-0.4-0.1-0.6-0.1c-0.2,0-0.5,0-0.7,0.1s-0.4,0.2-0.5,0.3
				c-0.1,0.1-0.2,0.3-0.3,0.5c-0.1,0.2-0.1,0.4-0.1,0.7c0,0.2,0,0.5,0.1,0.7c0.1,0.2,0.2,0.4,0.3,0.5c0.1,0.1,0.3,0.3,0.5,0.3
				C150.6,34,150.8,34.1,151.1,34.1z"/>
			<path class="st6" d="M157.1,30h1l1.1,3.5h0l1.1-3.5h1l1.2,3.5h0l1-3.5h1l-1.5,4.7h-0.9l-1.3-3.5h0l-1.1,3.5h-1L157.1,30z"/>
			<path class="st6" d="M165.3,30.6c0.3-0.2,0.5-0.4,0.9-0.5c0.3-0.1,0.7-0.2,1-0.2c0.3,0,0.6,0,0.9,0.1c0.2,0.1,0.5,0.2,0.6,0.4
				c0.2,0.1,0.3,0.3,0.4,0.5s0.1,0.4,0.1,0.6v2.4c0,0.2,0,0.3,0,0.5c0,0.1,0,0.3,0,0.4h-0.8c0-0.2,0-0.5,0-0.7h0
				c-0.2,0.3-0.4,0.5-0.7,0.7c-0.3,0.1-0.6,0.2-1,0.2c-0.2,0-0.4,0-0.6-0.1c-0.2-0.1-0.4-0.1-0.5-0.3c-0.1-0.1-0.3-0.3-0.4-0.4
				c-0.1-0.2-0.1-0.4-0.1-0.6c0-0.3,0.1-0.6,0.2-0.8s0.3-0.4,0.6-0.5c0.2-0.1,0.5-0.2,0.8-0.3s0.7-0.1,1-0.1h0.7v-0.2
				c0-0.1,0-0.2-0.1-0.4c0-0.1-0.1-0.2-0.2-0.3c-0.1-0.1-0.2-0.2-0.4-0.2c-0.1-0.1-0.3-0.1-0.5-0.1c-0.2,0-0.3,0-0.5,0.1
				c-0.1,0-0.2,0.1-0.4,0.1c-0.1,0-0.2,0.1-0.3,0.2c-0.1,0.1-0.2,0.1-0.2,0.2L165.3,30.6z M167.8,32.5c-0.2,0-0.4,0-0.7,0
				c-0.2,0-0.4,0.1-0.6,0.1c-0.2,0.1-0.3,0.2-0.5,0.3s-0.2,0.3-0.2,0.5c0,0.3,0.1,0.5,0.3,0.6c0.2,0.1,0.4,0.2,0.7,0.2
				c0.2,0,0.5,0,0.6-0.1c0.2-0.1,0.3-0.2,0.4-0.3s0.2-0.3,0.2-0.4c0-0.2,0.1-0.3,0.1-0.5v-0.3H167.8z"/>
			<path class="st6" d="M170.3,28.3c0-0.2,0.1-0.3,0.2-0.5c0.1-0.1,0.3-0.2,0.5-0.2c0.2,0,0.3,0.1,0.5,0.2c0.1,0.1,0.2,0.3,0.2,0.5
				s-0.1,0.3-0.2,0.5S171.2,29,171,29c-0.2,0-0.3-0.1-0.5-0.2C170.4,28.7,170.3,28.5,170.3,28.3z M170.5,30h0.9v4.7h-0.9V30z"/>
			<path class="st6" d="M175.4,30.8h-1.3V33c0,0.1,0,0.3,0,0.4s0,0.2,0.1,0.4c0,0.1,0.1,0.2,0.2,0.2c0.1,0.1,0.2,0.1,0.4,0.1
				c0.1,0,0.2,0,0.3,0s0.2-0.1,0.3-0.1v0.8c-0.1,0.1-0.2,0.1-0.4,0.1s-0.3,0-0.4,0c-0.3,0-0.6,0-0.8-0.1c-0.2-0.1-0.3-0.2-0.4-0.4
				c-0.1-0.2-0.1-0.3-0.2-0.5c0-0.2,0-0.4,0-0.6v-2.5h-1V30h1v-1.3h0.9V30h1.3V30.8z"/>
			<path class="st6" d="M179.7,30.8h-1V30h1V29c0-0.6,0.1-1.1,0.4-1.4c0.2-0.3,0.7-0.5,1.3-0.5c0.1,0,0.2,0,0.3,0
				c0.1,0,0.2,0,0.4,0.1l-0.1,0.8c-0.1,0-0.2-0.1-0.2-0.1c-0.1,0-0.2,0-0.3,0c-0.2,0-0.3,0-0.4,0.1c-0.1,0.1-0.2,0.1-0.2,0.2
				c-0.1,0.1-0.1,0.2-0.1,0.3s0,0.3,0,0.4V30h1.1v0.8h-1.1v4h-0.9V30.8z"/>
			<path class="st6" d="M182.4,32.4c0-0.3,0.1-0.7,0.2-1c0.1-0.3,0.3-0.6,0.5-0.8s0.5-0.4,0.8-0.5s0.6-0.2,1-0.2
				c0.4,0,0.7,0.1,1,0.2s0.6,0.3,0.8,0.5s0.4,0.5,0.5,0.8c0.1,0.3,0.2,0.6,0.2,1s-0.1,0.7-0.2,1s-0.3,0.6-0.5,0.8
				c-0.2,0.2-0.5,0.4-0.8,0.5c-0.3,0.1-0.6,0.2-1,0.2c-0.4,0-0.7-0.1-1-0.2c-0.3-0.1-0.6-0.3-0.8-0.5c-0.2-0.2-0.4-0.5-0.5-0.8
				C182.5,33.1,182.4,32.8,182.4,32.4z M183.4,32.4c0,0.2,0,0.5,0.1,0.7c0.1,0.2,0.2,0.4,0.3,0.5c0.1,0.1,0.3,0.3,0.5,0.3
				c0.2,0.1,0.4,0.1,0.7,0.1c0.2,0,0.5,0,0.6-0.1c0.2-0.1,0.4-0.2,0.5-0.3c0.1-0.1,0.2-0.3,0.3-0.5c0.1-0.2,0.1-0.4,0.1-0.7
				c0-0.2,0-0.5-0.1-0.7c-0.1-0.2-0.2-0.4-0.3-0.5c-0.1-0.1-0.3-0.3-0.5-0.3s-0.4-0.1-0.6-0.1c-0.2,0-0.5,0-0.7,0.1
				s-0.4,0.2-0.5,0.3c-0.1,0.1-0.2,0.3-0.3,0.5C183.4,31.9,183.4,32.2,183.4,32.4z"/>
			<path class="st6" d="M188.6,30h0.9v0.7h0c0.1-0.1,0.1-0.2,0.2-0.3c0.1-0.1,0.2-0.2,0.3-0.3c0.1-0.1,0.3-0.1,0.4-0.2
				s0.3-0.1,0.4-0.1c0.1,0,0.3,0,0.4,0.1l0,1c-0.1,0-0.1,0-0.2,0c-0.1,0-0.1,0-0.2,0c-0.4,0-0.8,0.1-1,0.4s-0.4,0.6-0.4,1.1v2.4
				h-0.9V30z"/>
			<path class="st6" d="M198.5,31.3c-0.2-0.2-0.3-0.3-0.5-0.4s-0.4-0.1-0.7-0.1c-0.2,0-0.5,0-0.6,0.1c-0.2,0.1-0.3,0.2-0.5,0.4
				s-0.2,0.3-0.3,0.5c-0.1,0.2-0.1,0.4-0.1,0.6c0,0.2,0,0.4,0.1,0.6c0.1,0.2,0.2,0.4,0.3,0.5s0.3,0.3,0.5,0.3
				c0.2,0.1,0.4,0.1,0.6,0.1c0.3,0,0.5,0,0.7-0.1s0.3-0.2,0.5-0.4l0.6,0.6c-0.2,0.3-0.5,0.4-0.8,0.6s-0.6,0.2-1,0.2
				c-0.4,0-0.7-0.1-1-0.2s-0.6-0.3-0.8-0.5c-0.2-0.2-0.4-0.5-0.5-0.8c-0.1-0.3-0.2-0.6-0.2-1s0.1-0.7,0.2-1s0.3-0.6,0.5-0.8
				c0.2-0.2,0.5-0.4,0.8-0.5c0.3-0.1,0.6-0.2,1-0.2c0.3,0,0.7,0.1,1,0.2c0.3,0.1,0.6,0.3,0.8,0.6L198.5,31.3z"/>
			<path class="st6" d="M199.9,30h0.9v0.7h0c0.1-0.1,0.1-0.2,0.2-0.3s0.2-0.2,0.3-0.3c0.1-0.1,0.3-0.1,0.4-0.2
				c0.1,0,0.3-0.1,0.4-0.1s0.3,0,0.4,0.1l0,1c-0.1,0-0.1,0-0.2,0c-0.1,0-0.1,0-0.2,0c-0.4,0-0.8,0.1-1,0.4c-0.2,0.2-0.3,0.6-0.3,1.1
				v2.4h-0.9V30z"/>
			<path class="st6" d="M203.5,28.3c0-0.2,0.1-0.3,0.2-0.5c0.1-0.1,0.3-0.2,0.5-0.2c0.2,0,0.3,0.1,0.5,0.2c0.1,0.1,0.2,0.3,0.2,0.5
				s-0.1,0.3-0.2,0.5c-0.1,0.1-0.3,0.2-0.5,0.2c-0.2,0-0.3-0.1-0.5-0.2S203.5,28.5,203.5,28.3z M203.7,30h0.9v4.7h-0.9V30z"/>
			<path class="st6" d="M206,30h0.9v0.7h0c0.2-0.3,0.4-0.4,0.7-0.6c0.3-0.1,0.6-0.2,0.9-0.2c0.4,0,0.7,0.1,1,0.2
				c0.3,0.1,0.5,0.3,0.8,0.5c0.2,0.2,0.4,0.5,0.5,0.8c0.1,0.3,0.2,0.6,0.2,1c0,0.4-0.1,0.7-0.2,1c-0.1,0.3-0.3,0.6-0.5,0.8
				c-0.2,0.2-0.5,0.4-0.8,0.5c-0.3,0.1-0.6,0.2-1,0.2c-0.3,0-0.7-0.1-1-0.2c-0.3-0.1-0.5-0.3-0.7-0.6h0v3.5H206V30z M208.5,30.8
				c-0.2,0-0.5,0-0.7,0.1s-0.4,0.2-0.5,0.3c-0.1,0.1-0.2,0.3-0.3,0.5c-0.1,0.2-0.1,0.4-0.1,0.7c0,0.2,0,0.5,0.1,0.7
				c0.1,0.2,0.2,0.4,0.3,0.5c0.1,0.1,0.3,0.3,0.5,0.3c0.2,0.1,0.4,0.1,0.7,0.1c0.2,0,0.5,0,0.6-0.1c0.2-0.1,0.4-0.2,0.5-0.3
				c0.1-0.1,0.2-0.3,0.3-0.5c0.1-0.2,0.1-0.4,0.1-0.7c0-0.2,0-0.5-0.1-0.7c-0.1-0.2-0.2-0.4-0.3-0.5c-0.1-0.1-0.3-0.3-0.5-0.3
				S208.7,30.8,208.5,30.8z"/>
			<path class="st6" d="M212.1,30h0.9v0.7h0c0.2-0.3,0.4-0.4,0.7-0.6s0.6-0.2,0.9-0.2c0.4,0,0.7,0.1,1,0.2c0.3,0.1,0.5,0.3,0.8,0.5
				c0.2,0.2,0.4,0.5,0.5,0.8c0.1,0.3,0.2,0.6,0.2,1c0,0.4-0.1,0.7-0.2,1c-0.1,0.3-0.3,0.6-0.5,0.8c-0.2,0.2-0.5,0.4-0.8,0.5
				c-0.3,0.1-0.6,0.2-1,0.2c-0.3,0-0.7-0.1-1-0.2c-0.3-0.1-0.5-0.3-0.7-0.6h0v3.5h-0.9V30z M214.6,30.8c-0.2,0-0.5,0-0.7,0.1
				s-0.4,0.2-0.5,0.3c-0.1,0.1-0.2,0.3-0.3,0.5c-0.1,0.2-0.1,0.4-0.1,0.7c0,0.2,0,0.5,0.1,0.7c0.1,0.2,0.2,0.4,0.3,0.5
				c0.1,0.1,0.3,0.3,0.5,0.3c0.2,0.1,0.4,0.1,0.7,0.1s0.5,0,0.7-0.1c0.2-0.1,0.4-0.2,0.5-0.3c0.1-0.1,0.2-0.3,0.3-0.5
				c0.1-0.2,0.1-0.4,0.1-0.7c0-0.2,0-0.5-0.1-0.7c-0.1-0.2-0.2-0.4-0.3-0.5c-0.1-0.1-0.3-0.3-0.5-0.3S214.8,30.8,214.6,30.8z"/>
			<path class="st6" d="M218.3,27.2h0.9v7.6h-0.9V27.2z"/>
			<path class="st6" d="M221.3,32.7c0,0.2,0,0.4,0.1,0.6c0.1,0.2,0.2,0.3,0.4,0.4c0.1,0.1,0.3,0.2,0.5,0.3c0.2,0.1,0.4,0.1,0.6,0.1
				c0.3,0,0.5-0.1,0.7-0.2s0.4-0.3,0.6-0.5l0.7,0.5c-0.5,0.6-1.2,1-2.1,1c-0.4,0-0.7-0.1-1-0.2c-0.3-0.1-0.6-0.3-0.8-0.5
				c-0.2-0.2-0.4-0.5-0.5-0.8c-0.1-0.3-0.2-0.6-0.2-1c0-0.4,0.1-0.7,0.2-1c0.1-0.3,0.3-0.6,0.5-0.8c0.2-0.2,0.5-0.4,0.8-0.5
				c0.3-0.1,0.6-0.2,1-0.2c0.4,0,0.8,0.1,1.1,0.2c0.3,0.1,0.5,0.3,0.7,0.6c0.2,0.2,0.3,0.5,0.4,0.8c0.1,0.3,0.1,0.6,0.1,0.9v0.3
				H221.3z M224.2,32c0-0.2,0-0.4-0.1-0.6c-0.1-0.2-0.1-0.3-0.3-0.4c-0.1-0.1-0.3-0.2-0.4-0.3c-0.2-0.1-0.4-0.1-0.6-0.1
				c-0.2,0-0.4,0-0.6,0.1c-0.2,0.1-0.3,0.2-0.5,0.3c-0.1,0.1-0.2,0.3-0.3,0.4c-0.1,0.2-0.1,0.3-0.1,0.5H224.2z"/>
			<path class="st6" d="M230.9,34.8H230v-0.7h0c-0.2,0.3-0.4,0.5-0.7,0.6c-0.3,0.1-0.6,0.2-0.9,0.2c-0.4,0-0.7-0.1-1-0.2
				c-0.3-0.1-0.6-0.3-0.8-0.5c-0.2-0.2-0.4-0.5-0.5-0.8c-0.1-0.3-0.2-0.6-0.2-1c0-0.4,0.1-0.7,0.2-1c0.1-0.3,0.3-0.6,0.5-0.8
				c0.2-0.2,0.5-0.4,0.8-0.5s0.6-0.2,1-0.2c0.3,0,0.7,0.1,1,0.2c0.3,0.1,0.5,0.3,0.7,0.6h0v-3.5h0.9V34.8z M228.5,34.1
				c0.2,0,0.5,0,0.6-0.1c0.2-0.1,0.4-0.2,0.5-0.3c0.1-0.1,0.2-0.3,0.3-0.5c0.1-0.2,0.1-0.4,0.1-0.7c0-0.2,0-0.5-0.1-0.7
				c-0.1-0.2-0.2-0.4-0.3-0.5c-0.1-0.1-0.3-0.3-0.5-0.3s-0.4-0.1-0.6-0.1c-0.2,0-0.5,0-0.7,0.1s-0.4,0.2-0.5,0.3
				c-0.1,0.1-0.2,0.3-0.3,0.5c-0.1,0.2-0.1,0.4-0.1,0.7c0,0.2,0,0.5,0.1,0.7c0.1,0.2,0.2,0.4,0.3,0.5c0.1,0.1,0.3,0.3,0.5,0.3
				C228,34,228.2,34.1,228.5,34.1z"/>
			<path class="st6" d="M235.1,27.2h0.9v3.6h0c0.1-0.3,0.3-0.5,0.6-0.6c0.3-0.2,0.6-0.2,1-0.2c0.2,0,0.4,0,0.7,0.1
				c0.2,0.1,0.4,0.2,0.5,0.3c0.2,0.1,0.3,0.3,0.4,0.6c0.1,0.2,0.1,0.5,0.1,0.8v3h-0.9V32c0-0.2,0-0.4-0.1-0.6
				c-0.1-0.2-0.1-0.3-0.2-0.4c-0.1-0.1-0.2-0.2-0.3-0.2c-0.1,0-0.3-0.1-0.4-0.1c-0.2,0-0.4,0-0.5,0.1s-0.3,0.2-0.4,0.3
				s-0.2,0.3-0.3,0.5c-0.1,0.2-0.1,0.4-0.1,0.7v2.4h-0.9V27.2z"/>
			<path class="st6" d="M241.3,32.7c0,0.2,0,0.4,0.1,0.6c0.1,0.2,0.2,0.3,0.4,0.4c0.1,0.1,0.3,0.2,0.5,0.3c0.2,0.1,0.4,0.1,0.6,0.1
				c0.3,0,0.5-0.1,0.7-0.2s0.4-0.3,0.6-0.5l0.7,0.5c-0.5,0.6-1.2,1-2.1,1c-0.4,0-0.7-0.1-1-0.2c-0.3-0.1-0.6-0.3-0.8-0.5
				c-0.2-0.2-0.4-0.5-0.5-0.8c-0.1-0.3-0.2-0.6-0.2-1c0-0.4,0.1-0.7,0.2-1c0.1-0.3,0.3-0.6,0.5-0.8c0.2-0.2,0.5-0.4,0.8-0.5
				c0.3-0.1,0.6-0.2,1-0.2c0.4,0,0.8,0.1,1.1,0.2c0.3,0.1,0.5,0.3,0.7,0.6c0.2,0.2,0.3,0.5,0.4,0.8c0.1,0.3,0.1,0.6,0.1,0.9v0.3
				H241.3z M244.2,32c0-0.2,0-0.4-0.1-0.6c-0.1-0.2-0.1-0.3-0.3-0.4c-0.1-0.1-0.3-0.2-0.4-0.3c-0.2-0.1-0.4-0.1-0.6-0.1
				c-0.2,0-0.4,0-0.6,0.1c-0.2,0.1-0.3,0.2-0.5,0.3c-0.1,0.1-0.2,0.3-0.3,0.4c-0.1,0.2-0.1,0.3-0.1,0.5H244.2z"/>
			<path class="st6" d="M246.2,30h0.9v0.7h0c0.1-0.1,0.1-0.2,0.2-0.3s0.2-0.2,0.3-0.3c0.1-0.1,0.3-0.1,0.4-0.2s0.3-0.1,0.4-0.1
				s0.3,0,0.4,0.1l0,1c-0.1,0-0.1,0-0.2,0c-0.1,0-0.1,0-0.2,0c-0.4,0-0.8,0.1-1,0.4c-0.2,0.2-0.3,0.6-0.3,1.1v2.4h-0.9V30z"/>
			<path class="st6" d="M254.5,34.8h-0.9v-0.7h0c-0.2,0.3-0.4,0.5-0.7,0.6c-0.3,0.1-0.6,0.2-0.9,0.2c-0.4,0-0.7-0.1-1-0.2
				c-0.3-0.1-0.5-0.3-0.8-0.5c-0.2-0.2-0.4-0.5-0.5-0.8c-0.1-0.3-0.2-0.6-0.2-1c0-0.4,0.1-0.7,0.2-1c0.1-0.3,0.3-0.6,0.5-0.8
				c0.2-0.2,0.5-0.4,0.8-0.5s0.6-0.2,1-0.2c0.3,0,0.7,0.1,1,0.2c0.3,0.1,0.5,0.3,0.7,0.6h0v-3.5h0.9V34.8z M252,34.1
				c0.2,0,0.5,0,0.7-0.1c0.2-0.1,0.4-0.2,0.5-0.3c0.1-0.1,0.2-0.3,0.3-0.5c0.1-0.2,0.1-0.4,0.1-0.7c0-0.2,0-0.5-0.1-0.7
				c-0.1-0.2-0.2-0.4-0.3-0.5c-0.1-0.1-0.3-0.3-0.5-0.3s-0.4-0.1-0.7-0.1s-0.5,0-0.7,0.1s-0.4,0.2-0.5,0.3c-0.1,0.1-0.2,0.3-0.3,0.5
				c-0.1,0.2-0.1,0.4-0.1,0.7c0,0.2,0,0.5,0.1,0.7c0.1,0.2,0.2,0.4,0.3,0.5c0.1,0.1,0.3,0.3,0.5,0.3C251.6,34,251.8,34.1,252,34.1z"
				/>
			<path class="st6" d="M258.6,30h0.8v0.7h0c0-0.1,0.1-0.1,0.2-0.2s0.2-0.2,0.3-0.3c0.1-0.1,0.3-0.2,0.5-0.2
				c0.2-0.1,0.4-0.1,0.6-0.1c0.4,0,0.6,0.1,0.9,0.2c0.2,0.1,0.4,0.4,0.6,0.7c0.2-0.3,0.4-0.5,0.7-0.7c0.3-0.1,0.6-0.2,0.8-0.2
				c0.4,0,0.7,0.1,0.9,0.2c0.2,0.1,0.4,0.3,0.6,0.5c0.1,0.2,0.2,0.4,0.3,0.7s0.1,0.5,0.1,0.8v2.8h-0.9v-2.6c0-0.2,0-0.4,0-0.5
				c0-0.2-0.1-0.3-0.1-0.4c-0.1-0.1-0.2-0.2-0.3-0.3c-0.1-0.1-0.3-0.1-0.5-0.1c-0.4,0-0.7,0.1-0.9,0.4c-0.2,0.3-0.3,0.6-0.3,1v2.6
				h-0.9v-2.5c0-0.2,0-0.4,0-0.6c0-0.2-0.1-0.3-0.1-0.5s-0.2-0.2-0.3-0.3c-0.1-0.1-0.3-0.1-0.5-0.1c-0.2,0-0.3,0-0.5,0.1
				c-0.2,0.1-0.3,0.2-0.4,0.3c-0.1,0.1-0.2,0.3-0.3,0.5c-0.1,0.2-0.1,0.4-0.1,0.7v2.5h-0.9V30z"/>
			<path class="st6" d="M267.8,32.7c0,0.2,0,0.4,0.1,0.6c0.1,0.2,0.2,0.3,0.4,0.4s0.3,0.2,0.5,0.3c0.2,0.1,0.4,0.1,0.6,0.1
				c0.3,0,0.5-0.1,0.7-0.2c0.2-0.1,0.4-0.3,0.6-0.5l0.7,0.5c-0.5,0.6-1.2,1-2.1,1c-0.4,0-0.7-0.1-1-0.2c-0.3-0.1-0.6-0.3-0.8-0.5
				c-0.2-0.2-0.4-0.5-0.5-0.8c-0.1-0.3-0.2-0.6-0.2-1c0-0.4,0.1-0.7,0.2-1s0.3-0.6,0.5-0.8c0.2-0.2,0.5-0.4,0.8-0.5s0.6-0.2,1-0.2
				c0.4,0,0.8,0.1,1.1,0.2c0.3,0.1,0.5,0.3,0.7,0.6s0.3,0.5,0.4,0.8c0.1,0.3,0.1,0.6,0.1,0.9v0.3H267.8z M270.7,32
				c0-0.2,0-0.4-0.1-0.6c-0.1-0.2-0.1-0.3-0.3-0.4c-0.1-0.1-0.3-0.2-0.4-0.3c-0.2-0.1-0.4-0.1-0.6-0.1c-0.2,0-0.4,0-0.6,0.1
				c-0.2,0.1-0.3,0.2-0.5,0.3s-0.2,0.3-0.3,0.4c-0.1,0.2-0.1,0.3-0.1,0.5H270.7z"/>
			<path class="st6" d="M272.7,30h0.8v0.7h0c0-0.1,0.1-0.1,0.2-0.2s0.2-0.2,0.3-0.3c0.1-0.1,0.3-0.2,0.5-0.2
				c0.2-0.1,0.4-0.1,0.6-0.1c0.4,0,0.6,0.1,0.9,0.2c0.2,0.1,0.4,0.4,0.6,0.7c0.2-0.3,0.4-0.5,0.7-0.7c0.3-0.1,0.6-0.2,0.8-0.2
				c0.4,0,0.7,0.1,0.9,0.2c0.2,0.1,0.4,0.3,0.6,0.5c0.1,0.2,0.2,0.4,0.3,0.7s0.1,0.5,0.1,0.8v2.8H279v-2.6c0-0.2,0-0.4,0-0.5
				c0-0.2-0.1-0.3-0.1-0.4c-0.1-0.1-0.2-0.2-0.3-0.3c-0.1-0.1-0.3-0.1-0.5-0.1c-0.4,0-0.7,0.1-0.9,0.4c-0.2,0.3-0.3,0.6-0.3,1v2.6
				h-0.9v-2.5c0-0.2,0-0.4,0-0.6c0-0.2-0.1-0.3-0.1-0.5s-0.2-0.2-0.3-0.3c-0.1-0.1-0.3-0.1-0.5-0.1c-0.2,0-0.3,0-0.5,0.1
				c-0.2,0.1-0.3,0.2-0.4,0.3c-0.1,0.1-0.2,0.3-0.3,0.5c-0.1,0.2-0.1,0.4-0.1,0.7v2.5h-0.9V30z"/>
			<path class="st6" d="M281.2,27.2h0.9v3.5h0c0.2-0.2,0.4-0.4,0.7-0.6c0.3-0.1,0.6-0.2,1-0.2c0.4,0,0.7,0.1,1,0.2
				c0.3,0.1,0.5,0.3,0.8,0.5c0.2,0.2,0.4,0.5,0.5,0.8s0.2,0.6,0.2,1c0,0.4-0.1,0.7-0.2,1c-0.1,0.3-0.3,0.6-0.5,0.8
				c-0.2,0.2-0.5,0.4-0.8,0.5c-0.3,0.1-0.6,0.2-1,0.2c-0.3,0-0.6-0.1-0.9-0.2c-0.3-0.1-0.5-0.3-0.7-0.6h0v0.7h-0.9V27.2z
				 M283.7,34.1c0.2,0,0.5,0,0.6-0.1c0.2-0.1,0.4-0.2,0.5-0.3c0.1-0.1,0.2-0.3,0.3-0.5c0.1-0.2,0.1-0.4,0.1-0.7c0-0.2,0-0.5-0.1-0.7
				c-0.1-0.2-0.2-0.4-0.3-0.5c-0.1-0.1-0.3-0.3-0.5-0.3s-0.4-0.1-0.6-0.1c-0.2,0-0.5,0-0.7,0.1s-0.4,0.2-0.5,0.3
				c-0.1,0.1-0.2,0.3-0.3,0.5c-0.1,0.2-0.1,0.4-0.1,0.7c0,0.2,0,0.5,0.1,0.7c0.1,0.2,0.2,0.4,0.3,0.5c0.1,0.1,0.3,0.3,0.5,0.3
				C283.2,34,283.4,34.1,283.7,34.1z"/>
			<path class="st6" d="M288,32.7c0,0.2,0,0.4,0.1,0.6c0.1,0.2,0.2,0.3,0.4,0.4c0.1,0.1,0.3,0.2,0.5,0.3c0.2,0.1,0.4,0.1,0.6,0.1
				c0.3,0,0.5-0.1,0.7-0.2s0.4-0.3,0.6-0.5l0.7,0.5c-0.5,0.6-1.2,1-2.1,1c-0.4,0-0.7-0.1-1-0.2c-0.3-0.1-0.6-0.3-0.8-0.5
				c-0.2-0.2-0.4-0.5-0.5-0.8c-0.1-0.3-0.2-0.6-0.2-1c0-0.4,0.1-0.7,0.2-1c0.1-0.3,0.3-0.6,0.5-0.8c0.2-0.2,0.5-0.4,0.8-0.5
				c0.3-0.1,0.6-0.2,1-0.2c0.4,0,0.8,0.1,1.1,0.2c0.3,0.1,0.5,0.3,0.7,0.6c0.2,0.2,0.3,0.5,0.4,0.8c0.1,0.3,0.1,0.6,0.1,0.9v0.3H288
				z M290.8,32c0-0.2,0-0.4-0.1-0.6c-0.1-0.2-0.1-0.3-0.3-0.4c-0.1-0.1-0.3-0.2-0.4-0.3c-0.2-0.1-0.4-0.1-0.6-0.1
				c-0.2,0-0.4,0-0.6,0.1c-0.2,0.1-0.3,0.2-0.5,0.3c-0.1,0.1-0.2,0.3-0.3,0.4c-0.1,0.2-0.1,0.3-0.1,0.5H290.8z"/>
			<path class="st6" d="M292.9,30h0.9v0.7h0c0.1-0.1,0.1-0.2,0.2-0.3s0.2-0.2,0.3-0.3c0.1-0.1,0.3-0.1,0.4-0.2s0.3-0.1,0.4-0.1
				s0.3,0,0.4,0.1l0,1c-0.1,0-0.1,0-0.2,0c-0.1,0-0.1,0-0.2,0c-0.4,0-0.8,0.1-1,0.4c-0.2,0.2-0.3,0.6-0.3,1.1v2.4h-0.9V30z"/>
			<path class="st6" d="M299.1,31.2c-0.1-0.1-0.2-0.2-0.4-0.3c-0.2-0.1-0.3-0.1-0.6-0.1c-0.2,0-0.4,0-0.6,0.1
				c-0.2,0.1-0.2,0.2-0.2,0.4c0,0.1,0,0.3,0.1,0.3c0.1,0.1,0.2,0.2,0.3,0.2c0.1,0.1,0.3,0.1,0.4,0.1c0.1,0,0.3,0,0.4,0.1
				c0.2,0,0.4,0.1,0.5,0.2c0.2,0.1,0.3,0.2,0.4,0.3c0.1,0.1,0.2,0.2,0.3,0.4c0.1,0.2,0.1,0.3,0.1,0.6c0,0.3-0.1,0.5-0.2,0.7
				s-0.3,0.3-0.4,0.5c-0.2,0.1-0.4,0.2-0.6,0.3s-0.5,0.1-0.7,0.1c-0.4,0-0.7-0.1-1-0.2c-0.3-0.1-0.6-0.3-0.8-0.7l0.7-0.6
				c0.1,0.1,0.3,0.3,0.5,0.4c0.2,0.1,0.4,0.2,0.7,0.2c0.1,0,0.2,0,0.3,0c0.1,0,0.2-0.1,0.3-0.1c0.1,0,0.2-0.1,0.2-0.2
				c0.1-0.1,0.1-0.2,0.1-0.3c0-0.1,0-0.2-0.1-0.3s-0.2-0.2-0.3-0.2s-0.2-0.1-0.4-0.1c-0.1,0-0.2-0.1-0.3-0.1c-0.2,0-0.4-0.1-0.5-0.2
				c-0.2-0.1-0.3-0.1-0.5-0.2c-0.1-0.1-0.2-0.2-0.3-0.4s-0.1-0.3-0.1-0.6c0-0.2,0.1-0.5,0.2-0.6c0.1-0.2,0.2-0.3,0.4-0.5
				s0.4-0.2,0.6-0.3s0.4-0.1,0.7-0.1c0.3,0,0.6,0.1,0.9,0.2c0.3,0.1,0.5,0.3,0.7,0.6L299.1,31.2z"/>
			<path class="st6" d="M301.6,36.1h-0.8l0.7-2.5h1L301.6,36.1z"/>
			<path class="st6" d="M69.8,43.2c-0.1-0.1-0.2-0.2-0.4-0.3c-0.2-0.1-0.3-0.1-0.6-0.1c-0.2,0-0.4,0-0.6,0.1
				c-0.2,0.1-0.2,0.2-0.2,0.4c0,0.1,0,0.3,0.1,0.3c0.1,0.1,0.2,0.2,0.3,0.2c0.1,0.1,0.3,0.1,0.4,0.1c0.1,0,0.3,0,0.4,0.1
				c0.2,0,0.4,0.1,0.5,0.2c0.2,0.1,0.3,0.2,0.4,0.3c0.1,0.1,0.2,0.2,0.3,0.4c0.1,0.2,0.1,0.3,0.1,0.6c0,0.3-0.1,0.5-0.2,0.7
				c-0.1,0.2-0.3,0.3-0.4,0.5c-0.2,0.1-0.4,0.2-0.6,0.3s-0.5,0.1-0.7,0.1c-0.4,0-0.7-0.1-1-0.2c-0.3-0.1-0.6-0.3-0.8-0.7l0.7-0.6
				c0.1,0.1,0.3,0.3,0.5,0.4c0.2,0.1,0.4,0.2,0.7,0.2c0.1,0,0.2,0,0.3,0s0.2-0.1,0.3-0.1c0.1,0,0.2-0.1,0.2-0.2
				c0.1-0.1,0.1-0.2,0.1-0.3c0-0.1,0-0.2-0.1-0.3c-0.1-0.1-0.2-0.2-0.3-0.2c-0.1-0.1-0.2-0.1-0.4-0.1c-0.1,0-0.2-0.1-0.3-0.1
				c-0.2,0-0.4-0.1-0.6-0.2s-0.3-0.1-0.5-0.2s-0.2-0.2-0.3-0.4s-0.1-0.3-0.1-0.6c0-0.2,0.1-0.5,0.2-0.6c0.1-0.2,0.2-0.3,0.4-0.5
				s0.4-0.2,0.6-0.3c0.2-0.1,0.4-0.1,0.7-0.1c0.3,0,0.6,0.1,0.9,0.2c0.3,0.1,0.5,0.3,0.7,0.6L69.8,43.2z"/>
			<path class="st6" d="M71.7,39.2h0.9v3.5h0c0.1-0.3,0.3-0.5,0.6-0.6c0.3-0.2,0.6-0.2,1-0.2c0.2,0,0.4,0,0.7,0.1s0.4,0.2,0.6,0.3
				c0.2,0.1,0.3,0.3,0.4,0.6c0.1,0.2,0.1,0.5,0.1,0.8v3H75V44c0-0.2,0-0.4-0.1-0.6c-0.1-0.2-0.1-0.3-0.2-0.4s-0.2-0.2-0.3-0.2
				c-0.1,0-0.3-0.1-0.4-0.1c-0.2,0-0.4,0-0.5,0.1c-0.2,0.1-0.3,0.2-0.4,0.3c-0.1,0.1-0.2,0.3-0.3,0.5c-0.1,0.2-0.1,0.4-0.1,0.7v2.4
				h-0.9V39.2z"/>
			<path class="st6" d="M77.1,44.4c0-0.3,0.1-0.7,0.2-1s0.3-0.6,0.5-0.8c0.2-0.2,0.5-0.4,0.8-0.5s0.6-0.2,1-0.2c0.4,0,0.7,0.1,1,0.2
				s0.6,0.3,0.8,0.5s0.4,0.5,0.5,0.8s0.2,0.6,0.2,1s-0.1,0.7-0.2,1c-0.1,0.3-0.3,0.6-0.5,0.8c-0.2,0.2-0.5,0.4-0.8,0.5
				c-0.3,0.1-0.6,0.2-1,0.2c-0.4,0-0.7-0.1-1-0.2c-0.3-0.1-0.6-0.3-0.8-0.5c-0.2-0.2-0.4-0.5-0.5-0.8C77.1,45.1,77.1,44.8,77.1,44.4
				z M78,44.4c0,0.2,0,0.5,0.1,0.7c0.1,0.2,0.2,0.4,0.3,0.5c0.1,0.1,0.3,0.3,0.5,0.3c0.2,0.1,0.4,0.1,0.7,0.1c0.2,0,0.5,0,0.6-0.1
				c0.2-0.1,0.4-0.2,0.5-0.3c0.1-0.1,0.2-0.3,0.3-0.5c0.1-0.2,0.1-0.4,0.1-0.7s0-0.5-0.1-0.7c-0.1-0.2-0.2-0.4-0.3-0.5
				c-0.1-0.1-0.3-0.3-0.5-0.3c-0.2-0.1-0.4-0.1-0.6-0.1c-0.2,0-0.5,0-0.7,0.1c-0.2,0.1-0.4,0.2-0.5,0.3c-0.1,0.1-0.2,0.3-0.3,0.5
				C78.1,43.9,78,44.2,78,44.4z"/>
			<path class="st6" d="M82.7,42h1l1.1,3.5h0l1.1-3.5h1l1.2,3.5h0l1-3.5h1l-1.5,4.7h-0.9l-1.3-3.5h0l-1.1,3.5h-1L82.7,42z"/>
			<path class="st6" d="M90.7,40.3c0-0.2,0.1-0.3,0.2-0.5c0.1-0.1,0.3-0.2,0.5-0.2c0.2,0,0.3,0.1,0.5,0.2c0.1,0.1,0.2,0.3,0.2,0.5
				c0,0.2-0.1,0.3-0.2,0.5c-0.1,0.1-0.3,0.2-0.5,0.2c-0.2,0-0.3-0.1-0.5-0.2C90.7,40.7,90.7,40.5,90.7,40.3z M90.9,42h0.9v4.7h-0.9
				V42z"/>
			<path class="st6" d="M93.2,42h0.9v0.7h0c0.1-0.3,0.3-0.5,0.6-0.6c0.3-0.2,0.6-0.2,1-0.2c0.2,0,0.4,0,0.7,0.1s0.4,0.2,0.6,0.3
				c0.2,0.1,0.3,0.3,0.4,0.6c0.1,0.2,0.1,0.5,0.1,0.8v3h-0.9V44c0-0.2,0-0.4-0.1-0.6c-0.1-0.2-0.1-0.3-0.2-0.4s-0.2-0.2-0.3-0.2
				c-0.1,0-0.3-0.1-0.4-0.1c-0.2,0-0.4,0-0.5,0.1c-0.2,0.1-0.3,0.2-0.4,0.3c-0.1,0.1-0.2,0.3-0.3,0.5c-0.1,0.2-0.1,0.4-0.1,0.7v2.4
				h-0.9V42z"/>
			<path class="st6" d="M103.5,46.7c0,0.4-0.1,0.7-0.2,1c-0.1,0.3-0.3,0.6-0.5,0.8c-0.2,0.2-0.5,0.4-0.8,0.5
				c-0.3,0.1-0.7,0.2-1.1,0.2c-0.5,0-0.9-0.1-1.2-0.2c-0.4-0.1-0.7-0.3-1.1-0.7l0.6-0.8c0.2,0.3,0.5,0.4,0.8,0.6
				c0.3,0.1,0.6,0.2,0.9,0.2c0.3,0,0.6,0,0.8-0.1c0.2-0.1,0.4-0.2,0.5-0.4c0.1-0.2,0.2-0.3,0.3-0.5c0.1-0.2,0.1-0.4,0.1-0.6V46h0
				c-0.2,0.3-0.4,0.5-0.7,0.6s-0.6,0.2-0.9,0.2c-0.3,0-0.7-0.1-1-0.2c-0.3-0.1-0.6-0.3-0.8-0.5c-0.2-0.2-0.4-0.5-0.5-0.8
				s-0.2-0.6-0.2-1s0.1-0.7,0.2-1c0.1-0.3,0.3-0.6,0.5-0.8s0.5-0.4,0.8-0.5c0.3-0.1,0.6-0.2,1-0.2c0.3,0,0.6,0.1,0.9,0.2
				c0.3,0.1,0.5,0.3,0.7,0.6h0V42h0.9V46.7z M101.1,42.8c-0.2,0-0.5,0-0.7,0.1c-0.2,0.1-0.4,0.2-0.5,0.3c-0.1,0.1-0.2,0.3-0.3,0.5
				c-0.1,0.2-0.1,0.4-0.1,0.7c0,0.5,0.1,0.9,0.4,1.2c0.3,0.3,0.7,0.4,1.1,0.4s0.9-0.1,1.1-0.4c0.3-0.3,0.4-0.7,0.4-1.2
				c0-0.2,0-0.5-0.1-0.7c-0.1-0.2-0.2-0.4-0.3-0.5c-0.1-0.1-0.3-0.3-0.5-0.3C101.5,42.8,101.3,42.8,101.1,42.8z"/>
			<path class="st6" d="M108.4,44.7c0,0.2,0,0.4,0.1,0.6c0.1,0.2,0.2,0.3,0.4,0.4c0.1,0.1,0.3,0.2,0.5,0.3c0.2,0.1,0.4,0.1,0.6,0.1
				c0.3,0,0.5-0.1,0.7-0.2c0.2-0.1,0.4-0.3,0.6-0.5l0.7,0.5c-0.5,0.6-1.2,1-2.1,1c-0.4,0-0.7-0.1-1-0.2c-0.3-0.1-0.6-0.3-0.8-0.5
				c-0.2-0.2-0.4-0.5-0.5-0.8s-0.2-0.6-0.2-1s0.1-0.7,0.2-1c0.1-0.3,0.3-0.6,0.5-0.8c0.2-0.2,0.5-0.4,0.8-0.5c0.3-0.1,0.6-0.2,1-0.2
				c0.4,0,0.8,0.1,1.1,0.2s0.5,0.3,0.7,0.6c0.2,0.2,0.3,0.5,0.4,0.8c0.1,0.3,0.1,0.6,0.1,0.9v0.3H108.4z M111.2,44
				c0-0.2,0-0.4-0.1-0.5c-0.1-0.2-0.1-0.3-0.3-0.4c-0.1-0.1-0.3-0.2-0.4-0.3c-0.2-0.1-0.4-0.1-0.6-0.1c-0.2,0-0.4,0-0.6,0.1
				c-0.2,0.1-0.3,0.2-0.5,0.3c-0.1,0.1-0.2,0.3-0.3,0.4c-0.1,0.2-0.1,0.3-0.1,0.5H111.2z"/>
			<path class="st6" d="M113.2,42h0.8v0.7h0c0-0.1,0.1-0.1,0.2-0.2s0.2-0.2,0.3-0.3c0.1-0.1,0.3-0.2,0.5-0.2
				c0.2-0.1,0.4-0.1,0.6-0.1c0.4,0,0.6,0.1,0.9,0.2c0.2,0.1,0.4,0.4,0.6,0.7c0.2-0.3,0.4-0.5,0.6-0.7c0.3-0.1,0.6-0.2,0.9-0.2
				c0.4,0,0.7,0.1,0.9,0.2c0.2,0.1,0.4,0.3,0.6,0.5c0.1,0.2,0.2,0.4,0.3,0.7c0,0.2,0.1,0.5,0.1,0.8v2.8h-0.9v-2.6c0-0.2,0-0.4,0-0.5
				s-0.1-0.3-0.1-0.4c-0.1-0.1-0.2-0.2-0.3-0.3c-0.1-0.1-0.3-0.1-0.5-0.1c-0.4,0-0.7,0.1-0.9,0.4c-0.2,0.3-0.3,0.6-0.3,1v2.6h-0.9
				v-2.5c0-0.2,0-0.4,0-0.6c0-0.2-0.1-0.3-0.1-0.5c-0.1-0.1-0.2-0.2-0.3-0.3c-0.1-0.1-0.3-0.1-0.5-0.1c-0.2,0-0.3,0-0.5,0.1
				c-0.2,0.1-0.3,0.2-0.4,0.3c-0.1,0.1-0.2,0.3-0.3,0.5c-0.1,0.2-0.1,0.4-0.1,0.7v2.5h-0.9V42z"/>
			<path class="st6" d="M121.8,42h0.9v0.7h0c0.2-0.3,0.4-0.5,0.7-0.6c0.3-0.1,0.6-0.2,0.9-0.2c0.4,0,0.7,0.1,1,0.2
				c0.3,0.1,0.5,0.3,0.8,0.5s0.4,0.5,0.5,0.8c0.1,0.3,0.2,0.6,0.2,1c0,0.4-0.1,0.7-0.2,1c-0.1,0.3-0.3,0.6-0.5,0.8
				c-0.2,0.2-0.5,0.4-0.8,0.5c-0.3,0.1-0.6,0.2-1,0.2c-0.3,0-0.7-0.1-1-0.2c-0.3-0.1-0.5-0.3-0.7-0.6h0v3.5h-0.9V42z M124.2,42.8
				c-0.2,0-0.5,0-0.6,0.1c-0.2,0.1-0.4,0.2-0.5,0.3c-0.1,0.1-0.2,0.3-0.3,0.5c-0.1,0.2-0.1,0.4-0.1,0.7s0,0.5,0.1,0.7
				c0.1,0.2,0.2,0.4,0.3,0.5c0.1,0.1,0.3,0.3,0.5,0.3c0.2,0.1,0.4,0.1,0.6,0.1c0.2,0,0.5,0,0.6-0.1c0.2-0.1,0.4-0.2,0.5-0.3
				c0.1-0.1,0.2-0.3,0.3-0.5c0.1-0.2,0.1-0.4,0.1-0.7s0-0.5-0.1-0.7c-0.1-0.2-0.2-0.4-0.3-0.5c-0.1-0.1-0.3-0.3-0.5-0.3
				C124.7,42.8,124.5,42.8,124.2,42.8z"/>
			<path class="st6" d="M127.9,42.6c0.3-0.2,0.5-0.4,0.9-0.5c0.3-0.1,0.7-0.2,1-0.2c0.3,0,0.6,0,0.9,0.1c0.2,0.1,0.5,0.2,0.6,0.3
				c0.2,0.1,0.3,0.3,0.4,0.5s0.1,0.4,0.1,0.6v2.4c0,0.2,0,0.3,0,0.5c0,0.1,0,0.3,0,0.4H131c0-0.2,0-0.5,0-0.7h0
				c-0.2,0.3-0.4,0.5-0.7,0.7c-0.3,0.1-0.6,0.2-1,0.2c-0.2,0-0.4,0-0.6-0.1c-0.2-0.1-0.4-0.2-0.5-0.3s-0.3-0.3-0.4-0.4
				c-0.1-0.2-0.1-0.4-0.1-0.6c0-0.3,0.1-0.6,0.2-0.8c0.1-0.2,0.3-0.4,0.6-0.5c0.2-0.1,0.5-0.2,0.8-0.3s0.7-0.1,1-0.1h0.7v-0.2
				c0-0.1,0-0.2-0.1-0.4c0-0.1-0.1-0.2-0.2-0.3c-0.1-0.1-0.2-0.2-0.4-0.2c-0.1-0.1-0.3-0.1-0.5-0.1c-0.2,0-0.3,0-0.5,0
				c-0.1,0-0.2,0.1-0.4,0.1c-0.1,0-0.2,0.1-0.3,0.2c-0.1,0.1-0.2,0.1-0.2,0.2L127.9,42.6z M130.4,44.5c-0.2,0-0.4,0-0.7,0
				c-0.2,0-0.4,0.1-0.6,0.1c-0.2,0.1-0.3,0.2-0.5,0.3s-0.2,0.3-0.2,0.5c0,0.3,0.1,0.5,0.3,0.6c0.2,0.1,0.4,0.2,0.7,0.2
				c0.2,0,0.5,0,0.6-0.1c0.2-0.1,0.3-0.2,0.4-0.3s0.2-0.3,0.2-0.4c0-0.2,0.1-0.3,0.1-0.5v-0.3H130.4z"/>
			<path class="st6" d="M135.6,42.8h-1.3V45c0,0.1,0,0.3,0,0.4s0,0.2,0.1,0.3c0,0.1,0.1,0.2,0.2,0.2c0.1,0.1,0.2,0.1,0.4,0.1
				c0.1,0,0.2,0,0.3,0s0.2-0.1,0.3-0.1v0.8c-0.1,0.1-0.2,0.1-0.4,0.1s-0.3,0-0.4,0c-0.3,0-0.6,0-0.8-0.1c-0.2-0.1-0.3-0.2-0.4-0.4
				c-0.1-0.2-0.1-0.3-0.2-0.5c0-0.2,0-0.4,0-0.6v-2.5h-1V42h1v-1.3h0.9V42h1.3V42.8z"/>
			<path class="st6" d="M136.8,39.2h0.9v3.5h0c0.1-0.3,0.3-0.5,0.6-0.6c0.3-0.2,0.6-0.2,1-0.2c0.2,0,0.4,0,0.7,0.1s0.4,0.2,0.6,0.3
				c0.2,0.1,0.3,0.3,0.4,0.6c0.1,0.2,0.1,0.5,0.1,0.8v3h-0.9V44c0-0.2,0-0.4-0.1-0.6c-0.1-0.2-0.1-0.3-0.2-0.4s-0.2-0.2-0.3-0.2
				c-0.1,0-0.3-0.1-0.4-0.1c-0.2,0-0.4,0-0.5,0.1c-0.2,0.1-0.3,0.2-0.4,0.3c-0.1,0.1-0.2,0.3-0.3,0.5c-0.1,0.2-0.1,0.4-0.1,0.7v2.4
				h-0.9V39.2z"/>
			<path class="st6" d="M141.8,42h1l1.4,3.7h0l1.3-3.7h1l-2.2,5.8c-0.1,0.2-0.2,0.4-0.2,0.6c-0.1,0.2-0.2,0.3-0.3,0.4
				c-0.1,0.1-0.3,0.2-0.4,0.3s-0.4,0.1-0.6,0.1c-0.1,0-0.3,0-0.4,0c-0.1,0-0.3-0.1-0.4-0.1l0.1-0.8c0.2,0.1,0.4,0.1,0.5,0.1
				c0.1,0,0.3,0,0.4-0.1s0.2-0.1,0.2-0.2c0.1-0.1,0.1-0.2,0.2-0.2c0-0.1,0.1-0.2,0.1-0.3l0.3-0.8L141.8,42z"/>
		</g>
	</g>
	<g>
		<path class="st5" d="M68.9,14.8h2.3v1.5h-2.3v3.1h2.8v1.5h-4.5V10.4h4.5v1.5h-2.8V14.8z"/>
		<path class="st5" d="M76.2,17.8L76.2,17.8l1.1-7.5h2.3v10.5h-1.6v-7.5h0l-1.1,7.5h-1.6l-1.2-7.4h0v7.4h-1.4V10.4H75L76.2,17.8z"/>
		<path class="st5" d="M80.7,12.9c0-1.7,0.9-2.6,2.5-2.6c1.6,0,2.5,1,2.5,2.6v5.5c0,1.7-0.9,2.6-2.5,2.6c-1.6,0-2.5-1-2.5-2.6V12.9z
			 M82.4,18.4c0,0.8,0.3,1,0.9,1s0.9-0.3,0.9-1v-5.7c0-0.8-0.3-1-0.9-1s-0.9,0.3-0.9,1V18.4z"/>
		<path class="st5" d="M86.3,10.4h5.1v1.5h-1.7v9H88v-9h-1.7V10.4z"/>
		<path class="st5" d="M92.1,10.4h1.6v10.5h-1.6V10.4z"/>
		<path class="st5" d="M94.8,12.9c0-1.7,0.9-2.6,2.5-2.6c1.6,0,2.5,1,2.5,2.6v5.5c0,1.7-0.9,2.6-2.5,2.6c-1.6,0-2.5-1-2.5-2.6V12.9z
			 M96.5,18.4c0,0.8,0.3,1,0.9,1s0.9-0.3,0.9-1v-5.7c0-0.8-0.3-1-0.9-1s-0.9,0.3-0.9,1V18.4z"/>
		<path class="st5" d="M102.4,13.3L102.4,13.3l0,7.6h-1.5V10.4h2.1l1.7,6.3h0v-6.3h1.5v10.5h-1.7L102.4,13.3z"/>
		<path class="st5" d="M109.5,10.2c1.6,0,2.4,1,2.4,2.6v0.3h-1.6v-0.4c0-0.8-0.3-1-0.8-1s-0.8,0.3-0.8,1c0,0.8,0.3,1.3,1.4,2.3
			c1.4,1.2,1.8,2.1,1.8,3.3c0,1.7-0.8,2.6-2.5,2.6c-1.6,0-2.5-1-2.5-2.6v-0.6h1.6v0.8c0,0.8,0.3,1,0.9,1s0.9-0.3,0.9-1
			c0-0.8-0.3-1.3-1.4-2.3c-1.4-1.2-1.8-2.1-1.8-3.3C107.1,11.2,107.9,10.2,109.5,10.2z"/>
	</g>
</g>
</svg>
