<?xml version="1.0" encoding="utf-8"?>
<!-- Generator: Adobe Illustrator 19.2.0, SVG Export Plug-In . SVG Version: 6.00 Build 0)  -->
<!DOCTYPE svg PUBLIC "-//W3C//DTD SVG 1.1//EN" "http://www.w3.org/Graphics/SVG/1.1/DTD/svg11.dtd">
<svg version="1.1" id="Layer_1" xmlns="http://www.w3.org/2000/svg" xmlns:xlink="http://www.w3.org/1999/xlink" x="0px" y="0px"
	 width="361.4px" height="72px" viewBox="0 0 361.4 72" style="enable-background:new 0 0 361.4 72;" xml:space="preserve">
<style type="text/css">
	.st0{fill:#92BEB8;}
	.st1{fill:#FFF6C5;}
	.st2{fill:#6CC1D9;}
	.st3{clip-path:url(#SVGID_2_);fill:#64B1C6;}
	.st4{fill:#FFCB5C;}
	.st5{fill:#F16E6A;}
	.st6{fill:#DB6460;}
	.st7{fill:#333332;}
</style>
<g>
	<path class="st0" d="M52.8,66.8h279.5c16.1,0,29.1-13.1,29.1-29.1S348.3,8.5,332.2,8.5H32C16,8.5,2.9,21.6,2.9,37.7
		C2.9,53.7,16,66.8,32,66.8h10.3"/>
	<path class="st1" d="M29.1,63.8l300.2,0V5.5H29.1C13.1,5.5,0,18.6,0,34.7v0C0,50.7,13.1,63.8,29.1,63.8z"/>
	<g>
		<circle class="st2" cx="329.3" cy="34.7" r="27.7"/>
		<g>
			<defs>
				<circle id="SVGID_1_" cx="329.3" cy="34.7" r="27.7"/>
			</defs>
			<clipPath id="SVGID_2_">
				<use xlink:href="#SVGID_1_"  style="overflow:visible;"/>
			</clipPath>
			<polygon class="st3" points="344.4,24.1 365.5,37.4 345.1,62.7 324,49.5 324,24.1 			"/>
		</g>
		<path class="st1" d="M329.3,63.8c-16.1,0-29.1-13.1-29.1-29.1s13.1-29.1,29.1-29.1c16.1,0,29.1,13.1,29.1,29.1
			S345.4,63.8,329.3,63.8z M329.3,8.4c-14.5,0-26.3,11.8-26.3,26.3s11.8,26.3,26.3,26.3c14.5,0,26.3-11.8,26.3-26.3
			S343.8,8.4,329.3,8.4z"/>
		<g>
			<path class="st4" d="M342.1,39.9h-29.9V27.6c0-2.4,2-4.4,4.4-4.4h25.5c2.4,0,4.4,2,4.4,4.4v7.9C346.5,37.9,344.5,39.9,342.1,39.9
				z"/>
			<polygon class="st5" points="324,39.9 324,49.5 312.2,39.9 			"/>
			<circle class="st5" cx="326" cy="34.3" r="2"/>
			<circle class="st5" cx="332.8" cy="34.3" r="2"/>
			<circle class="st5" cx="339.5" cy="34.3" r="2"/>
			<polygon class="st6" points="324,39.9 324,42 314.9,42 312.2,39.9 			"/>
		</g>
	</g>
	<g>
		<g>
			<path class="st7" d="M31.4,28.7h0.9l3,7.1h-1.1L33.5,34h-3.4l-0.7,1.8h-1.1L31.4,28.7z M33.1,33.2L31.8,30h0l-1.3,3.2H33.1z"/>
			<path class="st7" d="M36.1,28.2H37v7.6h-0.9V28.2z"/>
			<path class="st7" d="M41,31.8h-1.3V34c0,0.1,0,0.3,0,0.4s0,0.2,0.1,0.4s0.1,0.2,0.2,0.2s0.2,0.1,0.4,0.1c0.1,0,0.2,0,0.3,0
				c0.1,0,0.2-0.1,0.3-0.1v0.8c-0.1,0.1-0.2,0.1-0.4,0.1s-0.3,0-0.4,0c-0.3,0-0.6,0-0.8-0.1s-0.3-0.2-0.4-0.4s-0.1-0.3-0.2-0.5
				c0-0.2,0-0.4,0-0.6v-2.5h-1v-0.8h1v-1.3h0.9v1.3H41V31.8z"/>
			<path class="st7" d="M42.1,28.2H43v3.5h0c0.1-0.3,0.3-0.5,0.6-0.6c0.3-0.2,0.6-0.2,1-0.2c0.2,0,0.4,0,0.7,0.1s0.4,0.2,0.5,0.3
				s0.3,0.3,0.4,0.6c0.1,0.2,0.1,0.5,0.1,0.8v3h-0.9V33c0-0.2,0-0.4-0.1-0.6c-0.1-0.2-0.1-0.3-0.2-0.4c-0.1-0.1-0.2-0.2-0.3-0.2
				c-0.1,0-0.3-0.1-0.4-0.1c-0.2,0-0.4,0-0.5,0.1c-0.2,0.1-0.3,0.2-0.4,0.3s-0.2,0.3-0.3,0.5C43,32.8,43,33.1,43,33.4v2.4h-0.9V28.2
				z"/>
			<path class="st7" d="M47.4,33.4c0-0.3,0.1-0.7,0.2-1s0.3-0.6,0.5-0.8s0.5-0.4,0.8-0.5s0.6-0.2,1-0.2s0.7,0.1,1,0.2
				s0.6,0.3,0.8,0.5s0.4,0.5,0.5,0.8s0.2,0.6,0.2,1s-0.1,0.7-0.2,1c-0.1,0.3-0.3,0.6-0.5,0.8s-0.5,0.4-0.8,0.5
				c-0.3,0.1-0.6,0.2-1,0.2s-0.7-0.1-1-0.2c-0.3-0.1-0.6-0.3-0.8-0.5s-0.4-0.5-0.5-0.8C47.5,34.1,47.4,33.8,47.4,33.4z M48.4,33.4
				c0,0.2,0,0.5,0.1,0.7c0.1,0.2,0.2,0.4,0.3,0.5c0.1,0.1,0.3,0.3,0.5,0.3s0.4,0.1,0.7,0.1s0.5,0,0.7-0.1s0.4-0.2,0.5-0.3
				c0.1-0.1,0.2-0.3,0.3-0.5c0.1-0.2,0.1-0.4,0.1-0.7c0-0.2,0-0.5-0.1-0.7c-0.1-0.2-0.2-0.4-0.3-0.5c-0.1-0.1-0.3-0.3-0.5-0.3
				c-0.2-0.1-0.4-0.1-0.7-0.1s-0.5,0-0.7,0.1c-0.2,0.1-0.4,0.2-0.5,0.3c-0.1,0.1-0.2,0.3-0.3,0.5C48.4,33,48.4,33.2,48.4,33.4z"/>
			<path class="st7" d="M57.8,35.8h-0.9v-0.7h0c-0.1,0.3-0.3,0.5-0.6,0.6c-0.3,0.2-0.6,0.2-1,0.2c-0.2,0-0.5,0-0.7-0.1
				c-0.2-0.1-0.4-0.2-0.5-0.3c-0.2-0.1-0.3-0.3-0.4-0.6c-0.1-0.2-0.1-0.5-0.1-0.8v-3.1h0.9v2.8c0,0.2,0,0.4,0.1,0.6
				c0.1,0.2,0.1,0.3,0.2,0.4s0.2,0.2,0.3,0.2c0.1,0,0.3,0.1,0.4,0.1c0.2,0,0.4,0,0.5-0.1c0.2-0.1,0.3-0.2,0.4-0.3s0.2-0.3,0.3-0.5
				c0.1-0.2,0.1-0.4,0.1-0.7v-2.4h0.9V35.8z"/>
			<path class="st7" d="M63.9,35.8c0,0.4-0.1,0.7-0.2,1c-0.1,0.3-0.3,0.6-0.5,0.8s-0.5,0.4-0.8,0.5c-0.3,0.1-0.7,0.2-1.1,0.2
				c-0.5,0-0.9-0.1-1.2-0.2c-0.4-0.1-0.7-0.3-1.1-0.7l0.6-0.8c0.2,0.3,0.5,0.4,0.8,0.6s0.6,0.2,0.9,0.2c0.3,0,0.6,0,0.8-0.1
				c0.2-0.1,0.4-0.2,0.5-0.4s0.2-0.3,0.3-0.5c0.1-0.2,0.1-0.4,0.1-0.6V35h0c-0.2,0.3-0.4,0.5-0.7,0.6s-0.6,0.2-0.9,0.2
				c-0.3,0-0.7-0.1-1-0.2c-0.3-0.1-0.6-0.3-0.8-0.5c-0.2-0.2-0.4-0.5-0.5-0.8c-0.1-0.3-0.2-0.6-0.2-1s0.1-0.7,0.2-1
				c0.1-0.3,0.3-0.6,0.5-0.8s0.5-0.4,0.8-0.5c0.3-0.1,0.6-0.2,1-0.2c0.3,0,0.6,0.1,0.9,0.2c0.3,0.1,0.5,0.3,0.7,0.6h0v-0.7h0.9V35.8
				z M61.5,31.8c-0.2,0-0.5,0-0.7,0.1c-0.2,0.1-0.4,0.2-0.5,0.3c-0.1,0.1-0.2,0.3-0.3,0.5c-0.1,0.2-0.1,0.4-0.1,0.7
				c0,0.5,0.1,0.9,0.4,1.2c0.3,0.3,0.7,0.4,1.1,0.4c0.5,0,0.9-0.1,1.1-0.4c0.3-0.3,0.4-0.7,0.4-1.2c0-0.2,0-0.5-0.1-0.7
				c-0.1-0.2-0.2-0.4-0.3-0.5c-0.1-0.1-0.3-0.3-0.5-0.3C61.9,31.8,61.7,31.8,61.5,31.8z"/>
			<path class="st7" d="M65.3,28.2h0.9v3.5h0c0.1-0.3,0.3-0.5,0.6-0.6c0.3-0.2,0.6-0.2,1-0.2c0.2,0,0.4,0,0.7,0.1s0.4,0.2,0.5,0.3
				s0.3,0.3,0.4,0.6c0.1,0.2,0.1,0.5,0.1,0.8v3h-0.9V33c0-0.2,0-0.4-0.1-0.6c-0.1-0.2-0.1-0.3-0.2-0.4c-0.1-0.1-0.2-0.2-0.3-0.2
				c-0.1,0-0.3-0.1-0.4-0.1c-0.2,0-0.4,0-0.5,0.1c-0.2,0.1-0.3,0.2-0.4,0.3s-0.2,0.3-0.3,0.5c-0.1,0.2-0.1,0.4-0.1,0.7v2.4h-0.9
				V28.2z"/>
			<path class="st7" d="M73.6,31.1h0.9v0.7h0c0.2-0.3,0.4-0.5,0.7-0.6c0.3-0.1,0.6-0.2,0.9-0.2c0.4,0,0.7,0.1,1,0.2
				c0.3,0.1,0.5,0.3,0.8,0.5s0.4,0.5,0.5,0.8s0.2,0.6,0.2,1c0,0.4-0.1,0.7-0.2,1s-0.3,0.6-0.5,0.8s-0.5,0.4-0.8,0.5
				c-0.3,0.1-0.6,0.2-1,0.2c-0.3,0-0.7-0.1-1-0.2s-0.5-0.3-0.7-0.6h0v3.5h-0.9V31.1z M76.1,31.8c-0.2,0-0.5,0-0.7,0.1
				c-0.2,0.1-0.4,0.2-0.5,0.3c-0.1,0.1-0.2,0.3-0.3,0.5c-0.1,0.2-0.1,0.4-0.1,0.7c0,0.2,0,0.5,0.1,0.7c0.1,0.2,0.2,0.4,0.3,0.5
				c0.1,0.1,0.3,0.3,0.5,0.3s0.4,0.1,0.7,0.1c0.2,0,0.5,0,0.6-0.1s0.4-0.2,0.5-0.3c0.1-0.1,0.2-0.3,0.3-0.5c0.1-0.2,0.1-0.4,0.1-0.7
				c0-0.2,0-0.5-0.1-0.7c-0.1-0.2-0.2-0.4-0.3-0.5c-0.1-0.1-0.3-0.3-0.5-0.3C76.5,31.8,76.3,31.8,76.1,31.8z"/>
			<path class="st7" d="M79.7,31.1h0.9v0.7h0c0.1-0.1,0.1-0.2,0.2-0.3s0.2-0.2,0.3-0.3c0.1-0.1,0.3-0.1,0.4-0.2
				c0.1,0,0.3-0.1,0.4-0.1s0.3,0,0.4,0.1l0,1c-0.1,0-0.1,0-0.2,0c-0.1,0-0.1,0-0.2,0c-0.4,0-0.8,0.1-1,0.4c-0.2,0.2-0.3,0.6-0.3,1.1
				v2.4h-0.9V31.1z"/>
			<path class="st7" d="M83.3,29.4c0-0.2,0.1-0.3,0.2-0.5c0.1-0.1,0.3-0.2,0.5-0.2s0.3,0.1,0.5,0.2c0.1,0.1,0.2,0.3,0.2,0.5
				c0,0.2-0.1,0.3-0.2,0.5S84.1,30,84,30s-0.3-0.1-0.5-0.2S83.3,29.5,83.3,29.4z M83.5,31.1h0.9v4.7h-0.9V31.1z"/>
			<path class="st7" d="M85.8,31.1h0.8v0.7h0c0-0.1,0.1-0.1,0.2-0.2c0.1-0.1,0.2-0.2,0.3-0.3c0.1-0.1,0.3-0.2,0.5-0.2
				s0.4-0.1,0.6-0.1c0.4,0,0.7,0.1,0.9,0.2c0.2,0.1,0.4,0.4,0.6,0.7c0.2-0.3,0.4-0.5,0.6-0.7c0.3-0.1,0.6-0.2,0.9-0.2
				c0.4,0,0.7,0.1,0.9,0.2s0.4,0.3,0.6,0.5c0.1,0.2,0.2,0.4,0.3,0.7S93,32.8,93,33v2.8h-0.9v-2.6c0-0.2,0-0.4,0-0.5
				c0-0.2-0.1-0.3-0.1-0.4s-0.2-0.2-0.3-0.3c-0.1-0.1-0.3-0.1-0.5-0.1c-0.4,0-0.7,0.1-0.9,0.4c-0.2,0.3-0.3,0.6-0.3,1v2.6H89v-2.5
				c0-0.2,0-0.4,0-0.6s-0.1-0.3-0.1-0.5s-0.2-0.2-0.3-0.3c-0.1-0.1-0.3-0.1-0.5-0.1c-0.2,0-0.3,0-0.5,0.1s-0.3,0.2-0.4,0.3
				c-0.1,0.1-0.2,0.3-0.3,0.5c-0.1,0.2-0.1,0.4-0.1,0.7v2.5h-0.9V31.1z"/>
			<path class="st7" d="M94.4,31.6c0.3-0.2,0.5-0.4,0.9-0.5c0.3-0.1,0.7-0.2,1-0.2c0.3,0,0.6,0,0.9,0.1s0.5,0.2,0.6,0.3
				c0.2,0.1,0.3,0.3,0.4,0.5c0.1,0.2,0.1,0.4,0.1,0.6v2.4c0,0.2,0,0.3,0,0.5c0,0.1,0,0.3,0,0.4h-0.8c0-0.2,0-0.5,0-0.7h0
				c-0.2,0.3-0.4,0.5-0.7,0.7c-0.3,0.1-0.6,0.2-1,0.2c-0.2,0-0.4,0-0.6-0.1s-0.4-0.2-0.5-0.3c-0.2-0.1-0.3-0.3-0.4-0.4
				s-0.1-0.4-0.1-0.6c0-0.3,0.1-0.6,0.2-0.8c0.1-0.2,0.3-0.4,0.6-0.5c0.2-0.1,0.5-0.2,0.8-0.3s0.7-0.1,1-0.1h0.7v-0.2
				c0-0.1,0-0.2-0.1-0.4s-0.1-0.2-0.2-0.3c-0.1-0.1-0.2-0.2-0.4-0.2c-0.1-0.1-0.3-0.1-0.5-0.1c-0.2,0-0.3,0-0.5,0
				c-0.1,0-0.2,0.1-0.4,0.1s-0.2,0.1-0.3,0.2c-0.1,0.1-0.2,0.1-0.2,0.2L94.4,31.6z M96.9,33.5c-0.2,0-0.4,0-0.7,0
				c-0.2,0-0.4,0.1-0.6,0.1c-0.2,0.1-0.3,0.2-0.5,0.3c-0.1,0.1-0.2,0.3-0.2,0.5c0,0.3,0.1,0.5,0.3,0.6c0.2,0.1,0.4,0.2,0.7,0.2
				c0.2,0,0.5,0,0.6-0.1c0.2-0.1,0.3-0.2,0.4-0.3c0.1-0.1,0.2-0.3,0.2-0.4c0-0.2,0.1-0.3,0.1-0.5v-0.3H96.9z"/>
			<path class="st7" d="M102.1,31.8h-1.3V34c0,0.1,0,0.3,0,0.4s0,0.2,0.1,0.4s0.1,0.2,0.2,0.2s0.2,0.1,0.4,0.1c0.1,0,0.2,0,0.3,0
				c0.1,0,0.2-0.1,0.3-0.1v0.8c-0.1,0.1-0.2,0.1-0.4,0.1s-0.3,0-0.4,0c-0.3,0-0.6,0-0.8-0.1s-0.3-0.2-0.4-0.4s-0.1-0.3-0.2-0.5
				c0-0.2,0-0.4,0-0.6v-2.5h-1v-0.8h1v-1.3h0.9v1.3h1.3V31.8z"/>
			<path class="st7" d="M103.9,33.8c0,0.2,0,0.4,0.1,0.6s0.2,0.3,0.4,0.4c0.1,0.1,0.3,0.2,0.5,0.3s0.4,0.1,0.6,0.1
				c0.3,0,0.5-0.1,0.7-0.2c0.2-0.1,0.4-0.3,0.6-0.5l0.7,0.5c-0.5,0.6-1.2,1-2.1,1c-0.4,0-0.7-0.1-1-0.2c-0.3-0.1-0.6-0.3-0.8-0.5
				s-0.4-0.5-0.5-0.8s-0.2-0.6-0.2-1c0-0.4,0.1-0.7,0.2-1c0.1-0.3,0.3-0.6,0.5-0.8c0.2-0.2,0.5-0.4,0.8-0.5c0.3-0.1,0.6-0.2,1-0.2
				c0.4,0,0.8,0.1,1.1,0.2s0.5,0.3,0.7,0.6c0.2,0.2,0.3,0.5,0.4,0.8s0.1,0.6,0.1,0.9v0.3H103.9z M106.8,33c0-0.2,0-0.4-0.1-0.5
				s-0.1-0.3-0.3-0.4c-0.1-0.1-0.3-0.2-0.4-0.3c-0.2-0.1-0.4-0.1-0.6-0.1c-0.2,0-0.4,0-0.6,0.1c-0.2,0.1-0.3,0.2-0.5,0.3
				c-0.1,0.1-0.2,0.3-0.3,0.4c-0.1,0.2-0.1,0.3-0.1,0.5H106.8z"/>
			<path class="st7" d="M111.3,32.2c-0.1-0.1-0.2-0.2-0.4-0.3s-0.3-0.1-0.6-0.1c-0.2,0-0.4,0-0.6,0.1c-0.2,0.1-0.2,0.2-0.2,0.4
				c0,0.1,0,0.3,0.1,0.3c0.1,0.1,0.2,0.2,0.3,0.2c0.1,0.1,0.3,0.1,0.4,0.1c0.1,0,0.3,0,0.4,0.1c0.2,0,0.4,0.1,0.5,0.2
				c0.2,0.1,0.3,0.2,0.4,0.3c0.1,0.1,0.2,0.2,0.3,0.4s0.1,0.3,0.1,0.6c0,0.3-0.1,0.5-0.2,0.7c-0.1,0.2-0.3,0.3-0.4,0.5
				s-0.4,0.2-0.6,0.3c-0.2,0.1-0.5,0.1-0.7,0.1c-0.4,0-0.7-0.1-1-0.2c-0.3-0.1-0.6-0.3-0.8-0.7l0.7-0.6c0.1,0.1,0.3,0.3,0.5,0.4
				c0.2,0.1,0.4,0.2,0.7,0.2c0.1,0,0.2,0,0.3,0c0.1,0,0.2-0.1,0.3-0.1c0.1,0,0.2-0.1,0.2-0.2s0.1-0.2,0.1-0.3c0-0.1,0-0.2-0.1-0.3
				c-0.1-0.1-0.2-0.2-0.3-0.2c-0.1,0-0.2-0.1-0.4-0.1s-0.2-0.1-0.3-0.1c-0.2,0-0.4-0.1-0.5-0.2c-0.2-0.1-0.3-0.1-0.5-0.2
				c-0.1-0.1-0.2-0.2-0.3-0.4s-0.1-0.3-0.1-0.6c0-0.2,0.1-0.5,0.2-0.6s0.2-0.3,0.4-0.5s0.4-0.2,0.6-0.3c0.2-0.1,0.4-0.1,0.7-0.1
				c0.3,0,0.6,0.1,0.9,0.2c0.3,0.1,0.5,0.3,0.7,0.6L111.3,32.2z"/>
			<path class="st7" d="M119.4,32.3c-0.2-0.2-0.3-0.3-0.5-0.4s-0.4-0.1-0.7-0.1c-0.2,0-0.5,0-0.6,0.1c-0.2,0.1-0.3,0.2-0.5,0.4
				c-0.1,0.2-0.2,0.3-0.3,0.5s-0.1,0.4-0.1,0.6c0,0.2,0,0.4,0.1,0.6c0.1,0.2,0.2,0.4,0.3,0.5c0.1,0.1,0.3,0.3,0.5,0.3
				s0.4,0.1,0.6,0.1c0.3,0,0.5,0,0.7-0.1s0.3-0.2,0.5-0.4l0.6,0.6c-0.2,0.3-0.5,0.4-0.8,0.6c-0.3,0.1-0.6,0.2-1,0.2
				c-0.4,0-0.7-0.1-1-0.2s-0.6-0.3-0.8-0.5s-0.4-0.5-0.5-0.8s-0.2-0.6-0.2-1c0-0.4,0.1-0.7,0.2-1s0.3-0.6,0.5-0.8
				c0.2-0.2,0.5-0.4,0.8-0.5c0.3-0.1,0.6-0.2,1-0.2c0.3,0,0.7,0.1,1,0.2c0.3,0.1,0.6,0.3,0.8,0.6L119.4,32.3z"/>
			<path class="st7" d="M120.9,31.6c0.3-0.2,0.5-0.4,0.9-0.5c0.3-0.1,0.7-0.2,1-0.2c0.3,0,0.6,0,0.9,0.1s0.5,0.2,0.6,0.3
				c0.2,0.1,0.3,0.3,0.4,0.5c0.1,0.2,0.1,0.4,0.1,0.6v2.4c0,0.2,0,0.3,0,0.5c0,0.1,0,0.3,0,0.4H124c0-0.2,0-0.5,0-0.7h0
				c-0.2,0.3-0.4,0.5-0.7,0.7c-0.3,0.1-0.6,0.2-1,0.2c-0.2,0-0.4,0-0.6-0.1s-0.4-0.2-0.5-0.3c-0.2-0.1-0.3-0.3-0.4-0.4
				s-0.1-0.4-0.1-0.6c0-0.3,0.1-0.6,0.2-0.8c0.1-0.2,0.3-0.4,0.6-0.5c0.2-0.1,0.5-0.2,0.8-0.3s0.7-0.1,1-0.1h0.7v-0.2
				c0-0.1,0-0.2-0.1-0.4s-0.1-0.2-0.2-0.3c-0.1-0.1-0.2-0.2-0.4-0.2c-0.1-0.1-0.3-0.1-0.5-0.1c-0.2,0-0.3,0-0.5,0
				c-0.1,0-0.2,0.1-0.4,0.1s-0.2,0.1-0.3,0.2c-0.1,0.1-0.2,0.1-0.2,0.2L120.9,31.6z M123.4,33.5c-0.2,0-0.4,0-0.7,0
				c-0.2,0-0.4,0.1-0.6,0.1c-0.2,0.1-0.3,0.2-0.5,0.3c-0.1,0.1-0.2,0.3-0.2,0.5c0,0.3,0.1,0.5,0.3,0.6c0.2,0.1,0.4,0.2,0.7,0.2
				c0.2,0,0.5,0,0.6-0.1c0.2-0.1,0.3-0.2,0.4-0.3c0.1-0.1,0.2-0.3,0.2-0.4c0-0.2,0.1-0.3,0.1-0.5v-0.3H123.4z"/>
			<path class="st7" d="M126,31.1h0.9v0.7h0c0.1-0.3,0.3-0.5,0.6-0.6c0.3-0.2,0.6-0.2,1-0.2c0.2,0,0.4,0,0.7,0.1s0.4,0.2,0.6,0.3
				c0.2,0.1,0.3,0.3,0.4,0.6c0.1,0.2,0.1,0.5,0.1,0.8v3h-0.9V33c0-0.2,0-0.4-0.1-0.6c-0.1-0.2-0.1-0.3-0.2-0.4
				c-0.1-0.1-0.2-0.2-0.3-0.2c-0.1,0-0.3-0.1-0.4-0.1c-0.2,0-0.4,0-0.5,0.1c-0.2,0.1-0.3,0.2-0.4,0.3s-0.2,0.3-0.3,0.5
				c-0.1,0.2-0.1,0.4-0.1,0.7v2.4H126V31.1z"/>
			<path class="st7" d="M132.3,31.2h-0.8l0.7-2.5h1L132.3,31.2z"/>
			<path class="st7" d="M136.7,31.8h-1.3V34c0,0.1,0,0.3,0,0.4s0,0.2,0.1,0.4s0.1,0.2,0.2,0.2s0.2,0.1,0.4,0.1c0.1,0,0.2,0,0.3,0
				c0.1,0,0.2-0.1,0.3-0.1v0.8c-0.1,0.1-0.2,0.1-0.4,0.1s-0.3,0-0.4,0c-0.3,0-0.6,0-0.8-0.1s-0.3-0.2-0.4-0.4s-0.1-0.3-0.2-0.5
				c0-0.2,0-0.4,0-0.6v-2.5h-1v-0.8h1v-1.3h0.9v1.3h1.3V31.8z"/>
			<path class="st7" d="M140.7,31.1h0.9v0.7h0c0.1-0.1,0.1-0.2,0.2-0.3s0.2-0.2,0.3-0.3c0.1-0.1,0.3-0.1,0.4-0.2
				c0.1,0,0.3-0.1,0.4-0.1s0.3,0,0.4,0.1l0,1c-0.1,0-0.1,0-0.2,0c-0.1,0-0.1,0-0.2,0c-0.4,0-0.8,0.1-1,0.4c-0.2,0.2-0.3,0.6-0.3,1.1
				v2.4h-0.9V31.1z"/>
			<path class="st7" d="M144.9,33.8c0,0.2,0,0.4,0.1,0.6c0.1,0.2,0.2,0.3,0.4,0.4s0.3,0.2,0.5,0.3s0.4,0.1,0.6,0.1
				c0.3,0,0.5-0.1,0.7-0.2c0.2-0.1,0.4-0.3,0.6-0.5l0.7,0.5c-0.5,0.6-1.2,1-2.1,1c-0.4,0-0.7-0.1-1-0.2c-0.3-0.1-0.6-0.3-0.8-0.5
				s-0.4-0.5-0.5-0.8s-0.2-0.6-0.2-1c0-0.4,0.1-0.7,0.2-1c0.1-0.3,0.3-0.6,0.5-0.8s0.5-0.4,0.8-0.5c0.3-0.1,0.6-0.2,1-0.2
				c0.4,0,0.8,0.1,1.1,0.2s0.5,0.3,0.7,0.6c0.2,0.2,0.3,0.5,0.4,0.8c0.1,0.3,0.1,0.6,0.1,0.9v0.3H144.9z M147.7,33
				c0-0.2,0-0.4-0.1-0.5s-0.1-0.3-0.3-0.4c-0.1-0.1-0.3-0.2-0.4-0.3c-0.2-0.1-0.4-0.1-0.6-0.1c-0.2,0-0.4,0-0.6,0.1
				s-0.3,0.2-0.5,0.3c-0.1,0.1-0.2,0.3-0.3,0.4c-0.1,0.2-0.1,0.3-0.1,0.5H147.7z"/>
			<path class="st7" d="M149.8,31.6c0.3-0.2,0.5-0.4,0.9-0.5c0.3-0.1,0.7-0.2,1-0.2c0.3,0,0.6,0,0.9,0.1s0.5,0.2,0.6,0.3
				c0.2,0.1,0.3,0.3,0.4,0.5c0.1,0.2,0.1,0.4,0.1,0.6v2.4c0,0.2,0,0.3,0,0.5c0,0.1,0,0.3,0,0.4h-0.8c0-0.2,0-0.5,0-0.7h0
				c-0.2,0.3-0.4,0.5-0.7,0.7c-0.3,0.1-0.6,0.2-1,0.2c-0.2,0-0.4,0-0.6-0.1s-0.4-0.2-0.5-0.3c-0.2-0.1-0.3-0.3-0.4-0.4
				s-0.1-0.4-0.1-0.6c0-0.3,0.1-0.6,0.2-0.8c0.1-0.2,0.3-0.4,0.6-0.5c0.2-0.1,0.5-0.2,0.8-0.3s0.7-0.1,1-0.1h0.7v-0.2
				c0-0.1,0-0.2-0.1-0.4s-0.1-0.2-0.2-0.3c-0.1-0.1-0.2-0.2-0.4-0.2c-0.1-0.1-0.3-0.1-0.5-0.1c-0.2,0-0.3,0-0.5,0
				c-0.1,0-0.2,0.1-0.4,0.1s-0.2,0.1-0.3,0.2c-0.1,0.1-0.2,0.1-0.2,0.2L149.8,31.6z M152.3,33.5c-0.2,0-0.4,0-0.7,0
				c-0.2,0-0.4,0.1-0.6,0.1c-0.2,0.1-0.3,0.2-0.5,0.3c-0.1,0.1-0.2,0.3-0.2,0.5c0,0.3,0.1,0.5,0.3,0.6c0.2,0.1,0.4,0.2,0.7,0.2
				c0.2,0,0.5,0,0.6-0.1c0.2-0.1,0.3-0.2,0.4-0.3c0.1-0.1,0.2-0.3,0.2-0.4c0-0.2,0.1-0.3,0.1-0.5v-0.3H152.3z"/>
			<path class="st7" d="M155,28.2h0.9v7.6H155V28.2z"/>
			<path class="st7" d="M157.4,28.2h0.9v7.6h-0.9V28.2z"/>
			<path class="st7" d="M159.2,31.1h1l1.4,3.7h0l1.3-3.7h1l-2.2,5.8c-0.1,0.2-0.2,0.4-0.2,0.6s-0.2,0.3-0.3,0.4s-0.3,0.2-0.4,0.3
				c-0.2,0.1-0.4,0.1-0.6,0.1c-0.1,0-0.3,0-0.4,0s-0.3-0.1-0.4-0.1l0.1-0.8c0.2,0.1,0.4,0.1,0.5,0.1c0.1,0,0.3,0,0.4-0.1
				c0.1,0,0.2-0.1,0.2-0.2c0.1-0.1,0.1-0.2,0.2-0.2c0-0.1,0.1-0.2,0.1-0.3l0.3-0.8L159.2,31.1z"/>
			<path class="st7" d="M170.9,32.3c-0.2-0.2-0.3-0.3-0.5-0.4s-0.4-0.1-0.7-0.1c-0.2,0-0.5,0-0.6,0.1s-0.3,0.2-0.5,0.4
				c-0.1,0.2-0.2,0.3-0.3,0.5s-0.1,0.4-0.1,0.6c0,0.2,0,0.4,0.1,0.6c0.1,0.2,0.2,0.4,0.3,0.5c0.1,0.1,0.3,0.3,0.5,0.3
				c0.2,0.1,0.4,0.1,0.6,0.1c0.3,0,0.5,0,0.6-0.1c0.2-0.1,0.3-0.2,0.5-0.4l0.6,0.6c-0.2,0.3-0.5,0.4-0.8,0.6c-0.3,0.1-0.6,0.2-1,0.2
				c-0.4,0-0.7-0.1-1-0.2c-0.3-0.1-0.6-0.3-0.8-0.5c-0.2-0.2-0.4-0.5-0.5-0.8s-0.2-0.6-0.2-1c0-0.4,0.1-0.7,0.2-1s0.3-0.6,0.5-0.8
				c0.2-0.2,0.5-0.4,0.8-0.5c0.3-0.1,0.6-0.2,1-0.2c0.3,0,0.7,0.1,1,0.2c0.3,0.1,0.6,0.3,0.8,0.6L170.9,32.3z"/>
			<path class="st7" d="M172.1,33.4c0-0.3,0.1-0.7,0.2-1s0.3-0.6,0.5-0.8s0.5-0.4,0.8-0.5s0.6-0.2,1-0.2s0.7,0.1,1,0.2
				s0.6,0.3,0.8,0.5s0.4,0.5,0.5,0.8s0.2,0.6,0.2,1s-0.1,0.7-0.2,1c-0.1,0.3-0.3,0.6-0.5,0.8s-0.5,0.4-0.8,0.5
				c-0.3,0.1-0.6,0.2-1,0.2s-0.7-0.1-1-0.2c-0.3-0.1-0.6-0.3-0.8-0.5s-0.4-0.5-0.5-0.8C172.2,34.1,172.1,33.8,172.1,33.4z
				 M173.1,33.4c0,0.2,0,0.5,0.1,0.7c0.1,0.2,0.2,0.4,0.3,0.5c0.1,0.1,0.3,0.3,0.5,0.3s0.4,0.1,0.7,0.1s0.5,0,0.7-0.1
				s0.4-0.2,0.5-0.3c0.1-0.1,0.2-0.3,0.3-0.5c0.1-0.2,0.1-0.4,0.1-0.7c0-0.2,0-0.5-0.1-0.7c-0.1-0.2-0.2-0.4-0.3-0.5
				c-0.1-0.1-0.3-0.3-0.5-0.3c-0.2-0.1-0.4-0.1-0.7-0.1s-0.5,0-0.7,0.1c-0.2,0.1-0.4,0.2-0.5,0.3c-0.1,0.1-0.2,0.3-0.3,0.5
				C173.1,33,173.1,33.2,173.1,33.4z"/>
			<path class="st7" d="M178.3,31.1h0.8v0.7h0c0-0.1,0.1-0.1,0.2-0.2c0.1-0.1,0.2-0.2,0.3-0.3c0.1-0.1,0.3-0.2,0.5-0.2
				c0.2-0.1,0.4-0.1,0.6-0.1c0.4,0,0.6,0.1,0.9,0.2s0.4,0.4,0.6,0.7c0.2-0.3,0.4-0.5,0.7-0.7s0.6-0.2,0.8-0.2c0.4,0,0.7,0.1,0.9,0.2
				s0.4,0.3,0.5,0.5c0.1,0.2,0.2,0.4,0.3,0.7c0,0.2,0.1,0.5,0.1,0.8v2.8h-0.9v-2.6c0-0.2,0-0.4,0-0.5c0-0.2-0.1-0.3-0.1-0.4
				c-0.1-0.1-0.2-0.2-0.3-0.3c-0.1-0.1-0.3-0.1-0.5-0.1c-0.4,0-0.7,0.1-0.9,0.4s-0.3,0.6-0.3,1v2.6h-0.9v-2.5c0-0.2,0-0.4,0-0.6
				s-0.1-0.3-0.1-0.5c-0.1-0.1-0.2-0.2-0.3-0.3c-0.1-0.1-0.3-0.1-0.5-0.1c-0.2,0-0.3,0-0.5,0.1c-0.2,0.1-0.3,0.2-0.4,0.3
				s-0.2,0.3-0.3,0.5c-0.1,0.2-0.1,0.4-0.1,0.7v2.5h-0.9V31.1z"/>
			<path class="st7" d="M186.8,31.1h0.8v0.7h0c0-0.1,0.1-0.1,0.2-0.2c0.1-0.1,0.2-0.2,0.3-0.3c0.1-0.1,0.3-0.2,0.5-0.2
				s0.4-0.1,0.6-0.1c0.4,0,0.7,0.1,0.9,0.2c0.2,0.1,0.4,0.4,0.6,0.7c0.2-0.3,0.4-0.5,0.6-0.7c0.3-0.1,0.6-0.2,0.9-0.2
				c0.4,0,0.7,0.1,0.9,0.2s0.4,0.3,0.6,0.5c0.1,0.2,0.2,0.4,0.3,0.7s0.1,0.5,0.1,0.8v2.8h-0.9v-2.6c0-0.2,0-0.4,0-0.5
				c0-0.2-0.1-0.3-0.1-0.4s-0.2-0.2-0.3-0.3c-0.1-0.1-0.3-0.1-0.5-0.1c-0.4,0-0.7,0.1-0.9,0.4c-0.2,0.3-0.3,0.6-0.3,1v2.6h-0.9v-2.5
				c0-0.2,0-0.4,0-0.6s-0.1-0.3-0.1-0.5s-0.2-0.2-0.3-0.3c-0.1-0.1-0.3-0.1-0.5-0.1c-0.2,0-0.3,0-0.5,0.1s-0.3,0.2-0.4,0.3
				c-0.1,0.1-0.2,0.3-0.3,0.5c-0.1,0.2-0.1,0.4-0.1,0.7v2.5h-0.9V31.1z"/>
			<path class="st7" d="M199.5,35.8h-0.9v-0.7h0c-0.1,0.3-0.3,0.5-0.6,0.6c-0.3,0.2-0.6,0.2-1,0.2c-0.2,0-0.5,0-0.7-0.1
				c-0.2-0.1-0.4-0.2-0.5-0.3c-0.2-0.1-0.3-0.3-0.4-0.6c-0.1-0.2-0.1-0.5-0.1-0.8v-3.1h0.9v2.8c0,0.2,0,0.4,0.1,0.6
				c0.1,0.2,0.1,0.3,0.2,0.4s0.2,0.2,0.3,0.2c0.1,0,0.3,0.1,0.4,0.1c0.2,0,0.4,0,0.5-0.1c0.2-0.1,0.3-0.2,0.4-0.3s0.2-0.3,0.3-0.5
				c0.1-0.2,0.1-0.4,0.1-0.7v-2.4h0.9V35.8z"/>
			<path class="st7" d="M200.9,31.1h0.9v0.7h0c0.1-0.3,0.3-0.5,0.6-0.6c0.3-0.2,0.6-0.2,1-0.2c0.2,0,0.4,0,0.7,0.1s0.4,0.2,0.6,0.3
				c0.2,0.1,0.3,0.3,0.4,0.6c0.1,0.2,0.1,0.5,0.1,0.8v3h-0.9V33c0-0.2,0-0.4-0.1-0.6c-0.1-0.2-0.1-0.3-0.2-0.4
				c-0.1-0.1-0.2-0.2-0.3-0.2c-0.1,0-0.3-0.1-0.4-0.1c-0.2,0-0.4,0-0.5,0.1c-0.2,0.1-0.3,0.2-0.4,0.3s-0.2,0.3-0.3,0.5
				c-0.1,0.2-0.1,0.4-0.1,0.7v2.4h-0.9V31.1z"/>
			<path class="st7" d="M206.3,29.4c0-0.2,0.1-0.3,0.2-0.5c0.1-0.1,0.3-0.2,0.5-0.2s0.3,0.1,0.5,0.2c0.1,0.1,0.2,0.3,0.2,0.5
				c0,0.2-0.1,0.3-0.2,0.5S207.1,30,207,30s-0.3-0.1-0.5-0.2S206.3,29.5,206.3,29.4z M206.5,31.1h0.9v4.7h-0.9V31.1z"/>
			<path class="st7" d="M212.2,32.3c-0.2-0.2-0.3-0.3-0.5-0.4s-0.4-0.1-0.7-0.1c-0.2,0-0.5,0-0.6,0.1c-0.2,0.1-0.3,0.2-0.5,0.4
				c-0.1,0.2-0.2,0.3-0.3,0.5s-0.1,0.4-0.1,0.6c0,0.2,0,0.4,0.1,0.6c0.1,0.2,0.2,0.4,0.3,0.5c0.1,0.1,0.3,0.3,0.5,0.3
				s0.4,0.1,0.6,0.1c0.3,0,0.5,0,0.7-0.1s0.3-0.2,0.5-0.4l0.6,0.6c-0.2,0.3-0.5,0.4-0.8,0.6c-0.3,0.1-0.6,0.2-1,0.2
				c-0.4,0-0.7-0.1-1-0.2s-0.6-0.3-0.8-0.5s-0.4-0.5-0.5-0.8s-0.2-0.6-0.2-1c0-0.4,0.1-0.7,0.2-1s0.3-0.6,0.5-0.8
				c0.2-0.2,0.5-0.4,0.8-0.5c0.3-0.1,0.6-0.2,1-0.2c0.3,0,0.7,0.1,1,0.2c0.3,0.1,0.6,0.3,0.8,0.6L212.2,32.3z"/>
			<path class="st7" d="M213.7,31.6c0.3-0.2,0.5-0.4,0.9-0.5c0.3-0.1,0.7-0.2,1-0.2c0.3,0,0.6,0,0.9,0.1s0.5,0.2,0.6,0.3
				c0.2,0.1,0.3,0.3,0.4,0.5c0.1,0.2,0.1,0.4,0.1,0.6v2.4c0,0.2,0,0.3,0,0.5c0,0.1,0,0.3,0,0.4h-0.8c0-0.2,0-0.5,0-0.7h0
				c-0.2,0.3-0.4,0.5-0.7,0.7c-0.3,0.1-0.6,0.2-1,0.2c-0.2,0-0.4,0-0.6-0.1s-0.4-0.2-0.5-0.3c-0.2-0.1-0.3-0.3-0.4-0.4
				s-0.1-0.4-0.1-0.6c0-0.3,0.1-0.6,0.2-0.8c0.1-0.2,0.3-0.4,0.6-0.5c0.2-0.1,0.5-0.2,0.8-0.3s0.7-0.1,1-0.1h0.7v-0.2
				c0-0.1,0-0.2-0.1-0.4s-0.1-0.2-0.2-0.3c-0.1-0.1-0.2-0.2-0.4-0.2c-0.1-0.1-0.3-0.1-0.5-0.1c-0.2,0-0.3,0-0.5,0
				c-0.1,0-0.2,0.1-0.4,0.1s-0.2,0.1-0.3,0.2c-0.1,0.1-0.2,0.1-0.2,0.2L213.7,31.6z M216.2,33.5c-0.2,0-0.4,0-0.7,0
				c-0.2,0-0.4,0.1-0.6,0.1c-0.2,0.1-0.3,0.2-0.5,0.3c-0.1,0.1-0.2,0.3-0.2,0.5c0,0.3,0.1,0.5,0.3,0.6c0.2,0.1,0.4,0.2,0.7,0.2
				c0.2,0,0.5,0,0.6-0.1c0.2-0.1,0.3-0.2,0.4-0.3c0.1-0.1,0.2-0.3,0.2-0.4c0-0.2,0.1-0.3,0.1-0.5v-0.3H216.2z"/>
			<path class="st7" d="M221.4,31.8h-1.3V34c0,0.1,0,0.3,0,0.4s0,0.2,0.1,0.4s0.1,0.2,0.2,0.2s0.2,0.1,0.4,0.1c0.1,0,0.2,0,0.3,0
				c0.1,0,0.2-0.1,0.3-0.1v0.8c-0.1,0.1-0.2,0.1-0.4,0.1s-0.3,0-0.4,0c-0.3,0-0.6,0-0.8-0.1s-0.3-0.2-0.4-0.4s-0.1-0.3-0.2-0.5
				c0-0.2,0-0.4,0-0.6v-2.5h-1v-0.8h1v-1.3h0.9v1.3h1.3V31.8z"/>
			<path class="st7" d="M223.2,33.8c0,0.2,0,0.4,0.1,0.6c0.1,0.2,0.2,0.3,0.4,0.4s0.3,0.2,0.5,0.3s0.4,0.1,0.6,0.1
				c0.3,0,0.5-0.1,0.7-0.2c0.2-0.1,0.4-0.3,0.6-0.5l0.7,0.5c-0.5,0.6-1.2,1-2.1,1c-0.4,0-0.7-0.1-1-0.2c-0.3-0.1-0.6-0.3-0.8-0.5
				s-0.4-0.5-0.5-0.8s-0.2-0.6-0.2-1c0-0.4,0.1-0.7,0.2-1c0.1-0.3,0.3-0.6,0.5-0.8s0.5-0.4,0.8-0.5c0.3-0.1,0.6-0.2,1-0.2
				c0.4,0,0.8,0.1,1.1,0.2s0.5,0.3,0.7,0.6c0.2,0.2,0.3,0.5,0.4,0.8c0.1,0.3,0.1,0.6,0.1,0.9v0.3H223.2z M226.1,33
				c0-0.2,0-0.4-0.1-0.5s-0.1-0.3-0.3-0.4c-0.1-0.1-0.3-0.2-0.4-0.3c-0.2-0.1-0.4-0.1-0.6-0.1c-0.2,0-0.4,0-0.6,0.1
				s-0.3,0.2-0.5,0.3c-0.1,0.1-0.2,0.3-0.3,0.4c-0.1,0.2-0.1,0.3-0.1,0.5H226.1z"/>
			<path class="st7" d="M230.3,31.1h1l1.4,3.6l1.4-3.6h1l-1.9,4.7h-1L230.3,31.1z"/>
			<path class="st7" d="M236.6,33.8c0,0.2,0,0.4,0.1,0.6c0.1,0.2,0.2,0.3,0.4,0.4s0.3,0.2,0.5,0.3s0.4,0.1,0.6,0.1
				c0.3,0,0.5-0.1,0.7-0.2c0.2-0.1,0.4-0.3,0.6-0.5l0.7,0.5c-0.5,0.6-1.2,1-2.1,1c-0.4,0-0.7-0.1-1-0.2c-0.3-0.1-0.6-0.3-0.8-0.5
				s-0.4-0.5-0.5-0.8s-0.2-0.6-0.2-1c0-0.4,0.1-0.7,0.2-1c0.1-0.3,0.3-0.6,0.5-0.8s0.5-0.4,0.8-0.5c0.3-0.1,0.6-0.2,1-0.2
				c0.4,0,0.8,0.1,1.1,0.2s0.5,0.3,0.7,0.6c0.2,0.2,0.3,0.5,0.4,0.8c0.1,0.3,0.1,0.6,0.1,0.9v0.3H236.6z M239.4,33
				c0-0.2,0-0.4-0.1-0.5s-0.1-0.3-0.3-0.4c-0.1-0.1-0.3-0.2-0.4-0.3c-0.2-0.1-0.4-0.1-0.6-0.1c-0.2,0-0.4,0-0.6,0.1
				s-0.3,0.2-0.5,0.3c-0.1,0.1-0.2,0.3-0.3,0.4c-0.1,0.2-0.1,0.3-0.1,0.5H239.4z"/>
			<path class="st7" d="M241.4,31.1h0.9v0.7h0c0.1-0.1,0.1-0.2,0.2-0.3c0.1-0.1,0.2-0.2,0.3-0.3c0.1-0.1,0.3-0.1,0.4-0.2
				c0.1,0,0.3-0.1,0.4-0.1c0.1,0,0.3,0,0.4,0.1l0,1c-0.1,0-0.1,0-0.2,0c-0.1,0-0.1,0-0.2,0c-0.4,0-0.8,0.1-1,0.4
				c-0.2,0.2-0.4,0.6-0.4,1.1v2.4h-0.9V31.1z"/>
			<path class="st7" d="M245.1,28.2h0.9v3.5h0c0.2-0.2,0.4-0.4,0.7-0.6s0.6-0.2,1-0.2c0.4,0,0.7,0.1,1,0.2c0.3,0.1,0.5,0.3,0.8,0.5
				s0.4,0.5,0.5,0.8c0.1,0.3,0.2,0.6,0.2,1c0,0.4-0.1,0.7-0.2,1c-0.1,0.3-0.3,0.6-0.5,0.8s-0.5,0.4-0.8,0.5c-0.3,0.1-0.6,0.2-1,0.2
				c-0.3,0-0.6-0.1-0.9-0.2c-0.3-0.1-0.5-0.3-0.7-0.6h0v0.7h-0.9V28.2z M247.6,35.1c0.2,0,0.5,0,0.7-0.1s0.4-0.2,0.5-0.3
				c0.1-0.1,0.2-0.3,0.3-0.5c0.1-0.2,0.1-0.4,0.1-0.7c0-0.2,0-0.5-0.1-0.7c-0.1-0.2-0.2-0.4-0.3-0.5c-0.1-0.1-0.3-0.3-0.5-0.3
				c-0.2-0.1-0.4-0.1-0.7-0.1s-0.5,0-0.6,0.1c-0.2,0.1-0.4,0.2-0.5,0.3c-0.1,0.1-0.2,0.3-0.3,0.5c-0.1,0.2-0.1,0.4-0.1,0.7
				c0,0.2,0,0.5,0.1,0.7c0.1,0.2,0.2,0.4,0.3,0.5c0.1,0.1,0.3,0.3,0.5,0.3C247.2,35,247.4,35.1,247.6,35.1z"/>
			<path class="st7" d="M251.3,31.6c0.3-0.2,0.5-0.4,0.9-0.5c0.3-0.1,0.7-0.2,1-0.2c0.3,0,0.6,0,0.9,0.1s0.5,0.2,0.6,0.3
				c0.2,0.1,0.3,0.3,0.4,0.5c0.1,0.2,0.1,0.4,0.1,0.6v2.4c0,0.2,0,0.3,0,0.5c0,0.1,0,0.3,0,0.4h-0.8c0-0.2,0-0.5,0-0.7h0
				c-0.2,0.3-0.4,0.5-0.7,0.7c-0.3,0.1-0.6,0.2-1,0.2c-0.2,0-0.4,0-0.6-0.1s-0.4-0.2-0.5-0.3c-0.2-0.1-0.3-0.3-0.4-0.4
				s-0.1-0.4-0.1-0.6c0-0.3,0.1-0.6,0.2-0.8c0.1-0.2,0.3-0.4,0.6-0.5c0.2-0.1,0.5-0.2,0.8-0.3s0.7-0.1,1-0.1h0.7v-0.2
				c0-0.1,0-0.2-0.1-0.4s-0.1-0.2-0.2-0.3c-0.1-0.1-0.2-0.2-0.4-0.2c-0.1-0.1-0.3-0.1-0.5-0.1c-0.2,0-0.3,0-0.5,0
				c-0.1,0-0.2,0.1-0.4,0.1s-0.2,0.1-0.3,0.2c-0.1,0.1-0.2,0.1-0.2,0.2L251.3,31.6z M253.8,33.5c-0.2,0-0.4,0-0.7,0
				c-0.2,0-0.4,0.1-0.6,0.1c-0.2,0.1-0.3,0.2-0.5,0.3c-0.1,0.1-0.2,0.3-0.2,0.5c0,0.3,0.1,0.5,0.3,0.6c0.2,0.1,0.4,0.2,0.7,0.2
				c0.2,0,0.5,0,0.6-0.1c0.2-0.1,0.3-0.2,0.4-0.3c0.1-0.1,0.2-0.3,0.2-0.4c0-0.2,0.1-0.3,0.1-0.5v-0.3H253.8z"/>
			<path class="st7" d="M256.5,28.2h0.9v7.6h-0.9V28.2z"/>
			<path class="st7" d="M258.9,28.2h0.9v7.6h-0.9V28.2z"/>
			<path class="st7" d="M260.7,31.1h1l1.4,3.7h0l1.3-3.7h1l-2.2,5.8c-0.1,0.2-0.2,0.4-0.2,0.6s-0.2,0.3-0.3,0.4s-0.3,0.2-0.4,0.3
				c-0.2,0.1-0.4,0.1-0.6,0.1c-0.1,0-0.3,0-0.4,0s-0.3-0.1-0.4-0.1l0.1-0.8c0.2,0.1,0.4,0.1,0.5,0.1c0.1,0,0.3,0,0.4-0.1
				c0.1,0,0.2-0.1,0.2-0.2c0.1-0.1,0.1-0.2,0.2-0.2c0-0.1,0.1-0.2,0.1-0.3l0.3-0.8L260.7,31.1z"/>
			<path class="st7" d="M266.1,37.1h-0.8l0.7-2.5h1L266.1,37.1z"/>
			<path class="st7" d="M31.5,44.2c-0.1-0.1-0.2-0.2-0.4-0.3c-0.2-0.1-0.3-0.1-0.6-0.1c-0.2,0-0.4,0-0.6,0.1
				c-0.2,0.1-0.2,0.2-0.2,0.4c0,0.1,0,0.3,0.1,0.3c0.1,0.1,0.2,0.2,0.3,0.2c0.1,0.1,0.3,0.1,0.4,0.1c0.1,0,0.3,0,0.4,0.1
				c0.2,0,0.4,0.1,0.5,0.2c0.2,0.1,0.3,0.2,0.4,0.3c0.1,0.1,0.2,0.2,0.3,0.4c0.1,0.2,0.1,0.3,0.1,0.6c0,0.3-0.1,0.5-0.2,0.7
				c-0.1,0.2-0.3,0.3-0.4,0.5c-0.2,0.1-0.4,0.2-0.6,0.3c-0.2,0.1-0.5,0.1-0.7,0.1c-0.4,0-0.7-0.1-1-0.2s-0.6-0.3-0.8-0.7l0.7-0.6
				c0.1,0.1,0.3,0.3,0.5,0.4s0.4,0.2,0.7,0.2c0.1,0,0.2,0,0.3,0c0.1,0,0.2-0.1,0.3-0.1c0.1,0,0.2-0.1,0.2-0.2s0.1-0.2,0.1-0.3
				c0-0.1,0-0.2-0.1-0.3c-0.1-0.1-0.2-0.2-0.3-0.2c-0.1,0-0.2-0.1-0.4-0.1s-0.2-0.1-0.3-0.1c-0.2,0-0.4-0.1-0.6-0.2
				c-0.2-0.1-0.3-0.1-0.5-0.2c-0.1-0.1-0.2-0.2-0.3-0.4s-0.1-0.3-0.1-0.6c0-0.2,0.1-0.5,0.2-0.6c0.1-0.2,0.2-0.3,0.4-0.5
				s0.4-0.2,0.6-0.3c0.2-0.1,0.4-0.1,0.7-0.1c0.3,0,0.6,0.1,0.9,0.2s0.5,0.3,0.7,0.6L31.5,44.2z"/>
			<path class="st7" d="M33.2,45.4c0-0.3,0.1-0.7,0.2-1s0.3-0.6,0.5-0.8s0.5-0.4,0.8-0.5s0.6-0.2,1-0.2s0.7,0.1,1,0.2
				s0.6,0.3,0.8,0.5s0.4,0.5,0.5,0.8s0.2,0.6,0.2,1s-0.1,0.7-0.2,1c-0.1,0.3-0.3,0.6-0.5,0.8s-0.5,0.4-0.8,0.5
				c-0.3,0.1-0.6,0.2-1,0.2s-0.7-0.1-1-0.2c-0.3-0.1-0.6-0.3-0.8-0.5s-0.4-0.5-0.5-0.8C33.2,46.1,33.2,45.8,33.2,45.4z M34.1,45.4
				c0,0.2,0,0.5,0.1,0.7c0.1,0.2,0.2,0.4,0.3,0.5c0.1,0.1,0.3,0.3,0.5,0.3s0.4,0.1,0.7,0.1s0.5,0,0.7-0.1s0.4-0.2,0.5-0.3
				c0.1-0.1,0.2-0.3,0.3-0.5c0.1-0.2,0.1-0.4,0.1-0.7c0-0.2,0-0.5-0.1-0.7c-0.1-0.2-0.2-0.4-0.3-0.5c-0.1-0.1-0.3-0.3-0.5-0.3
				c-0.2-0.1-0.4-0.1-0.7-0.1s-0.5,0-0.7,0.1c-0.2,0.1-0.4,0.2-0.5,0.3c-0.1,0.1-0.2,0.3-0.3,0.5C34.2,45,34.1,45.2,34.1,45.4z"/>
			<path class="st7" d="M39.4,43.1h0.8v0.7h0c0-0.1,0.1-0.1,0.2-0.2c0.1-0.1,0.2-0.2,0.3-0.3c0.1-0.1,0.3-0.2,0.5-0.2
				c0.2-0.1,0.4-0.1,0.6-0.1c0.4,0,0.6,0.1,0.9,0.2s0.4,0.4,0.6,0.7c0.2-0.3,0.4-0.5,0.7-0.7s0.6-0.2,0.8-0.2c0.4,0,0.7,0.1,0.9,0.2
				s0.4,0.3,0.5,0.5c0.1,0.2,0.2,0.4,0.3,0.7c0,0.2,0.1,0.5,0.1,0.8v2.8h-0.9v-2.6c0-0.2,0-0.4,0-0.5c0-0.2-0.1-0.3-0.1-0.4
				c-0.1-0.1-0.2-0.2-0.3-0.3c-0.1-0.1-0.3-0.1-0.5-0.1c-0.4,0-0.7,0.1-0.9,0.4s-0.3,0.6-0.3,1v2.6h-0.9v-2.5c0-0.2,0-0.4,0-0.6
				s-0.1-0.3-0.1-0.5c-0.1-0.1-0.2-0.2-0.3-0.3c-0.1-0.1-0.3-0.1-0.5-0.1c-0.2,0-0.3,0-0.5,0.1c-0.2,0.1-0.3,0.2-0.4,0.3
				s-0.2,0.3-0.3,0.5c-0.1,0.2-0.1,0.4-0.1,0.7v2.5h-0.9V43.1z"/>
			<path class="st7" d="M48.6,45.8c0,0.2,0,0.4,0.1,0.6c0.1,0.2,0.2,0.3,0.4,0.4s0.3,0.2,0.5,0.3s0.4,0.1,0.6,0.1
				c0.3,0,0.5-0.1,0.7-0.2c0.2-0.1,0.4-0.3,0.6-0.5l0.7,0.5c-0.5,0.6-1.2,1-2.1,1c-0.4,0-0.7-0.1-1-0.2c-0.3-0.1-0.6-0.3-0.8-0.5
				s-0.4-0.5-0.5-0.8s-0.2-0.6-0.2-1c0-0.4,0.1-0.7,0.2-1c0.1-0.3,0.3-0.6,0.5-0.8s0.5-0.4,0.8-0.5c0.3-0.1,0.6-0.2,1-0.2
				c0.4,0,0.8,0.1,1.1,0.2s0.5,0.3,0.7,0.6c0.2,0.2,0.3,0.5,0.4,0.8c0.1,0.3,0.1,0.6,0.1,0.9v0.3H48.6z M51.4,45
				c0-0.2,0-0.4-0.1-0.5s-0.1-0.3-0.3-0.4c-0.1-0.1-0.3-0.2-0.4-0.3c-0.2-0.1-0.4-0.1-0.6-0.1c-0.2,0-0.4,0-0.6,0.1S49.1,44,49,44.1
				c-0.1,0.1-0.2,0.3-0.3,0.4c-0.1,0.2-0.1,0.3-0.1,0.5H51.4z"/>
			<path class="st7" d="M59.6,44.3c-0.2-0.2-0.3-0.3-0.5-0.4s-0.4-0.1-0.7-0.1c-0.2,0-0.5,0-0.6,0.1c-0.2,0.1-0.3,0.2-0.5,0.4
				c-0.1,0.2-0.2,0.3-0.3,0.5s-0.1,0.4-0.1,0.6c0,0.2,0,0.4,0.1,0.6c0.1,0.2,0.2,0.4,0.3,0.5c0.1,0.1,0.3,0.3,0.5,0.3
				s0.4,0.1,0.6,0.1c0.3,0,0.5,0,0.7-0.1s0.3-0.2,0.5-0.4l0.6,0.6c-0.2,0.3-0.5,0.4-0.8,0.6c-0.3,0.1-0.6,0.2-1,0.2
				c-0.4,0-0.7-0.1-1-0.2s-0.6-0.3-0.8-0.5s-0.4-0.5-0.5-0.8s-0.2-0.6-0.2-1c0-0.4,0.1-0.7,0.2-1s0.3-0.6,0.5-0.8
				c0.2-0.2,0.5-0.4,0.8-0.5c0.3-0.1,0.6-0.2,1-0.2c0.3,0,0.7,0.1,1,0.2c0.3,0.1,0.6,0.3,0.8,0.6L59.6,44.3z"/>
			<path class="st7" d="M61.1,43.6c0.3-0.2,0.5-0.4,0.9-0.5c0.3-0.1,0.7-0.2,1-0.2c0.3,0,0.6,0,0.9,0.1c0.3,0.1,0.5,0.2,0.6,0.3
				c0.2,0.1,0.3,0.3,0.4,0.5c0.1,0.2,0.1,0.4,0.1,0.6v2.4c0,0.2,0,0.3,0,0.5c0,0.1,0,0.3,0,0.4h-0.8c0-0.2,0-0.5,0-0.7h0
				c-0.2,0.3-0.4,0.5-0.7,0.7c-0.3,0.1-0.6,0.2-1,0.2c-0.2,0-0.4,0-0.6-0.1s-0.4-0.2-0.5-0.3c-0.2-0.1-0.3-0.3-0.4-0.4
				s-0.1-0.4-0.1-0.6c0-0.3,0.1-0.6,0.2-0.8c0.1-0.2,0.3-0.4,0.6-0.5c0.2-0.1,0.5-0.2,0.8-0.3s0.7-0.1,1-0.1h0.7v-0.2
				c0-0.1,0-0.2-0.1-0.4c0-0.1-0.1-0.2-0.2-0.3c-0.1-0.1-0.2-0.2-0.4-0.2c-0.1-0.1-0.3-0.1-0.5-0.1c-0.2,0-0.3,0-0.5,0
				c-0.1,0-0.2,0.1-0.4,0.1s-0.2,0.1-0.3,0.2c-0.1,0.1-0.2,0.1-0.2,0.2L61.1,43.6z M63.6,45.5c-0.2,0-0.4,0-0.7,0
				c-0.2,0-0.4,0.1-0.6,0.1c-0.2,0.1-0.3,0.2-0.5,0.3c-0.1,0.1-0.2,0.3-0.2,0.5c0,0.3,0.1,0.5,0.3,0.6c0.2,0.1,0.4,0.2,0.7,0.2
				c0.2,0,0.5,0,0.6-0.1c0.2-0.1,0.3-0.2,0.4-0.3c0.1-0.1,0.2-0.3,0.2-0.4c0-0.2,0.1-0.3,0.1-0.5v-0.3H63.6z"/>
			<path class="st7" d="M66.2,43.1h0.9v0.7h0c0.1-0.3,0.3-0.5,0.6-0.6c0.3-0.2,0.6-0.2,1-0.2c0.2,0,0.4,0,0.7,0.1s0.4,0.2,0.6,0.3
				c0.2,0.1,0.3,0.3,0.4,0.6c0.1,0.2,0.1,0.5,0.1,0.8v3h-0.9V45c0-0.2,0-0.4-0.1-0.6c-0.1-0.2-0.1-0.3-0.2-0.4
				c-0.1-0.1-0.2-0.2-0.3-0.2c-0.1,0-0.3-0.1-0.4-0.1c-0.2,0-0.4,0-0.5,0.1c-0.2,0.1-0.3,0.2-0.4,0.3s-0.2,0.3-0.3,0.5
				c-0.1,0.2-0.1,0.4-0.1,0.7v2.4h-0.9V43.1z"/>
			<path class="st7" d="M79.3,47.8h-0.9v-0.7h0c-0.2,0.3-0.4,0.5-0.7,0.6c-0.3,0.1-0.6,0.2-0.9,0.2c-0.4,0-0.7-0.1-1-0.2
				c-0.3-0.1-0.6-0.3-0.8-0.5s-0.4-0.5-0.5-0.8c-0.1-0.3-0.2-0.6-0.2-1c0-0.4,0.1-0.7,0.2-1c0.1-0.3,0.3-0.6,0.5-0.8
				s0.5-0.4,0.8-0.5c0.3-0.1,0.6-0.2,1-0.2c0.3,0,0.7,0.1,1,0.2c0.3,0.1,0.5,0.3,0.7,0.6h0v-3.5h0.9V47.8z M76.9,47.1
				c0.2,0,0.5,0,0.7-0.1s0.4-0.2,0.5-0.3c0.1-0.1,0.2-0.3,0.3-0.5c0.1-0.2,0.1-0.4,0.1-0.7c0-0.2,0-0.5-0.1-0.7
				c-0.1-0.2-0.2-0.4-0.3-0.5c-0.1-0.1-0.3-0.3-0.5-0.3c-0.2-0.1-0.4-0.1-0.7-0.1s-0.5,0-0.7,0.1c-0.2,0.1-0.4,0.2-0.5,0.3
				c-0.1,0.1-0.2,0.3-0.3,0.5c-0.1,0.2-0.1,0.4-0.1,0.7c0,0.2,0,0.5,0.1,0.7c0.1,0.2,0.2,0.4,0.3,0.5c0.1,0.1,0.3,0.3,0.5,0.3
				S76.6,47.1,76.9,47.1z"/>
			<path class="st7" d="M80.4,45.4c0-0.3,0.1-0.7,0.2-1s0.3-0.6,0.5-0.8c0.2-0.2,0.5-0.4,0.8-0.5s0.6-0.2,1-0.2c0.4,0,0.7,0.1,1,0.2
				s0.6,0.3,0.8,0.5s0.4,0.5,0.5,0.8s0.2,0.6,0.2,1s-0.1,0.7-0.2,1c-0.1,0.3-0.3,0.6-0.5,0.8s-0.5,0.4-0.8,0.5
				c-0.3,0.1-0.6,0.2-1,0.2c-0.4,0-0.7-0.1-1-0.2c-0.3-0.1-0.6-0.3-0.8-0.5c-0.2-0.2-0.4-0.5-0.5-0.8C80.5,46.1,80.4,45.8,80.4,45.4
				z M81.4,45.4c0,0.2,0,0.5,0.1,0.7c0.1,0.2,0.2,0.4,0.3,0.5c0.1,0.1,0.3,0.3,0.5,0.3s0.4,0.1,0.7,0.1c0.2,0,0.5,0,0.6-0.1
				s0.4-0.2,0.5-0.3c0.1-0.1,0.2-0.3,0.3-0.5c0.1-0.2,0.1-0.4,0.1-0.7c0-0.2,0-0.5-0.1-0.7c-0.1-0.2-0.2-0.4-0.3-0.5
				c-0.1-0.1-0.3-0.3-0.5-0.3c-0.2-0.1-0.4-0.1-0.6-0.1c-0.2,0-0.5,0-0.7,0.1c-0.2,0.1-0.4,0.2-0.5,0.3c-0.1,0.1-0.2,0.3-0.3,0.5
				C81.4,45,81.4,45.2,81.4,45.4z"/>
			<path class="st7" d="M89.3,41.4c0-0.2,0.1-0.3,0.2-0.5c0.1-0.1,0.3-0.2,0.5-0.2s0.3,0.1,0.5,0.2c0.1,0.1,0.2,0.3,0.2,0.5
				c0,0.2-0.1,0.3-0.2,0.5S90.1,42,89.9,42s-0.3-0.1-0.5-0.2S89.3,41.5,89.3,41.4z M89.5,43.1h0.9v4.7h-0.9V43.1z"/>
			<path class="st7" d="M94.3,43.8H93V46c0,0.1,0,0.3,0,0.4s0,0.2,0.1,0.4s0.1,0.2,0.2,0.2s0.2,0.1,0.4,0.1c0.1,0,0.2,0,0.3,0
				c0.1,0,0.2-0.1,0.3-0.1v0.8c-0.1,0.1-0.2,0.1-0.4,0.1s-0.3,0-0.4,0c-0.3,0-0.6,0-0.8-0.1s-0.3-0.2-0.4-0.4s-0.1-0.3-0.2-0.5
				c0-0.2,0-0.4,0-0.6v-2.5h-1v-0.8h1v-1.3H93v1.3h1.3V43.8z"/>
			<path class="st7" d="M100.8,43.8h-1.3V46c0,0.1,0,0.3,0,0.4s0,0.2,0.1,0.4s0.1,0.2,0.2,0.2s0.2,0.1,0.4,0.1c0.1,0,0.2,0,0.3,0
				c0.1,0,0.2-0.1,0.3-0.1v0.8c-0.1,0.1-0.2,0.1-0.4,0.1s-0.3,0-0.4,0c-0.3,0-0.6,0-0.8-0.1s-0.3-0.2-0.4-0.4s-0.1-0.3-0.2-0.5
				c0-0.2,0-0.4,0-0.6v-2.5h-1v-0.8h1v-1.3h0.9v1.3h1.3V43.8z"/>
			<path class="st7" d="M102,40.2h0.9v3.5h0c0.1-0.3,0.3-0.5,0.6-0.6c0.3-0.2,0.6-0.2,1-0.2c0.2,0,0.4,0,0.7,0.1s0.4,0.2,0.5,0.3
				s0.3,0.3,0.4,0.6c0.1,0.2,0.1,0.5,0.1,0.8v3h-0.9V45c0-0.2,0-0.4-0.1-0.6c-0.1-0.2-0.1-0.3-0.2-0.4c-0.1-0.1-0.2-0.2-0.3-0.2
				c-0.1,0-0.3-0.1-0.4-0.1c-0.2,0-0.4,0-0.5,0.1c-0.2,0.1-0.3,0.2-0.4,0.3s-0.2,0.3-0.3,0.5c-0.1,0.2-0.1,0.4-0.1,0.7v2.4H102V40.2
				z"/>
			<path class="st7" d="M107.5,43.1h0.9v0.7h0c0.1-0.1,0.1-0.2,0.2-0.3s0.2-0.2,0.3-0.3c0.1-0.1,0.3-0.1,0.4-0.2
				c0.1,0,0.3-0.1,0.4-0.1s0.3,0,0.4,0.1l0,1c-0.1,0-0.1,0-0.2,0c-0.1,0-0.1,0-0.2,0c-0.4,0-0.8,0.1-1,0.4c-0.2,0.2-0.3,0.6-0.3,1.1
				v2.4h-0.9V43.1z"/>
			<path class="st7" d="M110.8,45.4c0-0.3,0.1-0.7,0.2-1s0.3-0.6,0.5-0.8c0.2-0.2,0.5-0.4,0.8-0.5s0.6-0.2,1-0.2
				c0.4,0,0.7,0.1,1,0.2s0.6,0.3,0.8,0.5s0.4,0.5,0.5,0.8s0.2,0.6,0.2,1s-0.1,0.7-0.2,1c-0.1,0.3-0.3,0.6-0.5,0.8s-0.5,0.4-0.8,0.5
				c-0.3,0.1-0.6,0.2-1,0.2c-0.4,0-0.7-0.1-1-0.2c-0.3-0.1-0.6-0.3-0.8-0.5c-0.2-0.2-0.4-0.5-0.5-0.8
				C110.9,46.1,110.8,45.8,110.8,45.4z M111.8,45.4c0,0.2,0,0.5,0.1,0.7c0.1,0.2,0.2,0.4,0.3,0.5c0.1,0.1,0.3,0.3,0.5,0.3
				s0.4,0.1,0.7,0.1c0.2,0,0.5,0,0.6-0.1s0.4-0.2,0.5-0.3c0.1-0.1,0.2-0.3,0.3-0.5c0.1-0.2,0.1-0.4,0.1-0.7c0-0.2,0-0.5-0.1-0.7
				c-0.1-0.2-0.2-0.4-0.3-0.5c-0.1-0.1-0.3-0.3-0.5-0.3c-0.2-0.1-0.4-0.1-0.6-0.1c-0.2,0-0.5,0-0.7,0.1c-0.2,0.1-0.4,0.2-0.5,0.3
				c-0.1,0.1-0.2,0.3-0.3,0.5C111.8,45,111.8,45.2,111.8,45.4z"/>
			<path class="st7" d="M121.2,47.8h-0.9v-0.7h0c-0.1,0.3-0.3,0.5-0.6,0.6c-0.3,0.2-0.6,0.2-1,0.2c-0.2,0-0.5,0-0.7-0.1
				c-0.2-0.1-0.4-0.2-0.5-0.3c-0.2-0.1-0.3-0.3-0.4-0.6c-0.1-0.2-0.1-0.5-0.1-0.8v-3.1h0.9v2.8c0,0.2,0,0.4,0.1,0.6
				c0.1,0.2,0.1,0.3,0.2,0.4c0.1,0.1,0.2,0.2,0.3,0.2c0.1,0,0.3,0.1,0.4,0.1c0.2,0,0.4,0,0.5-0.1c0.2-0.1,0.3-0.2,0.4-0.3
				s0.2-0.3,0.3-0.5s0.1-0.4,0.1-0.7v-2.4h0.9V47.8z"/>
			<path class="st7" d="M127.3,47.8c0,0.4-0.1,0.7-0.2,1s-0.3,0.6-0.5,0.8c-0.2,0.2-0.5,0.4-0.8,0.5c-0.3,0.1-0.7,0.2-1.1,0.2
				c-0.5,0-0.9-0.1-1.2-0.2c-0.4-0.1-0.7-0.3-1.1-0.7l0.6-0.8c0.2,0.3,0.5,0.4,0.8,0.6c0.3,0.1,0.6,0.2,0.9,0.2c0.3,0,0.6,0,0.8-0.1
				s0.4-0.2,0.5-0.4c0.1-0.2,0.2-0.3,0.3-0.5c0.1-0.2,0.1-0.4,0.1-0.6V47h0c-0.2,0.3-0.4,0.5-0.7,0.6s-0.6,0.2-0.9,0.2
				c-0.3,0-0.7-0.1-1-0.2c-0.3-0.1-0.6-0.3-0.8-0.5c-0.2-0.2-0.4-0.5-0.5-0.8c-0.1-0.3-0.2-0.6-0.2-1s0.1-0.7,0.2-1s0.3-0.6,0.5-0.8
				s0.5-0.4,0.8-0.5c0.3-0.1,0.6-0.2,1-0.2c0.3,0,0.6,0.1,0.9,0.2c0.3,0.1,0.5,0.3,0.7,0.6h0v-0.7h0.9V47.8z M124.8,43.8
				c-0.2,0-0.5,0-0.7,0.1c-0.2,0.1-0.4,0.2-0.5,0.3c-0.1,0.1-0.2,0.3-0.3,0.5c-0.1,0.2-0.1,0.4-0.1,0.7c0,0.5,0.1,0.9,0.4,1.2
				s0.7,0.4,1.1,0.4c0.5,0,0.9-0.1,1.1-0.4s0.4-0.7,0.4-1.2c0-0.2,0-0.5-0.1-0.7c-0.1-0.2-0.2-0.4-0.3-0.5c-0.1-0.1-0.3-0.3-0.5-0.3
				C125.3,43.8,125.1,43.8,124.8,43.8z"/>
			<path class="st7" d="M128.7,40.2h0.9v3.5h0c0.1-0.3,0.3-0.5,0.6-0.6c0.3-0.2,0.6-0.2,1-0.2c0.2,0,0.4,0,0.7,0.1s0.4,0.2,0.6,0.3
				c0.2,0.1,0.3,0.3,0.4,0.6c0.1,0.2,0.1,0.5,0.1,0.8v3H132V45c0-0.2,0-0.4-0.1-0.6c-0.1-0.2-0.1-0.3-0.2-0.4
				c-0.1-0.1-0.2-0.2-0.3-0.2c-0.1,0-0.3-0.1-0.4-0.1c-0.2,0-0.4,0-0.5,0.1c-0.2,0.1-0.3,0.2-0.4,0.3s-0.2,0.3-0.3,0.5
				c-0.1,0.2-0.1,0.4-0.1,0.7v2.4h-0.9V40.2z"/>
			<path class="st7" d="M139.5,44.2c-0.1-0.1-0.2-0.2-0.4-0.3s-0.3-0.1-0.6-0.1c-0.2,0-0.4,0-0.6,0.1c-0.2,0.1-0.2,0.2-0.2,0.4
				c0,0.1,0,0.3,0.1,0.3c0.1,0.1,0.2,0.2,0.3,0.2c0.1,0.1,0.3,0.1,0.4,0.1c0.1,0,0.3,0,0.4,0.1c0.2,0,0.4,0.1,0.5,0.2
				c0.2,0.1,0.3,0.2,0.4,0.3c0.1,0.1,0.2,0.2,0.3,0.4s0.1,0.3,0.1,0.6c0,0.3-0.1,0.5-0.2,0.7c-0.1,0.2-0.3,0.3-0.4,0.5
				s-0.4,0.2-0.6,0.3c-0.2,0.1-0.5,0.1-0.7,0.1c-0.4,0-0.7-0.1-1-0.2c-0.3-0.1-0.6-0.3-0.8-0.7l0.7-0.6c0.1,0.1,0.3,0.3,0.5,0.4
				c0.2,0.1,0.4,0.2,0.7,0.2c0.1,0,0.2,0,0.3,0c0.1,0,0.2-0.1,0.3-0.1c0.1,0,0.2-0.1,0.2-0.2s0.1-0.2,0.1-0.3c0-0.1,0-0.2-0.1-0.3
				c-0.1-0.1-0.2-0.2-0.3-0.2c-0.1,0-0.2-0.1-0.4-0.1s-0.2-0.1-0.3-0.1c-0.2,0-0.4-0.1-0.5-0.2c-0.2-0.1-0.3-0.1-0.5-0.2
				c-0.1-0.1-0.2-0.2-0.3-0.4s-0.1-0.3-0.1-0.6c0-0.2,0.1-0.5,0.2-0.6s0.2-0.3,0.4-0.5s0.4-0.2,0.6-0.3c0.2-0.1,0.4-0.1,0.7-0.1
				c0.3,0,0.6,0.1,0.9,0.2c0.3,0.1,0.5,0.3,0.7,0.6L139.5,44.2z"/>
			<path class="st7" d="M141.3,41.4c0-0.2,0.1-0.3,0.2-0.5c0.1-0.1,0.3-0.2,0.5-0.2s0.3,0.1,0.5,0.2c0.1,0.1,0.2,0.3,0.2,0.5
				c0,0.2-0.1,0.3-0.2,0.5S142.1,42,142,42s-0.3-0.1-0.5-0.2S141.3,41.5,141.3,41.4z M141.5,43.1h0.9v4.7h-0.9V43.1z"/>
			<path class="st7" d="M148.6,47.8c0,0.4-0.1,0.7-0.2,1c-0.1,0.3-0.3,0.6-0.5,0.8s-0.5,0.4-0.8,0.5c-0.3,0.1-0.7,0.2-1.1,0.2
				c-0.5,0-0.9-0.1-1.2-0.2c-0.4-0.1-0.7-0.3-1.1-0.7l0.6-0.8c0.2,0.3,0.5,0.4,0.8,0.6s0.6,0.2,0.9,0.2c0.3,0,0.6,0,0.8-0.1
				c0.2-0.1,0.4-0.2,0.5-0.4s0.2-0.3,0.3-0.5c0.1-0.2,0.1-0.4,0.1-0.6V47h0c-0.2,0.3-0.4,0.5-0.7,0.6s-0.6,0.2-0.9,0.2
				c-0.3,0-0.7-0.1-1-0.2c-0.3-0.1-0.6-0.3-0.8-0.5c-0.2-0.2-0.4-0.5-0.5-0.8c-0.1-0.3-0.2-0.6-0.2-1s0.1-0.7,0.2-1
				c0.1-0.3,0.3-0.6,0.5-0.8s0.5-0.4,0.8-0.5c0.3-0.1,0.6-0.2,1-0.2c0.3,0,0.6,0.1,0.9,0.2c0.3,0.1,0.5,0.3,0.7,0.6h0v-0.7h0.9V47.8
				z M146.1,43.8c-0.2,0-0.5,0-0.7,0.1c-0.2,0.1-0.4,0.2-0.5,0.3c-0.1,0.1-0.2,0.3-0.3,0.5c-0.1,0.2-0.1,0.4-0.1,0.7
				c0,0.5,0.1,0.9,0.4,1.2c0.3,0.3,0.7,0.4,1.1,0.4c0.5,0,0.9-0.1,1.1-0.4c0.3-0.3,0.4-0.7,0.4-1.2c0-0.2,0-0.5-0.1-0.7
				c-0.1-0.2-0.2-0.4-0.3-0.5c-0.1-0.1-0.3-0.3-0.5-0.3C146.6,43.8,146.4,43.8,146.1,43.8z"/>
			<path class="st7" d="M150,43.1h0.9v0.7h0c0.1-0.3,0.3-0.5,0.6-0.6c0.3-0.2,0.6-0.2,1-0.2c0.2,0,0.4,0,0.7,0.1s0.4,0.2,0.5,0.3
				s0.3,0.3,0.4,0.6c0.1,0.2,0.1,0.5,0.1,0.8v3h-0.9V45c0-0.2,0-0.4-0.1-0.6c-0.1-0.2-0.1-0.3-0.2-0.4c-0.1-0.1-0.2-0.2-0.3-0.2
				c-0.1,0-0.3-0.1-0.4-0.1c-0.2,0-0.4,0-0.5,0.1c-0.2,0.1-0.3,0.2-0.4,0.3s-0.2,0.3-0.3,0.5c-0.1,0.2-0.1,0.4-0.1,0.7v2.4H150V43.1
				z"/>
			<path class="st7" d="M158.4,40.2h0.9v7.6h-0.9V40.2z"/>
			<path class="st7" d="M160.7,43.6c0.3-0.2,0.5-0.4,0.9-0.5c0.3-0.1,0.7-0.2,1-0.2c0.3,0,0.6,0,0.9,0.1s0.5,0.2,0.6,0.3
				s0.3,0.3,0.4,0.5c0.1,0.2,0.1,0.4,0.1,0.6v2.4c0,0.2,0,0.3,0,0.5c0,0.1,0,0.3,0,0.4h-0.8c0-0.2,0-0.5,0-0.7h0
				c-0.2,0.3-0.4,0.5-0.7,0.7c-0.3,0.1-0.6,0.2-1,0.2c-0.2,0-0.4,0-0.6-0.1s-0.4-0.2-0.5-0.3c-0.1-0.1-0.3-0.3-0.4-0.4
				c-0.1-0.2-0.1-0.4-0.1-0.6c0-0.3,0.1-0.6,0.2-0.8c0.1-0.2,0.3-0.4,0.6-0.5c0.2-0.1,0.5-0.2,0.8-0.3s0.7-0.1,1-0.1h0.7v-0.2
				c0-0.1,0-0.2-0.1-0.4c0-0.1-0.1-0.2-0.2-0.3c-0.1-0.1-0.2-0.2-0.3-0.2s-0.3-0.1-0.5-0.1c-0.2,0-0.3,0-0.5,0s-0.2,0.1-0.4,0.1
				c-0.1,0-0.2,0.1-0.3,0.2c-0.1,0.1-0.2,0.1-0.2,0.2L160.7,43.6z M163.3,45.5c-0.2,0-0.4,0-0.7,0c-0.2,0-0.4,0.1-0.6,0.1
				c-0.2,0.1-0.3,0.2-0.5,0.3c-0.1,0.1-0.2,0.3-0.2,0.5c0,0.3,0.1,0.5,0.3,0.6c0.2,0.1,0.4,0.2,0.7,0.2c0.2,0,0.5,0,0.6-0.1
				c0.2-0.1,0.3-0.2,0.4-0.3c0.1-0.1,0.2-0.3,0.2-0.4c0-0.2,0.1-0.3,0.1-0.5v-0.3H163.3z"/>
			<path class="st7" d="M165.9,43.1h0.9v0.7h0c0.1-0.3,0.3-0.5,0.6-0.6c0.3-0.2,0.6-0.2,1-0.2c0.2,0,0.4,0,0.7,0.1s0.4,0.2,0.5,0.3
				s0.3,0.3,0.4,0.6c0.1,0.2,0.1,0.5,0.1,0.8v3h-0.9V45c0-0.2,0-0.4-0.1-0.6c-0.1-0.2-0.1-0.3-0.2-0.4c-0.1-0.1-0.2-0.2-0.3-0.2
				c-0.1,0-0.3-0.1-0.4-0.1c-0.2,0-0.4,0-0.5,0.1c-0.2,0.1-0.3,0.2-0.4,0.3s-0.2,0.3-0.3,0.5c-0.1,0.2-0.1,0.4-0.1,0.7v2.4h-0.9
				V43.1z"/>
			<path class="st7" d="M176.2,47.8c0,0.4-0.1,0.7-0.2,1c-0.1,0.3-0.3,0.6-0.5,0.8s-0.5,0.4-0.8,0.5c-0.3,0.1-0.7,0.2-1.1,0.2
				c-0.5,0-0.9-0.1-1.2-0.2c-0.4-0.1-0.7-0.3-1.1-0.7l0.6-0.8c0.2,0.3,0.5,0.4,0.8,0.6s0.6,0.2,0.9,0.2c0.3,0,0.6,0,0.8-0.1
				c0.2-0.1,0.4-0.2,0.5-0.4s0.2-0.3,0.3-0.5c0.1-0.2,0.1-0.4,0.1-0.6V47h0c-0.2,0.3-0.4,0.5-0.7,0.6s-0.6,0.2-0.9,0.2
				c-0.3,0-0.7-0.1-1-0.2c-0.3-0.1-0.6-0.3-0.8-0.5c-0.2-0.2-0.4-0.5-0.5-0.8c-0.1-0.3-0.2-0.6-0.2-1s0.1-0.7,0.2-1
				c0.1-0.3,0.3-0.6,0.5-0.8s0.5-0.4,0.8-0.5c0.3-0.1,0.6-0.2,1-0.2c0.3,0,0.6,0.1,0.9,0.2c0.3,0.1,0.5,0.3,0.7,0.6h0v-0.7h0.9V47.8
				z M173.7,43.8c-0.2,0-0.5,0-0.7,0.1c-0.2,0.1-0.4,0.2-0.5,0.3c-0.1,0.1-0.2,0.3-0.3,0.5c-0.1,0.2-0.1,0.4-0.1,0.7
				c0,0.5,0.1,0.9,0.4,1.2c0.3,0.3,0.7,0.4,1.1,0.4c0.5,0,0.9-0.1,1.1-0.4c0.3-0.3,0.4-0.7,0.4-1.2c0-0.2,0-0.5-0.1-0.7
				c-0.1-0.2-0.2-0.4-0.3-0.5c-0.1-0.1-0.3-0.3-0.5-0.3C174.2,43.8,174,43.8,173.7,43.8z"/>
			<path class="st7" d="M181.7,47.8h-0.9v-0.7h0c-0.1,0.3-0.3,0.5-0.6,0.6c-0.3,0.2-0.6,0.2-1,0.2c-0.2,0-0.5,0-0.7-0.1
				c-0.2-0.1-0.4-0.2-0.5-0.3c-0.2-0.1-0.3-0.3-0.4-0.6c-0.1-0.2-0.1-0.5-0.1-0.8v-3.1h0.9v2.8c0,0.2,0,0.4,0.1,0.6
				c0.1,0.2,0.1,0.3,0.2,0.4s0.2,0.2,0.3,0.2c0.1,0,0.3,0.1,0.4,0.1c0.2,0,0.4,0,0.5-0.1c0.2-0.1,0.3-0.2,0.4-0.3s0.2-0.3,0.3-0.5
				c0.1-0.2,0.1-0.4,0.1-0.7v-2.4h0.9V47.8z"/>
			<path class="st7" d="M183.1,43.6c0.3-0.2,0.5-0.4,0.9-0.5c0.3-0.1,0.7-0.2,1-0.2c0.3,0,0.6,0,0.9,0.1s0.5,0.2,0.6,0.3
				s0.3,0.3,0.4,0.5c0.1,0.2,0.1,0.4,0.1,0.6v2.4c0,0.2,0,0.3,0,0.5c0,0.1,0,0.3,0,0.4h-0.8c0-0.2,0-0.5,0-0.7h0
				c-0.2,0.3-0.4,0.5-0.7,0.7c-0.3,0.1-0.6,0.2-1,0.2c-0.2,0-0.4,0-0.6-0.1s-0.4-0.2-0.5-0.3c-0.1-0.1-0.3-0.3-0.4-0.4
				c-0.1-0.2-0.1-0.4-0.1-0.6c0-0.3,0.1-0.6,0.2-0.8c0.1-0.2,0.3-0.4,0.6-0.5c0.2-0.1,0.5-0.2,0.8-0.3s0.7-0.1,1-0.1h0.7v-0.2
				c0-0.1,0-0.2-0.1-0.4c0-0.1-0.1-0.2-0.2-0.3c-0.1-0.1-0.2-0.2-0.3-0.2s-0.3-0.1-0.5-0.1c-0.2,0-0.3,0-0.5,0s-0.2,0.1-0.4,0.1
				c-0.1,0-0.2,0.1-0.3,0.2c-0.1,0.1-0.2,0.1-0.2,0.2L183.1,43.6z M185.7,45.5c-0.2,0-0.4,0-0.7,0c-0.2,0-0.4,0.1-0.6,0.1
				c-0.2,0.1-0.3,0.2-0.5,0.3c-0.1,0.1-0.2,0.3-0.2,0.5c0,0.3,0.1,0.5,0.3,0.6c0.2,0.1,0.4,0.2,0.7,0.2c0.2,0,0.5,0,0.6-0.1
				c0.2-0.1,0.3-0.2,0.4-0.3c0.1-0.1,0.2-0.3,0.2-0.4c0-0.2,0.1-0.3,0.1-0.5v-0.3H185.7z"/>
			<path class="st7" d="M193.1,47.8c0,0.4-0.1,0.7-0.2,1s-0.3,0.6-0.5,0.8c-0.2,0.2-0.5,0.4-0.8,0.5c-0.3,0.1-0.7,0.2-1.1,0.2
				c-0.5,0-0.9-0.1-1.2-0.2c-0.4-0.1-0.7-0.3-1.1-0.7l0.6-0.8c0.2,0.3,0.5,0.4,0.8,0.6c0.3,0.1,0.6,0.2,0.9,0.2c0.3,0,0.6,0,0.8-0.1
				s0.4-0.2,0.5-0.4c0.1-0.2,0.2-0.3,0.3-0.5c0.1-0.2,0.1-0.4,0.1-0.6V47h0c-0.2,0.3-0.4,0.5-0.7,0.6s-0.6,0.2-0.9,0.2
				c-0.3,0-0.7-0.1-1-0.2c-0.3-0.1-0.6-0.3-0.8-0.5c-0.2-0.2-0.4-0.5-0.5-0.8c-0.1-0.3-0.2-0.6-0.2-1s0.1-0.7,0.2-1s0.3-0.6,0.5-0.8
				s0.5-0.4,0.8-0.5c0.3-0.1,0.6-0.2,1-0.2c0.3,0,0.6,0.1,0.9,0.2c0.3,0.1,0.5,0.3,0.7,0.6h0v-0.7h0.9V47.8z M190.6,43.8
				c-0.2,0-0.5,0-0.7,0.1c-0.2,0.1-0.4,0.2-0.5,0.3c-0.1,0.1-0.2,0.3-0.3,0.5c-0.1,0.2-0.1,0.4-0.1,0.7c0,0.5,0.1,0.9,0.4,1.2
				s0.7,0.4,1.1,0.4c0.5,0,0.9-0.1,1.1-0.4s0.4-0.7,0.4-1.2c0-0.2,0-0.5-0.1-0.7c-0.1-0.2-0.2-0.4-0.3-0.5c-0.1-0.1-0.3-0.3-0.5-0.3
				C191,43.8,190.8,43.8,190.6,43.8z"/>
			<path class="st7" d="M195.1,45.8c0,0.2,0,0.4,0.1,0.6c0.1,0.2,0.2,0.3,0.4,0.4s0.3,0.2,0.5,0.3s0.4,0.1,0.6,0.1
				c0.3,0,0.5-0.1,0.7-0.2c0.2-0.1,0.4-0.3,0.6-0.5l0.7,0.5c-0.5,0.6-1.2,1-2.1,1c-0.4,0-0.7-0.1-1-0.2c-0.3-0.1-0.6-0.3-0.8-0.5
				s-0.4-0.5-0.5-0.8s-0.2-0.6-0.2-1c0-0.4,0.1-0.7,0.2-1c0.1-0.3,0.3-0.6,0.5-0.8s0.5-0.4,0.8-0.5c0.3-0.1,0.6-0.2,1-0.2
				c0.4,0,0.8,0.1,1.1,0.2s0.5,0.3,0.7,0.6c0.2,0.2,0.3,0.5,0.4,0.8c0.1,0.3,0.1,0.6,0.1,0.9v0.3H195.1z M197.9,45
				c0-0.2,0-0.4-0.1-0.5s-0.1-0.3-0.3-0.4c-0.1-0.1-0.3-0.2-0.4-0.3c-0.2-0.1-0.4-0.1-0.6-0.1c-0.2,0-0.4,0-0.6,0.1
				s-0.3,0.2-0.5,0.3c-0.1,0.1-0.2,0.3-0.3,0.4c-0.1,0.2-0.1,0.3-0.1,0.5H197.9z"/>
		</g>
	</g>
	<g>
		<path class="st5" d="M34.4,17.2v1.4c0,1.7-0.8,2.6-2.5,2.6c-1.6,0-2.5-1-2.5-2.6v-5.5c0-1.7,0.8-2.6,2.5-2.6c1.6,0,2.5,1,2.5,2.6
			v1h-1.6V13c0-0.8-0.3-1-0.9-1c-0.5,0-0.9,0.3-0.9,1v5.7c0,0.8,0.3,1,0.9,1c0.5,0,0.9-0.3,0.9-1v-1.5H34.4z"/>
		<path class="st5" d="M35.2,13.1c0-1.7,0.9-2.6,2.5-2.6c1.6,0,2.5,1,2.5,2.6v5.5c0,1.7-0.9,2.6-2.5,2.6c-1.6,0-2.5-1-2.5-2.6V13.1z
			 M36.9,18.7c0,0.8,0.3,1,0.9,1c0.5,0,0.9-0.3,0.9-1V13c0-0.8-0.3-1-0.9-1c-0.5,0-0.9,0.3-0.9,1V18.7z"/>
		<path class="st5" d="M44.8,18.1L44.8,18.1l1.1-7.5h2.3v10.5h-1.6v-7.5h0l-1.1,7.5H44l-1.2-7.4h0v7.4h-1.4V10.6h2.3L44.8,18.1z"/>
		<path class="st5" d="M54.3,13.2v1.4c0,1.7-0.8,2.6-2.5,2.6h-0.8v3.9h-1.6V10.6h2.4C53.5,10.6,54.3,11.5,54.3,13.2z M51.1,12.1v3.6
			h0.8c0.5,0,0.8-0.2,0.8-1v-1.6c0-0.8-0.3-1-0.8-1H51.1z"/>
		<path class="st5" d="M55.1,10.6h1.7v9h2.7v1.5h-4.4V10.6z"/>
		<path class="st5" d="M61.8,15h2.3v1.5h-2.3v3.1h2.8v1.5h-4.5V10.6h4.5v1.5h-2.8V15z"/>
		<path class="st5" d="M71.2,10.6l-1.7,5.1l1.8,5.4h-1.7l-1.3-4.2h0l-1.3,4.2h-1.5l1.8-5.4l-1.7-5.1h1.7l1.2,3.9h0l1.3-3.9H71.2z"/>
		<path class="st5" d="M79.2,17.2v1.4c0,1.7-0.8,2.6-2.5,2.6c-1.6,0-2.5-1-2.5-2.6v-5.5c0-1.7,0.8-2.6,2.5-2.6c1.6,0,2.5,1,2.5,2.6
			v1h-1.6V13c0-0.8-0.3-1-0.9-1c-0.5,0-0.9,0.3-0.9,1v5.7c0,0.8,0.3,1,0.9,1c0.5,0,0.9-0.3,0.9-1v-1.5H79.2z"/>
		<path class="st5" d="M80.1,13.1c0-1.7,0.9-2.6,2.5-2.6c1.6,0,2.5,1,2.5,2.6v5.5c0,1.7-0.9,2.6-2.5,2.6c-1.6,0-2.5-1-2.5-2.6V13.1z
			 M81.8,18.7c0,0.8,0.3,1,0.9,1c0.5,0,0.9-0.3,0.9-1V13c0-0.8-0.3-1-0.9-1c-0.5,0-0.9,0.3-0.9,1V18.7z"/>
		<path class="st5" d="M89.7,18.1L89.7,18.1l1.1-7.5h2.3v10.5h-1.6v-7.5h0l-1.1,7.5h-1.6l-1.2-7.4h0v7.4h-1.4V10.6h2.3L89.7,18.1z"
			/>
		<path class="st5" d="M97.8,18.1L97.8,18.1l1.1-7.5h2.3v10.5h-1.6v-7.5h0l-1.1,7.5h-1.6l-1.2-7.4h0v7.4h-1.4V10.6h2.3L97.8,18.1z"
			/>
		<path class="st5" d="M104,10.6v8.1c0,0.8,0.3,1,0.9,1c0.5,0,0.9-0.3,0.9-1v-8.1h1.6v8c0,1.7-0.8,2.6-2.5,2.6s-2.5-1-2.5-2.6v-8
			H104z"/>
		<path class="st5" d="M109.9,13.5L109.9,13.5l0,7.6h-1.5V10.6h2.1l1.7,6.3h0v-6.3h1.5v10.5h-1.7L109.9,13.5z"/>
		<path class="st5" d="M114.8,10.6h1.7v10.5h-1.7V10.6z"/>
		<path class="st5" d="M122.4,17.2v1.4c0,1.7-0.8,2.6-2.5,2.6s-2.5-1-2.5-2.6v-5.5c0-1.7,0.8-2.6,2.5-2.6s2.5,1,2.5,2.6v1h-1.6V13
			c0-0.8-0.3-1-0.9-1c-0.5,0-0.9,0.3-0.9,1v5.7c0,0.8,0.3,1,0.9,1c0.5,0,0.9-0.3,0.9-1v-1.5H122.4z"/>
		<path class="st5" d="M128.8,21.1h-1.7l-0.3-1.9h-2l-0.3,1.9H123l1.7-10.5h2.4L128.8,21.1z M125,17.8h1.6l-0.8-5.3h0L125,17.8z"/>
		<path class="st5" d="M128.5,10.6h5.1v1.5h-1.7v9h-1.7v-9h-1.7V10.6z"/>
		<path class="st5" d="M134.3,10.6h1.6v10.5h-1.6V10.6z"/>
		<path class="st5" d="M137,13.1c0-1.7,0.9-2.6,2.5-2.6s2.5,1,2.5,2.6v5.5c0,1.7-0.9,2.6-2.5,2.6s-2.5-1-2.5-2.6V13.1z M138.7,18.7
			c0,0.8,0.3,1,0.9,1c0.5,0,0.9-0.3,0.9-1V13c0-0.8-0.3-1-0.9-1c-0.5,0-0.9,0.3-0.9,1V18.7z"/>
		<path class="st5" d="M144.6,13.5L144.6,13.5l0,7.6h-1.5V10.6h2.1l1.7,6.3h0v-6.3h1.5v10.5h-1.7L144.6,13.5z"/>
	</g>
</g>
<g>
</g>
<g>
</g>
<g>
</g>
<g>
</g>
<g>
</g>
<g>
</g>
<g>
</g>
<g>
</g>
<g>
</g>
<g>
</g>
<g>
</g>
<g>
</g>
<g>
</g>
<g>
</g>
<g>
</g>
</svg>
