<?xml version="1.0" encoding="utf-8"?>
<!-- Generator: Adobe Illustrator 19.2.0, SVG Export Plug-In . SVG Version: 6.00 Build 0)  -->
<!DOCTYPE svg PUBLIC "-//W3C//DTD SVG 1.1//EN" "http://www.w3.org/Graphics/SVG/1.1/DTD/svg11.dtd">
<svg version="1.1" id="Layer_1" xmlns="http://www.w3.org/2000/svg" xmlns:xlink="http://www.w3.org/1999/xlink" x="0px" y="0px"
	 width="361.4px" height="77.2px" viewBox="0 0 361.4 77.2" style="enable-background:new 0 0 361.4 77.2;" xml:space="preserve">
<style type="text/css">
	.st0{fill:#92BEB8;}
	.st1{fill:#FFF6C5;}
</style>
<g>
	<g>
		<path class="st0" d="M23.7,64.5h-5.2l-0.9-6h-6.4l-0.9,6H5.5l5.3-33h7.6L23.7,64.5z M11.8,54h5l-2.5-16.7h-0.1L11.8,54z"/>
		<path class="st0" d="M26.1,31.4h5.2v28.3h8.5v4.7H26.1V31.4z"/>
		<path class="st0" d="M53,54.9L53,54.9l3.6-23.5h7.2v33h-4.9V40.8h-0.1l-3.5,23.7h-4.9l-3.8-23.4h-0.1v23.4H42v-33h7.2L53,54.9z"/>
		<path class="st0" d="M67.2,39.4c0-5.3,2.8-8.3,7.9-8.3c5.1,0,7.9,3,7.9,8.3v17.2c0,5.3-2.8,8.3-7.9,8.3c-5.1,0-7.9-3-7.9-8.3V39.4
			z M72.4,56.9c0,2.4,1,3.3,2.7,3.3c1.7,0,2.7-0.9,2.7-3.3V39c0-2.4-1-3.3-2.7-3.3c-1.7,0-2.7,0.9-2.7,3.3V56.9z"/>
		<path class="st0" d="M93.3,31c5.1,0,7.6,3,7.6,8.3v1H96V39c0-2.4-0.9-3.3-2.6-3.3c-1.7,0-2.6,0.9-2.6,3.3c0,2.4,1,4.2,4.4,7.2
			c4.3,3.8,5.7,6.6,5.7,10.3c0,5.3-2.6,8.3-7.7,8.3c-5.1,0-7.7-3-7.7-8.3v-2h4.9v2.4c0,2.4,1,3.2,2.7,3.2c1.7,0,2.7-0.8,2.7-3.2
			c0-2.4-1-4.2-4.4-7.2c-4.3-3.8-5.7-6.6-5.7-10.3C85.6,34.1,88.2,31,93.3,31z"/>
		<path class="st0" d="M102.4,31.4h16v4.7H113v28.3h-5.2V36.1h-5.4V31.4z"/>
		<path class="st0" d="M127.6,39.4c0-5.3,2.8-8.3,7.9-8.3c5.1,0,7.9,3,7.9,8.3v17.2c0,5.3-2.8,8.3-7.9,8.3c-5.1,0-7.9-3-7.9-8.3
			V39.4z M132.8,56.9c0,2.4,1,3.3,2.7,3.3c1.7,0,2.7-0.9,2.7-3.3V39c0-2.4-1-3.3-2.7-3.3c-1.7,0-2.7,0.9-2.7,3.3V56.9z"/>
		<path class="st0" d="M151.7,31.4v25.5c0,2.4,1,3.2,2.7,3.2c1.7,0,2.7-0.8,2.7-3.2V31.4h4.9v25.2c0,5.3-2.6,8.3-7.7,8.3
			c-5.1,0-7.7-3-7.7-8.3V31.4H151.7z"/>
		<path class="st0" d="M164,31.4h16v4.7h-5.4v28.3h-5.2V36.1H164V31.4z"/>
		<path class="st0" d="M205.3,39.2v4.4c0,5.4-2.6,8.3-7.9,8.3h-2.5v12.6h-5.3V30.8h7.8C202.7,30.8,205.3,33.8,205.3,39.2z
			 M194.9,35.7V47h2.5c1.7,0,2.6-0.8,2.6-3.2v-5c0-2.4-0.9-3.2-2.6-3.2H194.9z"/>
		<path class="st0" d="M213,45h7.2v4.8H213v9.8h9.1v4.8h-14.4V30.8h14.4v4.8H213V45z"/>
		<path class="st0" d="M236.5,64.5c-0.3-0.9-0.5-1.4-0.5-4.1v-5.3c0-3.1-1.1-4.3-3.5-4.3h-1.8v13.7h-5.3V30.8h8
			c5.5,0,7.8,2.5,7.8,7.7v2.6c0,3.5-1.1,5.7-3.5,6.8v0.1c2.6,1.1,3.5,3.6,3.5,7.1v5.2c0,1.6,0,2.8,0.6,4.1H236.5z M230.7,35.7V46
			h2.1c2,0,3.2-0.9,3.2-3.6v-3.3c0-2.4-0.8-3.5-2.7-3.5H230.7z"/>
		<path class="st0" d="M250,45.8h6.8v4.8H250v13.9h-5.3V30.8h14v4.8H250V45.8z"/>
		<path class="st0" d="M260.8,38.9c0-5.4,2.8-8.5,8-8.5c5.2,0,8,3.1,8,8.5v17.5c0,5.4-2.8,8.5-8,8.5c-5.2,0-8-3.1-8-8.5V38.9z
			 M266.1,56.7c0,2.4,1.1,3.3,2.7,3.3s2.7-0.9,2.7-3.3V38.6c0-2.4-1.1-3.3-2.7-3.3s-2.7,0.9-2.7,3.3V56.7z"/>
		<path class="st0" d="M291.3,64.5c-0.3-0.9-0.5-1.4-0.5-4.1v-5.3c0-3.1-1.1-4.3-3.5-4.3h-1.8v13.7h-5.3V30.8h8
			c5.5,0,7.8,2.5,7.8,7.7v2.6c0,3.5-1.1,5.7-3.5,6.8v0.1c2.6,1.1,3.5,3.6,3.5,7.1v5.2c0,1.6,0,2.8,0.6,4.1H291.3z M285.6,35.7V46
			h2.1c2,0,3.2-0.9,3.2-3.6v-3.3c0-2.4-0.8-3.5-2.7-3.5H285.6z"/>
		<path class="st0" d="M310.7,54.7L310.7,54.7l3.6-23.9h7.3v33.6h-5V40.4h-0.1l-3.6,24.1h-5l-3.8-23.8h-0.1v23.8h-4.6V30.8h7.3
			L310.7,54.7z"/>
		<path class="st0" d="M330.8,45h7.3v4.8h-7.3v9.8h9.1v4.8h-14.4V30.8H340v4.8h-9.1V45z"/>
		<path class="st0" d="M343.2,30.8h8.4c5.3,0,7.9,2.9,7.9,8.3v17c0,5.4-2.6,8.3-7.9,8.3h-8.4V30.8z M348.5,35.7v24h3
			c1.7,0,2.7-0.9,2.7-3.3V38.9c0-2.4-1-3.3-2.7-3.3H348.5z"/>
	</g>
	<g>
		<g>
			<path class="st1" d="M19.2,60h-5.2L13,54H6.6l-0.9,6H1l5.3-33h7.6L19.2,60z M7.3,49.5h5L9.9,32.8H9.8L7.3,49.5z"/>
			<path class="st1" d="M21.6,26.9h5.2v28.3h8.5V60H21.6V26.9z"/>
			<path class="st1" d="M48.5,50.4L48.5,50.4l3.6-23.5h7.2v33h-4.9V36.3h-0.1L50.8,60h-4.9l-3.8-23.4H42V60h-4.5v-33h7.2L48.5,50.4z
				"/>
			<path class="st1" d="M62.7,34.9c0-5.3,2.8-8.3,7.9-8.3c5.1,0,7.9,3,7.9,8.3V52c0,5.3-2.8,8.3-7.9,8.3c-5.1,0-7.9-3-7.9-8.3V34.9z
				 M67.9,52.4c0,2.4,1,3.3,2.7,3.3c1.7,0,2.7-0.9,2.7-3.3V34.5c0-2.4-1-3.3-2.7-3.3c-1.7,0-2.7,0.9-2.7,3.3V52.4z"/>
			<path class="st1" d="M88.8,26.5c5.1,0,7.6,3,7.6,8.3v1h-4.9v-1.4c0-2.4-0.9-3.3-2.6-3.3c-1.7,0-2.6,0.9-2.6,3.3
				c0,2.4,1,4.2,4.4,7.2c4.3,3.8,5.7,6.6,5.7,10.3c0,5.3-2.6,8.3-7.7,8.3c-5.1,0-7.7-3-7.7-8.3v-2h4.9v2.4c0,2.4,1,3.2,2.7,3.2
				c1.7,0,2.7-0.8,2.7-3.2c0-2.4-1-4.2-4.4-7.2c-4.3-3.8-5.7-6.6-5.7-10.3C81.1,29.6,83.7,26.5,88.8,26.5z"/>
			<path class="st1" d="M97.9,26.9h16v4.7h-5.4V60h-5.2V31.6h-5.4V26.9z"/>
			<path class="st1" d="M123.1,34.9c0-5.3,2.8-8.3,7.9-8.3c5.1,0,7.9,3,7.9,8.3V52c0,5.3-2.8,8.3-7.9,8.3c-5.1,0-7.9-3-7.9-8.3V34.9
				z M128.3,52.4c0,2.4,1,3.3,2.7,3.3c1.7,0,2.7-0.9,2.7-3.3V34.5c0-2.4-1-3.3-2.7-3.3c-1.7,0-2.7,0.9-2.7,3.3V52.4z"/>
			<path class="st1" d="M147.2,26.9v25.5c0,2.4,1,3.2,2.7,3.2c1.7,0,2.7-0.8,2.7-3.2V26.9h4.9v25.2c0,5.3-2.6,8.3-7.7,8.3
				c-5.1,0-7.7-3-7.7-8.3V26.9H147.2z"/>
			<path class="st1" d="M159.5,26.9h16v4.7h-5.4V60h-5.2V31.6h-5.4V26.9z"/>
			<path class="st1" d="M200.8,34.7V39c0,5.4-2.6,8.3-7.9,8.3h-2.5V60h-5.3V26.3h7.8C198.2,26.3,200.8,29.3,200.8,34.7z M190.4,31.2
				v11.4h2.5c1.7,0,2.6-0.8,2.6-3.2v-5c0-2.4-0.9-3.2-2.6-3.2H190.4z"/>
			<path class="st1" d="M208.5,40.5h7.2v4.8h-7.2v9.8h9.1V60h-14.4V26.3h14.4v4.8h-9.1V40.5z"/>
			<path class="st1" d="M232,60c-0.3-0.9-0.5-1.4-0.5-4.1v-5.3c0-3.1-1.1-4.3-3.5-4.3h-1.8V60h-5.3V26.3h8c5.5,0,7.8,2.5,7.8,7.7
				v2.6c0,3.5-1.1,5.7-3.5,6.8v0.1c2.6,1.1,3.5,3.6,3.5,7.1v5.2c0,1.6,0,2.8,0.6,4.1H232z M226.2,31.2v10.3h2.1c2,0,3.2-0.9,3.2-3.6
				v-3.3c0-2.4-0.8-3.5-2.7-3.5H226.2z"/>
			<path class="st1" d="M245.5,41.3h6.8v4.8h-6.8V60h-5.3V26.3h14v4.8h-8.7V41.3z"/>
			<path class="st1" d="M256.3,34.4c0-5.4,2.8-8.5,8-8.5c5.2,0,8,3.1,8,8.5v17.5c0,5.4-2.8,8.5-8,8.5c-5.2,0-8-3.1-8-8.5V34.4z
				 M261.6,52.2c0,2.4,1.1,3.3,2.7,3.3s2.7-0.9,2.7-3.3V34.1c0-2.4-1.1-3.3-2.7-3.3s-2.7,0.9-2.7,3.3V52.2z"/>
			<path class="st1" d="M286.8,60c-0.3-0.9-0.5-1.4-0.5-4.1v-5.3c0-3.1-1.1-4.3-3.5-4.3h-1.8V60h-5.3V26.3h8c5.5,0,7.8,2.5,7.8,7.7
				v2.6c0,3.5-1.1,5.7-3.5,6.8v0.1c2.6,1.1,3.5,3.6,3.5,7.1v5.2c0,1.6,0,2.8,0.6,4.1H286.8z M281.1,31.2v10.3h2.1
				c2,0,3.2-0.9,3.2-3.6v-3.3c0-2.4-0.8-3.5-2.7-3.5H281.1z"/>
			<path class="st1" d="M306.2,50.2L306.2,50.2l3.6-23.9h7.3V60h-5V35.9h-0.1L308.6,60h-5l-3.8-23.8h-0.1V60H295V26.3h7.3
				L306.2,50.2z"/>
			<path class="st1" d="M326.3,40.5h7.3v4.8h-7.3v9.8h9.1V60h-14.4V26.3h14.4v4.8h-9.1V40.5z"/>
			<path class="st1" d="M338.7,26.3h8.4c5.3,0,7.9,2.9,7.9,8.3v17c0,5.4-2.6,8.3-7.9,8.3h-8.4V26.3z M344,31.2v24h3
				c1.7,0,2.7-0.9,2.7-3.3V34.4c0-2.4-1-3.3-2.7-3.3H344z"/>
		</g>
	</g>
</g>
</svg>
