<?xml version="1.0" encoding="utf-8"?>
<!-- Generator: Adobe Illustrator 19.2.0, SVG Export Plug-In . SVG Version: 6.00 Build 0)  -->
<!DOCTYPE svg PUBLIC "-//W3C//DTD SVG 1.1//EN" "http://www.w3.org/Graphics/SVG/1.1/DTD/svg11.dtd">
<svg version="1.1" id="Layer_1" xmlns="http://www.w3.org/2000/svg" xmlns:xlink="http://www.w3.org/1999/xlink" x="0px" y="0px"
	 width="216px" height="288px" viewBox="0 0 216 288" enable-background="new 0 0 216 288" xml:space="preserve">
<g>
	<path fill="#92BEB8" d="M179.4,126v0.1c0,0,0,0,0,0h0c0,0,0,0,0,0c0,0,0,0-0.1,0c0,0,0,0,0-0.1c0,0,0,0,0,0H179.4z"/>
	<path fill="#92BEB8" d="M179.4,126.5C179.4,126.5,179.4,126.5,179.4,126.5L179.4,126.5C179.4,126.5,179.4,126.5,179.4,126.5
		C179.3,126.5,179.3,126.5,179.4,126.5C179.3,126.5,179.3,126.5,179.4,126.5h-0.1c0,0-0.1,0-0.1,0c0,0,0,0,0-0.1c0,0,0.1,0,0.2,0
		c0,0,0,0,0,0C179.4,126.4,179.4,126.5,179.4,126.5L179.4,126.5L179.4,126.5C179.4,126.5,179.4,126.5,179.4,126.5z"/>
	<path fill="#92BEB8" d="M179.4,126.1L179.4,126.1C179.4,126.2,179.4,126.1,179.4,126.1S179.4,126.1,179.4,126.1z"/>
	<path fill="#92BEB8" d="M179.4,126.5C179.4,126.5,179.4,126.5,179.4,126.5C179.4,126.5,179.4,126.5,179.4,126.5L179.4,126.5z"/>
	<path fill="#92BEB8" d="M180,126.5h-0.2c-0.1,0,0-0.1-0.1-0.2C179.8,126.4,179.9,126.5,180,126.5z"/>
	<path fill="#92BEB8" d="M186.7,126.1C186.7,126.1,186.7,126.1,186.7,126.1c0,0-0.1,0-0.2,0C186.6,126.1,186.6,126.1,186.7,126.1z"
		/>
	<path fill="#92BEB8" d="M187.6,126c-0.1,0-0.3,0-0.4,0C187.3,126,187.5,126,187.6,126L187.6,126z"/>
	<path fill="#92BEB8" d="M188,125.9C188,125.9,188,125.9,188,125.9c-0.1,0-0.2,0-0.4,0C187.8,126,187.9,125.9,188,125.9z"/>
	<path fill="#92BEB8" d="M179.4,126v0.1c0,0,0,0,0,0h0c0,0,0,0,0,0c0,0,0,0-0.1,0c0,0,0,0,0-0.1c0,0,0,0,0,0H179.4z"/>
	<path fill="#92BEB8" d="M179.4,126C179.4,126,179.4,126,179.4,126C179.4,126,179.4,126,179.4,126L179.4,126z"/>
	<rect x="111" y="30" fill="#92BEB8" width="0.1" height="2"/>
	<path fill="#92BEB8" d="M179.4,126.5C179.4,126.5,179.4,126.5,179.4,126.5L179.4,126.5C179.4,126.5,179.4,126.5,179.4,126.5
		L179.4,126.5z M179.4,126.5C179.4,126.5,179.4,126.5,179.4,126.5C179.4,126.5,179.4,126.5,179.4,126.5L179.4,126.5z M179.7,126.3
		c0,0.1,0,0.1,0.1,0.2h0.2C179.9,126.5,179.8,126.4,179.7,126.3z M187.6,126c-0.1,0-0.2,0-0.4,0C187.3,126,187.5,126,187.6,126
		L187.6,126z"/>
	<path fill="#92BEB8" d="M111,30v2h0.1v-2H111z"/>
	<path fill="#92BEB8" d="M111,30v2h0.1v-2H111z"/>
	<path fill="#92BEB8" d="M111,30v2h0.1v-2H111z"/>
	<path fill="#92BEB8" d="M111,30v2h0.1v-2H111z"/>
	<path fill="#92BEB8" d="M111,30v2h0.1v-2H111z"/>
	<path fill="#92BEB8" d="M111,30v2h0.1v-2H111z"/>
	<path fill="#92BEB8" d="M163.8,265.9L163.8,265.9l2-4.2L163.8,265.9z"/>
	<path fill="#92BEB8" d="M196.9,125.8c-0.5-1-2.3-3-7.9-1.5c-1.3,0.1-2.5-0.1-3.7-0.1c-0.7,0-1.4-0.2-2.1-0.2h0c0,0,0,0,0,0h0
		c0,0,0,0.2-0.1,0.2c-39.5-1.2-44-39.5-44-39.5l0,0.1V85h-1.8c0.2,0,0.3,0.6,0.5,1c-0.2-0.4-0.3-0.8-0.5-1H123v-8l-3.5,2.2l4.5-19
		l7.4-30.4L120,17.4v7.7l-1.2-1.2l-0.9-0.9l-2-2v6.2l-1-1.5V30H71.9c0,1,0,1.3,0.1,2c0.2,1.2,0.5,2.3,0.9,3.5
		c0.8,2.2,2.1,4.2,3.7,5.8l0.1,0c3,3,7,4.7,11.6,4.7h0.4l0.5,2.2l2.7,11.4l3.1,13.1l1.6,6.6L93,77v8H82.9c0,0-0.6-0.1-1.7,0
		c-1.1,0.1-2.6,0.2-4.5,0.5c-0.2,0-0.5,0.1-0.7,0.1c0,0-0.1,0-0.1,0c-0.2,0-0.4,0.1-0.6,0.1c0,0-0.1,0-0.2,0c-0.2,0-0.4,0.1-0.6,0.1
		c0,0-0.1,0-0.2,0c-0.5,0.1-1,0.3-1.6,0.4c0,0-0.1,0-0.1,0c-0.2,0.1-0.4,0.1-0.7,0.2c-0.1,0-0.1,0-0.2,0.1c-0.2,0.1-0.4,0.1-0.6,0.2
		c-0.1,0-0.1,0-0.2,0.1c-0.2,0.1-0.5,0.2-0.8,0.2c0,0-0.1,0-0.1,0c-0.3,0.1-0.6,0.2-0.9,0.3c0,0-0.1,0-0.1,0.1
		c-0.2,0.1-0.5,0.2-0.7,0.2c-0.1,0-0.2,0.1-0.3,0.1c-0.2,0.1-0.4,0.2-0.6,0.2c-0.1,0-0.2,0.1-0.3,0.1c-0.2,0.1-0.5,0.2-0.7,0.3
		c-0.1,0-0.1,0-0.2,0.1c-0.3,0.1-0.6,0.3-0.9,0.4c0,0-0.1,0-0.1,0.1l-0.8,0.4c-0.1,0-0.2,0.1-0.3,0.1c-0.2,0.1-0.4,0.2-0.6,0.3
		c-0.1,0-0.2,0.1-0.3,0.2c-0.2,0.1-0.5,0.2-0.7,0.4c-0.1,0-0.2,0.1-0.2,0.1c-0.3,0.2-0.6,0.3-0.9,0.5c0,0,0,0,0,0
		c-0.3,0.2-0.6,0.3-0.9,0.5c-0.1,0.1-0.2,0.1-0.2,0.2c-0.1,0.1-0.2,0.1-0.3,0.2c-0.1,0.1-0.2,0.1-0.4,0.2c-0.1,0.1-0.2,0.1-0.3,0.2
		c-0.2,0.2-0.5,0.3-0.7,0.5c-0.1,0-0.1,0.1-0.2,0.1c-0.6,0.4-1.2,0.9-1.8,1.3c-0.1,0-0.1,0.1-0.2,0.1c-0.2,0.2-0.5,0.4-0.7,0.6
		l-0.2,0.2c-0.2,0.2-0.5,0.4-0.7,0.6c0,0.1-0.1,0.1-0.2,0.1c-0.6,0.5-1.2,1.1-1.7,1.7c0,0,0,0,0,0.1c-0.3,0.3-0.5,0.6-0.8,0.8
		c0,0-0.1,0.1-0.1,0.1c-0.2,0.3-0.5,0.5-0.7,0.8c0,0-0.1,0.1-0.1,0.1c-0.8,1-1.6,2-2.3,3.1c0,0,0,0,0,0.1c-0.2,0.4-0.5,0.7-0.7,1.1
		c0,0,0,0,0,0c0,0,0,0,0,0c-0.1,0.2-0.2,0.3-0.3,0.5c0,0.1-0.1,0.1-0.1,0.2c0,0.1-0.1,0.2-0.2,0.3c-0.1,0.2-0.2,0.4-0.3,0.6
		c-0.1,0.1-0.1,0.3-0.2,0.4c-0.1,0.3-0.2,0.6-0.4,0.8c0,0.1,0,0.2-0.1,0.3c-0.6,1.2-1.5,2.5-1.5,3.9v0c0,0.5-1,0.9-1,1.4
		c0,0,0,0,0,0c0,2-1,4.1-1.4,6.4c0,0,0.1,0.1,0.1,0.1c-0.2,1-0.3,2-0.4,3c0,0.2,0,0.4-0.1,0.6c0,0.2-0.1,0.5-0.1,0.7
		c0,0.2,0,0.5-0.1,0.8c0,0.2,0,0.4,0,0.6c0,0.3,0,0.6,0,1c0,0.2,0,0.3,0,0.5c0,0.5,0,1,0,1.5c0,0.1,0,0.2,0,0.3v1.8c0,0.3,0,0.7,0,1
		c0,0.2,0,0.4,0,0.6c0,0.3,0,0.7,0,1c0,0.2,0,0.3,0,0.5c-0.4,0-0.7,0.4-0.7,0.8c0,0.4,0.4,0.8,0.8,0.8c0,0,0,0,0,0
		c0,0.2,0,0.5,0,0.7c0,0.1,0,0.2,0,0.3c-0.4,0.1-0.8,0.4-0.8,0.8c0,0.5,0.3,0.8,0.7,0.8l-0.1,0v0c0,0.2,0.2,0.3,0.2,0.4
		c0,0.2,0.2,0.4,0.2,0.6c0,0.1,0,0.2,0,0.2c0,0,0.3,1,0.2,2.1c-0.1,1.1-0.7,2.3-2.8,2.1c-0.1,0-0.2,0.2,0,0.2c1.1,0.4,3.3,1,4.4-1.1
		c0,0,0.5,2-1,3c-0.1,0.1-0.2,0.2-0.4,0.2c-0.1,0.1-0.1,0.2,0,0.2c0.2,0,0.3,0,0.5-0.1c0.3-0.1,0.7-0.2,1.1-0.4
		c0.8-0.5,1.5-1.3,1.7-2.9c0,0,1.6,1.3,0.8,2.6c-0.1,0.1,0.1,0.2,0.2,0.2c0.8-0.8,1.8-2.5,0.1-6.2c0,0-0.2-0.8-0.2-2.2
		c0-0.6-0.2-1.3-0.2-2.1v-1.8c0-0.3,0-0.6,0.1-0.9c0,0,0,0,0-0.1c0-0.6-0.1-1.3-0.1-2v-0.1c1-1,0.5-2.2,0.7-3.3c0,0,0.2-0.1,0.2-0.1
		c0.1-0.8,0.3-1.6,0.4-2.4c0,0,0,0,0,0c0.1-0.4,0.2-0.8,0.3-1.2c0,0,0-0.1,0-0.1c0.2-0.8,0.4-1.6,0.7-2.4c0-0.1,0-0.1,0.1-0.2
		c0.1-0.3,0.2-0.6,0.3-0.9c0-0.1,0.1-0.2,0.1-0.4c0.1-0.2,0.2-0.5,0.3-0.8c0-0.1,0.1-0.2,0.1-0.3c0.1-0.4,0.3-0.7,0.4-1.1
		c0-0.1,0.1-0.1,0.1-0.2c0.1-0.3,0.3-0.6,0.4-0.9c0-0.1,0.1-0.2,0.1-0.3c0.1-0.3,0.3-0.6,0.4-0.8c0-0.1,0.1-0.2,0.1-0.2
		c0.2-0.3,0.3-0.6,0.5-0.9c0,0,0-0.1,0.1-0.1c0.6-1.1,1.3-2.2,2-3.3c0,0,0,0,0,0c0.2-0.3,0.4-0.6,0.6-0.9c0.2-0.3,0.5-0.6,0.8-1
		c0,0,0.1-0.1,0.1-0.1c0.2-0.3,0.4-0.5,0.7-0.8l0.2-0.2c0.2-0.2,0.5-0.5,0.7-0.8c0.1-0.1,0.1-0.1,0.2-0.2c0.3-0.3,0.6-0.6,0.8-0.9
		c0,0,0,0,0.1-0.1c0.3-0.3,0.6-0.6,1-0.9c0.1-0.1,0.2-0.2,0.3-0.3c0.2-0.2,0.5-0.4,0.7-0.6c0.1-0.1,0.3-0.2,0.4-0.3
		c0.2-0.2,0.4-0.3,0.6-0.5c0.2-0.1,0.3-0.2,0.5-0.4c0.2-0.1,0.4-0.3,0.6-0.5c0.2-0.1,0.3-0.2,0.5-0.3c0.1-0.1,0.2-0.1,0.3-0.2
		c0,0,0,0,0,0c0.1-0.1,0.2-0.2,0.4-0.2c0.2-0.1,0.3-0.2,0.5-0.3c0.3-0.2,0.6-0.3,0.8-0.5c0.1-0.1,0.3-0.2,0.4-0.2
		c0.4-0.2,0.9-0.5,1.3-0.7c0.1,0,0.2-0.1,0.2-0.1c0.4-0.2,0.8-0.4,1.2-0.6c0.1-0.1,0.3-0.1,0.4-0.2c0.3-0.2,0.7-0.3,1-0.4
		c0.2-0.1,0.3-0.1,0.5-0.2c0.3-0.1,0.7-0.3,1.1-0.4c0.2-0.1,0.3-0.1,0.5-0.2c0.4-0.1,0.8-0.3,1.2-0.4c0.1,0,0.3-0.1,0.4-0.1
		c0.5-0.1,1-0.3,1.4-0.4c0.1,0,0.2,0,0.2-0.1c0.5-0.1,1-0.3,1.6-0.4c0,0,0.1,0,0.1,0c0.6-0.1,1.2-0.3,1.8-0.4l3.8,19l1.1,5.5
		l0.4,2.1l1.7,8.6l8.9,44.3c-0.2,0.7-0.4,1.4-0.5,2.1c-6.4,24.3-15.9,35.6-25.5,40.1c0,0,0,0-0.1,0c-3.9,1.8-7.8,2.5-11.6,2.5
		c-6.6,0-12.5-2.2-16.6-4.3l-6-3.6l-4.2-3.5l-2.1,3.5l-5.3,8.8l5.6-1.8l3.3-1c1.2,0.7,2.4,1.1,3.6,2.1h0c0.6,0,1.3,0.5,1.9,0.8
		c11,5.5,20.5,7.5,28.7,7.5c7.1,0,13.1-1.6,18.2-4.2c0,0,0.1,0,0.1-0.1c15.6-7.8,23.1-24.2,25.3-30.1c0.5-1.3,0.8-2.1,0.8-2.1
		c8,0,15,0.6,21.1,1.7c59,10.6,33.5,67,33.5,67l-1,2.1l-1,2.2l-1.1,2.2l-1.4,2.9h7l-3.7-2.9l0.1-0.2l-0.1-0.1l2-4.2l-1.9,4.5
		l3.6,2.8h6.7l-6.7-5l2-4.3c25-58.9-9.2-77.4-30.8-83.1c-8.7-2.3-15.3-2.6-15.3-2.6l6.4-36.1l5.1-28.7l0.8-4.7l0.3-2
		c2.4,5.2,5.7,9.3,9.4,12.7c11.8,10.6,28.2,13.1,37.2,13.7c0,0,0,0,0,0.1c0,0.5,0.4,0.8,0.8,0.8c0.4,0,0.8-0.3,0.8-0.8
		c0.4,0,0.8,0,1.1,0h0c0,0,0,0,0,0h0.3c0,0,0,0,0,0c0,0.5,0.4,0.8,0.8,0.8s0.8-0.4,0.8-0.8c0,0,0,0,0,0c1.1,0,1.8,0,1.8,0
		s2,0.3,3,1.6c0,0,0,0,0,0c0,0.5,0.2,1.2-0.3,2.1c-0.1,0.1,0,0.2,0.1,0.1c0.9-0.8,2-2.5,0.6-4.6c0,0,2.5-0.6,2.9,2.1
		c0,0.1,0.1,0.1,0.2,0c0.3-1.1,0.8-3.8-2-4.5c0,0,1.8-1.2,3.4,0.1C196.8,126,197,126,196.9,125.8z M179.4,126v0.1c0,0,0,0,0,0h0
		c0,0,0,0,0,0c0,0,0,0-0.1,0c0,0,0,0,0-0.1c0,0,0,0,0,0H179.4z M179.4,126.5L179.4,126.5L179.4,126.5
		C179.4,126.5,179.4,126.5,179.4,126.5C179.3,126.5,179.3,126.5,179.4,126.5C179.3,126.5,179.3,126.5,179.4,126.5l-0.2,0
		c-0.1,0.2-0.2,0-0.2,0s0.1,0,0.1,0h0c0,0,0,0,0-0.1h0c0,0,0.1,0,0.2,0c0,0,0,0,0,0C179.4,126.4,179.4,126.5,179.4,126.5
		L179.4,126.5L179.4,126.5C179.4,126.5,179.4,126.5,179.4,126.5C179.4,126.5,179.4,126.5,179.4,126.5z M179.4,126.2
		C179.4,126.2,179.4,126.1,179.4,126.2C179.4,126.1,179.4,126.1,179.4,126.2L179.4,126.2z M179.4,126C179.4,126,179.4,126,179.4,126
		L179.4,126C179.4,126,179.4,126,179.4,126z M179.4,126.5C179.4,126.5,179.4,126.5,179.4,126.5C179.4,126.5,179.4,126.5,179.4,126.5
		L179.4,126.5c0.1,0,0.2,0,0.3,0l0,0C179.6,126.5,179.5,126.5,179.4,126.5z M179.8,126.5c-0.1,0,0-0.1-0.1-0.2
		c0.1,0.1,0.2,0.1,0.3,0.2H179.8z M188,125.9c-0.1,0-0.2,0-0.3,0c-0.1,0-0.3,0-0.4,0c0.1,0,0.3,0,0.4,0h0
		C187.8,126,187.9,125.9,188,125.9C188,125.9,188,125.9,188,125.9z M193.1,128.1c0,0,0.1-0.1,0-0.2c0,0,0,0,0,0
		C193.2,128,193.2,128.1,193.1,128.1z"/>
	<path fill="#92BEB8" d="M179.4,126v0.1c0,0,0,0,0,0h0c0,0,0,0,0,0c0,0,0-0.1-0.1-0.1c0,0,0,0,0,0H179.4z"/>
	<path fill="#92BEB8" d="M179.4,126.5L179.4,126.5C179.3,126.5,179.3,126.5,179.4,126.5C179.3,126.5,179.3,126.5,179.4,126.5h-0.2
		c0,0,0,0,0-0.1h0c0,0,0.1,0,0.2,0c0,0,0,0,0,0C179.4,126.4,179.4,126.5,179.4,126.5z"/>
	<path fill="#92BEB8" d="M179.4,126.5L179.4,126.5L179.4,126.5C179.4,126.5,179.4,126.5,179.4,126.5z"/>
	<path fill="#92BEB8" d="M179.4,126.1L179.4,126.1C179.4,126.2,179.4,126.1,179.4,126.1S179.4,126.1,179.4,126.1z"/>
	<path fill="#92BEB8" d="M179.4,126C179.4,126,179.4,126,179.4,126C179.4,126,179.4,126,179.4,126L179.4,126z"/>
	<path fill="#92BEB8" d="M179.7,126.5c-0.1,0-0.2,0-0.3,0C179.5,126.5,179.6,126.5,179.7,126.5L179.7,126.5z"/>
	<path fill="#92BEB8" d="M186.7,126.1C186.7,126.1,186.7,126.1,186.7,126.1c0,0-0.1,0-0.2,0C186.6,126.1,186.6,126.1,186.7,126.1z"
		/>
	<path fill="#92BEB8" d="M187.6,126c-0.1,0-0.3,0-0.4,0C187.3,126,187.5,126,187.6,126L187.6,126z"/>
	<path fill="#92BEB8" d="M188,125.9C188,125.9,188,125.9,188,125.9c-0.1,0-0.2,0-0.4,0C187.8,126,187.9,125.9,188,125.9z"/>
	<polygon fill="#92BEB8" points="165.8,261.6 163.8,265.9 163.8,265.9 	"/>
	<polygon fill="#92BEB8" points="116.2,21.1 116.2,27.2 114.8,25.7 114.8,19.6 	"/>
	<g>
		<polygon fill="#231F20" points="170.4,270.6 156.8,270.6 159.3,265.9 163.8,265.9 167.5,268.5 		"/>
		<path fill="#262261" d="M165.7,261.6h-4.5c0,0,24.8-54.9-31.2-66.5v0c-5.9-1.2-12.6-2-20.4-2.1c-1,0-2,0-3,0
			c0,0-5.9,19.7-22.3,30.1c0,0-0.1,0-0.1,0.1c-11.4,7.2-27.8,10-50.7-1.3c-0.1,0-0.1,0-0.2-0.1c-1.8-0.9-3.6-1.8-5.4-2.9l0.5-1
			l2.2-4.8l0,0c0.3,0.2,2.4,1.8,5.8,3.5l0,0c7.2,3.6,20,7.7,32-0.3c0,0,0,0,0.1,0c8.6-5.7,16.8-17.6,22.3-40.1h28.8
			c0,0,8,0.3,18,3.3C159.2,185.9,189.8,205.1,165.7,261.6z"/>
		<polygon fill="#F4EDDA" points="30.6,213 28,218.9 33.5,221.8 36.6,216.6 		"/>
		<polygon fill="#231F20" points="30.6,213 28,218.9 19.1,221.8 26.4,209.5 		"/>
		<path fill="#FFCB5C" d="M185.3,126.4v4.7c0,0-0.6,0-1.8,0c-0.4,0-1,0-1.6,0c-0.1,0-0.2,0-0.3,0h0c-0.3,0-0.7,0-1.1,0
			c-0.5,0-1,0-1.6-0.1c-7.9-0.5-21.6-2.6-32.8-10.3c-4.3-2.9-8.2-6.7-11.2-11.5c-0.9-1.4-1.8-3-2.5-4.6l-0.4,2L126,140l-6.4,36H90.8
			l-8.9-44.3l-1.7-8.6l-0.4-2.1l-1.1-5.5l-3.8-19c-0.6,0.1-1.2,0.2-1.8,0.4c0,0-0.1,0-0.1,0c-0.5,0.1-1.1,0.2-1.6,0.4
			c-0.1,0-0.1,0-0.2,0.1c-0.5,0.1-1,0.3-1.4,0.4c-0.1,0-0.3,0.1-0.4,0.1c-0.4,0.1-0.8,0.3-1.2,0.4c-0.2,0.1-0.3,0.1-0.5,0.2
			c-0.4,0.1-0.7,0.3-1.1,0.4c-0.2,0.1-0.3,0.1-0.5,0.2c-0.4,0.1-0.7,0.3-1,0.4c-0.2,0.1-0.3,0.1-0.4,0.2c-0.4,0.2-0.7,0.3-1.1,0.5
			c0,0,0,0,0,0c0,0-0.1,0-0.1,0c-0.1,0-0.1,0.1-0.2,0.1c-0.4,0.2-0.9,0.5-1.3,0.7c-0.1,0.1-0.3,0.1-0.4,0.2
			c-0.3,0.2-0.6,0.3-0.9,0.5c-0.2,0.1-0.3,0.2-0.5,0.3c-0.2,0.1-0.5,0.3-0.7,0.4c-0.2,0.1-0.3,0.2-0.5,0.3c-0.2,0.2-0.4,0.3-0.6,0.5
			c-0.2,0.1-0.3,0.2-0.5,0.3c-0.2,0.2-0.4,0.3-0.6,0.5c-0.1,0.1-0.3,0.2-0.4,0.3c-0.2,0.2-0.5,0.4-0.7,0.6c-0.1,0.1-0.2,0.2-0.3,0.3
			c-0.3,0.3-0.6,0.6-1,0.9c0,0-0.1,0.1-0.1,0.1c-0.3,0.3-0.6,0.6-0.8,0.9c-0.1,0.1-0.1,0.1-0.2,0.2c-0.2,0.2-0.5,0.5-0.7,0.8
			c-0.1,0.1-0.1,0.1-0.2,0.2c-0.2,0.3-0.4,0.5-0.7,0.8c0,0.1-0.1,0.1-0.1,0.2c-0.2,0.3-0.5,0.6-0.7,1c-0.2,0.3-0.4,0.6-0.6,0.9
			c0,0,0,0,0,0c-0.8,1.1-1.4,2.2-2,3.3c0,0,0,0.1-0.1,0.1c-0.2,0.3-0.3,0.6-0.5,1c0,0.1-0.1,0.1-0.1,0.2c-0.1,0.3-0.3,0.6-0.4,0.9
			c0,0.1-0.1,0.2-0.1,0.3c-0.1,0.3-0.3,0.6-0.4,0.9c0,0.1,0,0.1-0.1,0.2c-0.1,0.3-0.3,0.7-0.4,1.1c0,0.1-0.1,0.2-0.1,0.2
			c-0.1,0.3-0.2,0.5-0.3,0.8c-0.1,0.1-0.1,0.2-0.1,0.4c-0.1,0.3-0.2,0.6-0.3,0.9c0,0.1,0,0.1-0.1,0.2c-0.2,0.8-0.5,1.6-0.7,2.4
			c0,0,0,0.1,0,0.1c-0.1,0.4-0.2,0.8-0.3,1.2c0,0,0,0,0,0c-0.2,0.8-0.3,1.6-0.4,2.4c0,0,0,0.1,0,0.1c-0.2,1.1-0.3,2.3-0.4,3.3v0.1
			c-0.1,0.7-0.1,1.4-0.1,2c0,0,0,0.1,0,0.1c0,0.3,0,0.6,0,0.9v0c0,0.6,0,1.2,0,1.7v0.1c0,0.8,0,1.5,0.1,2.1c0.1,1.4,0.2,2.2,0.2,2.2
			h-5c0-0.1,0-0.1,0-0.2c0-0.2,0-0.4-0.1-0.6c0-0.1,0-0.3-0.1-0.4v0c0-0.3-0.1-0.6-0.1-0.9c0-0.2,0-0.5-0.1-0.7c0-0.1,0-0.2,0-0.3
			c0-0.2,0-0.5-0.1-0.7c0-0.1,0-0.1,0-0.2c0-0.4-0.1-0.9-0.1-1.3c0,0,0-0.1,0-0.1c0-0.2,0-0.3,0-0.5c0-0.4,0-0.7,0-1.1
			c0-0.2,0-0.4,0-0.6c0-0.3,0-0.7,0-1v-0.5c0-0.4,0-0.8,0-1.3c0-0.1,0-0.2,0-0.3c0-0.5,0-1,0-1.5c0-0.2,0-0.3,0-0.5
			c0-0.3,0-0.6,0.1-1c0-0.2,0-0.4,0-0.6c0-0.3,0-0.5,0.1-0.8c0-0.2,0-0.4,0.1-0.7c0-0.2,0-0.4,0.1-0.6c0.1-1,0.3-2,0.4-3
			c0,0,0,0,0-0.1c0.4-2.3,0.9-4.4,1.5-6.4c0,0,0,0,0,0c0.1-0.5,0.3-0.9,0.5-1.4c0,0,0,0,0,0c0.5-1.4,1-2.7,1.6-3.9
			c0.1-0.1,0.1-0.2,0.1-0.3c0.1-0.3,0.3-0.6,0.4-0.9c0.1-0.1,0.2-0.3,0.2-0.4c0.1-0.2,0.2-0.4,0.4-0.6c0.1-0.1,0.1-0.2,0.2-0.3
			c0-0.1,0.1-0.2,0.1-0.2c0.1-0.2,0.2-0.3,0.3-0.5c0,0,0,0,0,0c0,0,0,0,0,0c0.2-0.4,0.5-0.7,0.7-1.1c0,0,0,0,0-0.1
			c0.7-1.1,1.5-2.2,2.3-3.1c0,0,0.1-0.1,0.1-0.1c0.2-0.3,0.5-0.6,0.7-0.8c0-0.1,0.1-0.1,0.1-0.1c0.3-0.3,0.5-0.6,0.8-0.8l0.1,0
			c0.6-0.6,1.1-1.2,1.7-1.7c0.1,0,0.1-0.1,0.2-0.2c0.2-0.2,0.5-0.4,0.7-0.6c0.1-0.1,0.1-0.1,0.2-0.2c0.2-0.2,0.5-0.4,0.7-0.6
			c0.1,0,0.1-0.1,0.2-0.1c0.6-0.5,1.2-0.9,1.8-1.3c0.1,0,0.2-0.1,0.2-0.2c0.2-0.2,0.4-0.3,0.7-0.5c0.1-0.1,0.2-0.1,0.3-0.2
			c0.2-0.2,0.4-0.3,0.7-0.4c0.1-0.1,0.2-0.1,0.2-0.2c0.3-0.2,0.6-0.3,0.9-0.5c0,0,0,0,0,0c0.3-0.2,0.6-0.3,0.9-0.5
			c0.1,0,0.2-0.1,0.2-0.1c0.2-0.1,0.5-0.2,0.7-0.4c0.1-0.1,0.2-0.1,0.3-0.1C59.9,92,60,92,60,92c0.2-0.1,0.3-0.2,0.5-0.2
			c0.1-0.1,0.2-0.1,0.3-0.1c0.2-0.1,0.5-0.2,0.8-0.3c0.1,0,0.1,0,0.1-0.1c0.3-0.1,0.6-0.3,0.9-0.4c0.1,0,0.1-0.1,0.2-0.1
			c0.2-0.1,0.5-0.2,0.7-0.3c0.1,0,0.2-0.1,0.3-0.1c0.2-0.1,0.4-0.2,0.6-0.2c0.1,0,0.2-0.1,0.3-0.1c0.2-0.1,0.5-0.2,0.7-0.3
			c0.1,0,0.1,0,0.2-0.1c0.3-0.1,0.6-0.2,0.9-0.3c0,0,0.1,0,0.1,0c0.2-0.1,0.5-0.2,0.8-0.2c0.1,0,0.1,0,0.2-0.1
			c0.2-0.1,0.4-0.1,0.6-0.2c0.1,0,0.1,0,0.2-0.1c0.2-0.1,0.4-0.1,0.7-0.2c0.1,0,0.1,0,0.1,0c0.5-0.2,1.1-0.3,1.6-0.4
			c0,0,0.1,0,0.2,0c0.2,0,0.4-0.1,0.6-0.1c0.1,0,0.1,0,0.2,0c0.2,0,0.4-0.1,0.6-0.1c0.1,0,0.1,0,0.1,0c0.2,0,0.5-0.1,0.7-0.1
			c3.7-0.7,6.1-0.7,6.1-0.7h56.2v0l0,0c0,0,1.3,11.5,9,22.1c6.4,8.8,17.1,17,35,17.5c0,0,0.1,0,0.1,0c0,0,0,0,0,0c0,0,0,0,0,0
			s0,0,0,0c0.7,0,1.4,0,2.2,0C182.8,126.5,184,126.5,185.3,126.4z"/>
		<polygon fill="#F16E6A" points="114.3,86.9 110.5,86.9 97.9,86.9 94,86.9 104.2,129.4 104.2,129.4 104.2,129.4 		"/>
		<path fill="#B1875F" d="M127.6,32l-6,25l-5.9,24.4l-1.3,5.5H94l-1.1-4.7l-0.2-0.8l-1.6-6.6l-6.3-26.5h-0.4
			c-4.5,0-8.6-1.8-11.6-4.8l-0.1-0.1V32H127.6z"/>
		<circle fill="#9D7954" cx="99.6" cy="38.2" r="2.3"/>
		<circle fill="#231F20" cx="99.6" cy="37.7" r="2.3"/>
		<path fill="#231F20" d="M72.9,32v11.5c-2.9-3-4.7-7-4.7-11.5H72.9z"/>
		<g>
			<polygon fill="#262261" points="89.2,79.1 101.2,86.9 89.2,94.6 			"/>
			<polygon fill="#262261" points="119.2,79.1 107.2,86.9 119.2,94.6 			"/>
			<circle fill="#262261" cx="104.2" cy="86.9" r="5"/>
		</g>
		<circle fill="#262261" cx="38.6" cy="138.3" r="0.8"/>
		<circle fill="#262261" cx="38.4" cy="135.8" r="0.8"/>
		<polygon fill="#6CC1D9" points="116.2,106.6 125.6,106.6 127,101.3 117.7,101.3 		"/>
		<polygon fill="#5BA2B6" points="126,105.1 125.6,106.6 116.2,106.6 116.6,105.1 		"/>
		<polygon fill="#9D7954" points="84.8,48.3 92.2,48.3 91.2,74.8 		"/>
		<path fill="#B1875F" d="M193,128.1c-1.6-1.4-3.4-0.1-3.4-0.1c1.7,0.4,2.2,1.5,2.3,2.6c0,0,0,0,0,0c0.1,0.7-0.1,1.4-0.2,1.9
			c0,0.1-0.2,0.1-0.2,0c-0.3-2.7-2.9-2.1-2.9-2.1c1.4,2.1,0.3,3.8-0.6,4.6c-0.1,0.1-0.2,0-0.2-0.2c1.9-3.1-2.6-3.7-2.6-3.7v-4.7
			c5.6-1.4,7.4,0.6,7.9,1.6C193.2,128.1,193.1,128.2,193,128.1z"/>
		<path fill="#B1875F" d="M38.8,140.4c0,0,1.5,4.5-2.6,4.2c-0.1,0-0.2,0.2,0,0.2c1.1,0.4,3.3,0.9,4.4-1.1c0,0,0.6,2.3-1.3,3.2
			c-0.1,0.1-0.1,0.2,0.1,0.2c1-0.1,3-0.7,3.3-3.4c0,0,1.6,1.3,0.8,2.6c-0.1,0.1,0.1,0.2,0.2,0.1c0.8-0.8,1.8-2.5,0.2-6.2H38.8z"/>
		<circle fill="#F16E6A" cx="104.2" cy="142.6" r="1"/>
		<circle fill="#F16E6A" cx="104.2" cy="152.6" r="1"/>
		<circle fill="#F16E6A" cx="104.2" cy="162.7" r="1"/>
		<polygon fill="#F4EDDA" points="165.7,261.6 163.8,265.9 159.3,265.9 161.2,261.6 		"/>
		<polygon fill="#B1875F" points="127.6,32 116.2,32 116.2,19.5 119.9,23.6 		"/>
		<polygon fill="#B1875F" points="120.5,32 111.1,32 111.1,21.7 114.4,25.2 114.4,25.2 114.8,25.7 116.2,27.2 		"/>
		<polygon fill="#9D7954" points="116.2,27.2 116.2,32 114.4,32 114.4,25.2 114.8,25.7 		"/>
		<circle fill="#262261" cx="182.7" cy="131.1" r="0.8"/>
		<circle fill="#262261" cx="179.6" cy="131" r="0.8"/>
	</g>
</g>
</svg>