<?xml version="1.0" encoding="utf-8"?>
<!-- Generator: Adobe Illustrator 19.2.0, SVG Export Plug-In . SVG Version: 6.00 Build 0)  -->
<!DOCTYPE svg PUBLIC "-//W3C//DTD SVG 1.1//EN" "http://www.w3.org/Graphics/SVG/1.1/DTD/svg11.dtd">
<svg version="1.1" id="Layer_1" xmlns="http://www.w3.org/2000/svg" xmlns:xlink="http://www.w3.org/1999/xlink" x="0px" y="0px"
	 width="361.4px" height="499.5px" viewBox="0 0 361.4 499.5" style="enable-background:new 0 0 361.4 499.5;" xml:space="preserve"
	>
<style type="text/css">
	.st0{fill:#92BEB8;}
	.st1{fill:#FFF6C5;}
	.st2{fill:#2A2C2A;}
	.st3{fill:#F16E6A;}
	.st4{fill:#C75B58;}
	.st5{fill:#96CDB3;}
	.st6{fill:#719C8A;}
	.st7{fill:#6CC1D9;}
	.st8{fill:#599FB2;}
	.st9{fill:#D4AA4E;}
	.st10{fill:#FFCB5C;}
	.st11{fill:none;stroke:#2A2C2A;stroke-linecap:round;stroke-miterlimit:10;}
</style>
<g>
	<g>
		<path class="st0" d="M10.5,44.5L10.5,44.5l-0.1,20H6.5V36.9h5.4l4.4,16.5h0.1V36.9h3.9v27.6h-4.5L10.5,44.5z"/>
		<path class="st0" d="M27.5,36.9v21.3c0,2,0.9,2.7,2.2,2.7s2.2-0.7,2.2-2.7V36.9h4.1v21c0,4.4-2.2,6.9-6.5,6.9s-6.5-2.5-6.5-6.9
			v-21H27.5z"/>
		<path class="st0" d="M48.2,56.5L48.2,56.5l3-19.6h6v27.6h-4.1V44.7H53l-2.9,19.8H46L42.9,45h-0.1v19.5H39V36.9h6L48.2,56.5z"/>
		<path class="st0" d="M73.3,43.3v1c0,2.8-0.9,4.6-2.8,5.5v0.1c2.3,0.9,3.2,3,3.2,5.9V58c0,4.3-2.2,6.5-6.6,6.5h-6.8V36.9h6.5
			C71.4,36.9,73.3,39,73.3,43.3z M64.7,40.9v7.3h1.7c1.6,0,2.6-0.7,2.6-2.9v-1.5c0-2-0.7-2.8-2.2-2.8H64.7z M64.7,52.1v8.5h2.5
			c1.5,0,2.2-0.7,2.2-2.7v-2.4c0-2.6-0.8-3.3-2.8-3.3H64.7z"/>
		<path class="st0" d="M80.7,48.6h5.9v3.9h-5.9v8.1h7.5v3.9H76.4V36.9h11.8v3.9h-7.5V48.6z"/>
		<path class="st0" d="M99.9,64.5c-0.2-0.7-0.4-1.1-0.4-3.4v-4.3c0-2.6-0.9-3.5-2.8-3.5h-1.5v11.2h-4.3V36.9h6.5
			c4.5,0,6.4,2.1,6.4,6.3v2.2c0,2.8-0.9,4.6-2.8,5.6v0.1c2.2,0.9,2.9,3,2.9,5.8v4.3c0,1.3,0,2.3,0.5,3.3H99.9z M95.2,40.9v8.5h1.7
			c1.6,0,2.6-0.7,2.6-2.9v-2.7c0-2-0.7-2.8-2.2-2.8H95.2z"/>
		<path class="st0" d="M112.5,43.6c0-4.4,2.3-6.9,6.6-6.9s6.6,2.5,6.6,6.9v14.3c0,4.4-2.3,6.9-6.6,6.9s-6.6-2.5-6.6-6.9V43.6z
			 M116.8,58.2c0,2,0.9,2.7,2.2,2.7s2.2-0.7,2.2-2.7V43.3c0-2-0.9-2.7-2.2-2.7s-2.2,0.7-2.2,2.7V58.2z"/>
		<path class="st0" d="M132.7,49.2h5.6v3.9h-5.6v11.4h-4.3V36.9h11.5v3.9h-7.1V49.2z"/>
		<path class="st0" d="M148.1,36.9h4.3v23.6h7.1v3.9h-11.5V36.9z"/>
		<path class="st0" d="M161.4,36.9h4.3v27.6h-4.3V36.9z"/>
		<path class="st0" d="M175.4,59.4L175.4,59.4l3.3-22.5h4l-4.3,27.6H172l-4.3-27.6h4.4L175.4,59.4z"/>
		<path class="st0" d="M184.7,36.9h4.3v27.6h-4.3V36.9z"/>
		<path class="st0" d="M196.2,44.5L196.2,44.5l-0.1,20h-3.9V36.9h5.4l4.4,16.5h0.1V36.9h3.9v27.6h-4.5L196.2,44.5z"/>
		<path class="st0" d="M215.6,49.1h6.1v8.7c0,4.4-2.2,6.9-6.5,6.9s-6.5-2.5-6.5-6.9V43.6c0-4.4,2.2-6.9,6.5-6.9s6.5,2.5,6.5,6.9v2.7
			h-4.1v-3c0-2-0.9-2.7-2.2-2.7s-2.2,0.7-2.2,2.7v14.9c0,2,0.9,2.7,2.2,2.7s2.2-0.7,2.2-2.7v-5.1h-2V49.1z"/>
		<path class="st0" d="M236.4,36.6c4.2,0,6.4,2.5,6.4,6.9v0.9h-4.1v-1.1c0-2-0.8-2.7-2.2-2.7s-2.2,0.7-2.2,2.7c0,2,0.9,3.5,3.7,6
			c3.6,3.2,4.8,5.5,4.8,8.6c0,4.4-2.2,6.9-6.5,6.9c-4.3,0-6.5-2.5-6.5-6.9v-1.7h4.1v2c0,2,0.9,2.7,2.2,2.7c1.4,0,2.2-0.7,2.2-2.7
			c0-2-0.9-3.5-3.7-6c-3.6-3.2-4.8-5.5-4.8-8.6C230,39.1,232.1,36.6,236.4,36.6z"/>
		<path class="st0" d="M258.1,43.8v3.6c0,4.4-2.1,6.8-6.5,6.8h-2v10.4h-4.3V36.9h6.4C256,36.9,258.1,39.3,258.1,43.8z M249.6,40.9
			v9.3h2c1.4,0,2.1-0.6,2.1-2.6v-4.1c0-2-0.7-2.6-2.1-2.6H249.6z"/>
		<path class="st0" d="M264.5,48.6h5.9v3.9h-5.9v8.1h7.5v3.9h-11.8V36.9h11.8v3.9h-7.5V48.6z"/>
		<path class="st0" d="M287.2,54.2v3.7c0,4.4-2.2,6.9-6.5,6.9s-6.5-2.5-6.5-6.9V43.6c0-4.4,2.2-6.9,6.5-6.9s6.5,2.5,6.5,6.9v2.7
			h-4.1v-3c0-2-0.9-2.7-2.2-2.7s-2.2,0.7-2.2,2.7v14.9c0,2,0.9,2.7,2.2,2.7s2.2-0.7,2.2-2.7v-3.9H287.2z"/>
		<path class="st0" d="M289.8,36.9h4.3v27.6h-4.3V36.9z"/>
		<path class="st0" d="M301.6,48.6h5.9v3.9h-5.9v8.1h7.5v3.9h-11.8V36.9h11.8v3.9h-7.5V48.6z"/>
		<path class="st0" d="M317.6,36.6c4.2,0,6.4,2.5,6.4,6.9v0.9h-4.1v-1.1c0-2-0.8-2.7-2.2-2.7s-2.2,0.7-2.2,2.7c0,2,0.9,3.5,3.7,6
			c3.6,3.2,4.8,5.5,4.8,8.6c0,4.4-2.2,6.9-6.5,6.9s-6.5-2.5-6.5-6.9v-1.7h4.1v2c0,2,0.9,2.7,2.2,2.7s2.2-0.7,2.2-2.7
			c0-2-0.9-3.5-3.7-6c-3.6-3.2-4.8-5.5-4.8-8.6C311.3,39.1,313.4,36.6,317.6,36.6z"/>
		<path class="st0" d="M332.3,43.6c0-4.4,2.3-6.9,6.6-6.9s6.6,2.5,6.6,6.9v14.3c0,4.4-2.3,6.9-6.6,6.9s-6.6-2.5-6.6-6.9V43.6z
			 M336.6,58.2c0,2,0.9,2.7,2.2,2.7s2.2-0.7,2.2-2.7V43.3c0-2-0.9-2.7-2.2-2.7s-2.2,0.7-2.2,2.7V58.2z"/>
		<path class="st0" d="M352.6,49.2h5.6v3.9h-5.6v11.4h-4.3V36.9h11.5v3.9h-7.1V49.2z"/>
		<path class="st0" d="M18.2,97.5h-3.7l-0.6-4.2H9.3l-0.6,4.2H5.3l3.7-23.3h5.4L18.2,97.5z M9.8,90.1h3.5l-1.7-11.8h-0.1L9.8,90.1z"
			/>
		<path class="st0" d="M19.9,74.2h3.7v20h6v3.3h-9.7V74.2z"/>
		<path class="st0" d="M31.1,74.2h3.7v20h6v3.3h-9.7V74.2z"/>
		<path class="st0" d="M47.3,79.8c0-3.7,2-5.9,5.6-5.9s5.6,2.1,5.6,5.9v12.1c0,3.7-2,5.9-5.6,5.9s-5.6-2.1-5.6-5.9V79.8z M51,92.1
			c0,1.7,0.7,2.3,1.9,2.3c1.2,0,1.9-0.6,1.9-2.3V79.5c0-1.7-0.7-2.3-1.9-2.3c-1.2,0-1.9,0.6-1.9,2.3V92.1z"/>
		<path class="st0" d="M68.4,97.5c-0.2-0.6-0.3-1-0.3-2.9v-3.7c0-2.2-0.7-3-2.4-3h-1.3v9.5h-3.7V74.2h5.5c3.8,0,5.4,1.8,5.4,5.4v1.8
			c0,2.4-0.8,3.9-2.4,4.7v0.1c1.8,0.8,2.4,2.5,2.4,4.9v3.6c0,1.1,0,2,0.4,2.8H68.4z M64.4,77.5v7.2h1.4c1.4,0,2.2-0.6,2.2-2.5v-2.3
			c0-1.7-0.6-2.4-1.9-2.4H64.4z"/>
		<path class="st0" d="M79.7,84.5h5.1v7.4c0,3.7-1.9,5.9-5.5,5.9s-5.5-2.1-5.5-5.9V79.8c0-3.7,1.9-5.9,5.5-5.9s5.5,2.1,5.5,5.9V82
			h-3.5v-2.5c0-1.7-0.7-2.3-1.9-2.3c-1.2,0-1.9,0.6-1.9,2.3v12.6c0,1.7,0.7,2.3,1.9,2.3c1.2,0,1.9-0.6,1.9-2.3v-4.3h-1.7V84.5z"/>
		<path class="st0" d="M99,97.5h-3.7l-0.6-4.2h-4.5l-0.6,4.2h-3.4l3.7-23.3h5.4L99,97.5z M90.6,90.1h3.5l-1.7-11.8h-0.1L90.6,90.1z"
			/>
		<path class="st0" d="M104,80.6L104,80.6l-0.1,16.9h-3.3V74.2h4.6l3.7,14h0.1v-14h3.3v23.3h-3.8L104,80.6z"/>
		<path class="st0" d="M114.9,74.2h3.7v23.3h-3.7V74.2z"/>
		<path class="st0" d="M126.1,73.9c3.6,0,5.4,2.1,5.4,5.9v0.7h-3.5v-1c0-1.7-0.7-2.3-1.8-2.3s-1.8,0.6-1.8,2.3c0,1.7,0.7,3,3.1,5.1
			c3.1,2.7,4,4.6,4,7.3c0,3.7-1.9,5.9-5.5,5.9c-3.6,0-5.5-2.1-5.5-5.9v-1.4h3.5v1.7c0,1.7,0.7,2.3,1.9,2.3c1.2,0,1.9-0.6,1.9-2.3
			c0-1.7-0.7-3-3.1-5.1c-3.1-2.7-4-4.6-4-7.3C120.8,76,122.6,73.9,126.1,73.9z"/>
		<path class="st0" d="M141.4,90.7L141.4,90.7l2.5-16.5h5.1v23.3h-3.5V80.7h-0.1L143,97.5h-3.5L136.9,81h-0.1v16.5h-3.2V74.2h5.1
			L141.4,90.7z"/>
		<path class="st0" d="M156.6,73.9c3.6,0,5.4,2.1,5.4,5.9v0.7h-3.5v-1c0-1.7-0.7-2.3-1.8-2.3s-1.8,0.6-1.8,2.3c0,1.7,0.7,3,3.1,5.1
			c3.1,2.7,4,4.6,4,7.3c0,3.7-1.9,5.9-5.5,5.9s-5.5-2.1-5.5-5.9v-1.4h3.5v1.7c0,1.7,0.7,2.3,1.9,2.3c1.2,0,1.9-0.6,1.9-2.3
			c0-1.7-0.7-3-3.1-5.1c-3.1-2.7-4-4.6-4-7.3C151.2,76,153.1,73.9,156.6,73.9z"/>
		<path class="st0" d="M179.9,88.8v3.1c0,3.7-1.9,5.9-5.5,5.9c-3.6,0-5.5-2.1-5.5-5.9V79.8c0-3.7,1.9-5.9,5.5-5.9
			c3.6,0,5.5,2.1,5.5,5.9V82h-3.5v-2.5c0-1.7-0.7-2.3-1.9-2.3s-1.9,0.6-1.9,2.3v12.6c0,1.7,0.7,2.3,1.9,2.3s1.9-0.6,1.9-2.3v-3.3
			H179.9z"/>
		<path class="st0" d="M185.7,74.2v18c0,1.7,0.7,2.3,1.9,2.3s1.9-0.6,1.9-2.3v-18h3.5v17.7c0,3.7-1.9,5.9-5.5,5.9s-5.5-2.1-5.5-5.9
			V74.2H185.7z"/>
		<path class="st0" d="M203.1,97.5c-0.2-0.6-0.3-1-0.3-2.9v-3.7c0-2.2-0.7-3-2.4-3h-1.3v9.5h-3.7V74.2h5.5c3.8,0,5.4,1.8,5.4,5.4
			v1.8c0,2.4-0.8,3.9-2.4,4.7v0.1c1.8,0.8,2.4,2.5,2.4,4.9v3.6c0,1.1,0,2,0.4,2.8H203.1z M199.1,77.5v7.2h1.4c1.4,0,2.2-0.6,2.2-2.5
			v-2.3c0-1.7-0.6-2.4-1.9-2.4H199.1z"/>
		<path class="st0" d="M216.5,97.5c-0.2-0.6-0.3-1-0.3-2.9v-3.7c0-2.2-0.7-3-2.4-3h-1.3v9.5h-3.7V74.2h5.5c3.8,0,5.4,1.8,5.4,5.4
			v1.8c0,2.4-0.8,3.9-2.4,4.7v0.1c1.8,0.8,2.4,2.5,2.4,4.9v3.6c0,1.1,0,2,0.4,2.8H216.5z M212.5,77.5v7.2h1.4c1.4,0,2.2-0.6,2.2-2.5
			v-2.3c0-1.7-0.6-2.4-1.9-2.4H212.5z"/>
		<path class="st0" d="M225.8,84h5v3.3h-5v6.8h6.3v3.3h-10V74.2h10v3.3h-6.3V84z"/>
		<path class="st0" d="M237.8,80.6L237.8,80.6l-0.1,16.9h-3.3V74.2h4.6l3.7,14h0.1v-14h3.3v23.3h-3.8L237.8,80.6z"/>
		<path class="st0" d="M247.6,74.2h11.3v3.3h-3.8v20h-3.7v-20h-3.8V74.2z"/>
		<path class="st0" d="M260.5,74.2h3.7v20h6v3.3h-9.7V74.2z"/>
		<path class="st0" d="M273.2,89.7l-4.6-15.6h3.8l2.8,10.6h0.1l2.8-10.6h3.5l-4.6,15.6v7.7h-3.7V89.7z"/>
		<path class="st0" d="M292.9,88.2l-1.1,2.1v7.2h-3.7V74.2h3.7v10.1h0.1l4.7-10.1h3.7l-5.1,10.4l5.1,12.9h-3.8L292.9,88.2z"/>
		<path class="st0" d="M305.2,80.6L305.2,80.6l-0.1,16.9h-3.3V74.2h4.6l3.7,14h0.1v-14h3.3v23.3h-3.8L305.2,80.6z"/>
		<path class="st0" d="M315.8,79.8c0-3.7,2-5.9,5.6-5.9s5.6,2.1,5.6,5.9v12.1c0,3.7-2,5.9-5.6,5.9s-5.6-2.1-5.6-5.9V79.8z
			 M319.4,92.1c0,1.7,0.7,2.3,1.9,2.3s1.9-0.6,1.9-2.3V79.5c0-1.7-0.7-2.3-1.9-2.3s-1.9,0.6-1.9,2.3V92.1z"/>
		<path class="st0" d="M337.4,85L337.4,85l-1.4,12.4h-5l-2.6-23.3h3.6l1.9,18.4h0.1l1.7-18.4h3.5l1.8,18.5h0.1l1.9-18.5h3.2
			l-2.6,23.3h-4.9L337.4,85z"/>
		<path class="st0" d="M351.3,80.6L351.3,80.6l-0.1,16.9H348V74.2h4.6l3.7,14h0.1v-14h3.3v23.3h-3.8L351.3,80.6z"/>
	</g>
	<g>
		<g>
			<path class="st1" d="M6,41.2L6,41.2l-0.1,20H2V33.6h5.4l4.4,16.5h0.1V33.6h3.9v27.6h-4.5L6,41.2z"/>
			<path class="st1" d="M23,33.6v21.3c0,2,0.9,2.7,2.2,2.7s2.2-0.7,2.2-2.7V33.6h4.1v21c0,4.4-2.2,6.9-6.5,6.9s-6.5-2.5-6.5-6.9v-21
				H23z"/>
			<path class="st1" d="M43.7,53.2L43.7,53.2l3-19.6h6v27.6h-4.1V41.4h-0.1l-2.9,19.8h-4.1l-3.2-19.5h-0.1v19.5h-3.8V33.6h6
				L43.7,53.2z"/>
			<path class="st1" d="M68.8,39.9v1c0,2.8-0.9,4.6-2.8,5.5v0.1c2.3,0.9,3.2,3,3.2,5.9v2.2c0,4.3-2.2,6.5-6.6,6.5h-6.8V33.6h6.5
				C66.9,33.6,68.8,35.7,68.8,39.9z M60.2,37.5v7.3h1.7c1.6,0,2.6-0.7,2.6-2.9v-1.5c0-2-0.7-2.8-2.2-2.8H60.2z M60.2,48.8v8.5h2.5
				c1.5,0,2.2-0.7,2.2-2.7v-2.4c0-2.6-0.8-3.3-2.8-3.3H60.2z"/>
			<path class="st1" d="M76.2,45.2h5.9v3.9h-5.9v8.1h7.5v3.9H71.9V33.6h11.8v3.9h-7.5V45.2z"/>
			<path class="st1" d="M95.4,61.2C95.2,60.5,95,60,95,57.8v-4.3c0-2.6-0.9-3.5-2.8-3.5h-1.5v11.2h-4.3V33.6h6.5
				c4.5,0,6.4,2.1,6.4,6.3v2.2c0,2.8-0.9,4.6-2.8,5.6v0.1c2.2,0.9,2.9,3,2.9,5.8v4.3c0,1.3,0,2.3,0.5,3.3H95.4z M90.7,37.5V46h1.7
				c1.6,0,2.6-0.7,2.6-2.9v-2.7c0-2-0.7-2.8-2.2-2.8H90.7z"/>
			<path class="st1" d="M108,40.2c0-4.4,2.3-6.9,6.6-6.9s6.6,2.5,6.6,6.9v14.3c0,4.4-2.3,6.9-6.6,6.9S108,59,108,54.6V40.2z
				 M112.3,54.8c0,2,0.9,2.7,2.2,2.7s2.2-0.7,2.2-2.7V39.9c0-2-0.9-2.7-2.2-2.7s-2.2,0.7-2.2,2.7V54.8z"/>
			<path class="st1" d="M128.2,45.9h5.6v3.9h-5.6v11.4h-4.3V33.6h11.5v3.9h-7.1V45.9z"/>
			<path class="st1" d="M143.6,33.6h4.3v23.6h7.1v3.9h-11.5V33.6z"/>
			<path class="st1" d="M156.9,33.6h4.3v27.6h-4.3V33.6z"/>
			<path class="st1" d="M170.9,56.1L170.9,56.1l3.3-22.5h4L174,61.2h-6.5l-4.3-27.6h4.4L170.9,56.1z"/>
			<path class="st1" d="M180.2,33.6h4.3v27.6h-4.3V33.6z"/>
			<path class="st1" d="M191.7,41.2L191.7,41.2l-0.1,20h-3.9V33.6h5.4l4.4,16.5h0.1V33.6h3.9v27.6H197L191.7,41.2z"/>
			<path class="st1" d="M211.1,45.8h6.1v8.7c0,4.4-2.2,6.9-6.5,6.9s-6.5-2.5-6.5-6.9V40.2c0-4.4,2.2-6.9,6.5-6.9s6.5,2.5,6.5,6.9
				v2.7H213v-3c0-2-0.9-2.7-2.2-2.7s-2.2,0.7-2.2,2.7v14.9c0,2,0.9,2.7,2.2,2.7s2.2-0.7,2.2-2.7v-5.1h-2V45.8z"/>
			<path class="st1" d="M231.9,33.3c4.2,0,6.4,2.5,6.4,6.9v0.9h-4.1v-1.1c0-2-0.8-2.7-2.2-2.7s-2.2,0.7-2.2,2.7c0,2,0.9,3.5,3.7,6
				c3.6,3.2,4.8,5.5,4.8,8.6c0,4.4-2.2,6.9-6.5,6.9c-4.3,0-6.5-2.5-6.5-6.9v-1.7h4.1v2c0,2,0.9,2.7,2.2,2.7c1.4,0,2.2-0.7,2.2-2.7
				c0-2-0.9-3.5-3.7-6c-3.6-3.2-4.8-5.5-4.8-8.6C225.5,35.8,227.6,33.3,231.9,33.3z"/>
			<path class="st1" d="M253.6,40.4V44c0,4.4-2.1,6.8-6.5,6.8h-2v10.4h-4.3V33.6h6.4C251.5,33.6,253.6,36,253.6,40.4z M245.1,37.5
				v9.3h2c1.4,0,2.1-0.6,2.1-2.6v-4.1c0-2-0.7-2.6-2.1-2.6H245.1z"/>
			<path class="st1" d="M260,45.2h5.9v3.9H260v8.1h7.5v3.9h-11.8V33.6h11.8v3.9H260V45.2z"/>
			<path class="st1" d="M282.7,50.9v3.7c0,4.4-2.2,6.9-6.5,6.9s-6.5-2.5-6.5-6.9V40.2c0-4.4,2.2-6.9,6.5-6.9s6.5,2.5,6.5,6.9v2.7
				h-4.1v-3c0-2-0.9-2.7-2.2-2.7s-2.2,0.7-2.2,2.7v14.9c0,2,0.9,2.7,2.2,2.7s2.2-0.7,2.2-2.7v-3.9H282.7z"/>
			<path class="st1" d="M285.3,33.6h4.3v27.6h-4.3V33.6z"/>
			<path class="st1" d="M297.1,45.2h5.9v3.9h-5.9v8.1h7.5v3.9h-11.8V33.6h11.8v3.9h-7.5V45.2z"/>
			<path class="st1" d="M313.1,33.3c4.2,0,6.4,2.5,6.4,6.9v0.9h-4.1v-1.1c0-2-0.8-2.7-2.2-2.7s-2.2,0.7-2.2,2.7c0,2,0.9,3.5,3.7,6
				c3.6,3.2,4.8,5.5,4.8,8.6c0,4.4-2.2,6.9-6.5,6.9s-6.5-2.5-6.5-6.9v-1.7h4.1v2c0,2,0.9,2.7,2.2,2.7s2.2-0.7,2.2-2.7
				c0-2-0.9-3.5-3.7-6c-3.6-3.2-4.8-5.5-4.8-8.6C306.8,35.8,308.9,33.3,313.1,33.3z"/>
			<path class="st1" d="M327.8,40.2c0-4.4,2.3-6.9,6.6-6.9s6.6,2.5,6.6,6.9v14.3c0,4.4-2.3,6.9-6.6,6.9s-6.6-2.5-6.6-6.9V40.2z
				 M332.1,54.8c0,2,0.9,2.7,2.2,2.7s2.2-0.7,2.2-2.7V39.9c0-2-0.9-2.7-2.2-2.7s-2.2,0.7-2.2,2.7V54.8z"/>
			<path class="st1" d="M348.1,45.9h5.6v3.9h-5.6v11.4h-4.3V33.6h11.5v3.9h-7.1V45.9z"/>
			<path class="st1" d="M13.7,94.1H10l-0.6-4.2H4.8l-0.6,4.2H0.8l3.7-23.3h5.4L13.7,94.1z M5.3,86.7h3.5L7.1,75H7L5.3,86.7z"/>
			<path class="st1" d="M15.4,70.8H19v20h6v3.3h-9.7V70.8z"/>
			<path class="st1" d="M26.6,70.8h3.7v20h6v3.3h-9.7V70.8z"/>
			<path class="st1" d="M42.8,76.4c0-3.7,2-5.9,5.6-5.9s5.6,2.1,5.6,5.9v12.1c0,3.7-2,5.9-5.6,5.9s-5.6-2.1-5.6-5.9V76.4z
				 M46.5,88.8c0,1.7,0.7,2.3,1.9,2.3c1.2,0,1.9-0.6,1.9-2.3V76.2c0-1.7-0.7-2.3-1.9-2.3c-1.2,0-1.9,0.6-1.9,2.3V88.8z"/>
			<path class="st1" d="M63.9,94.1c-0.2-0.6-0.3-1-0.3-2.9v-3.7c0-2.2-0.7-3-2.4-3h-1.3v9.5h-3.7V70.8h5.5c3.8,0,5.4,1.8,5.4,5.4V78
				c0,2.4-0.8,3.9-2.4,4.7v0.1c1.8,0.8,2.4,2.5,2.4,4.9v3.6c0,1.1,0,2,0.4,2.8H63.9z M59.9,74.2v7.2h1.4c1.4,0,2.2-0.6,2.2-2.5v-2.3
				c0-1.7-0.6-2.4-1.9-2.4H59.9z"/>
			<path class="st1" d="M75.2,81.1h5.1v7.4c0,3.7-1.9,5.9-5.5,5.9s-5.5-2.1-5.5-5.9V76.4c0-3.7,1.9-5.9,5.5-5.9s5.5,2.1,5.5,5.9v2.3
				h-3.5v-2.5c0-1.7-0.7-2.3-1.9-2.3c-1.2,0-1.9,0.6-1.9,2.3v12.6c0,1.7,0.7,2.3,1.9,2.3c1.2,0,1.9-0.6,1.9-2.3v-4.3h-1.7V81.1z"/>
			<path class="st1" d="M94.5,94.1h-3.7l-0.6-4.2h-4.5L85,94.1h-3.4l3.7-23.3h5.4L94.5,94.1z M86.1,86.7h3.5L87.9,75h-0.1L86.1,86.7
				z"/>
			<path class="st1" d="M99.5,77.2L99.5,77.2l-0.1,16.9h-3.3V70.8h4.6l3.7,14h0.1v-14h3.3v23.3H104L99.5,77.2z"/>
			<path class="st1" d="M110.4,70.8h3.7v23.3h-3.7V70.8z"/>
			<path class="st1" d="M121.6,70.6c3.6,0,5.4,2.1,5.4,5.9v0.7h-3.5v-1c0-1.7-0.7-2.3-1.8-2.3s-1.8,0.6-1.8,2.3c0,1.7,0.7,3,3.1,5.1
				c3.1,2.7,4,4.6,4,7.3c0,3.7-1.9,5.9-5.5,5.9s-5.5-2.1-5.5-5.9v-1.4h3.5v1.7c0,1.7,0.7,2.3,1.9,2.3c1.2,0,1.9-0.6,1.9-2.3
				c0-1.7-0.7-3-3.1-5.1c-3.1-2.7-4-4.6-4-7.3C116.3,72.7,118.1,70.6,121.6,70.6z"/>
			<path class="st1" d="M136.9,87.4L136.9,87.4l2.5-16.5h5.1v23.3h-3.5V77.4H141l-2.5,16.7h-3.5l-2.7-16.5h-0.1v16.5h-3.2V70.8h5.1
				L136.9,87.4z"/>
			<path class="st1" d="M152.1,70.6c3.6,0,5.4,2.1,5.4,5.9v0.7H154v-1c0-1.7-0.7-2.3-1.8-2.3s-1.8,0.6-1.8,2.3c0,1.7,0.7,3,3.1,5.1
				c3.1,2.7,4,4.6,4,7.3c0,3.7-1.9,5.9-5.5,5.9s-5.5-2.1-5.5-5.9v-1.4h3.5v1.7c0,1.7,0.7,2.3,1.9,2.3c1.2,0,1.9-0.6,1.9-2.3
				c0-1.7-0.7-3-3.1-5.1c-3.1-2.7-4-4.6-4-7.3C146.7,72.7,148.6,70.6,152.1,70.6z"/>
			<path class="st1" d="M175.4,85.4v3.1c0,3.7-1.9,5.9-5.5,5.9c-3.6,0-5.5-2.1-5.5-5.9V76.4c0-3.7,1.9-5.9,5.5-5.9
				c3.6,0,5.5,2.1,5.5,5.9v2.3H172v-2.5c0-1.7-0.7-2.3-1.9-2.3s-1.9,0.6-1.9,2.3v12.6c0,1.7,0.7,2.3,1.9,2.3s1.9-0.6,1.9-2.3v-3.3
				H175.4z"/>
			<path class="st1" d="M181.2,70.8v18c0,1.7,0.7,2.3,1.9,2.3s1.9-0.6,1.9-2.3v-18h3.5v17.7c0,3.7-1.9,5.9-5.5,5.9s-5.5-2.1-5.5-5.9
				V70.8H181.2z"/>
			<path class="st1" d="M198.6,94.1c-0.2-0.6-0.3-1-0.3-2.9v-3.7c0-2.2-0.7-3-2.4-3h-1.3v9.5h-3.7V70.8h5.5c3.8,0,5.4,1.8,5.4,5.4
				V78c0,2.4-0.8,3.9-2.4,4.7v0.1c1.8,0.8,2.4,2.5,2.4,4.9v3.6c0,1.1,0,2,0.4,2.8H198.6z M194.6,74.2v7.2h1.4c1.4,0,2.2-0.6,2.2-2.5
				v-2.3c0-1.7-0.6-2.4-1.9-2.4H194.6z"/>
			<path class="st1" d="M212,94.1c-0.2-0.6-0.3-1-0.3-2.9v-3.7c0-2.2-0.7-3-2.4-3H208v9.5h-3.7V70.8h5.5c3.8,0,5.4,1.8,5.4,5.4V78
				c0,2.4-0.8,3.9-2.4,4.7v0.1c1.8,0.8,2.4,2.5,2.4,4.9v3.6c0,1.1,0,2,0.4,2.8H212z M208,74.2v7.2h1.4c1.4,0,2.2-0.6,2.2-2.5v-2.3
				c0-1.7-0.6-2.4-1.9-2.4H208z"/>
			<path class="st1" d="M221.3,80.6h5V84h-5v6.8h6.3v3.3h-10V70.8h10v3.3h-6.3V80.6z"/>
			<path class="st1" d="M233.3,77.2L233.3,77.2l-0.1,16.9h-3.3V70.8h4.6l3.7,14h0.1v-14h3.3v23.3h-3.8L233.3,77.2z"/>
			<path class="st1" d="M243.1,70.8h11.3v3.3h-3.8v20h-3.7v-20h-3.8V70.8z"/>
			<path class="st1" d="M256,70.8h3.7v20h6v3.3H256V70.8z"/>
			<path class="st1" d="M268.7,86.4L264,70.8h3.8l2.8,10.6h0.1l2.8-10.6h3.5l-4.6,15.6v7.7h-3.7V86.4z"/>
			<path class="st1" d="M288.4,84.8l-1.1,2.1v7.2h-3.7V70.8h3.7v10.1h0.1l4.7-10.1h3.7l-5.1,10.4l5.1,12.9h-3.8L288.4,84.8z"/>
			<path class="st1" d="M300.7,77.2L300.7,77.2l-0.1,16.9h-3.3V70.8h4.6l3.7,14h0.1v-14h3.3v23.3h-3.8L300.7,77.2z"/>
			<path class="st1" d="M311.3,76.4c0-3.7,2-5.9,5.6-5.9s5.6,2.1,5.6,5.9v12.1c0,3.7-2,5.9-5.6,5.9s-5.6-2.1-5.6-5.9V76.4z
				 M314.9,88.8c0,1.7,0.7,2.3,1.9,2.3s1.9-0.6,1.9-2.3V76.2c0-1.7-0.7-2.3-1.9-2.3s-1.9,0.6-1.9,2.3V88.8z"/>
			<path class="st1" d="M332.9,81.7L332.9,81.7l-1.4,12.4h-5l-2.6-23.3h3.6l1.9,18.4h0.1l1.7-18.4h3.5l1.8,18.5h0.1l1.9-18.5h3.2
				l-2.6,23.3h-4.9L332.9,81.7z"/>
			<path class="st1" d="M346.8,77.2L346.8,77.2l-0.1,16.9h-3.3V70.8h4.6l3.7,14h0.1v-14h3.3v23.3h-3.8L346.8,77.2z"/>
		</g>
	</g>
	<g>
		<path class="st2" d="M200.7,313.6c1.4,0,1.7-0.7,2-1.4h1.2v11.4h-1.8v-8.7h-1.4V313.6z"/>
		<path class="st2" d="M206,323.6v-1.7h1.7v1.6l-0.8,1.8h-0.7l0.5-1.6H206z"/>
		<path class="st2" d="M208.9,314.9c0-1.8,1-2.9,2.7-2.9c1.8,0,2.7,1,2.7,2.9v5.9c0,1.8-1,2.9-2.7,2.9c-1.8,0-2.7-1-2.7-2.9V314.9z
			 M210.7,321c0,0.8,0.4,1.1,0.9,1.1c0.6,0,0.9-0.3,0.9-1.1v-6.2c0-0.8-0.4-1.1-0.9-1.1c-0.6,0-0.9,0.3-0.9,1.1V321z"/>
		<path class="st2" d="M215.4,314.9c0-1.8,1-2.9,2.7-2.9s2.7,1,2.7,2.9v5.9c0,1.8-1,2.9-2.7,2.9s-2.7-1-2.7-2.9V314.9z M217.2,321
			c0,0.8,0.4,1.1,0.9,1.1s0.9-0.3,0.9-1.1v-6.2c0-0.8-0.4-1.1-0.9-1.1s-0.9,0.3-0.9,1.1V321z"/>
		<path class="st2" d="M221.9,314.9c0-1.8,1-2.9,2.7-2.9c1.8,0,2.7,1,2.7,2.9v5.9c0,1.8-1,2.9-2.7,2.9c-1.8,0-2.7-1-2.7-2.9V314.9z
			 M223.7,321c0,0.8,0.4,1.1,0.9,1.1c0.6,0,0.9-0.3,0.9-1.1v-6.2c0-0.8-0.4-1.1-0.9-1.1c-0.6,0-0.9,0.3-0.9,1.1V321z"/>
	</g>
	<g>
		<path class="st2" d="M199.1,342.3l3.3-7.7h2v7.7h0.8v1.6h-0.8v2.1h-1.8v-2.1h-3.4V342.3z M202.6,342.3v-4.2h0l-1.7,4.2H202.6z"/>
		<path class="st2" d="M206,346v-1.7h1.7v1.6l-0.8,1.8h-0.7l0.5-1.6H206z"/>
		<path class="st2" d="M211.7,346.1c-1.8,0-2.8-1-2.8-2.9v-0.9c0-1.1,0.3-1.9,1.1-2.4v0c-0.8-0.4-1.1-1.2-1.1-2.3v-0.4
			c0-1.8,1-2.9,2.8-2.9c1.8,0,2.8,1,2.8,2.9v0.4c0,1.1-0.4,1.9-1.1,2.3v0c0.8,0.4,1.1,1.3,1.1,2.4v0.9
			C214.5,345.1,213.5,346.1,211.7,346.1z M210.6,338c0,0.9,0.4,1.2,1,1.2c0.6,0,1-0.3,1-1.2v-0.6c0-1-0.4-1.3-1-1.3
			c-0.6,0-1,0.3-1,1.3V338z M211.7,344.5c0.6,0,1-0.3,1-1.3v-1.1c0-0.9-0.4-1.3-1-1.3c-0.6,0-1,0.4-1,1.3v1.1
			C210.6,344.2,211.1,344.5,211.7,344.5z"/>
		<path class="st2" d="M215.4,337.3c0-1.8,1-2.9,2.7-2.9s2.7,1,2.7,2.9v5.9c0,1.8-1,2.9-2.7,2.9s-2.7-1-2.7-2.9V337.3z M217.2,343.4
			c0,0.8,0.4,1.1,0.9,1.1s0.9-0.3,0.9-1.1v-6.2c0-0.8-0.4-1.1-0.9-1.1s-0.9,0.3-0.9,1.1V343.4z"/>
		<path class="st2" d="M221.9,337.3c0-1.8,1-2.9,2.7-2.9c1.8,0,2.7,1,2.7,2.9v5.9c0,1.8-1,2.9-2.7,2.9c-1.8,0-2.7-1-2.7-2.9V337.3z
			 M223.7,343.4c0,0.8,0.4,1.1,0.9,1.1c0.6,0,0.9-0.3,0.9-1.1v-6.2c0-0.8-0.4-1.1-0.9-1.1c-0.6,0-0.9,0.3-0.9,1.1V343.4z"/>
	</g>
	<g>
		<path class="st2" d="M195.7,355.3c-0.6,0-0.9,0.3-0.9,1.1v1.2h-1.7v-1.1c0-1.8,0.9-2.9,2.7-2.9s2.7,1,2.7,2.9
			c0,1.5-0.6,2.7-2.2,4.5c-1.1,1.1-1.4,1.7-1.4,2.3c0,0.1,0,0.2,0,0.2h3.4v1.6h-5.2v-1.4c0-1.3,0.5-2.2,1.8-3.6
			c1.4-1.5,1.8-2.4,1.8-3.6C196.6,355.5,196.3,355.3,195.7,355.3z"/>
		<path class="st2" d="M199.4,356.6c0-1.9,0.9-3,2.7-3c1.8,0,2.7,1,2.7,2.9v0.3h-1.7v-0.4c0-0.8-0.4-1.1-0.9-1.1c-0.6,0-1,0.3-1,1.4
			v2.1h0c0.3-0.7,0.8-1,1.6-1c1.3,0,2,0.9,2,2.6v2.1c0,1.8-1,2.9-2.7,2.9c-1.8,0-2.7-1-2.7-2.9V356.6z M201.2,360.5v2.1
			c0,0.8,0.4,1.1,0.9,1.1c0.6,0,0.9-0.3,0.9-1.1v-2.1c0-0.8-0.4-1.1-0.9-1.1C201.6,359.4,201.2,359.7,201.2,360.5z"/>
		<path class="st2" d="M206,365.2v-1.7h1.7v1.6l-0.8,1.8h-0.7l0.5-1.6H206z"/>
		<path class="st2" d="M208.9,356.5c0-1.8,1-2.9,2.7-2.9s2.7,1,2.7,2.9v5.9c0,1.8-1,2.9-2.7,2.9s-2.7-1-2.7-2.9V356.5z M210.7,362.6
			c0,0.8,0.4,1.1,0.9,1.1s0.9-0.3,0.9-1.1v-6.2c0-0.8-0.4-1.1-0.9-1.1s-0.9,0.3-0.9,1.1V362.6z"/>
		<path class="st2" d="M215.4,356.5c0-1.8,1-2.9,2.7-2.9c1.8,0,2.7,1,2.7,2.9v5.9c0,1.8-1,2.9-2.7,2.9c-1.8,0-2.7-1-2.7-2.9V356.5z
			 M217.2,362.6c0,0.8,0.4,1.1,0.9,1.1c0.6,0,0.9-0.3,0.9-1.1v-6.2c0-0.8-0.4-1.1-0.9-1.1c-0.6,0-0.9,0.3-0.9,1.1V362.6z"/>
		<path class="st2" d="M221.8,356.5c0-1.8,1-2.9,2.7-2.9s2.7,1,2.7,2.9v5.9c0,1.8-1,2.9-2.7,2.9s-2.7-1-2.7-2.9V356.5z M223.6,362.6
			c0,0.8,0.4,1.1,0.9,1.1s0.9-0.3,0.9-1.1v-6.2c0-0.8-0.4-1.1-0.9-1.1s-0.9,0.3-0.9,1.1V362.6z"/>
	</g>
	<g>
		<path class="st2" d="M196.5,375.7c0-1-0.4-1.3-0.9-1.3c-0.6,0-0.9,0.3-0.9,1.1v0.7H193v-0.6c0-1.8,0.9-2.9,2.7-2.9
			c1.8,0,2.7,1,2.7,2.9v0.3c0,1.2-0.4,2-1.3,2.3v0c0.9,0.4,1.3,1.2,1.3,2.4v0.9c0,1.8-0.9,2.9-2.7,2.9c-1.8,0-2.7-1-2.7-2.9v-0.9
			h1.7v1.1c0,0.8,0.4,1.1,0.9,1.1c0.6,0,0.9-0.3,0.9-1.3v-0.9c0-1.1-0.4-1.5-1.2-1.5h-0.6v-1.6h0.7c0.7,0,1.1-0.3,1.1-1.2V375.7z"/>
		<path class="st2" d="M199.4,375.7c0-1.8,1-2.9,2.7-2.9s2.7,1,2.7,2.9v5.9c0,1.8-1,2.9-2.7,2.9s-2.7-1-2.7-2.9V375.7z M201.2,381.7
			c0,0.8,0.4,1.1,0.9,1.1s0.9-0.3,0.9-1.1v-6.2c0-0.8-0.4-1.1-0.9-1.1s-0.9,0.3-0.9,1.1V381.7z"/>
		<path class="st2" d="M206,384.4v-1.7h1.7v1.6L207,386h-0.7l0.5-1.6H206z"/>
		<path class="st2" d="M211.6,384.5c-1.8,0-2.8-1-2.8-2.9v-0.9c0-1.1,0.3-1.9,1.1-2.4v0c-0.8-0.4-1.1-1.2-1.1-2.3v-0.4
			c0-1.8,1-2.9,2.8-2.9c1.8,0,2.8,1,2.8,2.9v0.4c0,1.1-0.4,1.9-1.1,2.3v0c0.8,0.4,1.1,1.3,1.1,2.4v0.9
			C214.4,383.4,213.4,384.5,211.6,384.5z M210.6,376.4c0,0.9,0.4,1.2,1,1.2c0.6,0,1-0.3,1-1.2v-0.6c0-1-0.4-1.3-1-1.3s-1,0.3-1,1.3
			V376.4z M211.6,382.9c0.6,0,1-0.3,1-1.3v-1.1c0-0.9-0.4-1.3-1-1.3c-0.6,0-1,0.4-1,1.3v1.1C210.6,382.6,211.1,382.9,211.6,382.9z"
			/>
		<path class="st2" d="M215.4,375.7c0-1.8,1-2.9,2.7-2.9c1.8,0,2.7,1,2.7,2.9v5.9c0,1.8-1,2.9-2.7,2.9c-1.8,0-2.7-1-2.7-2.9V375.7z
			 M217.2,381.7c0,0.8,0.4,1.1,0.9,1.1c0.6,0,0.9-0.3,0.9-1.1v-6.2c0-0.8-0.4-1.1-0.9-1.1c-0.6,0-0.9,0.3-0.9,1.1V381.7z"/>
		<path class="st2" d="M221.8,375.7c0-1.8,1-2.9,2.7-2.9s2.7,1,2.7,2.9v5.9c0,1.8-1,2.9-2.7,2.9s-2.7-1-2.7-2.9V375.7z M223.6,381.7
			c0,0.8,0.4,1.1,0.9,1.1s0.9-0.3,0.9-1.1v-6.2c0-0.8-0.4-1.1-0.9-1.1s-0.9,0.3-0.9,1.1V381.7z"/>
	</g>
	<g>
		<path class="st2" d="M192.9,395.7c0-1.9,0.9-3,2.7-3c1.8,0,2.7,1,2.7,2.9v0.3h-1.7v-0.4c0-0.8-0.4-1.1-0.9-1.1c-0.6,0-1,0.3-1,1.4
			v2.1h0c0.3-0.7,0.8-1,1.6-1c1.3,0,2,0.9,2,2.6v2.1c0,1.8-1,2.9-2.7,2.9s-2.7-1-2.7-2.9V395.7z M194.7,399.6v2.1
			c0,0.8,0.4,1.1,0.9,1.1s0.9-0.3,0.9-1.1v-2.1c0-0.8-0.4-1.1-0.9-1.1S194.7,398.8,194.7,399.6z"/>
		<path class="st2" d="M204.8,401.5c0,1.9-0.9,3-2.7,3c-1.8,0-2.7-1-2.7-2.9v-0.3h1.7v0.4c0,0.8,0.4,1.1,0.9,1.1c0.6,0,1-0.3,1-1.4
			v-2.1h0c-0.3,0.7-0.8,1-1.6,1c-1.3,0-2-0.9-2-2.6v-2.1c0-1.8,1-2.9,2.7-2.9c1.8,0,2.7,1,2.7,2.9V401.5z M203,397.6v-2.1
			c0-0.8-0.4-1.1-0.9-1.1c-0.6,0-0.9,0.3-0.9,1.1v2.1c0,0.8,0.4,1.1,0.9,1.1C202.7,398.7,203,398.4,203,397.6z"/>
		<path class="st2" d="M206,404.3v-1.7h1.7v1.6L207,406h-0.7l0.5-1.6H206z"/>
		<path class="st2" d="M208.9,395.6c0-1.8,1-2.9,2.7-2.9s2.7,1,2.7,2.9v5.9c0,1.8-1,2.9-2.7,2.9s-2.7-1-2.7-2.9V395.6z M210.7,401.7
			c0,0.8,0.4,1.1,0.9,1.1s0.9-0.3,0.9-1.1v-6.2c0-0.8-0.4-1.1-0.9-1.1s-0.9,0.3-0.9,1.1V401.7z"/>
		<path class="st2" d="M215.4,395.6c0-1.8,1-2.9,2.7-2.9c1.8,0,2.7,1,2.7,2.9v5.9c0,1.8-1,2.9-2.7,2.9c-1.8,0-2.7-1-2.7-2.9V395.6z
			 M217.2,401.7c0,0.8,0.4,1.1,0.9,1.1c0.6,0,0.9-0.3,0.9-1.1v-6.2c0-0.8-0.4-1.1-0.9-1.1c-0.6,0-0.9,0.3-0.9,1.1V401.7z"/>
		<path class="st2" d="M221.8,395.6c0-1.8,1-2.9,2.7-2.9s2.7,1,2.7,2.9v5.9c0,1.8-1,2.9-2.7,2.9s-2.7-1-2.7-2.9V395.6z M223.6,401.7
			c0,0.8,0.4,1.1,0.9,1.1s0.9-0.3,0.9-1.1v-6.2c0-0.8-0.4-1.1-0.9-1.1s-0.9,0.3-0.9,1.1V401.7z"/>
	</g>
	<g>
		<path class="st2" d="M189.2,414.6c-0.6,0-0.9,0.3-0.9,1.1v1.2h-1.7v-1.1c0-1.8,0.9-2.9,2.7-2.9s2.7,1,2.7,2.9
			c0,1.5-0.6,2.7-2.2,4.5c-1.1,1.1-1.4,1.7-1.4,2.3c0,0.1,0,0.2,0,0.2h3.4v1.6h-5.2v-1.4c0-1.3,0.5-2.2,1.8-3.6
			c1.4-1.5,1.8-2.4,1.8-3.6C190.1,414.9,189.8,414.6,189.2,414.6z"/>
		<path class="st2" d="M192.6,420.9l3.3-7.7h2v7.7h0.8v1.6h-0.8v2.1H196v-2.1h-3.4V420.9z M196,420.9v-4.2h0l-1.7,4.2H196z"/>
		<path class="st2" d="M202.1,424.7c-1.8,0-2.8-1-2.8-2.9v-0.9c0-1.1,0.3-1.9,1.1-2.4v0c-0.8-0.4-1.1-1.2-1.1-2.3v-0.4
			c0-1.8,1-2.9,2.8-2.9c1.8,0,2.8,1,2.8,2.9v0.4c0,1.1-0.4,1.9-1.1,2.3v0c0.8,0.4,1.1,1.3,1.1,2.4v0.9
			C204.9,423.7,203.9,424.7,202.1,424.7z M201.1,416.6c0,0.9,0.4,1.2,1,1.2c0.6,0,1-0.3,1-1.2V416c0-1-0.4-1.3-1-1.3
			c-0.6,0-1,0.3-1,1.3V416.6z M202.1,423.1c0.6,0,1-0.3,1-1.3v-1.1c0-0.9-0.4-1.3-1-1.3c-0.6,0-1,0.4-1,1.3v1.1
			C201.1,422.8,201.5,423.1,202.1,423.1z"/>
		<path class="st2" d="M206,424.6v-1.7h1.7v1.6l-0.8,1.8h-0.7l0.5-1.6H206z"/>
		<path class="st2" d="M208.9,415.9c0-1.8,1-2.9,2.7-2.9c1.8,0,2.7,1,2.7,2.9v5.9c0,1.8-1,2.9-2.7,2.9c-1.8,0-2.7-1-2.7-2.9V415.9z
			 M210.7,422c0,0.8,0.4,1.1,0.9,1.1c0.6,0,0.9-0.3,0.9-1.1v-6.2c0-0.8-0.4-1.1-0.9-1.1c-0.6,0-0.9,0.3-0.9,1.1V422z"/>
		<path class="st2" d="M215.3,415.9c0-1.8,1-2.9,2.7-2.9s2.7,1,2.7,2.9v5.9c0,1.8-1,2.9-2.7,2.9s-2.7-1-2.7-2.9V415.9z M217.1,422
			c0,0.8,0.4,1.1,0.9,1.1s0.9-0.3,0.9-1.1v-6.2c0-0.8-0.4-1.1-0.9-1.1s-0.9,0.3-0.9,1.1V422z"/>
		<path class="st2" d="M221.8,415.9c0-1.8,1-2.9,2.7-2.9s2.7,1,2.7,2.9v5.9c0,1.8-1,2.9-2.7,2.9s-2.7-1-2.7-2.9V415.9z M223.6,422
			c0,0.8,0.4,1.1,0.9,1.1s0.9-0.3,0.9-1.1v-6.2c0-0.8-0.4-1.1-0.9-1.1s-0.9,0.3-0.9,1.1V422z"/>
	</g>
	<g>
		<path class="st2" d="M189.2,434.8c-0.6,0-0.9,0.3-0.9,1.1v1.2h-1.7V436c0-1.8,0.9-2.9,2.7-2.9s2.7,1,2.7,2.9
			c0,1.5-0.6,2.7-2.2,4.5c-1.1,1.1-1.4,1.7-1.4,2.3c0,0.1,0,0.2,0,0.2h3.4v1.6h-5.2v-1.4c0-1.3,0.5-2.2,1.8-3.6
			c1.4-1.5,1.8-2.4,1.8-3.6C190.1,435,189.8,434.8,189.2,434.8z"/>
		<path class="st2" d="M195.6,444.8c-1.8,0-2.8-1-2.8-2.9v-0.9c0-1.1,0.3-1.9,1.1-2.4v0c-0.8-0.4-1.1-1.2-1.1-2.3V436
			c0-1.8,1-2.9,2.8-2.9c1.8,0,2.8,1,2.8,2.9v0.4c0,1.1-0.4,1.9-1.1,2.3v0c0.8,0.4,1.1,1.3,1.1,2.4v0.9
			C198.4,443.8,197.4,444.8,195.6,444.8z M194.6,436.7c0,0.9,0.4,1.2,1,1.2c0.6,0,1-0.3,1-1.2v-0.6c0-1-0.4-1.3-1-1.3s-1,0.3-1,1.3
			V436.7z M195.6,443.2c0.6,0,1-0.3,1-1.3v-1.1c0-0.9-0.4-1.3-1-1.3c-0.6,0-1,0.4-1,1.3v1.1C194.6,442.9,195,443.2,195.6,443.2z"/>
		<path class="st2" d="M200.6,434.7c1.4,0,1.7-0.7,2-1.4h1.2v11.4H202V436h-1.4V434.7z"/>
		<path class="st2" d="M206,444.7V443h1.7v1.6l-0.8,1.8h-0.7l0.5-1.6H206z"/>
		<path class="st2" d="M208.9,436c0-1.8,1-2.9,2.7-2.9c1.8,0,2.7,1,2.7,2.9v5.9c0,1.8-1,2.9-2.7,2.9c-1.8,0-2.7-1-2.7-2.9V436z
			 M210.7,442.1c0,0.8,0.4,1.1,0.9,1.1c0.6,0,0.9-0.3,0.9-1.1v-6.2c0-0.8-0.4-1.1-0.9-1.1c-0.6,0-0.9,0.3-0.9,1.1V442.1z"/>
		<path class="st2" d="M215.3,436c0-1.8,1-2.9,2.7-2.9s2.7,1,2.7,2.9v5.9c0,1.8-1,2.9-2.7,2.9s-2.7-1-2.7-2.9V436z M217.1,442.1
			c0,0.8,0.4,1.1,0.9,1.1s0.9-0.3,0.9-1.1v-6.2c0-0.8-0.4-1.1-0.9-1.1s-0.9,0.3-0.9,1.1V442.1z"/>
		<path class="st2" d="M221.8,436c0-1.8,1-2.9,2.7-2.9s2.7,1,2.7,2.9v5.9c0,1.8-1,2.9-2.7,2.9s-2.7-1-2.7-2.9V436z M223.6,442.1
			c0,0.8,0.4,1.1,0.9,1.1s0.9-0.3,0.9-1.1v-6.2c0-0.8-0.4-1.1-0.9-1.1s-0.9,0.3-0.9,1.1V442.1z"/>
	</g>
	<path class="st0" d="M358.3,294.4c0,31-7.9,60-21.9,85.3l-18-8.2c12.8-22.8,20.1-49.1,20.1-77.1c0-0.2,0-0.4,0-0.6h-19.7
		c-0.1-13.2-2-26-5.5-38.2l-19.3,4.4c-8.1-26.8-25.5-49.6-48.4-64.6l-9,17.7c-15.9-10.9-35.1-17.3-55.7-17.3c-2.9,0-5.8,0.1-8.7,0.4
		l1.5,19.6c-10.9,1-21.1,4.2-30.2,9.1l8.6,17.7c-18.1,10.1-30.4,29.5-30.4,51.7c0,10.7,2.9,20.8,7.9,29.5l15.9-12.1
		c3,6.1,7.5,11.3,13,15.1l10.2-16.9c3.4,2.6,7.6,4.2,12.2,4.2v157.7c-98,0-177.4-79.4-177.4-177.4S82.9,117,180.9,117
		S358.3,196.4,358.3,294.4z"/>
	<g>
		<path class="st2" d="M191.8,453.5v1.6l-2.6,9.9h-1.8l2.6-9.8h-3.6v-1.6H191.8z"/>
		<path class="st2" d="M194.6,461.3v1.1c0,0.8,0.4,1.1,0.9,1.1c0.6,0,0.9-0.3,0.9-1.1v-2.5c0-0.8-0.4-1.1-0.9-1.1
			c-0.6,0-0.9,0.3-0.9,1.1v0.3h-1.7l0.3-6.6h4.7v1.6h-3.1l-0.1,2.7h0c0.3-0.5,0.8-0.8,1.6-0.8c1.3,0,2,0.9,2,2.6v2.5
			c0,1.8-0.9,2.9-2.7,2.9s-2.7-1-2.7-2.9v-0.9H194.6z"/>
		<path class="st2" d="M200.6,455c1.4,0,1.7-0.7,2-1.4h1.2V465H202v-8.7h-1.4V455z"/>
		<path class="st2" d="M206,465v-1.7h1.7v1.6l-0.8,1.8h-0.7l0.5-1.6H206z"/>
		<path class="st2" d="M208.9,456.3c0-1.8,1-2.9,2.7-2.9c1.8,0,2.7,1,2.7,2.9v5.9c0,1.8-1,2.9-2.7,2.9c-1.8,0-2.7-1-2.7-2.9V456.3z
			 M210.7,462.3c0,0.8,0.4,1.1,0.9,1.1c0.6,0,0.9-0.3,0.9-1.1v-6.2c0-0.8-0.4-1.1-0.9-1.1c-0.6,0-0.9,0.3-0.9,1.1V462.3z"/>
		<path class="st2" d="M215.3,456.3c0-1.8,1-2.9,2.7-2.9s2.7,1,2.7,2.9v5.9c0,1.8-1,2.9-2.7,2.9s-2.7-1-2.7-2.9V456.3z M217.1,462.3
			c0,0.8,0.4,1.1,0.9,1.1s0.9-0.3,0.9-1.1v-6.2c0-0.8-0.4-1.1-0.9-1.1s-0.9,0.3-0.9,1.1V462.3z"/>
		<path class="st2" d="M221.8,456.3c0-1.8,1-2.9,2.7-2.9s2.7,1,2.7,2.9v5.9c0,1.8-1,2.9-2.7,2.9s-2.7-1-2.7-2.9V456.3z M223.6,462.3
			c0,0.8,0.4,1.1,0.9,1.1s0.9-0.3,0.9-1.1v-6.2c0-0.8-0.4-1.1-0.9-1.1s-0.9,0.3-0.9,1.1V462.3z"/>
	</g>
	<g>
		<g>
			<path class="st3" d="M177.9,153.2c-76.2,0-138,61.8-138,138s61.8,138,138,138v-19.7c-65.3,0-118.3-52.9-118.3-118.3
				s52.9-118.3,118.3-118.3c53.4,0,98.5,35.4,113.2,83.9l19.3-4.4C293.6,195.1,240.6,153.2,177.9,153.2z"/>
		</g>
		<g>
			<path class="st4" d="M177.9,172.9c-65.3,0-118.3,52.9-118.3,118.3s52.9,118.3,118.3,118.3v-19.7c-54.4,0-98.6-44.1-98.6-98.6
				c0-54.4,44.1-98.6,98.6-98.6c20.7,0,39.9,6.4,55.7,17.3l9-17.7C224,180.1,201.8,172.9,177.9,172.9z"/>
		</g>
		<path class="st5" d="M177.9,370v19.7c-54.4,0-98.6-44.1-98.6-98.6c0-51.5,39.5-93.8,89.9-98.2l1.5,19.7
			c-40.2,3.6-71.7,37.4-71.7,78.5C99,334.7,134.3,370,177.9,370z"/>
		<path class="st6" d="M177.9,350.3V370c-43.5,0-78.8-35.3-78.8-78.8c0-30,16.8-56.1,41.5-69.4l8.7,17.7
			c-18.1,10.1-30.4,29.5-30.4,51.7C118.7,323.9,145.2,350.3,177.9,350.3z"/>
		<path class="st7" d="M142.5,308.5l-15.9,12.1c10.2,17.7,29.4,29.7,51.3,29.7v-19.7C162.3,330.6,148.9,321.6,142.5,308.5z"/>
		<path class="st8" d="M165.7,306.7l-10.2,16.9c6.4,4.4,14.1,7,22.4,7v-19.7C173.3,310.9,169,309.3,165.7,306.7z"/>
		<g>
			<path class="st9" d="M177.9,133.5c-87.1,0-157.7,70.6-157.7,157.7s70.6,157.7,157.7,157.7v-19.7c-76.2,0-138-61.8-138-138
				s61.8-138,138-138c76,0,137.7,61.5,138,137.4h19.7C335.2,203.8,264.8,133.5,177.9,133.5z"/>
		</g>
		<g>
			<path class="st10" d="M177.9,113.8c-98,0-177.4,79.4-177.4,177.4s79.4,177.4,177.4,177.4v-19.7c-87.1,0-157.7-70.6-157.7-157.7
				s70.6-157.7,157.7-157.7c87.1,0,157.7,70.6,157.7,157.7c0,28-7.3,54.3-20.1,77.1l18,8.2c13.9-25.3,21.9-54.4,21.9-85.3
				C355.3,193.2,275.8,113.8,177.9,113.8z"/>
		</g>
	</g>
	<g>
		<path class="st2" d="M234.5,316.6h1.1l2.1,5.8h0l2.2-5.8h1l-2.8,7.1h-0.9L234.5,316.6z"/>
		<path class="st2" d="M241.2,317.2c0-0.2,0.1-0.3,0.2-0.5s0.3-0.2,0.5-0.2s0.3,0.1,0.5,0.2s0.2,0.3,0.2,0.5s-0.1,0.3-0.2,0.5
			s-0.3,0.2-0.5,0.2s-0.3-0.1-0.5-0.2S241.2,317.4,241.2,317.2z M241.4,318.9h0.9v4.7h-0.9V318.9z"/>
		<path class="st2" d="M243.8,318.9h0.9v0.7h0c0.1-0.1,0.1-0.2,0.2-0.3s0.2-0.2,0.3-0.3c0.1-0.1,0.3-0.1,0.4-0.2
			c0.1,0,0.3-0.1,0.4-0.1s0.3,0,0.4,0.1l0,1c-0.1,0-0.1,0-0.2-0.1c-0.1,0-0.1,0-0.2,0c-0.4,0-0.8,0.1-1,0.4s-0.3,0.6-0.3,1.1v2.4
			h-0.9V318.9z"/>
		<path class="st2" d="M251.7,323.6h-0.9v-0.7h0c-0.1,0.3-0.3,0.5-0.6,0.6s-0.6,0.2-1,0.2c-0.2,0-0.5,0-0.7-0.1
			c-0.2-0.1-0.4-0.2-0.5-0.3c-0.2-0.1-0.3-0.3-0.4-0.6c-0.1-0.2-0.1-0.5-0.1-0.8v-3h0.9v2.8c0,0.2,0,0.4,0.1,0.6
			c0.1,0.2,0.1,0.3,0.2,0.4c0.1,0.1,0.2,0.2,0.3,0.2s0.3,0.1,0.4,0.1c0.2,0,0.4,0,0.5-0.1c0.2-0.1,0.3-0.2,0.4-0.3
			c0.1-0.1,0.2-0.3,0.3-0.5c0.1-0.2,0.1-0.4,0.1-0.7v-2.4h0.9V323.6z"/>
		<path class="st2" d="M255.5,320.1c-0.1-0.1-0.2-0.2-0.4-0.3c-0.2-0.1-0.3-0.1-0.6-0.1c-0.2,0-0.4,0-0.6,0.1
			c-0.2,0.1-0.2,0.2-0.2,0.4c0,0.1,0,0.3,0.1,0.3c0.1,0.1,0.2,0.2,0.3,0.2s0.3,0.1,0.4,0.1c0.1,0,0.3,0,0.4,0.1
			c0.2,0,0.4,0.1,0.5,0.2c0.2,0.1,0.3,0.2,0.4,0.3c0.1,0.1,0.2,0.2,0.3,0.4s0.1,0.3,0.1,0.6c0,0.3-0.1,0.5-0.2,0.7s-0.3,0.3-0.4,0.5
			c-0.2,0.1-0.4,0.2-0.6,0.3c-0.2,0.1-0.5,0.1-0.7,0.1c-0.4,0-0.7-0.1-1-0.2c-0.3-0.1-0.6-0.3-0.8-0.7l0.7-0.6
			c0.1,0.1,0.3,0.3,0.5,0.4c0.2,0.1,0.4,0.2,0.7,0.2c0.1,0,0.2,0,0.3,0c0.1,0,0.2-0.1,0.3-0.1c0.1-0.1,0.2-0.1,0.2-0.2
			c0.1-0.1,0.1-0.2,0.1-0.3c0-0.1,0-0.2-0.1-0.3c-0.1-0.1-0.2-0.2-0.3-0.2c-0.1,0-0.2-0.1-0.4-0.1s-0.2-0.1-0.3-0.1
			c-0.2,0-0.4-0.1-0.5-0.2c-0.2-0.1-0.3-0.1-0.5-0.2c-0.1-0.1-0.2-0.2-0.3-0.4c-0.1-0.2-0.1-0.3-0.1-0.6c0-0.2,0.1-0.5,0.2-0.6
			s0.2-0.3,0.4-0.5c0.2-0.1,0.4-0.2,0.6-0.3s0.4-0.1,0.7-0.1c0.3,0,0.6,0.1,0.9,0.2c0.3,0.1,0.5,0.3,0.7,0.6L255.5,320.1z"/>
		<path class="st2" d="M258.1,321.6c0,0.2,0,0.4,0.1,0.6s0.2,0.3,0.4,0.4c0.1,0.1,0.3,0.2,0.5,0.3c0.2,0.1,0.4,0.1,0.6,0.1
			c0.3,0,0.5-0.1,0.7-0.2c0.2-0.1,0.4-0.3,0.6-0.5l0.7,0.5c-0.5,0.6-1.2,1-2.1,1c-0.4,0-0.7-0.1-1-0.2s-0.6-0.3-0.8-0.5
			c-0.2-0.2-0.4-0.5-0.5-0.8c-0.1-0.3-0.2-0.6-0.2-1c0-0.4,0.1-0.7,0.2-1c0.1-0.3,0.3-0.6,0.5-0.8c0.2-0.2,0.5-0.4,0.8-0.5
			c0.3-0.1,0.6-0.2,1-0.2c0.4,0,0.8,0.1,1.1,0.2s0.5,0.3,0.7,0.6s0.3,0.5,0.4,0.8s0.1,0.6,0.1,0.9v0.3H258.1z M261,320.9
			c0-0.2,0-0.4-0.1-0.6c-0.1-0.2-0.1-0.3-0.3-0.4c-0.1-0.1-0.3-0.2-0.4-0.3c-0.2-0.1-0.4-0.1-0.6-0.1c-0.2,0-0.4,0-0.6,0.1
			c-0.2,0.1-0.3,0.2-0.5,0.3c-0.1,0.1-0.2,0.3-0.3,0.4c-0.1,0.2-0.1,0.3-0.1,0.5H261z"/>
		<path class="st2" d="M265.5,320.1c-0.1-0.1-0.2-0.2-0.4-0.3c-0.2-0.1-0.3-0.1-0.6-0.1c-0.2,0-0.4,0-0.6,0.1
			c-0.2,0.1-0.2,0.2-0.2,0.4c0,0.1,0,0.3,0.1,0.3c0.1,0.1,0.2,0.2,0.3,0.2s0.3,0.1,0.4,0.1c0.1,0,0.3,0,0.4,0.1
			c0.2,0,0.4,0.1,0.5,0.2c0.2,0.1,0.3,0.2,0.4,0.3c0.1,0.1,0.2,0.2,0.3,0.4s0.1,0.3,0.1,0.6c0,0.3-0.1,0.5-0.2,0.7s-0.3,0.3-0.4,0.5
			c-0.2,0.1-0.4,0.2-0.6,0.3c-0.2,0.1-0.5,0.1-0.7,0.1c-0.4,0-0.7-0.1-1-0.2c-0.3-0.1-0.6-0.3-0.8-0.7l0.7-0.6
			c0.1,0.1,0.3,0.3,0.5,0.4c0.2,0.1,0.4,0.2,0.7,0.2c0.1,0,0.2,0,0.3,0c0.1,0,0.2-0.1,0.3-0.1c0.1-0.1,0.2-0.1,0.2-0.2
			c0.1-0.1,0.1-0.2,0.1-0.3c0-0.1,0-0.2-0.1-0.3c-0.1-0.1-0.2-0.2-0.3-0.2c-0.1,0-0.2-0.1-0.4-0.1s-0.2-0.1-0.3-0.1
			c-0.2,0-0.4-0.1-0.5-0.2c-0.2-0.1-0.3-0.1-0.5-0.2c-0.1-0.1-0.2-0.2-0.3-0.4c-0.1-0.2-0.1-0.3-0.1-0.6c0-0.2,0.1-0.5,0.2-0.6
			s0.2-0.3,0.4-0.5c0.2-0.1,0.4-0.2,0.6-0.3s0.4-0.1,0.7-0.1c0.3,0,0.6,0.1,0.9,0.2c0.3,0.1,0.5,0.3,0.7,0.6L265.5,320.1z"/>
	</g>
	<g>
		<path class="st2" d="M235.4,338.9h1.4l2.2,5.4h0l2.2-5.4h1.4v7.1h-1v-5.8h0l-2.4,5.8h-0.6l-2.4-5.8h0v5.8h-1V338.9z"/>
		<path class="st2" d="M244.1,343.6c0-0.3,0.1-0.7,0.2-1s0.3-0.6,0.5-0.8c0.2-0.2,0.5-0.4,0.8-0.5s0.6-0.2,1-0.2
			c0.4,0,0.7,0.1,1,0.2s0.6,0.3,0.8,0.5s0.4,0.5,0.5,0.8s0.2,0.6,0.2,1s-0.1,0.7-0.2,1c-0.1,0.3-0.3,0.6-0.5,0.8
			c-0.2,0.2-0.5,0.4-0.8,0.5c-0.3,0.1-0.6,0.2-1,0.2c-0.4,0-0.7-0.1-1-0.2c-0.3-0.1-0.6-0.3-0.8-0.5c-0.2-0.2-0.4-0.5-0.5-0.8
			C244.1,344.3,244.1,344,244.1,343.6z M245,343.6c0,0.2,0,0.5,0.1,0.7c0.1,0.2,0.2,0.4,0.3,0.5c0.1,0.1,0.3,0.3,0.5,0.3
			c0.2,0.1,0.4,0.1,0.7,0.1c0.2,0,0.5,0,0.6-0.1c0.2-0.1,0.4-0.2,0.5-0.3c0.1-0.1,0.2-0.3,0.3-0.5c0.1-0.2,0.1-0.4,0.1-0.7
			s0-0.5-0.1-0.7c-0.1-0.2-0.2-0.4-0.3-0.5c-0.1-0.1-0.3-0.3-0.5-0.3c-0.2-0.1-0.4-0.1-0.6-0.1c-0.2,0-0.5,0-0.7,0.1
			c-0.2,0.1-0.4,0.2-0.5,0.3c-0.1,0.1-0.2,0.3-0.3,0.5C245.1,343.2,245,343.4,245,343.6z"/>
		<path class="st2" d="M250.2,341.3h0.9v0.7h0c0.1-0.3,0.3-0.5,0.6-0.6c0.3-0.2,0.6-0.2,1-0.2c0.2,0,0.4,0,0.7,0.1s0.4,0.2,0.6,0.3
			c0.2,0.1,0.3,0.3,0.4,0.6c0.1,0.2,0.1,0.5,0.1,0.8v3h-0.9v-2.8c0-0.2,0-0.4-0.1-0.6c-0.1-0.2-0.1-0.3-0.2-0.4
			c-0.1-0.1-0.2-0.2-0.3-0.2c-0.1,0-0.3-0.1-0.4-0.1c-0.2,0-0.4,0-0.5,0.1c-0.2,0.1-0.3,0.2-0.4,0.3c-0.1,0.1-0.2,0.3-0.3,0.5
			c-0.1,0.2-0.1,0.4-0.1,0.7v2.4h-0.9V341.3z"/>
		<path class="st2" d="M256.5,344c0,0.2,0,0.4,0.1,0.6s0.2,0.3,0.4,0.4c0.1,0.1,0.3,0.2,0.5,0.3c0.2,0.1,0.4,0.1,0.6,0.1
			c0.3,0,0.5-0.1,0.7-0.2c0.2-0.1,0.4-0.3,0.6-0.5l0.7,0.5c-0.5,0.6-1.2,1-2.1,1c-0.4,0-0.7-0.1-1-0.2c-0.3-0.1-0.6-0.3-0.8-0.5
			c-0.2-0.2-0.4-0.5-0.5-0.8s-0.2-0.6-0.2-1s0.1-0.7,0.2-1c0.1-0.3,0.3-0.6,0.5-0.8c0.2-0.2,0.5-0.4,0.8-0.5s0.6-0.2,1-0.2
			c0.4,0,0.8,0.1,1.1,0.2s0.5,0.3,0.7,0.6c0.2,0.2,0.3,0.5,0.4,0.8s0.1,0.6,0.1,0.9v0.3H256.5z M259.3,343.3c0-0.2,0-0.4-0.1-0.5
			c-0.1-0.2-0.1-0.3-0.3-0.4c-0.1-0.1-0.3-0.2-0.4-0.3c-0.2-0.1-0.4-0.1-0.6-0.1c-0.2,0-0.4,0-0.6,0.1c-0.2,0.1-0.3,0.2-0.5,0.3
			c-0.1,0.1-0.2,0.3-0.3,0.4c-0.1,0.2-0.1,0.3-0.1,0.5H259.3z"/>
		<path class="st2" d="M261.4,341.3h0.9v0.7h0c0.1-0.1,0.1-0.2,0.2-0.3c0.1-0.1,0.2-0.2,0.3-0.3c0.1-0.1,0.3-0.1,0.4-0.2
			s0.3-0.1,0.4-0.1c0.1,0,0.3,0,0.4,0.1l0,1c-0.1,0-0.1,0-0.2,0s-0.1,0-0.2,0c-0.4,0-0.8,0.1-1,0.4c-0.2,0.2-0.4,0.6-0.4,1.2v2.4
			h-0.9V341.3z"/>
		<path class="st2" d="M265.1,341.8c0.3-0.2,0.5-0.4,0.9-0.5c0.3-0.1,0.7-0.2,1-0.2c0.3,0,0.6,0,0.9,0.1c0.2,0.1,0.5,0.2,0.6,0.3
			c0.2,0.1,0.3,0.3,0.4,0.5c0.1,0.2,0.1,0.4,0.1,0.6v2.4c0,0.2,0,0.3,0,0.5c0,0.1,0,0.3,0,0.4h-0.8c0-0.2,0-0.5,0-0.7h0
			c-0.2,0.3-0.4,0.5-0.7,0.7c-0.3,0.1-0.6,0.2-1,0.2c-0.2,0-0.4,0-0.6-0.1c-0.2-0.1-0.4-0.2-0.5-0.3c-0.2-0.1-0.3-0.3-0.4-0.4
			c-0.1-0.2-0.1-0.4-0.1-0.6c0-0.3,0.1-0.6,0.2-0.8c0.1-0.2,0.3-0.4,0.6-0.5c0.2-0.1,0.5-0.2,0.8-0.3s0.7-0.1,1-0.1h0.7v-0.2
			c0-0.1,0-0.2-0.1-0.4s-0.1-0.2-0.2-0.3c-0.1-0.1-0.2-0.2-0.4-0.2c-0.1-0.1-0.3-0.1-0.5-0.1c-0.2,0-0.3,0-0.5,0
			c-0.1,0-0.2,0.1-0.4,0.1s-0.2,0.1-0.3,0.2s-0.2,0.1-0.2,0.2L265.1,341.8z M267.6,343.7c-0.2,0-0.4,0-0.7,0s-0.4,0.1-0.6,0.1
			c-0.2,0.1-0.3,0.2-0.5,0.3c-0.1,0.1-0.2,0.3-0.2,0.5c0,0.3,0.1,0.5,0.3,0.6c0.2,0.1,0.4,0.2,0.7,0.2c0.2,0,0.5,0,0.6-0.1
			c0.2-0.1,0.3-0.2,0.4-0.3s0.2-0.3,0.2-0.4c0-0.2,0.1-0.3,0.1-0.5v-0.3H267.6z"/>
		<path class="st2" d="M274.9,339.1c-0.2,0.3-0.4,0.7-0.6,1s-0.3,0.6-0.4,1s-0.2,0.7-0.2,1c-0.1,0.3-0.1,0.7-0.1,1.1
			c0,0.7,0.1,1.4,0.3,2.1c0.2,0.7,0.5,1.3,1,1.9l-0.6,0.4c-0.5-0.6-0.8-1.3-1.1-2.1c-0.3-0.8-0.4-1.5-0.4-2.4c0-0.8,0.1-1.5,0.4-2.3
			c0.2-0.8,0.6-1.5,1.1-2.1L274.9,339.1z"/>
		<path class="st2" d="M276,338.9h2.5c0.3,0,0.6,0,0.9,0.1c0.3,0.1,0.5,0.2,0.7,0.3c0.2,0.1,0.3,0.3,0.5,0.6
			c0.1,0.2,0.2,0.5,0.2,0.8c0,0.4-0.1,0.7-0.3,1c-0.2,0.3-0.5,0.4-0.9,0.6v0c0.2,0,0.4,0.1,0.6,0.2c0.2,0.1,0.3,0.2,0.5,0.4
			c0.1,0.2,0.2,0.3,0.3,0.5s0.1,0.4,0.1,0.7c0,0.3-0.1,0.6-0.2,0.8c-0.1,0.2-0.3,0.4-0.5,0.6c-0.2,0.2-0.5,0.3-0.8,0.4
			c-0.3,0.1-0.6,0.1-1,0.1H276V338.9z M277,341.9h1.3c0.2,0,0.3,0,0.5-0.1c0.2,0,0.3-0.1,0.4-0.2c0.1-0.1,0.2-0.2,0.3-0.3
			c0.1-0.1,0.1-0.3,0.1-0.5c0-0.3-0.1-0.5-0.3-0.7c-0.2-0.2-0.5-0.3-0.9-0.3H277V341.9z M277,345.2h1.4c0.1,0,0.3,0,0.5,0
			c0.2,0,0.3-0.1,0.5-0.2s0.3-0.2,0.4-0.4c0.1-0.2,0.2-0.4,0.2-0.6c0-0.4-0.1-0.7-0.4-0.9c-0.3-0.2-0.6-0.3-1.1-0.3H277V345.2z"/>
		<path class="st2" d="M282.1,341.8c0.3-0.2,0.5-0.4,0.9-0.5c0.3-0.1,0.7-0.2,1-0.2c0.3,0,0.6,0,0.9,0.1c0.2,0.1,0.5,0.2,0.6,0.3
			c0.2,0.1,0.3,0.3,0.4,0.5c0.1,0.2,0.1,0.4,0.1,0.6v2.4c0,0.2,0,0.3,0,0.5c0,0.1,0,0.3,0,0.4h-0.8c0-0.2,0-0.5,0-0.7h0
			c-0.2,0.3-0.4,0.5-0.7,0.7c-0.3,0.1-0.6,0.2-1,0.2c-0.2,0-0.4,0-0.6-0.1c-0.2-0.1-0.4-0.2-0.5-0.3c-0.2-0.1-0.3-0.3-0.4-0.4
			c-0.1-0.2-0.1-0.4-0.1-0.6c0-0.3,0.1-0.6,0.2-0.8c0.1-0.2,0.3-0.4,0.6-0.5c0.2-0.1,0.5-0.2,0.8-0.3s0.7-0.1,1-0.1h0.7v-0.2
			c0-0.1,0-0.2-0.1-0.4s-0.1-0.2-0.2-0.3c-0.1-0.1-0.2-0.2-0.4-0.2c-0.1-0.1-0.3-0.1-0.5-0.1c-0.2,0-0.3,0-0.5,0
			c-0.1,0-0.2,0.1-0.4,0.1s-0.2,0.1-0.3,0.2s-0.2,0.1-0.2,0.2L282.1,341.8z M284.7,343.7c-0.2,0-0.4,0-0.7,0s-0.4,0.1-0.6,0.1
			c-0.2,0.1-0.3,0.2-0.5,0.3c-0.1,0.1-0.2,0.3-0.2,0.5c0,0.3,0.1,0.5,0.3,0.6c0.2,0.1,0.4,0.2,0.7,0.2c0.2,0,0.5,0,0.6-0.1
			c0.2-0.1,0.3-0.2,0.4-0.3s0.2-0.3,0.2-0.4c0-0.2,0.1-0.3,0.1-0.5v-0.3H284.7z"/>
		<path class="st2" d="M290.7,342.5c-0.2-0.2-0.3-0.3-0.5-0.4s-0.4-0.1-0.7-0.1c-0.2,0-0.5,0-0.6,0.1c-0.2,0.1-0.3,0.2-0.5,0.4
			c-0.1,0.2-0.2,0.3-0.3,0.5c-0.1,0.2-0.1,0.4-0.1,0.6s0,0.4,0.1,0.6s0.2,0.4,0.3,0.5c0.1,0.1,0.3,0.3,0.5,0.3
			c0.2,0.1,0.4,0.1,0.6,0.1c0.3,0,0.5,0,0.7-0.1s0.3-0.2,0.5-0.4l0.6,0.6c-0.2,0.3-0.5,0.4-0.8,0.6c-0.3,0.1-0.6,0.2-1,0.2
			c-0.4,0-0.7-0.1-1-0.2c-0.3-0.1-0.6-0.3-0.8-0.5s-0.4-0.5-0.5-0.8c-0.1-0.3-0.2-0.6-0.2-1c0-0.4,0.1-0.7,0.2-1s0.3-0.6,0.5-0.8
			c0.2-0.2,0.5-0.4,0.8-0.5c0.3-0.1,0.6-0.2,1-0.2c0.3,0,0.7,0.1,1,0.2s0.6,0.3,0.8,0.6L290.7,342.5z"/>
		<path class="st2" d="M294.7,342.1h-1.3v2.2c0,0.1,0,0.3,0,0.4s0,0.2,0.1,0.3c0,0.1,0.1,0.2,0.2,0.2c0.1,0.1,0.2,0.1,0.4,0.1
			c0.1,0,0.2,0,0.3,0s0.2-0.1,0.3-0.1v0.8c-0.1,0.1-0.2,0.1-0.4,0.1s-0.3,0-0.4,0c-0.3,0-0.6,0-0.8-0.1c-0.2-0.1-0.3-0.2-0.4-0.4
			c-0.1-0.2-0.1-0.3-0.2-0.5c0-0.2,0-0.4,0-0.6v-2.5h-1v-0.8h1v-1.3h0.9v1.3h1.3V342.1z"/>
		<path class="st2" d="M296.5,344c0,0.2,0,0.4,0.1,0.6s0.2,0.3,0.4,0.4c0.1,0.1,0.3,0.2,0.5,0.3c0.2,0.1,0.4,0.1,0.6,0.1
			c0.3,0,0.5-0.1,0.7-0.2c0.2-0.1,0.4-0.3,0.6-0.5l0.7,0.5c-0.5,0.6-1.2,1-2.1,1c-0.4,0-0.7-0.1-1-0.2c-0.3-0.1-0.6-0.3-0.8-0.5
			c-0.2-0.2-0.4-0.5-0.5-0.8s-0.2-0.6-0.2-1s0.1-0.7,0.2-1c0.1-0.3,0.3-0.6,0.5-0.8c0.2-0.2,0.5-0.4,0.8-0.5s0.6-0.2,1-0.2
			c0.4,0,0.8,0.1,1.1,0.2s0.5,0.3,0.7,0.6c0.2,0.2,0.3,0.5,0.4,0.8s0.1,0.6,0.1,0.9v0.3H296.5z M299.3,343.3c0-0.2,0-0.4-0.1-0.5
			c-0.1-0.2-0.1-0.3-0.3-0.4c-0.1-0.1-0.3-0.2-0.4-0.3c-0.2-0.1-0.4-0.1-0.6-0.1c-0.2,0-0.4,0-0.6,0.1c-0.2,0.1-0.3,0.2-0.5,0.3
			c-0.1,0.1-0.2,0.3-0.3,0.4c-0.1,0.2-0.1,0.3-0.1,0.5H299.3z"/>
		<path class="st2" d="M301.4,341.3h0.9v0.7h0c0.1-0.1,0.1-0.2,0.2-0.3s0.2-0.2,0.3-0.3c0.1-0.1,0.3-0.1,0.4-0.2
			c0.1,0,0.3-0.1,0.4-0.1s0.3,0,0.4,0.1l0,1c-0.1,0-0.1,0-0.2,0c-0.1,0-0.1,0-0.2,0c-0.4,0-0.8,0.1-1,0.4c-0.2,0.2-0.3,0.6-0.3,1.2
			v2.4h-0.9V341.3z"/>
		<path class="st2" d="M304.9,339.6c0-0.2,0.1-0.3,0.2-0.5c0.1-0.1,0.3-0.2,0.5-0.2s0.3,0.1,0.5,0.2c0.1,0.1,0.2,0.3,0.2,0.5
			c0,0.2-0.1,0.3-0.2,0.5c-0.1,0.1-0.3,0.2-0.5,0.2s-0.3-0.1-0.5-0.2C305,339.9,304.9,339.8,304.9,339.6z M305.2,341.3h0.9v4.7h-0.9
			V341.3z"/>
		<path class="st2" d="M307.5,341.8c0.3-0.2,0.5-0.4,0.9-0.5c0.3-0.1,0.7-0.2,1-0.2c0.3,0,0.6,0,0.9,0.1c0.2,0.1,0.5,0.2,0.6,0.3
			s0.3,0.3,0.4,0.5c0.1,0.2,0.1,0.4,0.1,0.6v2.4c0,0.2,0,0.3,0,0.5c0,0.1,0,0.3,0,0.4h-0.8c0-0.2,0-0.5,0-0.7h0
			c-0.2,0.3-0.4,0.5-0.7,0.7c-0.3,0.1-0.6,0.2-1,0.2c-0.2,0-0.4,0-0.6-0.1c-0.2-0.1-0.4-0.2-0.5-0.3c-0.1-0.1-0.3-0.3-0.4-0.4
			c-0.1-0.2-0.1-0.4-0.1-0.6c0-0.3,0.1-0.6,0.2-0.8c0.1-0.2,0.3-0.4,0.6-0.5c0.2-0.1,0.5-0.2,0.8-0.3s0.7-0.1,1-0.1h0.7v-0.2
			c0-0.1,0-0.2-0.1-0.4c0-0.1-0.1-0.2-0.2-0.3c-0.1-0.1-0.2-0.2-0.3-0.2c-0.1-0.1-0.3-0.1-0.5-0.1c-0.2,0-0.3,0-0.5,0
			s-0.2,0.1-0.4,0.1c-0.1,0-0.2,0.1-0.3,0.2c-0.1,0.1-0.2,0.1-0.2,0.2L307.5,341.8z M310,343.7c-0.2,0-0.4,0-0.7,0
			c-0.2,0-0.4,0.1-0.6,0.1s-0.3,0.2-0.5,0.3c-0.1,0.1-0.2,0.3-0.2,0.5c0,0.3,0.1,0.5,0.3,0.6c0.2,0.1,0.4,0.2,0.7,0.2
			c0.2,0,0.5,0,0.6-0.1c0.2-0.1,0.3-0.2,0.4-0.3s0.2-0.3,0.2-0.4c0-0.2,0.1-0.3,0.1-0.5v-0.3H310z"/>
		<path class="st2" d="M312.2,347.2c0.2-0.3,0.4-0.7,0.6-1c0.2-0.3,0.3-0.6,0.4-1s0.2-0.7,0.2-1c0.1-0.3,0.1-0.7,0.1-1.1
			c0-0.7-0.1-1.4-0.3-2.1c-0.2-0.7-0.5-1.3-1-1.9l0.6-0.4c0.5,0.6,0.8,1.3,1.1,2.1s0.4,1.5,0.4,2.4c0,0.8-0.1,1.5-0.4,2.3
			c-0.2,0.8-0.6,1.5-1.1,2.1L312.2,347.2z"/>
	</g>
	<g>
		<path class="st2" d="M237.7,358.1h0.9l3,7.1h-1.1l-0.7-1.8h-3.4l-0.7,1.8h-1.1L237.7,358.1z M239.4,362.6l-1.3-3.2h0l-1.3,3.2
			H239.4z"/>
		<path class="st2" d="M242.4,357.6h0.9v7.6h-0.9V357.6z"/>
		<path class="st2" d="M249.4,365.1c0,0.4-0.1,0.7-0.2,1s-0.3,0.6-0.5,0.8c-0.2,0.2-0.5,0.4-0.8,0.5c-0.3,0.1-0.7,0.2-1.1,0.2
			c-0.5,0-0.9-0.1-1.2-0.2c-0.4-0.1-0.7-0.3-1.1-0.7l0.6-0.8c0.2,0.3,0.5,0.4,0.8,0.6c0.3,0.1,0.6,0.2,0.9,0.2c0.3,0,0.6,0,0.8-0.1
			c0.2-0.1,0.4-0.2,0.5-0.4c0.1-0.2,0.2-0.3,0.3-0.5c0.1-0.2,0.1-0.4,0.1-0.6v-0.7h0c-0.2,0.3-0.4,0.5-0.7,0.6s-0.6,0.2-0.9,0.2
			c-0.3,0-0.7-0.1-1-0.2c-0.3-0.1-0.6-0.3-0.8-0.5c-0.2-0.2-0.4-0.5-0.5-0.8s-0.2-0.6-0.2-1c0-0.3,0.1-0.7,0.2-1s0.3-0.6,0.5-0.8
			c0.2-0.2,0.5-0.4,0.8-0.5c0.3-0.1,0.6-0.2,1-0.2c0.3,0,0.6,0.1,0.9,0.2c0.3,0.1,0.5,0.3,0.7,0.6h0v-0.7h0.9V365.1z M247,361.2
			c-0.2,0-0.5,0-0.7,0.1s-0.4,0.2-0.5,0.3c-0.1,0.1-0.2,0.3-0.3,0.5c-0.1,0.2-0.1,0.4-0.1,0.7c0,0.5,0.1,0.9,0.4,1.2
			c0.3,0.3,0.7,0.4,1.1,0.4c0.5,0,0.9-0.1,1.1-0.4c0.3-0.3,0.4-0.7,0.4-1.2c0-0.2,0-0.5-0.1-0.7c-0.1-0.2-0.2-0.4-0.3-0.5
			c-0.1-0.1-0.3-0.3-0.5-0.3S247.2,361.2,247,361.2z"/>
		<path class="st2" d="M250.8,361c0.3-0.2,0.5-0.4,0.9-0.5c0.3-0.1,0.7-0.2,1-0.2c0.3,0,0.6,0,0.9,0.1s0.5,0.2,0.6,0.4
			s0.3,0.3,0.4,0.5c0.1,0.2,0.1,0.4,0.1,0.6v2.4c0,0.2,0,0.3,0,0.5c0,0.1,0,0.3,0,0.4h-0.8c0-0.2,0-0.5,0-0.7h0
			c-0.2,0.3-0.4,0.5-0.7,0.7c-0.3,0.1-0.6,0.2-1,0.2c-0.2,0-0.4,0-0.6-0.1s-0.4-0.1-0.5-0.3c-0.1-0.1-0.3-0.3-0.4-0.4
			c-0.1-0.2-0.1-0.4-0.1-0.6c0-0.3,0.1-0.6,0.2-0.8s0.3-0.4,0.6-0.5c0.2-0.1,0.5-0.2,0.8-0.3s0.7-0.1,1-0.1h0.7V362
			c0-0.1,0-0.2-0.1-0.4c0-0.1-0.1-0.2-0.2-0.3c-0.1-0.1-0.2-0.2-0.3-0.2s-0.3-0.1-0.5-0.1c-0.2,0-0.3,0-0.5,0s-0.2,0.1-0.4,0.1
			c-0.1,0.1-0.2,0.1-0.3,0.2c-0.1,0.1-0.2,0.1-0.2,0.2L250.8,361z M253.4,362.9c-0.2,0-0.4,0-0.7,0c-0.2,0-0.4,0.1-0.6,0.1
			s-0.3,0.2-0.5,0.3c-0.1,0.1-0.2,0.3-0.2,0.5c0,0.3,0.1,0.5,0.3,0.6c0.2,0.1,0.4,0.2,0.7,0.2c0.2,0,0.5,0,0.6-0.1
			c0.2-0.1,0.3-0.2,0.4-0.3c0.1-0.1,0.2-0.3,0.2-0.4c0-0.2,0.1-0.3,0.1-0.5v-0.3H253.4z"/>
		<path class="st2" d="M256.7,363.1c0,0.2,0,0.4,0.1,0.6s0.2,0.3,0.4,0.4c0.1,0.1,0.3,0.2,0.5,0.3s0.4,0.1,0.6,0.1
			c0.3,0,0.5-0.1,0.7-0.2c0.2-0.1,0.4-0.3,0.6-0.5l0.7,0.5c-0.5,0.6-1.2,1-2.1,1c-0.4,0-0.7-0.1-1-0.2c-0.3-0.1-0.6-0.3-0.8-0.5
			s-0.4-0.5-0.5-0.8c-0.1-0.3-0.2-0.6-0.2-1s0.1-0.7,0.2-1c0.1-0.3,0.3-0.6,0.5-0.8c0.2-0.2,0.5-0.4,0.8-0.5c0.3-0.1,0.6-0.2,1-0.2
			c0.4,0,0.8,0.1,1.1,0.2c0.3,0.1,0.5,0.3,0.7,0.6s0.3,0.5,0.4,0.8c0.1,0.3,0.1,0.6,0.1,0.9v0.3H256.7z M259.5,362.4
			c0-0.2,0-0.4-0.1-0.5s-0.1-0.3-0.3-0.4c-0.1-0.1-0.3-0.2-0.4-0.3c-0.2-0.1-0.4-0.1-0.6-0.1c-0.2,0-0.4,0-0.6,0.1
			c-0.2,0.1-0.3,0.2-0.5,0.3c-0.1,0.1-0.2,0.3-0.3,0.4c-0.1,0.2-0.1,0.3-0.1,0.5H259.5z"/>
	</g>
	<g>
		<path class="st2" d="M235.5,377.3h2.5c0.5,0,0.8,0.1,1.1,0.2c0.3,0.1,0.5,0.3,0.7,0.5c0.2,0.2,0.3,0.4,0.4,0.6
			c0.1,0.2,0.1,0.5,0.1,0.7s0,0.4-0.1,0.7c-0.1,0.2-0.2,0.5-0.4,0.6s-0.4,0.3-0.7,0.5c-0.3,0.1-0.7,0.2-1.1,0.2h-1.5v3.1h-1V377.3z
			 M236.4,380.4h1.3c0.2,0,0.4,0,0.6,0c0.2,0,0.3-0.1,0.5-0.2s0.3-0.2,0.3-0.3s0.1-0.3,0.1-0.6c0-0.2,0-0.4-0.1-0.6
			s-0.2-0.3-0.3-0.3c-0.1-0.1-0.3-0.1-0.5-0.2c-0.2,0-0.4,0-0.6,0h-1.3V380.4z"/>
		<path class="st2" d="M241.2,379.6h0.9v0.7h0c0.1-0.1,0.1-0.2,0.2-0.3s0.2-0.2,0.3-0.3c0.1-0.1,0.3-0.1,0.4-0.2
			c0.1,0,0.3-0.1,0.4-0.1s0.3,0,0.4,0.1l0,1c-0.1,0-0.1,0-0.2-0.1c-0.1,0-0.1,0-0.2,0c-0.4,0-0.8,0.1-1,0.4s-0.3,0.6-0.3,1.1v2.4
			h-0.9V379.6z"/>
		<path class="st2" d="M244.5,382c0-0.3,0.1-0.7,0.2-1c0.1-0.3,0.3-0.6,0.5-0.8c0.2-0.2,0.5-0.4,0.8-0.5c0.3-0.1,0.6-0.2,1-0.2
			c0.4,0,0.7,0.1,1,0.2c0.3,0.1,0.6,0.3,0.8,0.5s0.4,0.5,0.5,0.8c0.1,0.3,0.2,0.6,0.2,1c0,0.3-0.1,0.7-0.2,1s-0.3,0.6-0.5,0.8
			c-0.2,0.2-0.5,0.4-0.8,0.5c-0.3,0.1-0.6,0.2-1,0.2c-0.4,0-0.7-0.1-1-0.2c-0.3-0.1-0.6-0.3-0.8-0.5c-0.2-0.2-0.4-0.5-0.5-0.8
			S244.5,382.3,244.5,382z M245.4,382c0,0.2,0,0.5,0.1,0.7s0.2,0.4,0.3,0.5c0.1,0.1,0.3,0.3,0.5,0.3c0.2,0.1,0.4,0.1,0.7,0.1
			c0.2,0,0.5,0,0.6-0.1c0.2-0.1,0.4-0.2,0.5-0.3c0.1-0.1,0.2-0.3,0.3-0.5s0.1-0.4,0.1-0.7c0-0.2,0-0.5-0.1-0.7s-0.2-0.4-0.3-0.5
			c-0.1-0.1-0.3-0.3-0.5-0.3s-0.4-0.1-0.6-0.1c-0.2,0-0.5,0-0.7,0.1s-0.4,0.2-0.5,0.3c-0.1,0.1-0.2,0.3-0.3,0.5
			S245.4,381.8,245.4,382z"/>
		<path class="st2" d="M253.2,380.4h-1.3v2.2c0,0.1,0,0.3,0,0.4c0,0.1,0,0.2,0.1,0.4s0.1,0.2,0.2,0.2s0.2,0.1,0.4,0.1
			c0.1,0,0.2,0,0.3,0c0.1,0,0.2-0.1,0.3-0.1v0.8c-0.1,0.1-0.2,0.1-0.4,0.1s-0.3,0-0.4,0c-0.3,0-0.6,0-0.8-0.1s-0.3-0.2-0.4-0.4
			s-0.1-0.3-0.2-0.5c0-0.2,0-0.4,0-0.6v-2.5h-1v-0.8h1v-1.3h0.9v1.3h1.3V380.4z"/>
		<path class="st2" d="M254.1,382c0-0.3,0.1-0.7,0.2-1c0.1-0.3,0.3-0.6,0.5-0.8s0.5-0.4,0.8-0.5c0.3-0.1,0.6-0.2,1-0.2
			s0.7,0.1,1,0.2c0.3,0.1,0.6,0.3,0.8,0.5s0.4,0.5,0.5,0.8c0.1,0.3,0.2,0.6,0.2,1c0,0.3-0.1,0.7-0.2,1s-0.3,0.6-0.5,0.8
			c-0.2,0.2-0.5,0.4-0.8,0.5c-0.3,0.1-0.6,0.2-1,0.2s-0.7-0.1-1-0.2c-0.3-0.1-0.6-0.3-0.8-0.5c-0.2-0.2-0.4-0.5-0.5-0.8
			S254.1,382.3,254.1,382z M255.1,382c0,0.2,0,0.5,0.1,0.7s0.2,0.4,0.3,0.5c0.1,0.1,0.3,0.3,0.5,0.3c0.2,0.1,0.4,0.1,0.7,0.1
			s0.5,0,0.7-0.1c0.2-0.1,0.4-0.2,0.5-0.3c0.1-0.1,0.2-0.3,0.3-0.5s0.1-0.4,0.1-0.7c0-0.2,0-0.5-0.1-0.7s-0.2-0.4-0.3-0.5
			c-0.1-0.1-0.3-0.3-0.5-0.3s-0.4-0.1-0.7-0.1s-0.5,0-0.7,0.1s-0.4,0.2-0.5,0.3c-0.1,0.1-0.2,0.3-0.3,0.5S255.1,381.8,255.1,382z"/>
		<path class="st2" d="M259.9,383.6l2.7-3.2H260v-0.8h3.7v0.8l-2.7,3.2h2.8v0.8h-3.9V383.6z"/>
		<path class="st2" d="M264.7,382c0-0.3,0.1-0.7,0.2-1c0.1-0.3,0.3-0.6,0.5-0.8c0.2-0.2,0.5-0.4,0.8-0.5c0.3-0.1,0.6-0.2,1-0.2
			c0.4,0,0.7,0.1,1,0.2c0.3,0.1,0.6,0.3,0.8,0.5s0.4,0.5,0.5,0.8c0.1,0.3,0.2,0.6,0.2,1c0,0.3-0.1,0.7-0.2,1s-0.3,0.6-0.5,0.8
			c-0.2,0.2-0.5,0.4-0.8,0.5c-0.3,0.1-0.6,0.2-1,0.2c-0.4,0-0.7-0.1-1-0.2c-0.3-0.1-0.6-0.3-0.8-0.5c-0.2-0.2-0.4-0.5-0.5-0.8
			S264.7,382.3,264.7,382z M265.6,382c0,0.2,0,0.5,0.1,0.7s0.2,0.4,0.3,0.5c0.1,0.1,0.3,0.3,0.5,0.3c0.2,0.1,0.4,0.1,0.7,0.1
			c0.2,0,0.5,0,0.6-0.1c0.2-0.1,0.4-0.2,0.5-0.3c0.1-0.1,0.2-0.3,0.3-0.5s0.1-0.4,0.1-0.7c0-0.2,0-0.5-0.1-0.7s-0.2-0.4-0.3-0.5
			c-0.1-0.1-0.3-0.3-0.5-0.3s-0.4-0.1-0.6-0.1c-0.2,0-0.5,0-0.7,0.1s-0.4,0.2-0.5,0.3c-0.1,0.1-0.2,0.3-0.3,0.5
			S265.6,381.8,265.6,382z"/>
		<path class="st2" d="M271.5,382.3c0,0.2,0,0.4,0.1,0.6c0.1,0.2,0.2,0.3,0.4,0.4c0.1,0.1,0.3,0.2,0.5,0.3c0.2,0.1,0.4,0.1,0.6,0.1
			c0.3,0,0.5-0.1,0.7-0.2c0.2-0.1,0.4-0.3,0.6-0.5l0.7,0.5c-0.5,0.6-1.2,1-2.1,1c-0.4,0-0.7-0.1-1-0.2c-0.3-0.1-0.6-0.3-0.8-0.5
			c-0.2-0.2-0.4-0.5-0.5-0.8c-0.1-0.3-0.2-0.6-0.2-1c0-0.4,0.1-0.7,0.2-1c0.1-0.3,0.3-0.6,0.5-0.8s0.5-0.4,0.8-0.5
			c0.3-0.1,0.6-0.2,1-0.2c0.4,0,0.8,0.1,1.1,0.2s0.5,0.3,0.7,0.6s0.3,0.5,0.4,0.8c0.1,0.3,0.1,0.6,0.1,0.9v0.3H271.5z M274.4,381.6
			c0-0.2,0-0.4-0.1-0.6c-0.1-0.2-0.1-0.3-0.3-0.4c-0.1-0.1-0.3-0.2-0.4-0.3s-0.4-0.1-0.6-0.1c-0.2,0-0.4,0-0.6,0.1
			c-0.2,0.1-0.3,0.2-0.5,0.3s-0.2,0.3-0.3,0.4c-0.1,0.2-0.1,0.3-0.1,0.5H274.4z"/>
		<path class="st2" d="M276.4,380.2c0.3-0.2,0.5-0.4,0.9-0.5s0.7-0.2,1-0.2c0.3,0,0.6,0,0.9,0.1c0.2,0.1,0.5,0.2,0.6,0.3
			c0.2,0.1,0.3,0.3,0.4,0.5c0.1,0.2,0.1,0.4,0.1,0.6v2.4c0,0.2,0,0.3,0,0.5s0,0.3,0,0.4h-0.8c0-0.2,0-0.5,0-0.7h0
			c-0.2,0.3-0.4,0.5-0.7,0.7s-0.6,0.2-1,0.2c-0.2,0-0.4,0-0.6-0.1c-0.2-0.1-0.4-0.2-0.5-0.3c-0.2-0.1-0.3-0.3-0.4-0.4
			c-0.1-0.2-0.1-0.4-0.1-0.6c0-0.3,0.1-0.6,0.2-0.8s0.3-0.4,0.6-0.5c0.2-0.1,0.5-0.2,0.8-0.3s0.7-0.1,1-0.1h0.7v-0.2
			c0-0.1,0-0.2-0.1-0.4c0-0.1-0.1-0.2-0.2-0.3c-0.1-0.1-0.2-0.2-0.4-0.2c-0.1-0.1-0.3-0.1-0.5-0.1c-0.2,0-0.3,0-0.5,0.1
			c-0.1,0-0.2,0.1-0.4,0.1c-0.1,0-0.2,0.1-0.3,0.2c-0.1,0.1-0.2,0.1-0.2,0.2L276.4,380.2z M279,382.1c-0.2,0-0.4,0-0.7,0
			c-0.2,0-0.4,0.1-0.6,0.1c-0.2,0.1-0.3,0.2-0.5,0.3c-0.1,0.1-0.2,0.3-0.2,0.5c0,0.3,0.1,0.5,0.3,0.6s0.4,0.2,0.7,0.2
			c0.2,0,0.5,0,0.6-0.1c0.2-0.1,0.3-0.2,0.4-0.3c0.1-0.1,0.2-0.3,0.2-0.4c0-0.2,0.1-0.3,0.1-0.5v-0.3H279z"/>
	</g>
	<g>
		<path class="st2" d="M235.5,397.3h4.4v0.9h-3.5v2.2h3.2v0.9h-3.2v3.1h-1V397.3z"/>
		<path class="st2" d="M245.2,404.3h-0.9v-0.7h0c-0.1,0.3-0.3,0.5-0.6,0.6c-0.3,0.2-0.6,0.2-1,0.2c-0.2,0-0.5,0-0.7-0.1
			s-0.4-0.2-0.5-0.3c-0.2-0.1-0.3-0.3-0.4-0.6c-0.1-0.2-0.1-0.5-0.1-0.8v-3h0.9v2.8c0,0.2,0,0.4,0.1,0.6c0.1,0.2,0.1,0.3,0.2,0.4
			s0.2,0.2,0.3,0.2c0.1,0,0.3,0.1,0.4,0.1c0.2,0,0.4,0,0.5-0.1c0.2-0.1,0.3-0.2,0.4-0.3c0.1-0.1,0.2-0.3,0.3-0.5
			c0.1-0.2,0.1-0.4,0.1-0.7v-2.4h0.9V404.3z"/>
		<path class="st2" d="M246.5,399.6h0.9v0.7h0c0.1-0.3,0.3-0.5,0.6-0.6c0.3-0.2,0.6-0.2,1-0.2c0.2,0,0.4,0,0.7,0.1s0.4,0.2,0.6,0.3
			c0.2,0.1,0.3,0.3,0.4,0.6c0.1,0.2,0.1,0.5,0.1,0.8v3h-0.9v-2.8c0-0.2,0-0.4-0.1-0.6c-0.1-0.2-0.1-0.3-0.2-0.4
			c-0.1-0.1-0.2-0.2-0.3-0.2c-0.1,0-0.3-0.1-0.4-0.1c-0.2,0-0.4,0-0.5,0.1c-0.2,0.1-0.3,0.2-0.4,0.3c-0.1,0.1-0.2,0.3-0.3,0.5
			c-0.1,0.2-0.1,0.4-0.1,0.7v2.4h-0.9V399.6z"/>
		<path class="st2" d="M256.9,404.3c0,0.4-0.1,0.7-0.2,1c-0.1,0.3-0.3,0.6-0.5,0.8c-0.2,0.2-0.5,0.4-0.8,0.5
			c-0.3,0.1-0.7,0.2-1.1,0.2c-0.5,0-0.9-0.1-1.2-0.2c-0.4-0.1-0.7-0.3-1.1-0.7l0.6-0.8c0.2,0.3,0.5,0.4,0.8,0.6
			c0.3,0.1,0.6,0.2,0.9,0.2c0.3,0,0.6,0,0.8-0.1s0.4-0.2,0.5-0.4c0.1-0.2,0.2-0.3,0.3-0.5c0.1-0.2,0.1-0.4,0.1-0.6v-0.7h0
			c-0.2,0.3-0.4,0.5-0.7,0.6s-0.6,0.2-0.9,0.2c-0.3,0-0.7-0.1-1-0.2c-0.3-0.1-0.6-0.3-0.8-0.5c-0.2-0.2-0.4-0.5-0.5-0.8
			s-0.2-0.6-0.2-1s0.1-0.7,0.2-1c0.1-0.3,0.3-0.6,0.5-0.8s0.5-0.4,0.8-0.5s0.6-0.2,1-0.2c0.3,0,0.6,0.1,0.9,0.2
			c0.3,0.1,0.5,0.3,0.7,0.6h0v-0.7h0.9V404.3z M254.4,400.3c-0.2,0-0.5,0-0.7,0.1c-0.2,0.1-0.4,0.2-0.5,0.3
			c-0.1,0.1-0.2,0.3-0.3,0.5c-0.1,0.2-0.1,0.4-0.1,0.7c0,0.5,0.1,0.9,0.4,1.2s0.7,0.4,1.1,0.4c0.5,0,0.9-0.1,1.1-0.4
			s0.4-0.7,0.4-1.2c0-0.2,0-0.5-0.1-0.7c-0.1-0.2-0.2-0.4-0.3-0.5c-0.1-0.1-0.3-0.3-0.5-0.3C254.9,400.4,254.6,400.3,254.4,400.3z"
			/>
		<path class="st2" d="M258.1,397.9c0-0.2,0.1-0.3,0.2-0.5c0.1-0.1,0.3-0.2,0.5-0.2c0.2,0,0.3,0.1,0.5,0.2c0.1,0.1,0.2,0.3,0.2,0.5
			c0,0.2-0.1,0.3-0.2,0.5c-0.1,0.1-0.3,0.2-0.5,0.2c-0.2,0-0.3-0.1-0.5-0.2C258.1,398.2,258.1,398.1,258.1,397.9z M258.3,399.6h0.9
			v4.7h-0.9V399.6z"/>
	</g>
	<g>
		<path class="st2" d="M235.5,417.5h1v2.9h3.7v-2.9h1v7.1h-1v-3.2h-3.7v3.2h-1V417.5z"/>
		<path class="st2" d="M242.5,418.1c0-0.2,0.1-0.3,0.2-0.5c0.1-0.1,0.3-0.2,0.5-0.2c0.2,0,0.3,0.1,0.5,0.2c0.1,0.1,0.2,0.3,0.2,0.5
			c0,0.2-0.1,0.3-0.2,0.5c-0.1,0.1-0.3,0.2-0.5,0.2c-0.2,0-0.3-0.1-0.5-0.2C242.6,418.5,242.5,418.3,242.5,418.1z M242.7,419.8h0.9
			v4.7h-0.9V419.8z"/>
		<path class="st2" d="M249.8,424.5c0,0.4-0.1,0.7-0.2,1s-0.3,0.6-0.5,0.8c-0.2,0.2-0.5,0.4-0.8,0.5c-0.3,0.1-0.7,0.2-1.1,0.2
			c-0.5,0-0.9-0.1-1.2-0.2c-0.4-0.1-0.7-0.3-1.1-0.7l0.6-0.8c0.2,0.3,0.5,0.4,0.8,0.6c0.3,0.1,0.6,0.2,0.9,0.2c0.3,0,0.6,0,0.8-0.1
			s0.4-0.2,0.5-0.4c0.1-0.2,0.2-0.3,0.3-0.5c0.1-0.2,0.1-0.4,0.1-0.6v-0.7h0c-0.2,0.3-0.4,0.5-0.7,0.6s-0.6,0.2-0.9,0.2
			c-0.3,0-0.7-0.1-1-0.2c-0.3-0.1-0.6-0.3-0.8-0.5c-0.2-0.2-0.4-0.5-0.5-0.8c-0.1-0.3-0.2-0.6-0.2-1s0.1-0.7,0.2-1
			c0.1-0.3,0.3-0.6,0.5-0.8c0.2-0.2,0.5-0.4,0.8-0.5s0.6-0.2,1-0.2c0.3,0,0.6,0.1,0.9,0.2c0.3,0.1,0.5,0.3,0.7,0.6h0v-0.7h0.9V424.5
			z M247.3,420.6c-0.2,0-0.5,0-0.7,0.1c-0.2,0.1-0.4,0.2-0.5,0.3c-0.1,0.1-0.2,0.3-0.3,0.5s-0.1,0.4-0.1,0.7c0,0.5,0.1,0.9,0.4,1.2
			s0.7,0.4,1.1,0.4c0.5,0,0.9-0.1,1.1-0.4s0.4-0.7,0.4-1.2c0-0.2,0-0.5-0.1-0.7s-0.2-0.4-0.3-0.5c-0.1-0.1-0.3-0.3-0.5-0.3
			C247.8,420.6,247.6,420.6,247.3,420.6z"/>
		<path class="st2" d="M251.2,417h0.9v3.6h0c0.1-0.3,0.3-0.5,0.6-0.6c0.3-0.2,0.6-0.2,1-0.2c0.2,0,0.4,0,0.7,0.1
			c0.2,0.1,0.4,0.2,0.6,0.3c0.2,0.1,0.3,0.3,0.4,0.6c0.1,0.2,0.1,0.5,0.1,0.8v3h-0.9v-2.8c0-0.2,0-0.4-0.1-0.6
			c-0.1-0.2-0.1-0.3-0.2-0.4c-0.1-0.1-0.2-0.2-0.3-0.2s-0.3-0.1-0.4-0.1c-0.2,0-0.4,0-0.5,0.1c-0.2,0.1-0.3,0.2-0.4,0.3
			c-0.1,0.1-0.2,0.3-0.3,0.5c-0.1,0.2-0.1,0.4-0.1,0.7v2.4h-0.9V417z"/>
		<path class="st2" d="M257.4,422.5c0,0.2,0,0.4,0.1,0.6s0.2,0.3,0.4,0.4c0.1,0.1,0.3,0.2,0.5,0.3s0.4,0.1,0.6,0.1
			c0.3,0,0.5-0.1,0.7-0.2c0.2-0.1,0.4-0.3,0.6-0.5l0.7,0.5c-0.5,0.6-1.2,1-2.1,1c-0.4,0-0.7-0.1-1-0.2s-0.6-0.3-0.8-0.5
			c-0.2-0.2-0.4-0.5-0.5-0.8c-0.1-0.3-0.2-0.6-0.2-1c0-0.4,0.1-0.7,0.2-1c0.1-0.3,0.3-0.6,0.5-0.8c0.2-0.2,0.5-0.4,0.8-0.5
			s0.6-0.2,1-0.2c0.4,0,0.8,0.1,1.1,0.2c0.3,0.1,0.5,0.3,0.7,0.6c0.2,0.2,0.3,0.5,0.4,0.8c0.1,0.3,0.1,0.6,0.1,0.9v0.3H257.4z
			 M260.2,421.8c0-0.2,0-0.4-0.1-0.6c-0.1-0.2-0.1-0.3-0.3-0.4c-0.1-0.1-0.3-0.2-0.4-0.3c-0.2-0.1-0.4-0.1-0.6-0.1
			c-0.2,0-0.4,0-0.6,0.1c-0.2,0.1-0.3,0.2-0.5,0.3c-0.1,0.1-0.2,0.3-0.3,0.4c-0.1,0.2-0.1,0.3-0.1,0.5H260.2z"/>
		<path class="st2" d="M262.3,419.8h0.9v0.7h0c0.1-0.1,0.1-0.2,0.2-0.3c0.1-0.1,0.2-0.2,0.3-0.3c0.1-0.1,0.3-0.1,0.4-0.2
			s0.3-0.1,0.4-0.1c0.1,0,0.3,0,0.4,0.1l0,1c-0.1,0-0.1,0-0.2,0s-0.1,0-0.2,0c-0.4,0-0.8,0.1-1,0.4c-0.2,0.2-0.4,0.6-0.4,1.1v2.4
			h-0.9V419.8z"/>
		<path class="st2" d="M269,417.5h2.5c0.5,0,0.8,0.1,1.1,0.2c0.3,0.1,0.5,0.3,0.7,0.5s0.3,0.4,0.4,0.6c0.1,0.2,0.1,0.5,0.1,0.7
			c0,0.2,0,0.4-0.1,0.7c-0.1,0.2-0.2,0.5-0.4,0.6c-0.2,0.2-0.4,0.3-0.7,0.5c-0.3,0.1-0.7,0.2-1.1,0.2H270v3.1h-1V417.5z M270,420.6
			h1.3c0.2,0,0.4,0,0.6,0s0.3-0.1,0.5-0.2s0.3-0.2,0.3-0.3c0.1-0.1,0.1-0.3,0.1-0.6s0-0.4-0.1-0.6c-0.1-0.1-0.2-0.3-0.3-0.3
			c-0.1-0.1-0.3-0.1-0.5-0.2c-0.2,0-0.4,0-0.6,0H270V420.6z"/>
		<path class="st2" d="M274.8,417h0.9v7.6h-0.9V417z"/>
		<path class="st2" d="M277.1,420.4c0.3-0.2,0.5-0.4,0.9-0.5c0.3-0.1,0.7-0.2,1-0.2c0.3,0,0.6,0,0.9,0.1c0.2,0.1,0.5,0.2,0.6,0.4
			s0.3,0.3,0.4,0.5c0.1,0.2,0.1,0.4,0.1,0.6v2.4c0,0.2,0,0.3,0,0.5c0,0.1,0,0.3,0,0.4h-0.8c0-0.2,0-0.5,0-0.7h0
			c-0.2,0.3-0.4,0.5-0.7,0.7s-0.6,0.2-1,0.2c-0.2,0-0.4,0-0.6-0.1c-0.2-0.1-0.4-0.1-0.5-0.3c-0.1-0.1-0.3-0.3-0.4-0.4
			c-0.1-0.2-0.1-0.4-0.1-0.6c0-0.3,0.1-0.6,0.2-0.8c0.1-0.2,0.3-0.4,0.6-0.5s0.5-0.2,0.8-0.3s0.7-0.1,1-0.1h0.7v-0.2
			c0-0.1,0-0.2-0.1-0.4c0-0.1-0.1-0.2-0.2-0.3c-0.1-0.1-0.2-0.2-0.3-0.2s-0.3-0.1-0.5-0.1c-0.2,0-0.3,0-0.5,0.1s-0.2,0.1-0.4,0.1
			c-0.1,0-0.2,0.1-0.3,0.2c-0.1,0.1-0.2,0.1-0.2,0.2L277.1,420.4z M279.7,422.3c-0.2,0-0.4,0-0.7,0c-0.2,0-0.4,0.1-0.6,0.1
			c-0.2,0.1-0.3,0.2-0.5,0.3c-0.1,0.1-0.2,0.3-0.2,0.5c0,0.3,0.1,0.5,0.3,0.6c0.2,0.1,0.4,0.2,0.7,0.2c0.2,0,0.5,0,0.6-0.1
			c0.2-0.1,0.3-0.2,0.4-0.3s0.2-0.3,0.2-0.4c0-0.2,0.1-0.3,0.1-0.5v-0.3H279.7z"/>
		<path class="st2" d="M282.3,419.8h0.9v0.7h0c0.1-0.3,0.3-0.5,0.6-0.6s0.6-0.2,1-0.2c0.2,0,0.4,0,0.7,0.1c0.2,0.1,0.4,0.2,0.5,0.3
			s0.3,0.3,0.4,0.6s0.1,0.5,0.1,0.8v3h-0.9v-2.8c0-0.2,0-0.4-0.1-0.6c-0.1-0.2-0.1-0.3-0.2-0.4c-0.1-0.1-0.2-0.2-0.3-0.2
			c-0.1,0-0.3-0.1-0.4-0.1c-0.2,0-0.4,0-0.5,0.1c-0.2,0.1-0.3,0.2-0.4,0.3c-0.1,0.1-0.2,0.3-0.3,0.5c-0.1,0.2-0.1,0.4-0.1,0.7v2.4
			h-0.9V419.8z"/>
		<path class="st2" d="M290.4,420.6h-1.3v2.1c0,0.1,0,0.3,0,0.4s0,0.2,0.1,0.4s0.1,0.2,0.2,0.2c0.1,0.1,0.2,0.1,0.4,0.1
			c0.1,0,0.2,0,0.3,0s0.2-0.1,0.3-0.1v0.8c-0.1,0.1-0.2,0.1-0.4,0.1s-0.3,0-0.4,0c-0.3,0-0.6,0-0.8-0.1c-0.2-0.1-0.3-0.2-0.4-0.4
			c-0.1-0.2-0.1-0.3-0.2-0.5s0-0.4,0-0.6v-2.5h-1v-0.8h1v-1.3h0.9v1.3h1.3V420.6z"/>
		<path class="st2" d="M294.1,421c-0.1-0.1-0.2-0.2-0.4-0.3c-0.2-0.1-0.3-0.1-0.6-0.1c-0.2,0-0.4,0-0.6,0.1
			c-0.2,0.1-0.2,0.2-0.2,0.4c0,0.1,0,0.3,0.1,0.3c0.1,0.1,0.2,0.2,0.3,0.2c0.1,0.1,0.3,0.1,0.4,0.1c0.1,0,0.3,0.1,0.4,0.1
			c0.2,0,0.4,0.1,0.5,0.2s0.3,0.2,0.4,0.3c0.1,0.1,0.2,0.2,0.3,0.4c0.1,0.2,0.1,0.3,0.1,0.6c0,0.3-0.1,0.5-0.2,0.7
			c-0.1,0.2-0.3,0.3-0.4,0.5c-0.2,0.1-0.4,0.2-0.6,0.3c-0.2,0.1-0.5,0.1-0.7,0.1c-0.4,0-0.7-0.1-1-0.2c-0.3-0.1-0.6-0.3-0.8-0.7
			l0.7-0.6c0.1,0.1,0.3,0.3,0.5,0.4c0.2,0.1,0.4,0.2,0.7,0.2c0.1,0,0.2,0,0.3,0c0.1,0,0.2-0.1,0.3-0.1c0.1,0,0.2-0.1,0.2-0.2
			s0.1-0.2,0.1-0.3c0-0.1,0-0.2-0.1-0.3c-0.1-0.1-0.2-0.2-0.3-0.2c-0.1,0-0.2-0.1-0.4-0.1c-0.1,0-0.2-0.1-0.3-0.1
			c-0.2,0-0.4-0.1-0.6-0.2c-0.2-0.1-0.3-0.1-0.5-0.2c-0.1-0.1-0.2-0.2-0.3-0.4s-0.1-0.3-0.1-0.6c0-0.2,0.1-0.5,0.2-0.6
			c0.1-0.2,0.2-0.3,0.4-0.5s0.4-0.2,0.6-0.3c0.2-0.1,0.4-0.1,0.7-0.1c0.3,0,0.6,0.1,0.9,0.2c0.3,0.1,0.5,0.3,0.7,0.6L294.1,421z"/>
	</g>
	<g>
		<path class="st2" d="M238.7,444.9c-0.5,0-1-0.1-1.5-0.3s-0.8-0.5-1.2-0.8c-0.3-0.3-0.6-0.7-0.8-1.2c-0.2-0.5-0.3-0.9-0.3-1.5
			c0-0.5,0.1-1,0.3-1.5c0.2-0.5,0.4-0.8,0.8-1.2s0.7-0.6,1.2-0.8s1-0.3,1.5-0.3s1,0.1,1.5,0.3c0.5,0.2,0.8,0.5,1.2,0.8
			s0.6,0.7,0.8,1.2c0.2,0.5,0.3,0.9,0.3,1.5c0,0.5-0.1,1-0.3,1.5c-0.2,0.5-0.4,0.8-0.8,1.2c-0.3,0.3-0.7,0.6-1.2,0.8
			C239.8,444.8,239.3,444.9,238.7,444.9z M238.7,444c0.4,0,0.8-0.1,1.1-0.2c0.3-0.2,0.6-0.4,0.8-0.6c0.2-0.3,0.4-0.6,0.5-0.9
			s0.2-0.7,0.2-1.1s-0.1-0.8-0.2-1.1c-0.1-0.3-0.3-0.6-0.5-0.9s-0.5-0.5-0.8-0.6c-0.3-0.2-0.7-0.2-1.1-0.2c-0.4,0-0.8,0.1-1.1,0.2
			c-0.3,0.1-0.6,0.4-0.8,0.6s-0.4,0.6-0.5,0.9c-0.1,0.3-0.2,0.7-0.2,1.1s0.1,0.8,0.2,1.1s0.3,0.6,0.5,0.9c0.2,0.3,0.5,0.5,0.8,0.6
			C238,443.9,238.3,444,238.7,444z"/>
		<path class="st2" d="M246.1,440.7h-1.3v2.2c0,0.1,0,0.3,0,0.4c0,0.1,0,0.2,0.1,0.4c0,0.1,0.1,0.2,0.2,0.2c0.1,0.1,0.2,0.1,0.4,0.1
			c0.1,0,0.2,0,0.3,0c0.1,0,0.2-0.1,0.3-0.1v0.8c-0.1,0.1-0.2,0.1-0.4,0.1s-0.3,0-0.4,0c-0.3,0-0.6,0-0.8-0.1
			c-0.2-0.1-0.3-0.2-0.4-0.4c-0.1-0.2-0.1-0.3-0.2-0.5c0-0.2,0-0.4,0-0.6v-2.5h-1V440h1v-1.3h0.9v1.3h1.3V440.7z"/>
		<path class="st2" d="M247.3,437.1h0.9v3.6h0c0.1-0.3,0.3-0.5,0.6-0.6c0.3-0.2,0.6-0.2,1-0.2c0.2,0,0.4,0,0.7,0.1s0.4,0.2,0.5,0.3
			c0.2,0.1,0.3,0.3,0.4,0.6s0.1,0.5,0.1,0.8v3.1h-0.9v-2.8c0-0.2,0-0.4-0.1-0.6c-0.1-0.2-0.1-0.3-0.2-0.4c-0.1-0.1-0.2-0.2-0.3-0.2
			c-0.1,0-0.3-0.1-0.4-0.1c-0.2,0-0.4,0-0.5,0.1c-0.2,0.1-0.3,0.2-0.4,0.3s-0.2,0.3-0.3,0.5c-0.1,0.2-0.1,0.4-0.1,0.7v2.4h-0.9
			V437.1z"/>
		<path class="st2" d="M253.5,442.7c0,0.2,0,0.4,0.1,0.6s0.2,0.3,0.4,0.4c0.1,0.1,0.3,0.2,0.5,0.3c0.2,0.1,0.4,0.1,0.6,0.1
			c0.3,0,0.5-0.1,0.7-0.2c0.2-0.1,0.4-0.3,0.6-0.5l0.7,0.5c-0.5,0.6-1.2,1-2.1,1c-0.4,0-0.7-0.1-1-0.2s-0.6-0.3-0.8-0.5
			c-0.2-0.2-0.4-0.5-0.5-0.8c-0.1-0.3-0.2-0.6-0.2-1c0-0.4,0.1-0.7,0.2-1c0.1-0.3,0.3-0.6,0.5-0.8c0.2-0.2,0.5-0.4,0.8-0.5
			c0.3-0.1,0.6-0.2,1-0.2c0.4,0,0.8,0.1,1.1,0.2s0.5,0.3,0.7,0.6s0.3,0.5,0.4,0.8s0.1,0.6,0.1,0.9v0.3H253.5z M256.3,441.9
			c0-0.2,0-0.4-0.1-0.6c-0.1-0.2-0.1-0.3-0.3-0.4c-0.1-0.1-0.3-0.2-0.4-0.3c-0.2-0.1-0.4-0.1-0.6-0.1c-0.2,0-0.4,0-0.6,0.1
			c-0.2,0.1-0.3,0.2-0.5,0.3c-0.1,0.1-0.2,0.3-0.3,0.4c-0.1,0.2-0.1,0.3-0.1,0.5H256.3z"/>
		<path class="st2" d="M258.4,440h0.9v0.7h0c0.1-0.1,0.1-0.2,0.2-0.3s0.2-0.2,0.3-0.3c0.1-0.1,0.3-0.1,0.4-0.2
			c0.1,0,0.3-0.1,0.4-0.1s0.3,0,0.4,0.1l0,1c-0.1,0-0.1,0-0.2-0.1c-0.1,0-0.1,0-0.2,0c-0.4,0-0.8,0.1-1,0.4s-0.3,0.6-0.3,1.1v2.4
			h-0.9V440z"/>
		<path class="st2" d="M267.3,437.6h0.9l3,7.1h-1.1l-0.7-1.8H266l-0.7,1.8h-1.1L267.3,437.6z M269,442.1l-1.3-3.2h0l-1.3,3.2H269z"
			/>
		<path class="st2" d="M271.9,440h0.9v0.7h0c0.1-0.3,0.3-0.5,0.6-0.6c0.3-0.2,0.6-0.2,1-0.2c0.2,0,0.4,0,0.7,0.1s0.4,0.2,0.5,0.3
			c0.2,0.1,0.3,0.3,0.4,0.6s0.1,0.5,0.1,0.8v3.1h-0.9v-2.8c0-0.2,0-0.4-0.1-0.6c-0.1-0.2-0.1-0.3-0.2-0.4c-0.1-0.1-0.2-0.2-0.3-0.2
			c-0.1,0-0.3-0.1-0.4-0.1c-0.2,0-0.4,0-0.5,0.1c-0.2,0.1-0.3,0.2-0.4,0.3s-0.2,0.3-0.3,0.5c-0.1,0.2-0.1,0.4-0.1,0.7v2.4h-0.9V440z
			"/>
		<path class="st2" d="M277.3,438.3c0-0.2,0.1-0.3,0.2-0.5c0.1-0.1,0.3-0.2,0.5-0.2c0.2,0,0.3,0.1,0.5,0.2s0.2,0.3,0.2,0.5
			s-0.1,0.3-0.2,0.5s-0.3,0.2-0.5,0.2c-0.2,0-0.3-0.1-0.5-0.2C277.4,438.6,277.3,438.4,277.3,438.3z M277.5,440h0.9v4.7h-0.9V440z"
			/>
		<path class="st2" d="M279.9,440h0.8v0.7h0c0-0.1,0.1-0.2,0.2-0.2c0.1-0.1,0.2-0.2,0.3-0.3c0.1-0.1,0.3-0.2,0.5-0.2
			c0.2-0.1,0.4-0.1,0.6-0.1c0.4,0,0.6,0.1,0.9,0.2s0.4,0.4,0.6,0.7c0.2-0.3,0.4-0.5,0.7-0.7s0.6-0.2,0.8-0.2c0.4,0,0.7,0.1,0.9,0.2
			s0.4,0.3,0.5,0.5c0.1,0.2,0.2,0.4,0.3,0.7c0,0.2,0.1,0.5,0.1,0.8v2.8h-0.9v-2.6c0-0.2,0-0.4,0-0.5c0-0.2-0.1-0.3-0.1-0.4
			c-0.1-0.1-0.2-0.2-0.3-0.3s-0.3-0.1-0.5-0.1c-0.4,0-0.7,0.1-0.9,0.4c-0.2,0.3-0.3,0.6-0.3,1v2.6H283v-2.5c0-0.2,0-0.4,0-0.6
			s-0.1-0.3-0.1-0.5c-0.1-0.1-0.2-0.2-0.3-0.3s-0.3-0.1-0.5-0.1c-0.2,0-0.3,0-0.5,0.1c-0.2,0.1-0.3,0.2-0.4,0.3s-0.2,0.3-0.3,0.5
			c-0.1,0.2-0.1,0.4-0.1,0.7v2.5h-0.9V440z"/>
		<path class="st2" d="M288.4,440.5c0.3-0.2,0.5-0.4,0.9-0.5c0.3-0.1,0.7-0.2,1-0.2c0.3,0,0.6,0,0.9,0.1c0.2,0.1,0.5,0.2,0.6,0.3
			s0.3,0.3,0.4,0.5c0.1,0.2,0.1,0.4,0.1,0.6v2.4c0,0.2,0,0.3,0,0.5c0,0.1,0,0.3,0,0.4h-0.8c0-0.2,0-0.5,0-0.7h0
			c-0.2,0.3-0.4,0.5-0.7,0.7s-0.6,0.2-1,0.2c-0.2,0-0.4,0-0.6-0.1c-0.2-0.1-0.4-0.2-0.5-0.3c-0.1-0.1-0.3-0.3-0.4-0.4
			c-0.1-0.2-0.1-0.4-0.1-0.6c0-0.3,0.1-0.6,0.2-0.8s0.3-0.4,0.6-0.5c0.2-0.1,0.5-0.2,0.8-0.3s0.7-0.1,1-0.1h0.7v-0.2
			c0-0.1,0-0.2-0.1-0.4c0-0.1-0.1-0.2-0.2-0.3c-0.1-0.1-0.2-0.2-0.3-0.2c-0.1-0.1-0.3-0.1-0.5-0.1c-0.2,0-0.3,0-0.5,0.1
			s-0.2,0.1-0.4,0.1c-0.1,0-0.2,0.1-0.3,0.2c-0.1,0.1-0.2,0.1-0.2,0.2L288.4,440.5z M290.9,442.4c-0.2,0-0.4,0-0.7,0
			c-0.2,0-0.4,0.1-0.6,0.1c-0.2,0.1-0.3,0.2-0.5,0.3c-0.1,0.1-0.2,0.3-0.2,0.5c0,0.3,0.1,0.5,0.3,0.6c0.2,0.1,0.4,0.2,0.7,0.2
			c0.2,0,0.5,0,0.6-0.1c0.2-0.1,0.3-0.2,0.4-0.3c0.1-0.1,0.2-0.3,0.2-0.4c0-0.2,0.1-0.3,0.1-0.5v-0.3H290.9z"/>
		<path class="st2" d="M293.6,437.1h0.9v7.6h-0.9V437.1z"/>
		<path class="st2" d="M298.5,441.1c-0.1-0.1-0.2-0.2-0.4-0.3c-0.2-0.1-0.3-0.1-0.6-0.1c-0.2,0-0.4,0-0.6,0.1
			c-0.2,0.1-0.2,0.2-0.2,0.4c0,0.1,0,0.3,0.1,0.3c0.1,0.1,0.2,0.2,0.3,0.2s0.3,0.1,0.4,0.1c0.1,0,0.3,0,0.4,0.1
			c0.2,0,0.4,0.1,0.5,0.2c0.2,0.1,0.3,0.2,0.4,0.3c0.1,0.1,0.2,0.2,0.3,0.4s0.1,0.3,0.1,0.6c0,0.3-0.1,0.5-0.2,0.7s-0.3,0.3-0.4,0.5
			c-0.2,0.1-0.4,0.2-0.6,0.3c-0.2,0.1-0.5,0.1-0.7,0.1c-0.4,0-0.7-0.1-1-0.2c-0.3-0.1-0.6-0.3-0.8-0.7l0.7-0.6
			c0.1,0.1,0.3,0.3,0.5,0.4c0.2,0.1,0.4,0.2,0.7,0.2c0.1,0,0.2,0,0.3,0c0.1,0,0.2-0.1,0.3-0.1c0.1-0.1,0.2-0.1,0.2-0.2
			c0.1-0.1,0.1-0.2,0.1-0.3c0-0.1,0-0.2-0.1-0.3c-0.1-0.1-0.2-0.2-0.3-0.2c-0.1,0-0.2-0.1-0.4-0.1s-0.2-0.1-0.3-0.1
			c-0.2,0-0.4-0.1-0.5-0.2c-0.2-0.1-0.3-0.1-0.5-0.2c-0.1-0.1-0.2-0.2-0.3-0.4c-0.1-0.2-0.1-0.3-0.1-0.6c0-0.2,0.1-0.5,0.2-0.6
			s0.2-0.3,0.4-0.5c0.2-0.1,0.4-0.2,0.6-0.3s0.4-0.1,0.7-0.1c0.3,0,0.6,0.1,0.9,0.2c0.3,0.1,0.5,0.3,0.7,0.6L298.5,441.1z"/>
	</g>
	<g>
		<path class="st2" d="M235.5,457.9h1v7.1h-1V457.9z"/>
		<path class="st2" d="M238,460.2h0.9v0.7h0c0.1-0.3,0.3-0.5,0.6-0.6c0.3-0.2,0.6-0.2,1-0.2c0.2,0,0.4,0,0.7,0.1
			c0.2,0.1,0.4,0.2,0.5,0.3s0.3,0.3,0.4,0.6c0.1,0.2,0.1,0.5,0.1,0.8v3h-0.9v-2.8c0-0.2,0-0.4-0.1-0.6c-0.1-0.2-0.1-0.3-0.2-0.4
			c-0.1-0.1-0.2-0.2-0.3-0.2c-0.1,0-0.3-0.1-0.4-0.1c-0.2,0-0.4,0-0.5,0.1c-0.2,0.1-0.3,0.2-0.4,0.3s-0.2,0.3-0.3,0.5
			c-0.1,0.2-0.1,0.4-0.1,0.7v2.4H238V460.2z"/>
		<path class="st2" d="M246.1,461.4c-0.1-0.1-0.2-0.2-0.4-0.3s-0.3-0.1-0.6-0.1c-0.2,0-0.4,0-0.6,0.1c-0.2,0.1-0.2,0.2-0.2,0.4
			c0,0.1,0,0.3,0.1,0.3c0.1,0.1,0.2,0.2,0.3,0.2s0.3,0.1,0.4,0.1c0.1,0,0.3,0,0.4,0.1c0.2,0,0.4,0.1,0.5,0.2
			c0.2,0.1,0.3,0.2,0.4,0.3s0.2,0.2,0.3,0.4c0.1,0.2,0.1,0.3,0.1,0.6c0,0.3-0.1,0.5-0.2,0.7s-0.3,0.3-0.4,0.5s-0.4,0.2-0.6,0.3
			c-0.2,0.1-0.5,0.1-0.7,0.1c-0.4,0-0.7-0.1-1-0.2c-0.3-0.1-0.6-0.3-0.8-0.7l0.7-0.6c0.1,0.1,0.3,0.3,0.5,0.4
			c0.2,0.1,0.4,0.2,0.7,0.2c0.1,0,0.2,0,0.3,0c0.1,0,0.2-0.1,0.3-0.1c0.1,0,0.2-0.1,0.2-0.2s0.1-0.2,0.1-0.3c0-0.1,0-0.2-0.1-0.3
			c-0.1-0.1-0.2-0.2-0.3-0.2c-0.1,0-0.2-0.1-0.4-0.1c-0.1,0-0.2-0.1-0.3-0.1c-0.2,0-0.4-0.1-0.5-0.2c-0.2-0.1-0.3-0.1-0.5-0.2
			c-0.1-0.1-0.2-0.2-0.3-0.4c-0.1-0.2-0.1-0.3-0.1-0.6c0-0.2,0.1-0.5,0.2-0.6s0.2-0.3,0.4-0.5c0.2-0.1,0.4-0.2,0.6-0.3
			s0.4-0.1,0.7-0.1c0.3,0,0.6,0.1,0.9,0.2c0.3,0.1,0.5,0.3,0.7,0.6L246.1,461.4z"/>
		<path class="st2" d="M248.7,462.9c0,0.2,0,0.4,0.1,0.6s0.2,0.3,0.4,0.4c0.1,0.1,0.3,0.2,0.5,0.3s0.4,0.1,0.6,0.1
			c0.3,0,0.5-0.1,0.7-0.2c0.2-0.1,0.4-0.3,0.6-0.5l0.7,0.5c-0.5,0.6-1.2,1-2.1,1c-0.4,0-0.7-0.1-1-0.2c-0.3-0.1-0.6-0.3-0.8-0.5
			s-0.4-0.5-0.5-0.8c-0.1-0.3-0.2-0.6-0.2-1s0.1-0.7,0.2-1c0.1-0.3,0.3-0.6,0.5-0.8c0.2-0.2,0.5-0.4,0.8-0.5c0.3-0.1,0.6-0.2,1-0.2
			c0.4,0,0.8,0.1,1.1,0.2c0.3,0.1,0.5,0.3,0.7,0.6s0.3,0.5,0.4,0.8c0.1,0.3,0.1,0.6,0.1,0.9v0.3H248.7z M251.5,462.2
			c0-0.2,0-0.4-0.1-0.5s-0.1-0.3-0.3-0.4c-0.1-0.1-0.3-0.2-0.4-0.3c-0.2-0.1-0.4-0.1-0.6-0.1c-0.2,0-0.4,0-0.6,0.1
			c-0.2,0.1-0.3,0.2-0.5,0.3c-0.1,0.1-0.2,0.3-0.3,0.4c-0.1,0.2-0.1,0.3-0.1,0.5H251.5z"/>
		<path class="st2" d="M257,461.5c-0.2-0.2-0.3-0.3-0.5-0.4s-0.4-0.1-0.7-0.1c-0.2,0-0.5,0-0.6,0.1c-0.2,0.1-0.3,0.2-0.5,0.4
			c-0.1,0.2-0.2,0.3-0.3,0.5s-0.1,0.4-0.1,0.6c0,0.2,0,0.4,0.1,0.6c0.1,0.2,0.2,0.4,0.3,0.5c0.1,0.1,0.3,0.3,0.5,0.3
			s0.4,0.1,0.6,0.1c0.3,0,0.5,0,0.7-0.1s0.3-0.2,0.5-0.4l0.6,0.6c-0.2,0.3-0.5,0.4-0.8,0.6c-0.3,0.1-0.6,0.2-1,0.2
			c-0.4,0-0.7-0.1-1-0.2s-0.6-0.3-0.8-0.5s-0.4-0.5-0.5-0.8s-0.2-0.6-0.2-1s0.1-0.7,0.2-1s0.3-0.6,0.5-0.8s0.5-0.4,0.8-0.5
			c0.3-0.1,0.6-0.2,1-0.2c0.3,0,0.7,0.1,1,0.2s0.6,0.3,0.8,0.6L257,461.5z"/>
		<path class="st2" d="M260.9,461h-1.3v2.1c0,0.1,0,0.3,0,0.4c0,0.1,0,0.2,0.1,0.3c0,0.1,0.1,0.2,0.2,0.2c0.1,0.1,0.2,0.1,0.4,0.1
			c0.1,0,0.2,0,0.3,0c0.1,0,0.2-0.1,0.3-0.1v0.8c-0.1,0.1-0.2,0.1-0.4,0.1s-0.3,0-0.4,0c-0.3,0-0.6,0-0.8-0.1
			c-0.2-0.1-0.3-0.2-0.4-0.4c-0.1-0.2-0.1-0.3-0.2-0.5c0-0.2,0-0.4,0-0.6V461h-1v-0.8h1v-1.3h0.9v1.3h1.3V461z"/>
		<path class="st2" d="M264.6,461.4c-0.1-0.1-0.2-0.2-0.4-0.3c-0.2-0.1-0.3-0.1-0.6-0.1c-0.2,0-0.4,0-0.6,0.1
			c-0.2,0.1-0.2,0.2-0.2,0.4c0,0.1,0,0.3,0.1,0.3s0.2,0.2,0.3,0.2c0.1,0.1,0.3,0.1,0.4,0.1c0.1,0,0.3,0,0.4,0.1
			c0.2,0,0.4,0.1,0.5,0.2c0.2,0.1,0.3,0.2,0.4,0.3c0.1,0.1,0.2,0.2,0.3,0.4c0.1,0.2,0.1,0.3,0.1,0.6c0,0.3-0.1,0.5-0.2,0.7
			s-0.3,0.3-0.4,0.5c-0.2,0.1-0.4,0.2-0.6,0.3c-0.2,0.1-0.5,0.1-0.7,0.1c-0.4,0-0.7-0.1-1-0.2s-0.6-0.3-0.8-0.7l0.7-0.6
			c0.1,0.1,0.3,0.3,0.5,0.4c0.2,0.1,0.4,0.2,0.7,0.2c0.1,0,0.2,0,0.3,0c0.1,0,0.2-0.1,0.3-0.1c0.1,0,0.2-0.1,0.2-0.2
			s0.1-0.2,0.1-0.3c0-0.1,0-0.2-0.1-0.3c-0.1-0.1-0.2-0.2-0.3-0.2c-0.1,0-0.2-0.1-0.4-0.1c-0.1,0-0.2-0.1-0.3-0.1
			c-0.2,0-0.4-0.1-0.6-0.2c-0.2-0.1-0.3-0.1-0.5-0.2c-0.1-0.1-0.2-0.2-0.3-0.4c-0.1-0.2-0.1-0.3-0.1-0.6c0-0.2,0.1-0.5,0.2-0.6
			c0.1-0.2,0.2-0.3,0.4-0.5c0.2-0.1,0.4-0.2,0.6-0.3s0.4-0.1,0.7-0.1c0.3,0,0.6,0.1,0.9,0.2c0.3,0.1,0.5,0.3,0.7,0.6L264.6,461.4z"
			/>
	</g>
	<g>
		<line class="st11" x1="172.1" y1="320.5" x2="193.1" y2="320.5"/>
		<circle class="st2" cx="172.1" cy="320.5" r="1.3"/>
	</g>
	<g>
		<line class="st11" x1="167" y1="340.2" x2="193.1" y2="340.2"/>
		<ellipse class="st2" cx="167" cy="340.2" rx="1.7" ry="1.3"/>
	</g>
	<g>
		<line class="st11" x1="166.6" y1="359.7" x2="187.6" y2="359.7"/>
		<circle class="st2" cx="166.6" cy="359.7" r="1.3"/>
	</g>
	<g>
		<line class="st11" x1="166.6" y1="379.9" x2="187.6" y2="379.9"/>
		<circle class="st2" cx="166.6" cy="379.9" r="1.3"/>
	</g>
	<g>
		<line class="st11" x1="166.6" y1="399.2" x2="187.6" y2="399.2"/>
		<circle class="st2" cx="166.6" cy="399.2" r="1.3"/>
	</g>
	<g>
		<line class="st11" x1="166.3" y1="419" x2="182.6" y2="419"/>
		<ellipse class="st2" cx="166.3" cy="419" rx="1" ry="1.3"/>
	</g>
	<g>
		<line class="st11" x1="166.3" y1="439.5" x2="182.6" y2="439.5"/>
		<ellipse class="st2" cx="166.3" cy="439.5" rx="1" ry="1.3"/>
	</g>
	<g>
		<line class="st11" x1="166.3" y1="458.8" x2="182.6" y2="458.8"/>
		<ellipse class="st2" cx="166.3" cy="458.8" rx="1" ry="1.3"/>
	</g>
</g>
</svg>
