<?xml version="1.0" encoding="utf-8"?>
<!-- Generator: Adobe Illustrator 19.2.0, SVG Export Plug-In . SVG Version: 6.00 Build 0)  -->
<!DOCTYPE svg PUBLIC "-//W3C//DTD SVG 1.1//EN" "http://www.w3.org/Graphics/SVG/1.1/DTD/svg11.dtd">
<svg version="1.1" id="Layer_1" xmlns="http://www.w3.org/2000/svg" xmlns:xlink="http://www.w3.org/1999/xlink" x="0px" y="0px"
	 width="367.2px" height="144px" viewBox="0 0 367.2 144" style="enable-background:new 0 0 367.2 144;" xml:space="preserve">
<g>
	<g>
		<path style="fill:#92BEB8;" d="M11.9,67.2H5.6V27.6h6.2v17h7.1v-17h6.3v39.7h-6.3v-17h-7.1V67.2z"/>
		<path style="fill:#92BEB8;" d="M35.8,27.6v30.6C35.8,61,37,62,39,62c2,0,3.2-1,3.2-3.9V27.6h5.9v30.2c0,6.3-3.2,10-9.3,10
			c-6.1,0-9.3-3.6-9.3-10V27.6H35.8z"/>
		<path style="fill:#92BEB8;" d="M65.5,55.7h0.1l4.2-28.2h8.7v39.7h-5.9V38.8h-0.1l-4.2,28.4h-5.9l-4.5-28.1h-0.1v28.1h-5.4V27.6H61
			L65.5,55.7z"/>
		<path style="fill:#92BEB8;" d="M103.2,67.2h-6.3L95.8,60h-7.7l-1.1,7.2h-5.7l6.3-39.7h9.1L103.2,67.2z M89,54.6h6L92,34.6h-0.1
			L89,54.6z"/>
		<path style="fill:#92BEB8;" d="M111.7,38.5h-0.1v28.7H106V27.6h7.8l6.3,23.7h0.1V27.6h5.6v39.7h-6.4L111.7,38.5z"/>
		<path style="fill:#92BEB8;" d="M138.7,27.1c6.1,0,9.2,3.6,9.2,10v1.2H142v-1.6c0-2.8-1.1-3.9-3.1-3.9s-3.1,1.1-3.1,3.9
			c0,2.9,1.2,5,5.3,8.6c5.2,4.6,6.9,7.9,6.9,12.4c0,6.3-3.2,10-9.3,10c-6.1,0-9.3-3.6-9.3-10v-2.4h5.9v2.8c0,2.8,1.2,3.9,3.2,3.9
			s3.2-1,3.2-3.9c0-2.9-1.2-5-5.3-8.6c-5.2-4.6-6.9-7.9-6.9-12.4C129.5,30.7,132.6,27.1,138.7,27.1z"/>
		<path style="fill:#92BEB8;" d="M169.6,59.9h0.1l4.7-32.4h5.7L174,67.2h-9.3l-6.1-39.7h6.3L169.6,59.9z"/>
		<path style="fill:#92BEB8;" d="M191.4,27.1c6.1,0,9.2,3.6,9.2,10v1.2h-5.9v-1.6c0-2.8-1.1-3.9-3.1-3.9s-3.1,1.1-3.1,3.9
			c0,2.9,1.2,5,5.3,8.6c5.2,4.6,6.9,7.9,6.9,12.4c0,6.3-3.2,10-9.3,10c-6.1,0-9.3-3.6-9.3-10v-2.4h5.9v2.8c0,2.8,1.2,3.9,3.2,3.9
			s3.2-1,3.2-3.9c0-2.9-1.2-5-5.3-8.6c-5.2-4.6-6.9-7.9-6.9-12.4C182.2,30.7,185.4,27.1,191.4,27.1z"/>
		<path style="fill:#92BEB8;" d="M233.2,67.2h-6.3l-1.1-7.2h-7.7l-1.1,7.2h-5.7l6.3-39.7h9.1L233.2,67.2z M219,54.6h6L222,34.6h-0.1
			L219,54.6z"/>
		<path style="fill:#92BEB8;" d="M241.7,38.5h-0.1v28.7H236V27.6h7.8l6.3,23.7h0.1V27.6h5.6v39.7h-6.4L241.7,38.5z"/>
		<path style="fill:#92BEB8;" d="M260.3,27.6h6.2v39.7h-6.2V27.6z"/>
		<path style="fill:#92BEB8;" d="M284.2,55.7h0.1l4.2-28.2h8.7v39.7h-5.9V38.8h-0.1L287,67.2h-5.9l-4.5-28.1h-0.1v28.1H271V27.6h8.7
			L284.2,55.7z"/>
		<path style="fill:#92BEB8;" d="M321.9,67.2h-6.3l-1.1-7.2h-7.7l-1.1,7.2H300l6.3-39.7h9.1L321.9,67.2z M307.6,54.6h6l-2.9-20.1
			h-0.1L307.6,54.6z"/>
		<path style="fill:#92BEB8;" d="M324.7,27.6h6.2v34h10.3v5.7h-16.5V27.6z"/>
		<path style="fill:#92BEB8;" d="M352.3,27.1c6.1,0,9.2,3.6,9.2,10v1.2h-5.9v-1.6c0-2.8-1.1-3.9-3.1-3.9s-3.1,1.1-3.1,3.9
			c0,2.9,1.2,5,5.3,8.6c5.2,4.6,6.9,7.9,6.9,12.4c0,6.3-3.2,10-9.3,10c-6.1,0-9.3-3.6-9.3-10v-2.4h5.9v2.8c0,2.8,1.2,3.9,3.2,3.9
			c2,0,3.2-1,3.2-3.9c0-2.9-1.2-5-5.3-8.6c-5.2-4.6-6.9-7.9-6.9-12.4C343.2,30.7,346.3,27.1,352.3,27.1z"/>
	</g>
	<g>
		<g>
			<path style="fill:#FFF6C5;" d="M11.9,64.2H5.6V24.6h6.2v17h7.1v-17h6.3v39.7h-6.3v-17h-7.1V64.2z"/>
			<path style="fill:#FFF6C5;" d="M35.8,24.6v30.6C35.8,58,37,59,39,59c2,0,3.2-1,3.2-3.9V24.6h5.9v30.2c0,6.3-3.2,10-9.3,10
				c-6.1,0-9.3-3.6-9.3-10V24.6H35.8z"/>
			<path style="fill:#FFF6C5;" d="M65.5,52.7h0.1l4.2-28.2h8.7v39.7h-5.9V35.8h-0.1l-4.2,28.4h-5.9l-4.5-28.1h-0.1v28.1h-5.4V24.6
				H61L65.5,52.7z"/>
			<path style="fill:#FFF6C5;" d="M103.2,64.2h-6.3L95.8,57h-7.7l-1.1,7.2h-5.7l6.3-39.7h9.1L103.2,64.2z M89,51.6h6L92,31.6h-0.1
				L89,51.6z"/>
			<path style="fill:#FFF6C5;" d="M111.7,35.5h-0.1v28.7H106V24.6h7.8l6.3,23.7h0.1V24.6h5.6v39.7h-6.4L111.7,35.5z"/>
			<path style="fill:#FFF6C5;" d="M138.7,24.1c6.1,0,9.2,3.6,9.2,10v1.2H142v-1.6c0-2.8-1.1-3.9-3.1-3.9s-3.1,1.1-3.1,3.9
				c0,2.9,1.2,5,5.3,8.6c5.2,4.6,6.9,7.9,6.9,12.4c0,6.3-3.2,10-9.3,10c-6.1,0-9.3-3.6-9.3-10v-2.4h5.9v2.8c0,2.8,1.2,3.9,3.2,3.9
				s3.2-1,3.2-3.9c0-2.9-1.2-5-5.3-8.6c-5.2-4.6-6.9-7.9-6.9-12.4C129.5,27.7,132.6,24.1,138.7,24.1z"/>
			<path style="fill:#FFF6C5;" d="M169.6,56.9h0.1l4.7-32.4h5.7L174,64.2h-9.3l-6.1-39.7h6.3L169.6,56.9z"/>
			<path style="fill:#FFF6C5;" d="M191.4,24.1c6.1,0,9.2,3.6,9.2,10v1.2h-5.9v-1.6c0-2.8-1.1-3.9-3.1-3.9s-3.1,1.1-3.1,3.9
				c0,2.9,1.2,5,5.3,8.6c5.2,4.6,6.9,7.9,6.9,12.4c0,6.3-3.2,10-9.3,10c-6.1,0-9.3-3.6-9.3-10v-2.4h5.9v2.8c0,2.8,1.2,3.9,3.2,3.9
				s3.2-1,3.2-3.9c0-2.9-1.2-5-5.3-8.6c-5.2-4.6-6.9-7.9-6.9-12.4C182.2,27.7,185.4,24.1,191.4,24.1z"/>
			<path style="fill:#FFF6C5;" d="M233.2,64.2h-6.3l-1.1-7.2h-7.7l-1.1,7.2h-5.7l6.3-39.7h9.1L233.2,64.2z M219,51.6h6L222,31.6
				h-0.1L219,51.6z"/>
			<path style="fill:#FFF6C5;" d="M241.7,35.5h-0.1v28.7H236V24.6h7.8l6.3,23.7h0.1V24.6h5.6v39.7h-6.4L241.7,35.5z"/>
			<path style="fill:#FFF6C5;" d="M260.3,24.6h6.2v39.7h-6.2V24.6z"/>
			<path style="fill:#FFF6C5;" d="M284.2,52.7h0.1l4.2-28.2h8.7v39.7h-5.9V35.8h-0.1L287,64.2h-5.9l-4.5-28.1h-0.1v28.1H271V24.6
				h8.7L284.2,52.7z"/>
			<path style="fill:#FFF6C5;" d="M321.9,64.2h-6.3l-1.1-7.2h-7.7l-1.1,7.2H300l6.3-39.7h9.1L321.9,64.2z M307.6,51.6h6l-2.9-20.1
				h-0.1L307.6,51.6z"/>
			<path style="fill:#FFF6C5;" d="M324.7,24.6h6.2v34h10.3v5.7h-16.5V24.6z"/>
			<path style="fill:#FFF6C5;" d="M352.3,24.1c6.1,0,9.2,3.6,9.2,10v1.2h-5.9v-1.6c0-2.8-1.1-3.9-3.1-3.9s-3.1,1.1-3.1,3.9
				c0,2.9,1.2,5,5.3,8.6c5.2,4.6,6.9,7.9,6.9,12.4c0,6.3-3.2,10-9.3,10c-6.1,0-9.3-3.6-9.3-10v-2.4h5.9v2.8c0,2.8,1.2,3.9,3.2,3.9
				c2,0,3.2-1,3.2-3.9c0-2.9-1.2-5-5.3-8.6c-5.2-4.6-6.9-7.9-6.9-12.4C343.2,27.7,346.3,24.1,352.3,24.1z"/>
		</g>
	</g>
	<g>
		<g>
			<path style="fill:#333332;" d="M6.1,86h1v2.9h3.7V86h1v7.1h-1v-3.2H7v3.2h-1V86z"/>
			<path style="fill:#333332;" d="M17.4,93.1h-0.9v-0.7h0c-0.1,0.3-0.3,0.5-0.6,0.6c-0.3,0.2-0.6,0.2-1,0.2c-0.2,0-0.5,0-0.7-0.1
				c-0.2-0.1-0.4-0.2-0.5-0.3c-0.2-0.1-0.3-0.3-0.4-0.6s-0.1-0.5-0.1-0.8v-3.1h0.9v2.8c0,0.2,0,0.4,0.1,0.6s0.1,0.3,0.2,0.4
				c0.1,0.1,0.2,0.2,0.3,0.2c0.1,0,0.3,0.1,0.4,0.1c0.2,0,0.4,0,0.5-0.1c0.2-0.1,0.3-0.2,0.4-0.3c0.1-0.1,0.2-0.3,0.3-0.5
				c0.1-0.2,0.1-0.4,0.1-0.7v-2.4h0.9V93.1z"/>
			<path style="fill:#333332;" d="M18.8,88.3h0.8v0.7h0c0-0.1,0.1-0.1,0.2-0.2s0.2-0.2,0.3-0.3c0.1-0.1,0.3-0.2,0.5-0.2
				c0.2-0.1,0.4-0.1,0.6-0.1c0.4,0,0.6,0.1,0.9,0.2c0.2,0.1,0.4,0.4,0.6,0.7c0.2-0.3,0.4-0.5,0.6-0.7c0.3-0.1,0.6-0.2,0.9-0.2
				c0.4,0,0.7,0.1,0.9,0.2c0.2,0.1,0.4,0.3,0.6,0.5c0.1,0.2,0.2,0.4,0.3,0.7c0,0.2,0.1,0.5,0.1,0.8v2.8h-0.9v-2.6c0-0.2,0-0.4,0-0.5
				c0-0.2-0.1-0.3-0.1-0.4c-0.1-0.1-0.2-0.2-0.3-0.3c-0.1-0.1-0.3-0.1-0.5-0.1c-0.4,0-0.7,0.1-0.9,0.4c-0.2,0.3-0.3,0.6-0.3,1v2.6
				h-0.9v-2.5c0-0.2,0-0.4,0-0.6c0-0.2-0.1-0.3-0.1-0.5c-0.1-0.1-0.2-0.2-0.3-0.3s-0.3-0.1-0.5-0.1c-0.2,0-0.3,0-0.5,0.1
				c-0.2,0.1-0.3,0.2-0.4,0.3c-0.1,0.1-0.2,0.3-0.3,0.5c-0.1,0.2-0.1,0.4-0.1,0.7v2.5h-0.9V88.3z"/>
			<path style="fill:#333332;" d="M27.3,88.9c0.3-0.2,0.5-0.4,0.9-0.5c0.3-0.1,0.7-0.2,1-0.2c0.3,0,0.6,0,0.9,0.1
				c0.2,0.1,0.5,0.2,0.6,0.4c0.2,0.1,0.3,0.3,0.4,0.5s0.1,0.4,0.1,0.6v2.4c0,0.2,0,0.3,0,0.5c0,0.1,0,0.3,0,0.4h-0.8
				c0-0.2,0-0.5,0-0.7h0c-0.2,0.3-0.4,0.5-0.7,0.7c-0.3,0.1-0.6,0.2-1,0.2c-0.2,0-0.4,0-0.6-0.1c-0.2-0.1-0.4-0.1-0.5-0.3
				c-0.1-0.1-0.3-0.3-0.4-0.4c-0.1-0.2-0.1-0.4-0.1-0.6c0-0.3,0.1-0.6,0.2-0.8s0.3-0.4,0.6-0.5c0.2-0.1,0.5-0.2,0.8-0.3
				s0.7-0.1,1-0.1h0.7v-0.2c0-0.1,0-0.2-0.1-0.4c0-0.1-0.1-0.2-0.2-0.3c-0.1-0.1-0.2-0.2-0.4-0.2c-0.1-0.1-0.3-0.1-0.5-0.1
				c-0.2,0-0.3,0-0.5,0.1c-0.1,0-0.2,0.1-0.4,0.1c-0.1,0-0.2,0.1-0.3,0.2c-0.1,0.1-0.2,0.1-0.2,0.2L27.3,88.9z M29.9,90.8
				c-0.2,0-0.4,0-0.7,0c-0.2,0-0.4,0.1-0.6,0.1c-0.2,0.1-0.3,0.2-0.5,0.3S28,91.5,28,91.7c0,0.3,0.1,0.5,0.3,0.6
				c0.2,0.1,0.4,0.2,0.7,0.2c0.2,0,0.5,0,0.6-0.1c0.2-0.1,0.3-0.2,0.4-0.3s0.2-0.3,0.2-0.4c0-0.2,0.1-0.3,0.1-0.5v-0.3H29.9z"/>
			<path style="fill:#333332;" d="M32.5,88.3h0.9v0.7h0c0.1-0.3,0.3-0.5,0.6-0.6c0.3-0.2,0.6-0.2,1-0.2c0.2,0,0.4,0,0.7,0.1
				c0.2,0.1,0.4,0.2,0.6,0.3c0.2,0.1,0.3,0.3,0.4,0.6c0.1,0.2,0.1,0.5,0.1,0.8v3h-0.9v-2.8c0-0.2,0-0.4-0.1-0.6
				c-0.1-0.2-0.1-0.3-0.2-0.4s-0.2-0.2-0.3-0.2c-0.1,0-0.3-0.1-0.4-0.1c-0.2,0-0.4,0-0.5,0.1c-0.2,0.1-0.3,0.2-0.4,0.3
				s-0.2,0.3-0.3,0.5c-0.1,0.2-0.1,0.4-0.1,0.7v2.4h-0.9V88.3z"/>
			<path style="fill:#333332;" d="M40.6,89.5c-0.1-0.1-0.2-0.2-0.4-0.3c-0.2-0.1-0.3-0.1-0.6-0.1c-0.2,0-0.4,0-0.6,0.1
				c-0.2,0.1-0.2,0.2-0.2,0.4c0,0.1,0,0.3,0.1,0.3c0.1,0.1,0.2,0.2,0.3,0.2c0.1,0.1,0.3,0.1,0.4,0.1c0.1,0,0.3,0,0.4,0.1
				c0.2,0,0.4,0.1,0.5,0.2c0.2,0.1,0.3,0.2,0.4,0.3c0.1,0.1,0.2,0.2,0.3,0.4c0.1,0.2,0.1,0.3,0.1,0.6c0,0.3-0.1,0.5-0.2,0.7
				s-0.3,0.3-0.4,0.5c-0.2,0.1-0.4,0.2-0.6,0.3s-0.5,0.1-0.7,0.1c-0.4,0-0.7-0.1-1-0.2c-0.3-0.1-0.6-0.3-0.8-0.7l0.7-0.6
				c0.1,0.1,0.3,0.3,0.5,0.4c0.2,0.1,0.4,0.2,0.7,0.2c0.1,0,0.2,0,0.3,0s0.2-0.1,0.3-0.1c0.1,0,0.2-0.1,0.2-0.2
				c0.1-0.1,0.1-0.2,0.1-0.3c0-0.1,0-0.2-0.1-0.3s-0.2-0.2-0.3-0.2s-0.2-0.1-0.4-0.1c-0.1,0-0.2-0.1-0.3-0.1c-0.2,0-0.4-0.1-0.6-0.2
				s-0.3-0.1-0.5-0.2c-0.1-0.1-0.2-0.2-0.3-0.4s-0.1-0.3-0.1-0.6c0-0.2,0.1-0.5,0.2-0.6c0.1-0.2,0.2-0.3,0.4-0.5s0.4-0.2,0.6-0.3
				s0.4-0.1,0.7-0.1c0.3,0,0.6,0.1,0.9,0.2c0.3,0.1,0.5,0.3,0.7,0.6L40.6,89.5z"/>
			<path style="fill:#333332;" d="M45.3,85.5h0.9v3.6h0c0.1-0.3,0.3-0.5,0.6-0.6c0.3-0.2,0.6-0.2,1-0.2c0.2,0,0.4,0,0.7,0.1
				c0.2,0.1,0.4,0.2,0.6,0.3c0.2,0.1,0.3,0.3,0.4,0.6c0.1,0.2,0.1,0.5,0.1,0.8v3h-0.9v-2.8c0-0.2,0-0.4-0.1-0.6
				c-0.1-0.2-0.1-0.3-0.2-0.4s-0.2-0.2-0.3-0.2c-0.1,0-0.3-0.1-0.4-0.1c-0.2,0-0.4,0-0.5,0.1c-0.2,0.1-0.3,0.2-0.4,0.3
				s-0.2,0.3-0.3,0.5c-0.1,0.2-0.1,0.4-0.1,0.7v2.4h-0.9V85.5z"/>
			<path style="fill:#333332;" d="M50.9,88.9c0.3-0.2,0.5-0.4,0.9-0.5c0.3-0.1,0.7-0.2,1-0.2c0.3,0,0.6,0,0.9,0.1
				c0.2,0.1,0.5,0.2,0.6,0.4c0.2,0.1,0.3,0.3,0.4,0.5s0.1,0.4,0.1,0.6v2.4c0,0.2,0,0.3,0,0.5c0,0.1,0,0.3,0,0.4H54
				c0-0.2,0-0.5,0-0.7h0c-0.2,0.3-0.4,0.5-0.7,0.7c-0.3,0.1-0.6,0.2-1,0.2c-0.2,0-0.4,0-0.6-0.1c-0.2-0.1-0.4-0.1-0.5-0.3
				c-0.1-0.1-0.3-0.3-0.4-0.4c-0.1-0.2-0.1-0.4-0.1-0.6c0-0.3,0.1-0.6,0.2-0.8s0.3-0.4,0.6-0.5c0.2-0.1,0.5-0.2,0.8-0.3
				s0.7-0.1,1-0.1h0.7v-0.2c0-0.1,0-0.2-0.1-0.4c0-0.1-0.1-0.2-0.2-0.3c-0.1-0.1-0.2-0.2-0.4-0.2c-0.1-0.1-0.3-0.1-0.5-0.1
				c-0.2,0-0.3,0-0.5,0.1c-0.1,0-0.2,0.1-0.4,0.1c-0.1,0-0.2,0.1-0.3,0.2c-0.1,0.1-0.2,0.1-0.2,0.2L50.9,88.9z M53.4,90.8
				c-0.2,0-0.4,0-0.7,0c-0.2,0-0.4,0.1-0.6,0.1c-0.2,0.1-0.3,0.2-0.5,0.3s-0.2,0.3-0.2,0.5c0,0.3,0.1,0.5,0.3,0.6
				c0.2,0.1,0.4,0.2,0.7,0.2c0.2,0,0.5,0,0.6-0.1c0.2-0.1,0.3-0.2,0.4-0.3s0.2-0.3,0.2-0.4c0-0.2,0.1-0.3,0.1-0.5v-0.3H53.4z"/>
			<path style="fill:#333332;" d="M55.5,88.3h1l1.4,3.6l1.4-3.6h1l-1.9,4.7h-1L55.5,88.3z"/>
			<path style="fill:#333332;" d="M61.7,91c0,0.2,0,0.4,0.1,0.6c0.1,0.2,0.2,0.3,0.4,0.4c0.1,0.1,0.3,0.2,0.5,0.3
				c0.2,0.1,0.4,0.1,0.6,0.1c0.3,0,0.5-0.1,0.7-0.2s0.4-0.3,0.6-0.5l0.7,0.5c-0.5,0.6-1.2,1-2.1,1c-0.4,0-0.7-0.1-1-0.2
				c-0.3-0.1-0.6-0.3-0.8-0.5c-0.2-0.2-0.4-0.5-0.5-0.8c-0.1-0.3-0.2-0.6-0.2-1c0-0.4,0.1-0.7,0.2-1s0.3-0.6,0.5-0.8
				c0.2-0.2,0.5-0.4,0.8-0.5c0.3-0.1,0.6-0.2,1-0.2c0.4,0,0.8,0.1,1.1,0.2c0.3,0.1,0.5,0.3,0.7,0.6s0.3,0.5,0.4,0.8
				c0.1,0.3,0.1,0.6,0.1,0.9V91H61.7z M64.6,90.3c0-0.2,0-0.4-0.1-0.6c-0.1-0.2-0.1-0.3-0.3-0.4c-0.1-0.1-0.3-0.2-0.4-0.3
				c-0.2-0.1-0.4-0.1-0.6-0.1c-0.2,0-0.4,0-0.6,0.1c-0.2,0.1-0.3,0.2-0.5,0.3c-0.1,0.1-0.2,0.3-0.3,0.4c-0.1,0.2-0.1,0.3-0.1,0.5
				H64.6z"/>
			<path style="fill:#333332;" d="M69.5,85.5h0.9v7.6h-0.9V85.5z"/>
			<path style="fill:#333332;" d="M71.6,90.7c0-0.3,0.1-0.7,0.2-1c0.1-0.3,0.3-0.6,0.5-0.8c0.2-0.2,0.5-0.4,0.8-0.5s0.6-0.2,1-0.2
				c0.4,0,0.7,0.1,1,0.2s0.6,0.3,0.8,0.5s0.4,0.5,0.5,0.8c0.1,0.3,0.2,0.6,0.2,1s-0.1,0.7-0.2,1s-0.3,0.6-0.5,0.8
				c-0.2,0.2-0.5,0.4-0.8,0.5c-0.3,0.1-0.6,0.2-1,0.2c-0.4,0-0.7-0.1-1-0.2c-0.3-0.1-0.6-0.3-0.8-0.5c-0.2-0.2-0.4-0.5-0.5-0.8
				S71.6,91.1,71.6,90.7z M72.5,90.7c0,0.2,0,0.5,0.1,0.7c0.1,0.2,0.2,0.4,0.3,0.5c0.1,0.1,0.3,0.3,0.5,0.3c0.2,0.1,0.4,0.1,0.7,0.1
				c0.2,0,0.5,0,0.6-0.1c0.2-0.1,0.4-0.2,0.5-0.3c0.1-0.1,0.2-0.3,0.3-0.5c0.1-0.2,0.1-0.4,0.1-0.7c0-0.2,0-0.5-0.1-0.7
				c-0.1-0.2-0.2-0.4-0.3-0.5c-0.1-0.1-0.3-0.3-0.5-0.3s-0.4-0.1-0.6-0.1c-0.2,0-0.5,0-0.7,0.1s-0.4,0.2-0.5,0.3
				c-0.1,0.1-0.2,0.3-0.3,0.5C72.6,90.2,72.5,90.5,72.5,90.7z"/>
			<path style="fill:#333332;" d="M77.7,88.3h0.9v0.7h0c0.1-0.3,0.3-0.5,0.6-0.6c0.3-0.2,0.6-0.2,1-0.2c0.2,0,0.4,0,0.7,0.1
				c0.2,0.1,0.4,0.2,0.6,0.3c0.2,0.1,0.3,0.3,0.4,0.6c0.1,0.2,0.1,0.5,0.1,0.8v3H81v-2.8c0-0.2,0-0.4-0.1-0.6
				c-0.1-0.2-0.1-0.3-0.2-0.4s-0.2-0.2-0.3-0.2c-0.1,0-0.3-0.1-0.4-0.1c-0.2,0-0.4,0-0.5,0.1c-0.2,0.1-0.3,0.2-0.4,0.3
				s-0.2,0.3-0.3,0.5c-0.1,0.2-0.1,0.4-0.1,0.7v2.4h-0.9V88.3z"/>
			<path style="fill:#333332;" d="M88,93c0,0.4-0.1,0.7-0.2,1c-0.1,0.3-0.3,0.6-0.5,0.8c-0.2,0.2-0.5,0.4-0.8,0.5
				c-0.3,0.1-0.7,0.2-1.1,0.2c-0.5,0-0.9-0.1-1.2-0.2c-0.4-0.1-0.7-0.3-1.1-0.7l0.6-0.8c0.2,0.3,0.5,0.4,0.8,0.6
				c0.3,0.1,0.6,0.2,0.9,0.2c0.3,0,0.6,0,0.8-0.1c0.2-0.1,0.4-0.2,0.5-0.4c0.1-0.2,0.2-0.3,0.3-0.5c0.1-0.2,0.1-0.4,0.1-0.6v-0.7h0
				c-0.2,0.3-0.4,0.5-0.7,0.6s-0.6,0.2-0.9,0.2c-0.3,0-0.7-0.1-1-0.2c-0.3-0.1-0.6-0.3-0.8-0.5c-0.2-0.2-0.4-0.5-0.5-0.8
				c-0.1-0.3-0.2-0.6-0.2-1s0.1-0.7,0.2-1c0.1-0.3,0.3-0.6,0.5-0.8c0.2-0.2,0.5-0.4,0.8-0.5c0.3-0.1,0.6-0.2,1-0.2
				c0.3,0,0.6,0.1,0.9,0.2s0.5,0.3,0.7,0.6h0v-0.7H88V93z M85.6,89.1c-0.2,0-0.5,0-0.7,0.1s-0.4,0.2-0.5,0.3
				c-0.1,0.1-0.2,0.3-0.3,0.5c-0.1,0.2-0.1,0.4-0.1,0.7c0,0.5,0.1,0.9,0.4,1.2c0.3,0.3,0.7,0.4,1.1,0.4s0.9-0.1,1.1-0.4
				c0.3-0.3,0.4-0.7,0.4-1.2c0-0.2,0-0.5-0.1-0.7c-0.1-0.2-0.2-0.4-0.3-0.5c-0.1-0.1-0.3-0.3-0.5-0.3S85.8,89.1,85.6,89.1z"/>
			<path style="fill:#333332;" d="M95.6,89.6c-0.2-0.2-0.3-0.3-0.5-0.4s-0.4-0.1-0.7-0.1c-0.2,0-0.5,0-0.6,0.1
				c-0.2,0.1-0.3,0.2-0.5,0.4c-0.1,0.2-0.2,0.3-0.3,0.5c-0.1,0.2-0.1,0.4-0.1,0.6c0,0.2,0,0.4,0.1,0.6c0.1,0.2,0.2,0.4,0.3,0.5
				s0.3,0.3,0.5,0.3c0.2,0.1,0.4,0.1,0.6,0.1c0.3,0,0.5,0,0.6-0.1c0.2-0.1,0.3-0.2,0.5-0.4l0.6,0.6c-0.2,0.3-0.5,0.4-0.8,0.6
				s-0.6,0.2-1,0.2c-0.4,0-0.7-0.1-1-0.2c-0.3-0.1-0.6-0.3-0.8-0.5c-0.2-0.2-0.4-0.5-0.5-0.8c-0.1-0.3-0.2-0.6-0.2-1s0.1-0.7,0.2-1
				s0.3-0.6,0.5-0.8c0.2-0.2,0.5-0.4,0.8-0.5c0.3-0.1,0.6-0.2,1-0.2c0.3,0,0.7,0.1,1,0.2c0.3,0.1,0.6,0.3,0.8,0.6L95.6,89.6z"/>
			<path style="fill:#333332;" d="M96.8,90.7c0-0.3,0.1-0.7,0.2-1c0.1-0.3,0.3-0.6,0.5-0.8c0.2-0.2,0.5-0.4,0.8-0.5s0.6-0.2,1-0.2
				c0.4,0,0.7,0.1,1,0.2s0.6,0.3,0.8,0.5s0.4,0.5,0.5,0.8c0.1,0.3,0.2,0.6,0.2,1s-0.1,0.7-0.2,1s-0.3,0.6-0.5,0.8
				c-0.2,0.2-0.5,0.4-0.8,0.5c-0.3,0.1-0.6,0.2-1,0.2c-0.4,0-0.7-0.1-1-0.2c-0.3-0.1-0.6-0.3-0.8-0.5c-0.2-0.2-0.4-0.5-0.5-0.8
				S96.8,91.1,96.8,90.7z M97.7,90.7c0,0.2,0,0.5,0.1,0.7c0.1,0.2,0.2,0.4,0.3,0.5c0.1,0.1,0.3,0.3,0.5,0.3c0.2,0.1,0.4,0.1,0.7,0.1
				c0.2,0,0.5,0,0.6-0.1c0.2-0.1,0.4-0.2,0.5-0.3c0.1-0.1,0.2-0.3,0.3-0.5c0.1-0.2,0.1-0.4,0.1-0.7c0-0.2,0-0.5-0.1-0.7
				c-0.1-0.2-0.2-0.4-0.3-0.5c-0.1-0.1-0.3-0.3-0.5-0.3s-0.4-0.1-0.6-0.1c-0.2,0-0.5,0-0.7,0.1s-0.4,0.2-0.5,0.3
				c-0.1,0.1-0.2,0.3-0.3,0.5C97.8,90.2,97.7,90.5,97.7,90.7z"/>
			<path style="fill:#333332;" d="M102.9,88.3h0.9v0.7h0c0.1-0.3,0.3-0.5,0.6-0.6c0.3-0.2,0.6-0.2,1-0.2c0.2,0,0.4,0,0.7,0.1
				c0.2,0.1,0.4,0.2,0.6,0.3c0.2,0.1,0.3,0.3,0.4,0.6c0.1,0.2,0.1,0.5,0.1,0.8v3h-0.9v-2.8c0-0.2,0-0.4-0.1-0.6
				c-0.1-0.2-0.1-0.3-0.2-0.4s-0.2-0.2-0.3-0.2c-0.1,0-0.3-0.1-0.4-0.1c-0.2,0-0.4,0-0.5,0.1c-0.2,0.1-0.3,0.2-0.4,0.3
				s-0.2,0.3-0.3,0.5c-0.1,0.2-0.1,0.4-0.1,0.7v2.4h-0.9V88.3z"/>
			<path style="fill:#333332;" d="M111,89.5c-0.1-0.1-0.2-0.2-0.4-0.3c-0.2-0.1-0.3-0.1-0.6-0.1c-0.2,0-0.4,0-0.6,0.1
				c-0.2,0.1-0.2,0.2-0.2,0.4c0,0.1,0,0.3,0.1,0.3c0.1,0.1,0.2,0.2,0.3,0.2c0.1,0.1,0.3,0.1,0.4,0.1c0.1,0,0.3,0,0.4,0.1
				c0.2,0,0.4,0.1,0.5,0.2c0.2,0.1,0.3,0.2,0.4,0.3c0.1,0.1,0.2,0.2,0.3,0.4c0.1,0.2,0.1,0.3,0.1,0.6c0,0.3-0.1,0.5-0.2,0.7
				s-0.3,0.3-0.4,0.5c-0.2,0.1-0.4,0.2-0.6,0.3s-0.5,0.1-0.7,0.1c-0.4,0-0.7-0.1-1-0.2c-0.3-0.1-0.6-0.3-0.8-0.7l0.7-0.6
				c0.1,0.1,0.3,0.3,0.5,0.4c0.2,0.1,0.4,0.2,0.7,0.2c0.1,0,0.2,0,0.3,0s0.2-0.1,0.3-0.1c0.1,0,0.2-0.1,0.2-0.2
				c0.1-0.1,0.1-0.2,0.1-0.3c0-0.1,0-0.2-0.1-0.3s-0.2-0.2-0.3-0.2s-0.2-0.1-0.4-0.1c-0.1,0-0.2-0.1-0.3-0.1c-0.2,0-0.4-0.1-0.6-0.2
				s-0.3-0.1-0.5-0.2c-0.1-0.1-0.2-0.2-0.3-0.4s-0.1-0.3-0.1-0.6c0-0.2,0.1-0.5,0.2-0.6c0.1-0.2,0.2-0.3,0.4-0.5s0.4-0.2,0.6-0.3
				s0.4-0.1,0.7-0.1c0.3,0,0.6,0.1,0.9,0.2c0.3,0.1,0.5,0.3,0.7,0.6L111,89.5z"/>
			<path style="fill:#333332;" d="M112.8,86.6c0-0.2,0.1-0.3,0.2-0.5c0.1-0.1,0.3-0.2,0.5-0.2c0.2,0,0.3,0.1,0.5,0.2
				c0.1,0.1,0.2,0.3,0.2,0.5s-0.1,0.3-0.2,0.5s-0.3,0.2-0.5,0.2c-0.2,0-0.3-0.1-0.5-0.2C112.9,87,112.8,86.8,112.8,86.6z M113,88.3
				h0.9v4.7H113V88.3z"/>
			<path style="fill:#333332;" d="M120.1,93.1h-0.9v-0.7h0c-0.2,0.3-0.4,0.5-0.7,0.6c-0.3,0.1-0.6,0.2-0.9,0.2c-0.4,0-0.7-0.1-1-0.2
				c-0.3-0.1-0.6-0.3-0.8-0.5c-0.2-0.2-0.4-0.5-0.5-0.8c-0.1-0.3-0.2-0.6-0.2-1c0-0.4,0.1-0.7,0.2-1c0.1-0.3,0.3-0.6,0.5-0.8
				c0.2-0.2,0.5-0.4,0.8-0.5c0.3-0.1,0.6-0.2,1-0.2c0.3,0,0.7,0.1,1,0.2c0.3,0.1,0.5,0.3,0.7,0.6h0v-3.5h0.9V93.1z M117.6,92.4
				c0.2,0,0.5,0,0.6-0.1c0.2-0.1,0.4-0.2,0.5-0.3c0.1-0.1,0.2-0.3,0.3-0.5c0.1-0.2,0.1-0.4,0.1-0.7c0-0.2,0-0.5-0.1-0.7
				c-0.1-0.2-0.2-0.4-0.3-0.5c-0.1-0.1-0.3-0.3-0.5-0.3s-0.4-0.1-0.6-0.1c-0.2,0-0.5,0-0.7,0.1s-0.4,0.2-0.5,0.3
				c-0.1,0.1-0.2,0.3-0.3,0.5c-0.1,0.2-0.1,0.4-0.1,0.7c0,0.2,0,0.5,0.1,0.7c0.1,0.2,0.2,0.4,0.3,0.5c0.1,0.1,0.3,0.3,0.5,0.3
				C117.2,92.3,117.4,92.4,117.6,92.4z"/>
			<path style="fill:#333332;" d="M122.1,91c0,0.2,0,0.4,0.1,0.6c0.1,0.2,0.2,0.3,0.4,0.4c0.1,0.1,0.3,0.2,0.5,0.3
				c0.2,0.1,0.4,0.1,0.6,0.1c0.3,0,0.5-0.1,0.7-0.2s0.4-0.3,0.6-0.5l0.7,0.5c-0.5,0.6-1.2,1-2.1,1c-0.4,0-0.7-0.1-1-0.2
				c-0.3-0.1-0.6-0.3-0.8-0.5c-0.2-0.2-0.4-0.5-0.5-0.8c-0.1-0.3-0.2-0.6-0.2-1c0-0.4,0.1-0.7,0.2-1s0.3-0.6,0.5-0.8
				c0.2-0.2,0.5-0.4,0.8-0.5c0.3-0.1,0.6-0.2,1-0.2c0.4,0,0.8,0.1,1.1,0.2c0.3,0.1,0.5,0.3,0.7,0.6s0.3,0.5,0.4,0.8
				c0.1,0.3,0.1,0.6,0.1,0.9V91H122.1z M125,90.3c0-0.2,0-0.4-0.1-0.6c-0.1-0.2-0.1-0.3-0.3-0.4c-0.1-0.1-0.3-0.2-0.4-0.3
				c-0.2-0.1-0.4-0.1-0.6-0.1c-0.2,0-0.4,0-0.6,0.1c-0.2,0.1-0.3,0.2-0.5,0.3c-0.1,0.1-0.2,0.3-0.3,0.4c-0.1,0.2-0.1,0.3-0.1,0.5
				H125z"/>
			<path style="fill:#333332;" d="M127,88.3h0.9v0.7h0c0.1-0.1,0.1-0.2,0.2-0.3c0.1-0.1,0.2-0.2,0.3-0.3c0.1-0.1,0.3-0.1,0.4-0.2
				c0.1,0,0.3-0.1,0.4-0.1c0.1,0,0.3,0,0.4,0.1l0,1c-0.1,0-0.1,0-0.2,0c-0.1,0-0.1,0-0.2,0c-0.4,0-0.8,0.1-1,0.4
				c-0.2,0.2-0.4,0.6-0.4,1.1v2.4H127V88.3z"/>
			<path style="fill:#333332;" d="M131.2,91c0,0.2,0,0.4,0.1,0.6c0.1,0.2,0.2,0.3,0.4,0.4c0.1,0.1,0.3,0.2,0.5,0.3
				c0.2,0.1,0.4,0.1,0.6,0.1c0.3,0,0.5-0.1,0.7-0.2s0.4-0.3,0.6-0.5l0.7,0.5c-0.5,0.6-1.2,1-2.1,1c-0.4,0-0.7-0.1-1-0.2
				c-0.3-0.1-0.6-0.3-0.8-0.5c-0.2-0.2-0.4-0.5-0.5-0.8c-0.1-0.3-0.2-0.6-0.2-1c0-0.4,0.1-0.7,0.2-1s0.3-0.6,0.5-0.8
				c0.2-0.2,0.5-0.4,0.8-0.5c0.3-0.1,0.6-0.2,1-0.2c0.4,0,0.8,0.1,1.1,0.2c0.3,0.1,0.5,0.3,0.7,0.6s0.3,0.5,0.4,0.8
				c0.1,0.3,0.1,0.6,0.1,0.9V91H131.2z M134,90.3c0-0.2,0-0.4-0.1-0.6c-0.1-0.2-0.1-0.3-0.3-0.4c-0.1-0.1-0.3-0.2-0.4-0.3
				c-0.2-0.1-0.4-0.1-0.6-0.1c-0.2,0-0.4,0-0.6,0.1c-0.2,0.1-0.3,0.2-0.5,0.3c-0.1,0.1-0.2,0.3-0.3,0.4c-0.1,0.2-0.1,0.3-0.1,0.5
				H134z"/>
			<path style="fill:#333332;" d="M140.8,93.1h-0.9v-0.7h0c-0.2,0.3-0.4,0.5-0.7,0.6c-0.3,0.1-0.6,0.2-0.9,0.2c-0.4,0-0.7-0.1-1-0.2
				c-0.3-0.1-0.6-0.3-0.8-0.5c-0.2-0.2-0.4-0.5-0.5-0.8c-0.1-0.3-0.2-0.6-0.2-1c0-0.4,0.1-0.7,0.2-1c0.1-0.3,0.3-0.6,0.5-0.8
				c0.2-0.2,0.5-0.4,0.8-0.5c0.3-0.1,0.6-0.2,1-0.2c0.3,0,0.7,0.1,1,0.2c0.3,0.1,0.5,0.3,0.7,0.6h0v-3.5h0.9V93.1z M138.4,92.4
				c0.2,0,0.5,0,0.6-0.1c0.2-0.1,0.4-0.2,0.5-0.3c0.1-0.1,0.2-0.3,0.3-0.5c0.1-0.2,0.1-0.4,0.1-0.7c0-0.2,0-0.5-0.1-0.7
				c-0.1-0.2-0.2-0.4-0.3-0.5c-0.1-0.1-0.3-0.3-0.5-0.3s-0.4-0.1-0.6-0.1c-0.2,0-0.5,0-0.7,0.1s-0.4,0.2-0.5,0.3
				c-0.1,0.1-0.2,0.3-0.3,0.5c-0.1,0.2-0.1,0.4-0.1,0.7c0,0.2,0,0.5,0.1,0.7c0.1,0.2,0.2,0.4,0.3,0.5c0.1,0.1,0.3,0.3,0.5,0.3
				C137.9,92.3,138.1,92.4,138.4,92.4z"/>
			<path style="fill:#333332;" d="M147.5,89.1h-1.3v2.1c0,0.1,0,0.3,0,0.4s0,0.2,0.1,0.4c0,0.1,0.1,0.2,0.2,0.2
				c0.1,0.1,0.2,0.1,0.4,0.1c0.1,0,0.2,0,0.3,0s0.2-0.1,0.3-0.1V93c-0.1,0.1-0.2,0.1-0.4,0.1s-0.3,0-0.4,0c-0.3,0-0.6,0-0.8-0.1
				c-0.2-0.1-0.3-0.2-0.4-0.4c-0.1-0.2-0.1-0.3-0.2-0.5c0-0.2,0-0.4,0-0.6v-2.5h-1v-0.8h1V87h0.9v1.3h1.3V89.1z"/>
			<path style="fill:#333332;" d="M148.7,85.5h0.9v3.6h0c0.1-0.3,0.3-0.5,0.6-0.6c0.3-0.2,0.6-0.2,1-0.2c0.2,0,0.4,0,0.7,0.1
				c0.2,0.1,0.4,0.2,0.6,0.3c0.2,0.1,0.3,0.3,0.4,0.6c0.1,0.2,0.1,0.5,0.1,0.8v3H152v-2.8c0-0.2,0-0.4-0.1-0.6
				c-0.1-0.2-0.1-0.3-0.2-0.4s-0.2-0.2-0.3-0.2c-0.1,0-0.3-0.1-0.4-0.1c-0.2,0-0.4,0-0.5,0.1c-0.2,0.1-0.3,0.2-0.4,0.3
				s-0.2,0.3-0.3,0.5c-0.1,0.2-0.1,0.4-0.1,0.7v2.4h-0.9V85.5z"/>
			<path style="fill:#333332;" d="M154.9,91c0,0.2,0,0.4,0.1,0.6c0.1,0.2,0.2,0.3,0.4,0.4c0.1,0.1,0.3,0.2,0.5,0.3
				c0.2,0.1,0.4,0.1,0.6,0.1c0.3,0,0.5-0.1,0.7-0.2s0.4-0.3,0.6-0.5l0.7,0.5c-0.5,0.6-1.2,1-2.1,1c-0.4,0-0.7-0.1-1-0.2
				c-0.3-0.1-0.6-0.3-0.8-0.5c-0.2-0.2-0.4-0.5-0.5-0.8c-0.1-0.3-0.2-0.6-0.2-1c0-0.4,0.1-0.7,0.2-1s0.3-0.6,0.5-0.8
				c0.2-0.2,0.5-0.4,0.8-0.5c0.3-0.1,0.6-0.2,1-0.2c0.4,0,0.8,0.1,1.1,0.2c0.3,0.1,0.5,0.3,0.7,0.6s0.3,0.5,0.4,0.8
				c0.1,0.3,0.1,0.6,0.1,0.9V91H154.9z M157.8,90.3c0-0.2,0-0.4-0.1-0.6c-0.1-0.2-0.1-0.3-0.3-0.4c-0.1-0.1-0.3-0.2-0.4-0.3
				c-0.2-0.1-0.4-0.1-0.6-0.1c-0.2,0-0.4,0-0.6,0.1c-0.2,0.1-0.3,0.2-0.5,0.3c-0.1,0.1-0.2,0.3-0.3,0.4c-0.1,0.2-0.1,0.3-0.1,0.5
				H157.8z"/>
			<path style="fill:#333332;" d="M159.8,88.3h0.8v0.7h0c0-0.1,0.1-0.1,0.2-0.2s0.2-0.2,0.3-0.3c0.1-0.1,0.3-0.2,0.5-0.2
				c0.2-0.1,0.4-0.1,0.6-0.1c0.4,0,0.6,0.1,0.9,0.2c0.2,0.1,0.4,0.4,0.6,0.7c0.2-0.3,0.4-0.5,0.6-0.7c0.3-0.1,0.6-0.2,0.9-0.2
				c0.4,0,0.7,0.1,0.9,0.2c0.2,0.1,0.4,0.3,0.6,0.5c0.1,0.2,0.2,0.4,0.3,0.7c0,0.2,0.1,0.5,0.1,0.8v2.8h-0.9v-2.6c0-0.2,0-0.4,0-0.5
				c0-0.2-0.1-0.3-0.1-0.4c-0.1-0.1-0.2-0.2-0.3-0.3c-0.1-0.1-0.3-0.1-0.5-0.1c-0.4,0-0.7,0.1-0.9,0.4c-0.2,0.3-0.3,0.6-0.3,1v2.6
				h-0.9v-2.5c0-0.2,0-0.4,0-0.6c0-0.2-0.1-0.3-0.1-0.5c-0.1-0.1-0.2-0.2-0.3-0.3s-0.3-0.1-0.5-0.1c-0.2,0-0.3,0-0.5,0.1
				c-0.2,0.1-0.3,0.2-0.4,0.3c-0.1,0.1-0.2,0.3-0.3,0.5c-0.1,0.2-0.1,0.4-0.1,0.7v2.5h-0.9V88.3z"/>
			<path style="fill:#333332;" d="M170.8,89.5c-0.1-0.1-0.2-0.2-0.4-0.3c-0.2-0.1-0.3-0.1-0.6-0.1c-0.2,0-0.4,0-0.6,0.1
				c-0.2,0.1-0.2,0.2-0.2,0.4c0,0.1,0,0.3,0.1,0.3c0.1,0.1,0.2,0.2,0.3,0.2c0.1,0.1,0.3,0.1,0.4,0.1c0.1,0,0.3,0,0.4,0.1
				c0.2,0,0.4,0.1,0.5,0.2c0.2,0.1,0.3,0.2,0.4,0.3c0.1,0.1,0.2,0.2,0.3,0.4c0.1,0.2,0.1,0.3,0.1,0.6c0,0.3-0.1,0.5-0.2,0.7
				s-0.3,0.3-0.4,0.5c-0.2,0.1-0.4,0.2-0.6,0.3s-0.5,0.1-0.7,0.1c-0.4,0-0.7-0.1-1-0.2c-0.3-0.1-0.6-0.3-0.8-0.7l0.7-0.6
				c0.1,0.1,0.3,0.3,0.5,0.4c0.2,0.1,0.4,0.2,0.7,0.2c0.1,0,0.2,0,0.3,0s0.2-0.1,0.3-0.1c0.1,0,0.2-0.1,0.2-0.2
				c0.1-0.1,0.1-0.2,0.1-0.3c0-0.1,0-0.2-0.1-0.3s-0.2-0.2-0.3-0.2s-0.2-0.1-0.4-0.1c-0.1,0-0.2-0.1-0.3-0.1c-0.2,0-0.4-0.1-0.6-0.2
				s-0.3-0.1-0.5-0.2c-0.1-0.1-0.2-0.2-0.3-0.4s-0.1-0.3-0.1-0.6c0-0.2,0.1-0.5,0.2-0.6c0.1-0.2,0.2-0.3,0.4-0.5s0.4-0.2,0.6-0.3
				s0.4-0.1,0.7-0.1c0.3,0,0.6,0.1,0.9,0.2c0.3,0.1,0.5,0.3,0.7,0.6L170.8,89.5z"/>
			<path style="fill:#333332;" d="M173.4,91c0,0.2,0,0.4,0.1,0.6c0.1,0.2,0.2,0.3,0.4,0.4c0.1,0.1,0.3,0.2,0.5,0.3
				c0.2,0.1,0.4,0.1,0.6,0.1c0.3,0,0.5-0.1,0.7-0.2s0.4-0.3,0.6-0.5l0.7,0.5c-0.5,0.6-1.2,1-2.1,1c-0.4,0-0.7-0.1-1-0.2
				c-0.3-0.1-0.6-0.3-0.8-0.5c-0.2-0.2-0.4-0.5-0.5-0.8c-0.1-0.3-0.2-0.6-0.2-1c0-0.4,0.1-0.7,0.2-1s0.3-0.6,0.5-0.8
				c0.2-0.2,0.5-0.4,0.8-0.5c0.3-0.1,0.6-0.2,1-0.2c0.4,0,0.8,0.1,1.1,0.2c0.3,0.1,0.5,0.3,0.7,0.6s0.3,0.5,0.4,0.8
				c0.1,0.3,0.1,0.6,0.1,0.9V91H173.4z M176.3,90.3c0-0.2,0-0.4-0.1-0.6c-0.1-0.2-0.1-0.3-0.3-0.4c-0.1-0.1-0.3-0.2-0.4-0.3
				c-0.2-0.1-0.4-0.1-0.6-0.1c-0.2,0-0.4,0-0.6,0.1c-0.2,0.1-0.3,0.2-0.5,0.3c-0.1,0.1-0.2,0.3-0.3,0.4c-0.1,0.2-0.1,0.3-0.1,0.5
				H176.3z"/>
			<path style="fill:#333332;" d="M178.4,85.5h0.9v7.6h-0.9V85.5z"/>
			<path style="fill:#333332;" d="M180.1,88.3h1l1.4,3.6l1.4-3.6h1l-1.9,4.7h-1L180.1,88.3z"/>
			<path style="fill:#333332;" d="M186.4,91c0,0.2,0,0.4,0.1,0.6c0.1,0.2,0.2,0.3,0.4,0.4c0.1,0.1,0.3,0.2,0.5,0.3
				c0.2,0.1,0.4,0.1,0.6,0.1c0.3,0,0.5-0.1,0.7-0.2s0.4-0.3,0.6-0.5l0.7,0.5c-0.5,0.6-1.2,1-2.1,1c-0.4,0-0.7-0.1-1-0.2
				c-0.3-0.1-0.6-0.3-0.8-0.5c-0.2-0.2-0.4-0.5-0.5-0.8c-0.1-0.3-0.2-0.6-0.2-1c0-0.4,0.1-0.7,0.2-1s0.3-0.6,0.5-0.8
				c0.2-0.2,0.5-0.4,0.8-0.5c0.3-0.1,0.6-0.2,1-0.2c0.4,0,0.8,0.1,1.1,0.2c0.3,0.1,0.5,0.3,0.7,0.6s0.3,0.5,0.4,0.8
				c0.1,0.3,0.1,0.6,0.1,0.9V91H186.4z M189.2,90.3c0-0.2,0-0.4-0.1-0.6c-0.1-0.2-0.1-0.3-0.3-0.4c-0.1-0.1-0.3-0.2-0.4-0.3
				c-0.2-0.1-0.4-0.1-0.6-0.1c-0.2,0-0.4,0-0.6,0.1c-0.2,0.1-0.3,0.2-0.5,0.3c-0.1,0.1-0.2,0.3-0.3,0.4c-0.1,0.2-0.1,0.3-0.1,0.5
				H189.2z"/>
			<path style="fill:#333332;" d="M193.8,89.5c-0.1-0.1-0.2-0.2-0.4-0.3c-0.2-0.1-0.3-0.1-0.6-0.1c-0.2,0-0.4,0-0.6,0.1
				c-0.2,0.1-0.2,0.2-0.2,0.4c0,0.1,0,0.3,0.1,0.3c0.1,0.1,0.2,0.2,0.3,0.2c0.1,0.1,0.3,0.1,0.4,0.1c0.1,0,0.3,0,0.4,0.1
				c0.2,0,0.4,0.1,0.5,0.2c0.2,0.1,0.3,0.2,0.4,0.3c0.1,0.1,0.2,0.2,0.3,0.4c0.1,0.2,0.1,0.3,0.1,0.6c0,0.3-0.1,0.5-0.2,0.7
				s-0.3,0.3-0.4,0.5c-0.2,0.1-0.4,0.2-0.6,0.3s-0.5,0.1-0.7,0.1c-0.4,0-0.7-0.1-1-0.2c-0.3-0.1-0.6-0.3-0.8-0.7l0.7-0.6
				c0.1,0.1,0.3,0.3,0.5,0.4c0.2,0.1,0.4,0.2,0.7,0.2c0.1,0,0.2,0,0.3,0s0.2-0.1,0.3-0.1c0.1,0,0.2-0.1,0.2-0.2
				c0.1-0.1,0.1-0.2,0.1-0.3c0-0.1,0-0.2-0.1-0.3s-0.2-0.2-0.3-0.2s-0.2-0.1-0.4-0.1c-0.1,0-0.2-0.1-0.3-0.1c-0.2,0-0.4-0.1-0.6-0.2
				s-0.3-0.1-0.5-0.2c-0.1-0.1-0.2-0.2-0.3-0.4s-0.1-0.3-0.1-0.6c0-0.2,0.1-0.5,0.2-0.6c0.1-0.2,0.2-0.3,0.4-0.5s0.4-0.2,0.6-0.3
				s0.4-0.1,0.7-0.1c0.3,0,0.6,0.1,0.9,0.2c0.3,0.1,0.5,0.3,0.7,0.6L193.8,89.5z"/>
			<path style="fill:#333332;" d="M201,89.1h-1.3v2.1c0,0.1,0,0.3,0,0.4s0,0.2,0.1,0.4c0,0.1,0.1,0.2,0.2,0.2
				c0.1,0.1,0.2,0.1,0.4,0.1c0.1,0,0.2,0,0.3,0s0.2-0.1,0.3-0.1V93c-0.1,0.1-0.2,0.1-0.4,0.1s-0.3,0-0.4,0c-0.3,0-0.6,0-0.8-0.1
				c-0.2-0.1-0.3-0.2-0.4-0.4c-0.1-0.2-0.1-0.3-0.2-0.5c0-0.2,0-0.4,0-0.6v-2.5h-1v-0.8h1V87h0.9v1.3h1.3V89.1z"/>
			<path style="fill:#333332;" d="M202.2,88.3h0.9v0.7h0c0.1-0.1,0.1-0.2,0.2-0.3c0.1-0.1,0.2-0.2,0.3-0.3c0.1-0.1,0.3-0.1,0.4-0.2
				c0.1,0,0.3-0.1,0.4-0.1c0.1,0,0.3,0,0.4,0.1l0,1c-0.1,0-0.1,0-0.2,0c-0.1,0-0.1,0-0.2,0c-0.4,0-0.8,0.1-1,0.4
				c-0.2,0.2-0.4,0.6-0.4,1.1v2.4h-0.9V88.3z"/>
			<path style="fill:#333332;" d="M210.1,93.1h-0.9v-0.7h0c-0.1,0.3-0.3,0.5-0.6,0.6c-0.3,0.2-0.6,0.2-1,0.2c-0.2,0-0.5,0-0.7-0.1
				c-0.2-0.1-0.4-0.2-0.5-0.3c-0.2-0.1-0.3-0.3-0.4-0.6s-0.1-0.5-0.1-0.8v-3.1h0.9v2.8c0,0.2,0,0.4,0.1,0.6s0.1,0.3,0.2,0.4
				c0.1,0.1,0.2,0.2,0.3,0.2c0.1,0,0.3,0.1,0.4,0.1c0.2,0,0.4,0,0.5-0.1c0.2-0.1,0.3-0.2,0.4-0.3c0.1-0.1,0.2-0.3,0.3-0.5
				c0.1-0.2,0.1-0.4,0.1-0.7v-2.4h0.9V93.1z"/>
			<path style="fill:#333332;" d="M211.5,85.5h0.9v7.6h-0.9V85.5z"/>
			<path style="fill:#333332;" d="M213.3,88.3h1l1.4,3.7h0l1.3-3.7h1l-2.2,5.8c-0.1,0.2-0.2,0.4-0.2,0.6c-0.1,0.2-0.2,0.3-0.3,0.4
				c-0.1,0.1-0.3,0.2-0.4,0.3c-0.2,0.1-0.4,0.1-0.6,0.1c-0.1,0-0.3,0-0.4,0c-0.1,0-0.3-0.1-0.4-0.1l0.1-0.8c0.2,0.1,0.4,0.1,0.5,0.1
				c0.1,0,0.3,0,0.4-0.1s0.2-0.1,0.2-0.2c0.1-0.1,0.1-0.2,0.2-0.2c0-0.1,0.1-0.2,0.1-0.3l0.3-0.8L213.3,88.3z"/>
			<path style="fill:#333332;" d="M225.8,93.1h-0.9v-0.7h0c-0.1,0.3-0.3,0.5-0.6,0.6c-0.3,0.2-0.6,0.2-1,0.2c-0.2,0-0.5,0-0.7-0.1
				c-0.2-0.1-0.4-0.2-0.5-0.3c-0.2-0.1-0.3-0.3-0.4-0.6s-0.1-0.5-0.1-0.8v-3.1h0.9v2.8c0,0.2,0,0.4,0.1,0.6s0.1,0.3,0.2,0.4
				c0.1,0.1,0.2,0.2,0.3,0.2c0.1,0,0.3,0.1,0.4,0.1c0.2,0,0.4,0,0.5-0.1c0.2-0.1,0.3-0.2,0.4-0.3c0.1-0.1,0.2-0.3,0.3-0.5
				c0.1-0.2,0.1-0.4,0.1-0.7v-2.4h0.9V93.1z"/>
			<path style="fill:#333332;" d="M227.2,88.3h0.9v0.7h0c0.1-0.3,0.3-0.5,0.6-0.6c0.3-0.2,0.6-0.2,1-0.2c0.2,0,0.4,0,0.7,0.1
				c0.2,0.1,0.4,0.2,0.6,0.3c0.2,0.1,0.3,0.3,0.4,0.6c0.1,0.2,0.1,0.5,0.1,0.8v3h-0.9v-2.8c0-0.2,0-0.4-0.1-0.6
				c-0.1-0.2-0.1-0.3-0.2-0.4s-0.2-0.2-0.3-0.2c-0.1,0-0.3-0.1-0.4-0.1c-0.2,0-0.4,0-0.5,0.1c-0.2,0.1-0.3,0.2-0.4,0.3
				s-0.2,0.3-0.3,0.5c-0.1,0.2-0.1,0.4-0.1,0.7v2.4h-0.9V88.3z"/>
			<path style="fill:#333332;" d="M232.6,86.6c0-0.2,0.1-0.3,0.2-0.5c0.1-0.1,0.3-0.2,0.5-0.2c0.2,0,0.3,0.1,0.5,0.2
				c0.1,0.1,0.2,0.3,0.2,0.5s-0.1,0.3-0.2,0.5s-0.3,0.2-0.5,0.2c-0.2,0-0.3-0.1-0.5-0.2C232.7,87,232.6,86.8,232.6,86.6z
				 M232.8,88.3h0.9v4.7h-0.9V88.3z"/>
			<path style="fill:#333332;" d="M239.9,95.4H239v-3h0c-0.2,0.2-0.4,0.4-0.7,0.6c-0.3,0.1-0.6,0.2-1,0.2c-0.4,0-0.7-0.1-1-0.2
				c-0.3-0.1-0.6-0.3-0.8-0.5c-0.2-0.2-0.4-0.5-0.5-0.8c-0.1-0.3-0.2-0.6-0.2-1c0-0.3,0.1-0.7,0.2-1c0.1-0.3,0.3-0.6,0.5-0.8
				c0.2-0.2,0.5-0.4,0.8-0.5c0.3-0.1,0.6-0.2,1-0.2c0.3,0,0.6,0.1,0.9,0.2s0.5,0.3,0.7,0.6h0v-0.7h0.9V95.4z M237.4,89.1
				c-0.2,0-0.5,0-0.7,0.1s-0.4,0.2-0.5,0.3c-0.1,0.1-0.2,0.3-0.3,0.5c-0.1,0.2-0.1,0.4-0.1,0.7c0,0.2,0,0.5,0.1,0.7
				c0.1,0.2,0.2,0.4,0.3,0.5c0.1,0.1,0.3,0.3,0.5,0.3c0.2,0.1,0.4,0.1,0.7,0.1c0.2,0,0.5,0,0.6-0.1c0.2-0.1,0.4-0.2,0.5-0.3
				c0.1-0.1,0.2-0.3,0.3-0.5c0.1-0.2,0.1-0.4,0.1-0.7c0-0.2,0-0.5-0.1-0.7c-0.1-0.2-0.2-0.4-0.3-0.5c-0.1-0.1-0.3-0.3-0.5-0.3
				S237.7,89.1,237.4,89.1z"/>
			<path style="fill:#333332;" d="M245.5,93.1h-0.9v-0.7h0c-0.1,0.3-0.3,0.5-0.6,0.6c-0.3,0.2-0.6,0.2-1,0.2c-0.2,0-0.5,0-0.7-0.1
				c-0.2-0.1-0.4-0.2-0.5-0.3c-0.2-0.1-0.3-0.3-0.4-0.6s-0.1-0.5-0.1-0.8v-3.1h0.9v2.8c0,0.2,0,0.4,0.1,0.6s0.1,0.3,0.2,0.4
				c0.1,0.1,0.2,0.2,0.3,0.2c0.1,0,0.3,0.1,0.4,0.1c0.2,0,0.4,0,0.5-0.1c0.2-0.1,0.3-0.2,0.4-0.3c0.1-0.1,0.2-0.3,0.3-0.5
				c0.1-0.2,0.1-0.4,0.1-0.7v-2.4h0.9V93.1z"/>
			<path style="fill:#333332;" d="M247.5,91c0,0.2,0,0.4,0.1,0.6c0.1,0.2,0.2,0.3,0.4,0.4c0.1,0.1,0.3,0.2,0.5,0.3
				c0.2,0.1,0.4,0.1,0.6,0.1c0.3,0,0.5-0.1,0.7-0.2s0.4-0.3,0.6-0.5l0.7,0.5c-0.5,0.6-1.2,1-2.1,1c-0.4,0-0.7-0.1-1-0.2
				c-0.3-0.1-0.6-0.3-0.8-0.5c-0.2-0.2-0.4-0.5-0.5-0.8c-0.1-0.3-0.2-0.6-0.2-1c0-0.4,0.1-0.7,0.2-1s0.3-0.6,0.5-0.8
				c0.2-0.2,0.5-0.4,0.8-0.5c0.3-0.1,0.6-0.2,1-0.2c0.4,0,0.8,0.1,1.1,0.2c0.3,0.1,0.5,0.3,0.7,0.6s0.3,0.5,0.4,0.8
				c0.1,0.3,0.1,0.6,0.1,0.9V91H247.5z M250.3,90.3c0-0.2,0-0.4-0.1-0.6c-0.1-0.2-0.1-0.3-0.3-0.4c-0.1-0.1-0.3-0.2-0.4-0.3
				c-0.2-0.1-0.4-0.1-0.6-0.1c-0.2,0-0.4,0-0.6,0.1c-0.2,0.1-0.3,0.2-0.5,0.3c-0.1,0.1-0.2,0.3-0.3,0.4c-0.1,0.2-0.1,0.3-0.1,0.5
				H250.3z"/>
			<path style="fill:#333332;" d="M253.1,93.1c-0.2,0-0.3-0.1-0.5-0.2c-0.1-0.1-0.2-0.3-0.2-0.5c0-0.2,0.1-0.3,0.2-0.5
				c0.1-0.1,0.3-0.2,0.5-0.2c0.2,0,0.3,0.1,0.5,0.2s0.2,0.3,0.2,0.5c0,0.2-0.1,0.3-0.2,0.5C253.4,93.1,253.3,93.1,253.1,93.1z"/>
			<path style="fill:#333332;" d="M258.2,86h2.5c0.3,0,0.6,0,0.9,0.1c0.3,0.1,0.5,0.2,0.7,0.3c0.2,0.1,0.3,0.3,0.5,0.5
				c0.1,0.2,0.2,0.5,0.2,0.8c0,0.4-0.1,0.7-0.3,1c-0.2,0.3-0.5,0.4-0.9,0.6v0c0.2,0,0.4,0.1,0.6,0.2s0.3,0.2,0.5,0.4
				s0.2,0.3,0.3,0.5c0.1,0.2,0.1,0.4,0.1,0.7c0,0.3-0.1,0.6-0.2,0.8c-0.1,0.2-0.3,0.4-0.5,0.6c-0.2,0.2-0.5,0.3-0.8,0.4
				c-0.3,0.1-0.6,0.1-1,0.1h-2.4V86z M259.1,88.9h1.3c0.2,0,0.3,0,0.5-0.1s0.3-0.1,0.4-0.2c0.1-0.1,0.2-0.2,0.3-0.3s0.1-0.3,0.1-0.5
				c0-0.3-0.1-0.5-0.3-0.7c-0.2-0.2-0.5-0.3-0.9-0.3h-1.5V88.9z M259.1,92.2h1.4c0.1,0,0.3,0,0.5,0c0.2,0,0.3-0.1,0.5-0.2
				s0.3-0.2,0.4-0.4c0.1-0.2,0.2-0.4,0.2-0.6c0-0.4-0.1-0.7-0.4-0.9s-0.6-0.3-1.1-0.3h-1.4V92.2z"/>
			<path style="fill:#333332;" d="M268.4,93.1h-0.9v-0.7h0c-0.1,0.3-0.3,0.5-0.6,0.6c-0.3,0.2-0.6,0.2-1,0.2c-0.2,0-0.5,0-0.7-0.1
				c-0.2-0.1-0.4-0.2-0.5-0.3c-0.2-0.1-0.3-0.3-0.4-0.6s-0.1-0.5-0.1-0.8v-3.1h0.9v2.8c0,0.2,0,0.4,0.1,0.6s0.1,0.3,0.2,0.4
				c0.1,0.1,0.2,0.2,0.3,0.2c0.1,0,0.3,0.1,0.4,0.1c0.2,0,0.4,0,0.5-0.1c0.2-0.1,0.3-0.2,0.4-0.3c0.1-0.1,0.2-0.3,0.3-0.5
				c0.1-0.2,0.1-0.4,0.1-0.7v-2.4h0.9V93.1z"/>
			<path style="fill:#333332;" d="M272.3,89.1h-1.3v2.1c0,0.1,0,0.3,0,0.4s0,0.2,0.1,0.4c0,0.1,0.1,0.2,0.2,0.2
				c0.1,0.1,0.2,0.1,0.4,0.1c0.1,0,0.2,0,0.3,0s0.2-0.1,0.3-0.1V93c-0.1,0.1-0.2,0.1-0.4,0.1s-0.3,0-0.4,0c-0.3,0-0.6,0-0.8-0.1
				c-0.2-0.1-0.3-0.2-0.4-0.4c-0.1-0.2-0.1-0.3-0.2-0.5c0-0.2,0-0.4,0-0.6v-2.5h-1v-0.8h1V87h0.9v1.3h1.3V89.1z"/>
			<path style="fill:#333332;" d="M276.1,86.6c0-0.2,0.1-0.3,0.2-0.5c0.1-0.1,0.3-0.2,0.5-0.2c0.2,0,0.3,0.1,0.5,0.2
				c0.1,0.1,0.2,0.3,0.2,0.5s-0.1,0.3-0.2,0.5s-0.3,0.2-0.5,0.2c-0.2,0-0.3-0.1-0.5-0.2C276.2,87,276.1,86.8,276.1,86.6z
				 M276.4,88.3h0.9v4.7h-0.9V88.3z"/>
			<path style="fill:#333332;" d="M281.2,89.1h-1.3v2.1c0,0.1,0,0.3,0,0.4s0,0.2,0.1,0.4c0,0.1,0.1,0.2,0.2,0.2
				c0.1,0.1,0.2,0.1,0.4,0.1c0.1,0,0.2,0,0.3,0s0.2-0.1,0.3-0.1V93c-0.1,0.1-0.2,0.1-0.4,0.1s-0.3,0-0.4,0c-0.3,0-0.6,0-0.8-0.1
				c-0.2-0.1-0.3-0.2-0.4-0.4c-0.1-0.2-0.1-0.3-0.2-0.5c0-0.2,0-0.4,0-0.6v-2.5h-1v-0.8h1V87h0.9v1.3h1.3V89.1z"/>
			<path style="fill:#333332;" d="M287.7,89.1h-1.3v2.1c0,0.1,0,0.3,0,0.4s0,0.2,0.1,0.4c0,0.1,0.1,0.2,0.2,0.2
				c0.1,0.1,0.2,0.1,0.4,0.1c0.1,0,0.2,0,0.3,0s0.2-0.1,0.3-0.1V93c-0.1,0.1-0.2,0.1-0.4,0.1s-0.3,0-0.4,0c-0.3,0-0.6,0-0.8-0.1
				c-0.2-0.1-0.3-0.2-0.4-0.4c-0.1-0.2-0.1-0.3-0.2-0.5c0-0.2,0-0.4,0-0.6v-2.5h-1v-0.8h1V87h0.9v1.3h1.3V89.1z"/>
			<path style="fill:#333332;" d="M293.1,93.1h-0.9v-0.7h0c-0.1,0.3-0.3,0.5-0.6,0.6c-0.3,0.2-0.6,0.2-1,0.2c-0.2,0-0.5,0-0.7-0.1
				c-0.2-0.1-0.4-0.2-0.5-0.3c-0.2-0.1-0.3-0.3-0.4-0.6s-0.1-0.5-0.1-0.8v-3.1h0.9v2.8c0,0.2,0,0.4,0.1,0.6s0.1,0.3,0.2,0.4
				c0.1,0.1,0.2,0.2,0.3,0.2c0.1,0,0.3,0.1,0.4,0.1c0.2,0,0.4,0,0.5-0.1c0.2-0.1,0.3-0.2,0.4-0.3c0.1-0.1,0.2-0.3,0.3-0.5
				c0.1-0.2,0.1-0.4,0.1-0.7v-2.4h0.9V93.1z"/>
			<path style="fill:#333332;" d="M294.4,88.3h0.9v0.7h0c0.1-0.1,0.1-0.2,0.2-0.3c0.1-0.1,0.2-0.2,0.3-0.3c0.1-0.1,0.3-0.1,0.4-0.2
				c0.1,0,0.3-0.1,0.4-0.1c0.1,0,0.3,0,0.4,0.1l0,1c-0.1,0-0.1,0-0.2,0c-0.1,0-0.1,0-0.2,0c-0.4,0-0.8,0.1-1,0.4
				c-0.2,0.2-0.4,0.6-0.4,1.1v2.4h-0.9V88.3z"/>
			<path style="fill:#333332;" d="M298.1,88.3h0.9v0.7h0c0.1-0.3,0.3-0.5,0.6-0.6c0.3-0.2,0.6-0.2,1-0.2c0.2,0,0.4,0,0.7,0.1
				c0.2,0.1,0.4,0.2,0.6,0.3c0.2,0.1,0.3,0.3,0.4,0.6c0.1,0.2,0.1,0.5,0.1,0.8v3h-0.9v-2.8c0-0.2,0-0.4-0.1-0.6
				c-0.1-0.2-0.1-0.3-0.2-0.4s-0.2-0.2-0.3-0.2c-0.1,0-0.3-0.1-0.4-0.1c-0.2,0-0.4,0-0.5,0.1c-0.2,0.1-0.3,0.2-0.4,0.3
				s-0.2,0.3-0.3,0.5c-0.1,0.2-0.1,0.4-0.1,0.7v2.4h-0.9V88.3z"/>
			<path style="fill:#333332;" d="M306.2,89.5c-0.1-0.1-0.2-0.2-0.4-0.3c-0.2-0.1-0.3-0.1-0.6-0.1c-0.2,0-0.4,0-0.6,0.1
				c-0.2,0.1-0.2,0.2-0.2,0.4c0,0.1,0,0.3,0.1,0.3c0.1,0.1,0.2,0.2,0.3,0.2c0.1,0.1,0.3,0.1,0.4,0.1c0.1,0,0.3,0,0.4,0.1
				c0.2,0,0.4,0.1,0.5,0.2c0.2,0.1,0.3,0.2,0.4,0.3c0.1,0.1,0.2,0.2,0.3,0.4c0.1,0.2,0.1,0.3,0.1,0.6c0,0.3-0.1,0.5-0.2,0.7
				s-0.3,0.3-0.4,0.5c-0.2,0.1-0.4,0.2-0.6,0.3s-0.5,0.1-0.7,0.1c-0.4,0-0.7-0.1-1-0.2c-0.3-0.1-0.6-0.3-0.8-0.7l0.7-0.6
				c0.1,0.1,0.3,0.3,0.5,0.4c0.2,0.1,0.4,0.2,0.7,0.2c0.1,0,0.2,0,0.3,0s0.2-0.1,0.3-0.1c0.1,0,0.2-0.1,0.2-0.2
				c0.1-0.1,0.1-0.2,0.1-0.3c0-0.1,0-0.2-0.1-0.3s-0.2-0.2-0.3-0.2s-0.2-0.1-0.4-0.1c-0.1,0-0.2-0.1-0.3-0.1c-0.2,0-0.4-0.1-0.6-0.2
				s-0.3-0.1-0.5-0.2c-0.1-0.1-0.2-0.2-0.3-0.4s-0.1-0.3-0.1-0.6c0-0.2,0.1-0.5,0.2-0.6c0.1-0.2,0.2-0.3,0.4-0.5s0.4-0.2,0.6-0.3
				s0.4-0.1,0.7-0.1c0.3,0,0.6,0.1,0.9,0.2c0.3,0.1,0.5,0.3,0.7,0.6L306.2,89.5z"/>
			<path style="fill:#333332;" d="M310.7,90.7c0-0.3,0.1-0.7,0.2-1c0.1-0.3,0.3-0.6,0.5-0.8c0.2-0.2,0.5-0.4,0.8-0.5s0.6-0.2,1-0.2
				c0.4,0,0.7,0.1,1,0.2s0.6,0.3,0.8,0.5s0.4,0.5,0.5,0.8c0.1,0.3,0.2,0.6,0.2,1s-0.1,0.7-0.2,1s-0.3,0.6-0.5,0.8
				c-0.2,0.2-0.5,0.4-0.8,0.5c-0.3,0.1-0.6,0.2-1,0.2c-0.4,0-0.7-0.1-1-0.2c-0.3-0.1-0.6-0.3-0.8-0.5c-0.2-0.2-0.4-0.5-0.5-0.8
				S310.7,91.1,310.7,90.7z M311.6,90.7c0,0.2,0,0.5,0.1,0.7c0.1,0.2,0.2,0.4,0.3,0.5c0.1,0.1,0.3,0.3,0.5,0.3
				c0.2,0.1,0.4,0.1,0.7,0.1c0.2,0,0.5,0,0.6-0.1c0.2-0.1,0.4-0.2,0.5-0.3c0.1-0.1,0.2-0.3,0.3-0.5c0.1-0.2,0.1-0.4,0.1-0.7
				c0-0.2,0-0.5-0.1-0.7c-0.1-0.2-0.2-0.4-0.3-0.5c-0.1-0.1-0.3-0.3-0.5-0.3s-0.4-0.1-0.6-0.1c-0.2,0-0.5,0-0.7,0.1
				s-0.4,0.2-0.5,0.3c-0.1,0.1-0.2,0.3-0.3,0.5C311.7,90.2,311.6,90.5,311.6,90.7z"/>
			<path style="fill:#333332;" d="M321,93.1h-0.9v-0.7h0c-0.1,0.3-0.3,0.5-0.6,0.6c-0.3,0.2-0.6,0.2-1,0.2c-0.2,0-0.5,0-0.7-0.1
				c-0.2-0.1-0.4-0.2-0.5-0.3c-0.2-0.1-0.3-0.3-0.4-0.6s-0.1-0.5-0.1-0.8v-3.1h0.9v2.8c0,0.2,0,0.4,0.1,0.6s0.1,0.3,0.2,0.4
				c0.1,0.1,0.2,0.2,0.3,0.2c0.1,0,0.3,0.1,0.4,0.1c0.2,0,0.4,0,0.5-0.1c0.2-0.1,0.3-0.2,0.4-0.3c0.1-0.1,0.2-0.3,0.3-0.5
				c0.1-0.2,0.1-0.4,0.1-0.7v-2.4h0.9V93.1z"/>
			<path style="fill:#333332;" d="M324.9,89.1h-1.3v2.1c0,0.1,0,0.3,0,0.4s0,0.2,0.1,0.4c0,0.1,0.1,0.2,0.2,0.2
				c0.1,0.1,0.2,0.1,0.4,0.1c0.1,0,0.2,0,0.3,0s0.2-0.1,0.3-0.1V93c-0.1,0.1-0.2,0.1-0.4,0.1s-0.3,0-0.4,0c-0.3,0-0.6,0-0.8-0.1
				c-0.2-0.1-0.3-0.2-0.4-0.4c-0.1-0.2-0.1-0.3-0.2-0.5c0-0.2,0-0.4,0-0.6v-2.5h-1v-0.8h1V87h0.9v1.3h1.3V89.1z"/>
			<path style="fill:#333332;" d="M331.4,89.1h-1.3v2.1c0,0.1,0,0.3,0,0.4s0,0.2,0.1,0.4c0,0.1,0.1,0.2,0.2,0.2
				c0.1,0.1,0.2,0.1,0.4,0.1c0.1,0,0.2,0,0.3,0s0.2-0.1,0.3-0.1V93c-0.1,0.1-0.2,0.1-0.4,0.1s-0.3,0-0.4,0c-0.3,0-0.6,0-0.8-0.1
				c-0.2-0.1-0.3-0.2-0.4-0.4c-0.1-0.2-0.1-0.3-0.2-0.5c0-0.2,0-0.4,0-0.6v-2.5h-1v-0.8h1V87h0.9v1.3h1.3V89.1z"/>
			<path style="fill:#333332;" d="M332.6,85.5h0.9v3.6h0c0.1-0.3,0.3-0.5,0.6-0.6c0.3-0.2,0.6-0.2,1-0.2c0.2,0,0.4,0,0.7,0.1
				c0.2,0.1,0.4,0.2,0.6,0.3c0.2,0.1,0.3,0.3,0.4,0.6c0.1,0.2,0.1,0.5,0.1,0.8v3h-0.9v-2.8c0-0.2,0-0.4-0.1-0.6
				c-0.1-0.2-0.1-0.3-0.2-0.4s-0.2-0.2-0.3-0.2c-0.1,0-0.3-0.1-0.4-0.1c-0.2,0-0.4,0-0.5,0.1c-0.2,0.1-0.3,0.2-0.4,0.3
				s-0.2,0.3-0.3,0.5c-0.1,0.2-0.1,0.4-0.1,0.7v2.4h-0.9V85.5z"/>
			<path style="fill:#333332;" d="M338.2,88.9c0.3-0.2,0.5-0.4,0.9-0.5c0.3-0.1,0.7-0.2,1-0.2c0.3,0,0.6,0,0.9,0.1
				c0.2,0.1,0.5,0.2,0.6,0.4c0.2,0.1,0.3,0.3,0.4,0.5c0.1,0.2,0.1,0.4,0.1,0.6v2.4c0,0.2,0,0.3,0,0.5c0,0.1,0,0.3,0,0.4h-0.8
				c0-0.2,0-0.5,0-0.7h0c-0.2,0.3-0.4,0.5-0.7,0.7c-0.3,0.1-0.6,0.2-1,0.2c-0.2,0-0.4,0-0.6-0.1c-0.2-0.1-0.4-0.1-0.5-0.3
				c-0.1-0.1-0.3-0.3-0.4-0.4c-0.1-0.2-0.1-0.4-0.1-0.6c0-0.3,0.1-0.6,0.2-0.8s0.3-0.4,0.6-0.5c0.2-0.1,0.5-0.2,0.8-0.3
				s0.7-0.1,1-0.1h0.7v-0.2c0-0.1,0-0.2-0.1-0.4c0-0.1-0.1-0.2-0.2-0.3c-0.1-0.1-0.2-0.2-0.4-0.2c-0.1-0.1-0.3-0.1-0.5-0.1
				c-0.2,0-0.3,0-0.5,0.1c-0.1,0-0.2,0.1-0.4,0.1c-0.1,0-0.2,0.1-0.3,0.2c-0.1,0.1-0.2,0.1-0.2,0.2L338.2,88.9z M340.7,90.8
				c-0.2,0-0.4,0-0.7,0c-0.2,0-0.4,0.1-0.6,0.1c-0.2,0.1-0.3,0.2-0.5,0.3s-0.2,0.3-0.2,0.5c0,0.3,0.1,0.5,0.3,0.6
				c0.2,0.1,0.4,0.2,0.7,0.2c0.2,0,0.5,0,0.6-0.1c0.2-0.1,0.3-0.2,0.4-0.3s0.2-0.3,0.2-0.4c0-0.2,0.1-0.3,0.1-0.5v-0.3H340.7z"/>
			<path style="fill:#333332;" d="M345.9,89.1h-1.3v2.1c0,0.1,0,0.3,0,0.4s0,0.2,0.1,0.4c0,0.1,0.1,0.2,0.2,0.2
				c0.1,0.1,0.2,0.1,0.4,0.1c0.1,0,0.2,0,0.3,0s0.2-0.1,0.3-0.1V93c-0.1,0.1-0.2,0.1-0.4,0.1s-0.3,0-0.4,0c-0.3,0-0.6,0-0.8-0.1
				c-0.2-0.1-0.3-0.2-0.4-0.4c-0.1-0.2-0.1-0.3-0.2-0.5c0-0.2,0-0.4,0-0.6v-2.5h-1v-0.8h1V87h0.9v1.3h1.3V89.1z"/>
			<path style="fill:#333332;" d="M8.4,101.1H7.1v2.1c0,0.1,0,0.3,0,0.4s0,0.2,0.1,0.4c0,0.1,0.1,0.2,0.2,0.2
				c0.1,0.1,0.2,0.1,0.4,0.1c0.1,0,0.2,0,0.3,0c0.1,0,0.2-0.1,0.3-0.1v0.8c-0.1,0.1-0.2,0.1-0.4,0.1c-0.2,0-0.3,0-0.4,0
				c-0.3,0-0.6,0-0.8-0.1c-0.2-0.1-0.3-0.2-0.4-0.4c-0.1-0.2-0.1-0.3-0.2-0.5c0-0.2,0-0.4,0-0.6v-2.5h-1v-0.8h1V99h0.9v1.3h1.3
				V101.1z"/>
			<path style="fill:#333332;" d="M9.5,97.5h0.9v3.6h0c0.1-0.3,0.3-0.5,0.6-0.6c0.3-0.2,0.6-0.2,1-0.2c0.2,0,0.4,0,0.7,0.1
				c0.2,0.1,0.4,0.2,0.6,0.3c0.2,0.1,0.3,0.3,0.4,0.6c0.1,0.2,0.1,0.5,0.1,0.8v3h-0.9v-2.8c0-0.2,0-0.4-0.1-0.6
				c-0.1-0.2-0.1-0.3-0.2-0.4s-0.2-0.2-0.3-0.2c-0.1,0-0.3-0.1-0.4-0.1c-0.2,0-0.4,0-0.5,0.1c-0.2,0.1-0.3,0.2-0.4,0.3
				s-0.2,0.3-0.3,0.5c-0.1,0.2-0.1,0.4-0.1,0.7v2.4H9.5V97.5z"/>
			<path style="fill:#333332;" d="M15.8,103c0,0.2,0,0.4,0.1,0.6c0.1,0.2,0.2,0.3,0.4,0.4c0.1,0.1,0.3,0.2,0.5,0.3
				c0.2,0.1,0.4,0.1,0.6,0.1c0.3,0,0.5-0.1,0.7-0.2s0.4-0.3,0.6-0.5l0.7,0.5c-0.5,0.6-1.2,1-2.1,1c-0.4,0-0.7-0.1-1-0.2
				c-0.3-0.1-0.6-0.3-0.8-0.5c-0.2-0.2-0.4-0.5-0.5-0.8c-0.1-0.3-0.2-0.6-0.2-1c0-0.4,0.1-0.7,0.2-1s0.3-0.6,0.5-0.8
				c0.2-0.2,0.5-0.4,0.8-0.5c0.3-0.1,0.6-0.2,1-0.2c0.4,0,0.8,0.1,1.1,0.2c0.3,0.1,0.5,0.3,0.7,0.6s0.3,0.5,0.4,0.8
				c0.1,0.3,0.1,0.6,0.1,0.9v0.3H15.8z M18.6,102.3c0-0.2,0-0.4-0.1-0.6c-0.1-0.2-0.1-0.3-0.3-0.4c-0.1-0.1-0.3-0.2-0.4-0.3
				c-0.2-0.1-0.4-0.1-0.6-0.1c-0.2,0-0.4,0-0.6,0.1c-0.2,0.1-0.3,0.2-0.5,0.3c-0.1,0.1-0.2,0.3-0.3,0.4c-0.1,0.2-0.1,0.3-0.1,0.5
				H18.6z"/>
			<path style="fill:#333332;" d="M23.4,97.5h0.9v3.5h0c0.2-0.2,0.4-0.4,0.7-0.6c0.3-0.1,0.6-0.2,1-0.2c0.4,0,0.7,0.1,1,0.2
				c0.3,0.1,0.5,0.3,0.8,0.5c0.2,0.2,0.4,0.5,0.5,0.8c0.1,0.3,0.2,0.6,0.2,1c0,0.4-0.1,0.7-0.2,1c-0.1,0.3-0.3,0.6-0.5,0.8
				c-0.2,0.2-0.5,0.4-0.8,0.5c-0.3,0.1-0.6,0.2-1,0.2c-0.3,0-0.6-0.1-0.9-0.2c-0.3-0.1-0.5-0.3-0.7-0.6h0v0.7h-0.9V97.5z
				 M25.9,104.4c0.2,0,0.5,0,0.6-0.1c0.2-0.1,0.4-0.2,0.5-0.3c0.1-0.1,0.2-0.3,0.3-0.5c0.1-0.2,0.1-0.4,0.1-0.7c0-0.2,0-0.5-0.1-0.7
				c-0.1-0.2-0.2-0.4-0.3-0.5c-0.1-0.1-0.3-0.3-0.5-0.3s-0.4-0.1-0.6-0.1c-0.2,0-0.5,0-0.6,0.1c-0.2,0.1-0.4,0.2-0.5,0.3
				c-0.1,0.1-0.2,0.3-0.3,0.5c-0.1,0.2-0.1,0.4-0.1,0.7c0,0.2,0,0.5,0.1,0.7c0.1,0.2,0.2,0.4,0.3,0.5c0.1,0.1,0.3,0.3,0.5,0.3
				C25.4,104.3,25.7,104.4,25.9,104.4z"/>
			<path style="fill:#333332;" d="M30.2,103c0,0.2,0,0.4,0.1,0.6c0.1,0.2,0.2,0.3,0.4,0.4c0.1,0.1,0.3,0.2,0.5,0.3
				c0.2,0.1,0.4,0.1,0.6,0.1c0.3,0,0.5-0.1,0.7-0.2s0.4-0.3,0.6-0.5l0.7,0.5c-0.5,0.6-1.2,1-2.1,1c-0.4,0-0.7-0.1-1-0.2
				c-0.3-0.1-0.6-0.3-0.8-0.5c-0.2-0.2-0.4-0.5-0.5-0.8c-0.1-0.3-0.2-0.6-0.2-1c0-0.4,0.1-0.7,0.2-1s0.3-0.6,0.5-0.8
				c0.2-0.2,0.5-0.4,0.8-0.5c0.3-0.1,0.6-0.2,1-0.2c0.4,0,0.8,0.1,1.1,0.2c0.3,0.1,0.5,0.3,0.7,0.6s0.3,0.5,0.4,0.8
				c0.1,0.3,0.1,0.6,0.1,0.9v0.3H30.2z M33.1,102.3c0-0.2,0-0.4-0.1-0.6c-0.1-0.2-0.1-0.3-0.3-0.4c-0.1-0.1-0.3-0.2-0.4-0.3
				c-0.2-0.1-0.4-0.1-0.6-0.1c-0.2,0-0.4,0-0.6,0.1c-0.2,0.1-0.3,0.2-0.5,0.3c-0.1,0.1-0.2,0.3-0.3,0.4c-0.1,0.2-0.1,0.3-0.1,0.5
				H33.1z"/>
			<path style="fill:#333332;" d="M37.6,101.1h-1.3v2.1c0,0.1,0,0.3,0,0.4s0,0.2,0.1,0.4c0,0.1,0.1,0.2,0.2,0.2
				c0.1,0.1,0.2,0.1,0.4,0.1c0.1,0,0.2,0,0.3,0s0.2-0.1,0.3-0.1v0.8c-0.1,0.1-0.2,0.1-0.4,0.1s-0.3,0-0.4,0c-0.3,0-0.6,0-0.8-0.1
				c-0.2-0.1-0.3-0.2-0.4-0.4c-0.1-0.2-0.1-0.3-0.2-0.5c0-0.2,0-0.4,0-0.6v-2.5h-1v-0.8h1V99h0.9v1.3h1.3V101.1z"/>
			<path style="fill:#333332;" d="M41.3,101.1h-1.3v2.1c0,0.1,0,0.3,0,0.4s0,0.2,0.1,0.4c0,0.1,0.1,0.2,0.2,0.2
				c0.1,0.1,0.2,0.1,0.4,0.1c0.1,0,0.2,0,0.3,0s0.2-0.1,0.3-0.1v0.8c-0.1,0.1-0.2,0.1-0.4,0.1s-0.3,0-0.4,0c-0.3,0-0.6,0-0.8-0.1
				c-0.2-0.1-0.3-0.2-0.4-0.4c-0.1-0.2-0.1-0.3-0.2-0.5c0-0.2,0-0.4,0-0.6v-2.5h-1v-0.8h1V99h0.9v1.3h1.3V101.1z"/>
			<path style="fill:#333332;" d="M43.2,103c0,0.2,0,0.4,0.1,0.6c0.1,0.2,0.2,0.3,0.4,0.4c0.1,0.1,0.3,0.2,0.5,0.3
				c0.2,0.1,0.4,0.1,0.6,0.1c0.3,0,0.5-0.1,0.7-0.2s0.4-0.3,0.6-0.5l0.7,0.5c-0.5,0.6-1.2,1-2.1,1c-0.4,0-0.7-0.1-1-0.2
				c-0.3-0.1-0.6-0.3-0.8-0.5c-0.2-0.2-0.4-0.5-0.5-0.8c-0.1-0.3-0.2-0.6-0.2-1c0-0.4,0.1-0.7,0.2-1s0.3-0.6,0.5-0.8
				c0.2-0.2,0.5-0.4,0.8-0.5c0.3-0.1,0.6-0.2,1-0.2c0.4,0,0.8,0.1,1.1,0.2c0.3,0.1,0.5,0.3,0.7,0.6s0.3,0.5,0.4,0.8
				c0.1,0.3,0.1,0.6,0.1,0.9v0.3H43.2z M46,102.3c0-0.2,0-0.4-0.1-0.6c-0.1-0.2-0.1-0.3-0.3-0.4c-0.1-0.1-0.3-0.2-0.4-0.3
				c-0.2-0.1-0.4-0.1-0.6-0.1c-0.2,0-0.4,0-0.6,0.1c-0.2,0.1-0.3,0.2-0.5,0.3c-0.1,0.1-0.2,0.3-0.3,0.4c-0.1,0.2-0.1,0.3-0.1,0.5H46
				z"/>
			<path style="fill:#333332;" d="M48.1,100.3H49v0.7h0c0.1-0.1,0.1-0.2,0.2-0.3c0.1-0.1,0.2-0.2,0.3-0.3c0.1-0.1,0.3-0.1,0.4-0.2
				c0.1,0,0.3-0.1,0.4-0.1c0.1,0,0.3,0,0.4,0.1l0,1c-0.1,0-0.1,0-0.2,0c-0.1,0-0.1,0-0.2,0c-0.4,0-0.8,0.1-1,0.4
				c-0.2,0.2-0.4,0.6-0.4,1.1v2.4h-0.9V100.3z"/>
			<path style="fill:#333332;" d="M54,100.3h1l1.1,3.5h0l1.1-3.5h1l1.2,3.5h0l1-3.5h1l-1.5,4.7h-0.9l-1.3-3.5h0l-1.1,3.5h-1
				L54,100.3z"/>
			<path style="fill:#333332;" d="M61.9,102.7c0-0.3,0.1-0.7,0.2-1c0.1-0.3,0.3-0.6,0.5-0.8c0.2-0.2,0.5-0.4,0.8-0.5s0.6-0.2,1-0.2
				c0.4,0,0.7,0.1,1,0.2s0.6,0.3,0.8,0.5s0.4,0.5,0.5,0.8c0.1,0.3,0.2,0.6,0.2,1s-0.1,0.7-0.2,1s-0.3,0.6-0.5,0.8
				c-0.2,0.2-0.5,0.4-0.8,0.5c-0.3,0.1-0.6,0.2-1,0.2c-0.4,0-0.7-0.1-1-0.2c-0.3-0.1-0.6-0.3-0.8-0.5c-0.2-0.2-0.4-0.5-0.5-0.8
				S61.9,103.1,61.9,102.7z M62.9,102.7c0,0.2,0,0.5,0.1,0.7c0.1,0.2,0.2,0.4,0.3,0.5c0.1,0.1,0.3,0.3,0.5,0.3
				c0.2,0.1,0.4,0.1,0.7,0.1c0.2,0,0.5,0,0.6-0.1c0.2-0.1,0.4-0.2,0.5-0.3c0.1-0.1,0.2-0.3,0.3-0.5c0.1-0.2,0.1-0.4,0.1-0.7
				c0-0.2,0-0.5-0.1-0.7c-0.1-0.2-0.2-0.4-0.3-0.5c-0.1-0.1-0.3-0.3-0.5-0.3s-0.4-0.1-0.6-0.1c-0.2,0-0.5,0-0.7,0.1
				s-0.4,0.2-0.5,0.3c-0.1,0.1-0.2,0.3-0.3,0.5C62.9,102.2,62.9,102.5,62.9,102.7z"/>
			<path style="fill:#333332;" d="M68.1,100.3H69v0.7h0c0.1-0.1,0.1-0.2,0.2-0.3c0.1-0.1,0.2-0.2,0.3-0.3c0.1-0.1,0.3-0.1,0.4-0.2
				c0.1,0,0.3-0.1,0.4-0.1c0.1,0,0.3,0,0.4,0.1l0,1c-0.1,0-0.1,0-0.2,0c-0.1,0-0.1,0-0.2,0c-0.4,0-0.8,0.1-1,0.4
				c-0.2,0.2-0.4,0.6-0.4,1.1v2.4h-0.9V100.3z"/>
			<path style="fill:#333332;" d="M76.3,105.1h-0.9v-0.7h0c-0.2,0.3-0.4,0.5-0.7,0.6c-0.3,0.1-0.6,0.2-0.9,0.2c-0.4,0-0.7-0.1-1-0.2
				c-0.3-0.1-0.6-0.3-0.8-0.5c-0.2-0.2-0.4-0.5-0.5-0.8c-0.1-0.3-0.2-0.6-0.2-1c0-0.4,0.1-0.7,0.2-1c0.1-0.3,0.3-0.6,0.5-0.8
				c0.2-0.2,0.5-0.4,0.8-0.5c0.3-0.1,0.6-0.2,1-0.2c0.3,0,0.7,0.1,1,0.2c0.3,0.1,0.5,0.3,0.7,0.6h0v-3.5h0.9V105.1z M73.9,104.4
				c0.2,0,0.5,0,0.6-0.1c0.2-0.1,0.4-0.2,0.5-0.3c0.1-0.1,0.2-0.3,0.3-0.5c0.1-0.2,0.1-0.4,0.1-0.7c0-0.2,0-0.5-0.1-0.7
				c-0.1-0.2-0.2-0.4-0.3-0.5c-0.1-0.1-0.3-0.3-0.5-0.3s-0.4-0.1-0.6-0.1c-0.2,0-0.5,0-0.7,0.1s-0.4,0.2-0.5,0.3
				c-0.1,0.1-0.2,0.3-0.3,0.5c-0.1,0.2-0.1,0.4-0.1,0.7c0,0.2,0,0.5,0.1,0.7c0.1,0.2,0.2,0.4,0.3,0.5c0.1,0.1,0.3,0.3,0.5,0.3
				C73.4,104.3,73.6,104.4,73.9,104.4z"/>
			<path style="fill:#333332;" d="M85.2,105c0,0.4-0.1,0.7-0.2,1c-0.1,0.3-0.3,0.6-0.5,0.8c-0.2,0.2-0.5,0.4-0.8,0.5
				c-0.3,0.1-0.7,0.2-1.1,0.2c-0.5,0-0.9-0.1-1.2-0.2c-0.4-0.1-0.7-0.3-1.1-0.7l0.6-0.8c0.2,0.3,0.5,0.4,0.8,0.6
				c0.3,0.1,0.6,0.2,0.9,0.2c0.3,0,0.6,0,0.8-0.1c0.2-0.1,0.4-0.2,0.5-0.4c0.1-0.2,0.2-0.3,0.3-0.5c0.1-0.2,0.1-0.4,0.1-0.6v-0.7h0
				c-0.2,0.3-0.4,0.5-0.7,0.6s-0.6,0.2-0.9,0.2c-0.3,0-0.7-0.1-1-0.2c-0.3-0.1-0.6-0.3-0.8-0.5c-0.2-0.2-0.4-0.5-0.5-0.8
				c-0.1-0.3-0.2-0.6-0.2-1s0.1-0.7,0.2-1c0.1-0.3,0.3-0.6,0.5-0.8c0.2-0.2,0.5-0.4,0.8-0.5c0.3-0.1,0.6-0.2,1-0.2
				c0.3,0,0.6,0.1,0.9,0.2s0.5,0.3,0.7,0.6h0v-0.7h0.9V105z M82.8,101.1c-0.2,0-0.5,0-0.7,0.1s-0.4,0.2-0.5,0.3
				c-0.1,0.1-0.2,0.3-0.3,0.5c-0.1,0.2-0.1,0.4-0.1,0.7c0,0.5,0.1,0.9,0.4,1.2c0.3,0.3,0.7,0.4,1.1,0.4s0.9-0.1,1.1-0.4
				c0.3-0.3,0.4-0.7,0.4-1.2c0-0.2,0-0.5-0.1-0.7c-0.1-0.2-0.2-0.4-0.3-0.5c-0.1-0.1-0.3-0.3-0.5-0.3S83,101.1,82.8,101.1z"/>
			<path style="fill:#333332;" d="M86.6,100.3h0.9v0.7h0c0.1-0.1,0.1-0.2,0.2-0.3c0.1-0.1,0.2-0.2,0.3-0.3c0.1-0.1,0.3-0.1,0.4-0.2
				c0.1,0,0.3-0.1,0.4-0.1c0.1,0,0.3,0,0.4,0.1l0,1c-0.1,0-0.1,0-0.2,0c-0.1,0-0.1,0-0.2,0c-0.4,0-0.8,0.1-1,0.4
				c-0.2,0.2-0.4,0.6-0.4,1.1v2.4h-0.9V100.3z"/>
			<path style="fill:#333332;" d="M89.9,102.7c0-0.3,0.1-0.7,0.2-1c0.1-0.3,0.3-0.6,0.5-0.8c0.2-0.2,0.5-0.4,0.8-0.5s0.6-0.2,1-0.2
				c0.4,0,0.7,0.1,1,0.2s0.6,0.3,0.8,0.5s0.4,0.5,0.5,0.8c0.1,0.3,0.2,0.6,0.2,1s-0.1,0.7-0.2,1s-0.3,0.6-0.5,0.8
				c-0.2,0.2-0.5,0.4-0.8,0.5c-0.3,0.1-0.6,0.2-1,0.2c-0.4,0-0.7-0.1-1-0.2c-0.3-0.1-0.6-0.3-0.8-0.5c-0.2-0.2-0.4-0.5-0.5-0.8
				S89.9,103.1,89.9,102.7z M90.8,102.7c0,0.2,0,0.5,0.1,0.7c0.1,0.2,0.2,0.4,0.3,0.5c0.1,0.1,0.3,0.3,0.5,0.3
				c0.2,0.1,0.4,0.1,0.7,0.1c0.2,0,0.5,0,0.6-0.1c0.2-0.1,0.4-0.2,0.5-0.3c0.1-0.1,0.2-0.3,0.3-0.5c0.1-0.2,0.1-0.4,0.1-0.7
				c0-0.2,0-0.5-0.1-0.7c-0.1-0.2-0.2-0.4-0.3-0.5c-0.1-0.1-0.3-0.3-0.5-0.3s-0.4-0.1-0.6-0.1c-0.2,0-0.5,0-0.7,0.1
				s-0.4,0.2-0.5,0.3c-0.1,0.1-0.2,0.3-0.3,0.5C90.9,102.2,90.8,102.5,90.8,102.7z"/>
			<path style="fill:#333332;" d="M96.1,100.3h0.8v0.7h0c0-0.1,0.1-0.1,0.2-0.2s0.2-0.2,0.3-0.3c0.1-0.1,0.3-0.2,0.5-0.2
				c0.2-0.1,0.4-0.1,0.6-0.1c0.4,0,0.6,0.1,0.9,0.2c0.2,0.1,0.4,0.4,0.6,0.7c0.2-0.3,0.4-0.5,0.6-0.7c0.3-0.1,0.6-0.2,0.9-0.2
				c0.4,0,0.7,0.1,0.9,0.2c0.2,0.1,0.4,0.3,0.6,0.5c0.1,0.2,0.2,0.4,0.3,0.7c0,0.2,0.1,0.5,0.1,0.8v2.8h-0.9v-2.6c0-0.2,0-0.4,0-0.5
				c0-0.2-0.1-0.3-0.1-0.4c-0.1-0.1-0.2-0.2-0.3-0.3c-0.1-0.1-0.3-0.1-0.5-0.1c-0.4,0-0.7,0.1-0.9,0.4c-0.2,0.3-0.3,0.6-0.3,1v2.6
				h-0.9v-2.5c0-0.2,0-0.4,0-0.6c0-0.2-0.1-0.3-0.1-0.5c-0.1-0.1-0.2-0.2-0.3-0.3s-0.3-0.1-0.5-0.1c-0.2,0-0.3,0-0.5,0.1
				c-0.2,0.1-0.3,0.2-0.4,0.3c-0.1,0.1-0.2,0.3-0.3,0.5c-0.1,0.2-0.1,0.4-0.1,0.7v2.5h-0.9V100.3z"/>
			<path style="fill:#333332;" d="M108.5,100.5h-1l0.8-2.5h0.8L108.5,100.5z M110.3,100.5h-1l0.8-2.5h0.8L110.3,100.5z"/>
			<path style="fill:#333332;" d="M116.7,105.1h-0.9v-0.7h0c-0.1,0.3-0.3,0.5-0.6,0.6c-0.3,0.2-0.6,0.2-1,0.2c-0.2,0-0.5,0-0.7-0.1
				c-0.2-0.1-0.4-0.2-0.5-0.3c-0.2-0.1-0.3-0.3-0.4-0.6s-0.1-0.5-0.1-0.8v-3.1h0.9v2.8c0,0.2,0,0.4,0.1,0.6s0.1,0.3,0.2,0.4
				c0.1,0.1,0.2,0.2,0.3,0.2c0.1,0,0.3,0.1,0.4,0.1c0.2,0,0.4,0,0.5-0.1c0.2-0.1,0.3-0.2,0.4-0.3c0.1-0.1,0.2-0.3,0.3-0.5
				c0.1-0.2,0.1-0.4,0.1-0.7v-2.4h0.9V105.1z"/>
			<path style="fill:#333332;" d="M118.1,100.3h0.9v0.7h0c0.1-0.3,0.3-0.5,0.6-0.6c0.3-0.2,0.6-0.2,1-0.2c0.2,0,0.4,0,0.7,0.1
				c0.2,0.1,0.4,0.2,0.6,0.3c0.2,0.1,0.3,0.3,0.4,0.6c0.1,0.2,0.1,0.5,0.1,0.8v3h-0.9v-2.8c0-0.2,0-0.4-0.1-0.6
				c-0.1-0.2-0.1-0.3-0.2-0.4s-0.2-0.2-0.3-0.2c-0.1,0-0.3-0.1-0.4-0.1c-0.2,0-0.4,0-0.5,0.1c-0.2,0.1-0.3,0.2-0.4,0.3
				s-0.2,0.3-0.3,0.5c-0.1,0.2-0.1,0.4-0.1,0.7v2.4h-0.9V100.3z"/>
			<path style="fill:#333332;" d="M123.5,98.6c0-0.2,0.1-0.3,0.2-0.5c0.1-0.1,0.3-0.2,0.5-0.2c0.2,0,0.3,0.1,0.5,0.2
				c0.1,0.1,0.2,0.3,0.2,0.5s-0.1,0.3-0.2,0.5s-0.3,0.2-0.5,0.2c-0.2,0-0.3-0.1-0.5-0.2C123.6,99,123.5,98.8,123.5,98.6z
				 M123.7,100.3h0.9v4.7h-0.9V100.3z"/>
			<path style="fill:#333332;" d="M130.8,107.4h-0.9v-3h0c-0.2,0.2-0.4,0.4-0.7,0.6c-0.3,0.1-0.6,0.2-1,0.2c-0.4,0-0.7-0.1-1-0.2
				c-0.3-0.1-0.6-0.3-0.8-0.5c-0.2-0.2-0.4-0.5-0.5-0.8c-0.1-0.3-0.2-0.6-0.2-1c0-0.3,0.1-0.7,0.2-1c0.1-0.3,0.3-0.6,0.5-0.8
				c0.2-0.2,0.5-0.4,0.8-0.5c0.3-0.1,0.6-0.2,1-0.2c0.3,0,0.6,0.1,0.9,0.2s0.5,0.3,0.7,0.6h0v-0.7h0.9V107.4z M128.4,101.1
				c-0.2,0-0.5,0-0.7,0.1s-0.4,0.2-0.5,0.3c-0.1,0.1-0.2,0.3-0.3,0.5c-0.1,0.2-0.1,0.4-0.1,0.7c0,0.2,0,0.5,0.1,0.7
				c0.1,0.2,0.2,0.4,0.3,0.5c0.1,0.1,0.3,0.3,0.5,0.3c0.2,0.1,0.4,0.1,0.7,0.1c0.2,0,0.5,0,0.6-0.1c0.2-0.1,0.4-0.2,0.5-0.3
				c0.1-0.1,0.2-0.3,0.3-0.5c0.1-0.2,0.1-0.4,0.1-0.7c0-0.2,0-0.5-0.1-0.7c-0.1-0.2-0.2-0.4-0.3-0.5c-0.1-0.1-0.3-0.3-0.5-0.3
				S128.6,101.1,128.4,101.1z"/>
			<path style="fill:#333332;" d="M136.4,105.1h-0.9v-0.7h0c-0.1,0.3-0.3,0.5-0.6,0.6c-0.3,0.2-0.6,0.2-1,0.2c-0.2,0-0.5,0-0.7-0.1
				c-0.2-0.1-0.4-0.2-0.5-0.3c-0.2-0.1-0.3-0.3-0.4-0.6s-0.1-0.5-0.1-0.8v-3.1h0.9v2.8c0,0.2,0,0.4,0.1,0.6s0.1,0.3,0.2,0.4
				c0.1,0.1,0.2,0.2,0.3,0.2c0.1,0,0.3,0.1,0.4,0.1c0.2,0,0.4,0,0.5-0.1c0.2-0.1,0.3-0.2,0.4-0.3c0.1-0.1,0.2-0.3,0.3-0.5
				c0.1-0.2,0.1-0.4,0.1-0.7v-2.4h0.9V105.1z"/>
			<path style="fill:#333332;" d="M138.4,103c0,0.2,0,0.4,0.1,0.6c0.1,0.2,0.2,0.3,0.4,0.4c0.1,0.1,0.3,0.2,0.5,0.3
				c0.2,0.1,0.4,0.1,0.6,0.1c0.3,0,0.5-0.1,0.7-0.2s0.4-0.3,0.6-0.5l0.7,0.5c-0.5,0.6-1.2,1-2.1,1c-0.4,0-0.7-0.1-1-0.2
				c-0.3-0.1-0.6-0.3-0.8-0.5c-0.2-0.2-0.4-0.5-0.5-0.8c-0.1-0.3-0.2-0.6-0.2-1c0-0.4,0.1-0.7,0.2-1s0.3-0.6,0.5-0.8
				c0.2-0.2,0.5-0.4,0.8-0.5c0.3-0.1,0.6-0.2,1-0.2c0.4,0,0.8,0.1,1.1,0.2c0.3,0.1,0.5,0.3,0.7,0.6s0.3,0.5,0.4,0.8
				c0.1,0.3,0.1,0.6,0.1,0.9v0.3H138.4z M141.3,102.3c0-0.2,0-0.4-0.1-0.6c-0.1-0.2-0.1-0.3-0.3-0.4c-0.1-0.1-0.3-0.2-0.4-0.3
				c-0.2-0.1-0.4-0.1-0.6-0.1c-0.2,0-0.4,0-0.6,0.1c-0.2,0.1-0.3,0.2-0.5,0.3c-0.1,0.1-0.2,0.3-0.3,0.4c-0.1,0.2-0.1,0.3-0.1,0.5
				H141.3z"/>
			<path style="fill:#333332;" d="M144.3,100.5h-0.8l0.7-2.5h1L144.3,100.5z M146.1,100.5h-0.8L146,98h1L146.1,100.5z"/>
			<path style="fill:#333332;" d="M151.1,98.6c0-0.2,0.1-0.3,0.2-0.5c0.1-0.1,0.3-0.2,0.5-0.2c0.2,0,0.3,0.1,0.5,0.2
				c0.1,0.1,0.2,0.3,0.2,0.5s-0.1,0.3-0.2,0.5s-0.3,0.2-0.5,0.2c-0.2,0-0.3-0.1-0.5-0.2C151.2,99,151.1,98.8,151.1,98.6z
				 M151.3,100.3h0.9v4.7h-0.9V100.3z"/>
			<path style="fill:#333332;" d="M156.2,101.5c-0.1-0.1-0.2-0.2-0.4-0.3c-0.2-0.1-0.3-0.1-0.6-0.1c-0.2,0-0.4,0-0.6,0.1
				c-0.2,0.1-0.2,0.2-0.2,0.4c0,0.1,0,0.3,0.1,0.3c0.1,0.1,0.2,0.2,0.3,0.2c0.1,0.1,0.3,0.1,0.4,0.1c0.1,0,0.3,0,0.4,0.1
				c0.2,0,0.4,0.1,0.5,0.2c0.2,0.1,0.3,0.2,0.4,0.3c0.1,0.1,0.2,0.2,0.3,0.4c0.1,0.2,0.1,0.3,0.1,0.6c0,0.3-0.1,0.5-0.2,0.7
				s-0.3,0.3-0.4,0.5c-0.2,0.1-0.4,0.2-0.6,0.3s-0.5,0.1-0.7,0.1c-0.4,0-0.7-0.1-1-0.2c-0.3-0.1-0.6-0.3-0.8-0.7l0.7-0.6
				c0.1,0.1,0.3,0.3,0.5,0.4c0.2,0.1,0.4,0.2,0.7,0.2c0.1,0,0.2,0,0.3,0s0.2-0.1,0.3-0.1c0.1,0,0.2-0.1,0.2-0.2
				c0.1-0.1,0.1-0.2,0.1-0.3c0-0.1,0-0.2-0.1-0.3s-0.2-0.2-0.3-0.2s-0.2-0.1-0.4-0.1c-0.1,0-0.2-0.1-0.3-0.1c-0.2,0-0.4-0.1-0.6-0.2
				s-0.3-0.1-0.5-0.2c-0.1-0.1-0.2-0.2-0.3-0.4s-0.1-0.3-0.1-0.6c0-0.2,0.1-0.5,0.2-0.6c0.1-0.2,0.2-0.3,0.4-0.5s0.4-0.2,0.6-0.3
				s0.4-0.1,0.7-0.1c0.3,0,0.6,0.1,0.9,0.2c0.3,0.1,0.5,0.3,0.7,0.6L156.2,101.5z"/>
			<path style="fill:#333332;" d="M162,100.5h-1l0.8-2.5h0.8L162,100.5z M163.8,100.5h-1l0.8-2.5h0.8L163.8,100.5z"/>
			<path style="fill:#333332;" d="M166.1,100.3h0.8v0.7h0c0-0.1,0.1-0.1,0.2-0.2s0.2-0.2,0.3-0.3c0.1-0.1,0.3-0.2,0.5-0.2
				c0.2-0.1,0.4-0.1,0.6-0.1c0.4,0,0.6,0.1,0.9,0.2c0.2,0.1,0.4,0.4,0.6,0.7c0.2-0.3,0.4-0.5,0.6-0.7c0.3-0.1,0.6-0.2,0.9-0.2
				c0.4,0,0.7,0.1,0.9,0.2c0.2,0.1,0.4,0.3,0.6,0.5c0.1,0.2,0.2,0.4,0.3,0.7c0,0.2,0.1,0.5,0.1,0.8v2.8h-0.9v-2.6c0-0.2,0-0.4,0-0.5
				c0-0.2-0.1-0.3-0.1-0.4c-0.1-0.1-0.2-0.2-0.3-0.3c-0.1-0.1-0.3-0.1-0.5-0.1c-0.4,0-0.7,0.1-0.9,0.4c-0.2,0.3-0.3,0.6-0.3,1v2.6
				h-0.9v-2.5c0-0.2,0-0.4,0-0.6c0-0.2-0.1-0.3-0.1-0.5c-0.1-0.1-0.2-0.2-0.3-0.3c-0.1-0.1-0.3-0.1-0.5-0.1c-0.2,0-0.3,0-0.5,0.1
				c-0.2,0.1-0.3,0.2-0.4,0.3c-0.1,0.1-0.2,0.3-0.3,0.5c-0.1,0.2-0.1,0.4-0.1,0.7v2.5h-0.9V100.3z"/>
			<path style="fill:#333332;" d="M174.4,102.7c0-0.3,0.1-0.7,0.2-1c0.1-0.3,0.3-0.6,0.5-0.8c0.2-0.2,0.5-0.4,0.8-0.5s0.6-0.2,1-0.2
				c0.4,0,0.7,0.1,1,0.2s0.6,0.3,0.8,0.5s0.4,0.5,0.5,0.8c0.1,0.3,0.2,0.6,0.2,1s-0.1,0.7-0.2,1s-0.3,0.6-0.5,0.8
				c-0.2,0.2-0.5,0.4-0.8,0.5c-0.3,0.1-0.6,0.2-1,0.2c-0.4,0-0.7-0.1-1-0.2c-0.3-0.1-0.6-0.3-0.8-0.5c-0.2-0.2-0.4-0.5-0.5-0.8
				S174.4,103.1,174.4,102.7z M175.3,102.7c0,0.2,0,0.5,0.1,0.7c0.1,0.2,0.2,0.4,0.3,0.5c0.1,0.1,0.3,0.3,0.5,0.3
				c0.2,0.1,0.4,0.1,0.7,0.1c0.2,0,0.5,0,0.6-0.1c0.2-0.1,0.4-0.2,0.5-0.3c0.1-0.1,0.2-0.3,0.3-0.5c0.1-0.2,0.1-0.4,0.1-0.7
				c0-0.2,0-0.5-0.1-0.7c-0.1-0.2-0.2-0.4-0.3-0.5c-0.1-0.1-0.3-0.3-0.5-0.3s-0.4-0.1-0.6-0.1c-0.2,0-0.5,0-0.7,0.1
				c-0.2,0.1-0.4,0.2-0.5,0.3c-0.1,0.1-0.2,0.3-0.3,0.5C175.4,102.2,175.3,102.5,175.3,102.7z"/>
			<path style="fill:#333332;" d="M183.1,101.5c-0.1-0.1-0.2-0.2-0.4-0.3c-0.2-0.1-0.3-0.1-0.6-0.1c-0.2,0-0.4,0-0.6,0.1
				c-0.2,0.1-0.2,0.2-0.2,0.4c0,0.1,0,0.3,0.1,0.3c0.1,0.1,0.2,0.2,0.3,0.2c0.1,0.1,0.3,0.1,0.4,0.1c0.1,0,0.3,0,0.4,0.1
				c0.2,0,0.4,0.1,0.5,0.2c0.2,0.1,0.3,0.2,0.4,0.3c0.1,0.1,0.2,0.2,0.3,0.4c0.1,0.2,0.1,0.3,0.1,0.6c0,0.3-0.1,0.5-0.2,0.7
				s-0.3,0.3-0.4,0.5c-0.2,0.1-0.4,0.2-0.6,0.3s-0.5,0.1-0.7,0.1c-0.4,0-0.7-0.1-1-0.2c-0.3-0.1-0.6-0.3-0.8-0.7l0.7-0.6
				c0.1,0.1,0.3,0.3,0.5,0.4c0.2,0.1,0.4,0.2,0.7,0.2c0.1,0,0.2,0,0.3,0s0.2-0.1,0.3-0.1c0.1,0,0.2-0.1,0.2-0.2
				c0.1-0.1,0.1-0.2,0.1-0.3c0-0.1,0-0.2-0.1-0.3s-0.2-0.2-0.3-0.2s-0.2-0.1-0.4-0.1c-0.1,0-0.2-0.1-0.3-0.1c-0.2,0-0.4-0.1-0.6-0.2
				c-0.2-0.1-0.3-0.1-0.5-0.2c-0.1-0.1-0.2-0.2-0.3-0.4s-0.1-0.3-0.1-0.6c0-0.2,0.1-0.5,0.2-0.6c0.1-0.2,0.2-0.3,0.4-0.5
				s0.4-0.2,0.6-0.3s0.4-0.1,0.7-0.1c0.3,0,0.6,0.1,0.9,0.2c0.3,0.1,0.5,0.3,0.7,0.6L183.1,101.5z"/>
			<path style="fill:#333332;" d="M187.5,101.1h-1.3v2.1c0,0.1,0,0.3,0,0.4c0,0.1,0,0.2,0.1,0.4c0,0.1,0.1,0.2,0.2,0.2
				c0.1,0.1,0.2,0.1,0.4,0.1c0.1,0,0.2,0,0.3,0c0.1,0,0.2-0.1,0.3-0.1v0.8c-0.1,0.1-0.2,0.1-0.4,0.1s-0.3,0-0.4,0
				c-0.3,0-0.6,0-0.8-0.1c-0.2-0.1-0.3-0.2-0.4-0.4c-0.1-0.2-0.1-0.3-0.2-0.5c0-0.2,0-0.4,0-0.6v-2.5h-1v-0.8h1V99h0.9v1.3h1.3
				V101.1z"/>
			<path style="fill:#333332;" d="M191.5,100.9c0.3-0.2,0.5-0.4,0.9-0.5c0.3-0.1,0.7-0.2,1-0.2c0.3,0,0.6,0,0.9,0.1
				c0.2,0.1,0.5,0.2,0.6,0.4c0.2,0.1,0.3,0.3,0.4,0.5s0.1,0.4,0.1,0.6v2.4c0,0.2,0,0.3,0,0.5c0,0.1,0,0.3,0,0.4h-0.8
				c0-0.2,0-0.5,0-0.7h0c-0.2,0.3-0.4,0.5-0.7,0.7c-0.3,0.1-0.6,0.2-1,0.2c-0.2,0-0.4,0-0.6-0.1c-0.2-0.1-0.4-0.1-0.5-0.3
				c-0.1-0.1-0.3-0.3-0.4-0.4c-0.1-0.2-0.1-0.4-0.1-0.6c0-0.3,0.1-0.6,0.2-0.8s0.3-0.4,0.6-0.5c0.2-0.1,0.5-0.2,0.8-0.3
				s0.7-0.1,1-0.1h0.7v-0.2c0-0.1,0-0.2-0.1-0.4c0-0.1-0.1-0.2-0.2-0.3c-0.1-0.1-0.2-0.2-0.4-0.2c-0.1-0.1-0.3-0.1-0.5-0.1
				c-0.2,0-0.3,0-0.5,0.1c-0.1,0-0.2,0.1-0.4,0.1c-0.1,0-0.2,0.1-0.3,0.2c-0.1,0.1-0.2,0.1-0.2,0.2L191.5,100.9z M194,102.8
				c-0.2,0-0.4,0-0.7,0c-0.2,0-0.4,0.1-0.6,0.1c-0.2,0.1-0.3,0.2-0.5,0.3s-0.2,0.3-0.2,0.5c0,0.3,0.1,0.5,0.3,0.6
				c0.2,0.1,0.4,0.2,0.7,0.2c0.2,0,0.5,0,0.6-0.1c0.2-0.1,0.3-0.2,0.4-0.3s0.2-0.3,0.2-0.4c0-0.2,0.1-0.3,0.1-0.5v-0.3H194z"/>
			<path style="fill:#333332;" d="M201.4,105.1h-0.9v-0.7h0c-0.2,0.3-0.4,0.5-0.7,0.6c-0.3,0.1-0.6,0.2-0.9,0.2
				c-0.4,0-0.7-0.1-1-0.2c-0.3-0.1-0.6-0.3-0.8-0.5c-0.2-0.2-0.4-0.5-0.5-0.8c-0.1-0.3-0.2-0.6-0.2-1c0-0.4,0.1-0.7,0.2-1
				c0.1-0.3,0.3-0.6,0.5-0.8c0.2-0.2,0.5-0.4,0.8-0.5c0.3-0.1,0.6-0.2,1-0.2c0.3,0,0.7,0.1,1,0.2c0.3,0.1,0.5,0.3,0.7,0.6h0v-3.5
				h0.9V105.1z M198.9,104.4c0.2,0,0.5,0,0.6-0.1c0.2-0.1,0.4-0.2,0.5-0.3c0.1-0.1,0.2-0.3,0.3-0.5c0.1-0.2,0.1-0.4,0.1-0.7
				c0-0.2,0-0.5-0.1-0.7c-0.1-0.2-0.2-0.4-0.3-0.5c-0.1-0.1-0.3-0.3-0.5-0.3s-0.4-0.1-0.6-0.1c-0.2,0-0.5,0-0.7,0.1
				s-0.4,0.2-0.5,0.3c-0.1,0.1-0.2,0.3-0.3,0.5c-0.1,0.2-0.1,0.4-0.1,0.7c0,0.2,0,0.5,0.1,0.7c0.1,0.2,0.2,0.4,0.3,0.5
				c0.1,0.1,0.3,0.3,0.5,0.3C198.5,104.3,198.7,104.4,198.9,104.4z"/>
			<path style="fill:#333332;" d="M202.2,100.3h1l1.4,3.6l1.4-3.6h1l-1.9,4.7h-1L202.2,100.3z"/>
			<path style="fill:#333332;" d="M207.8,100.9c0.3-0.2,0.5-0.4,0.9-0.5c0.3-0.1,0.7-0.2,1-0.2c0.3,0,0.6,0,0.9,0.1
				c0.2,0.1,0.5,0.2,0.6,0.4c0.2,0.1,0.3,0.3,0.4,0.5s0.1,0.4,0.1,0.6v2.4c0,0.2,0,0.3,0,0.5c0,0.1,0,0.3,0,0.4h-0.8
				c0-0.2,0-0.5,0-0.7h0c-0.2,0.3-0.4,0.5-0.7,0.7c-0.3,0.1-0.6,0.2-1,0.2c-0.2,0-0.4,0-0.6-0.1c-0.2-0.1-0.4-0.1-0.5-0.3
				c-0.1-0.1-0.3-0.3-0.4-0.4c-0.1-0.2-0.1-0.4-0.1-0.6c0-0.3,0.1-0.6,0.2-0.8s0.3-0.4,0.6-0.5c0.2-0.1,0.5-0.2,0.8-0.3
				s0.7-0.1,1-0.1h0.7v-0.2c0-0.1,0-0.2-0.1-0.4c0-0.1-0.1-0.2-0.2-0.3c-0.1-0.1-0.2-0.2-0.4-0.2c-0.1-0.1-0.3-0.1-0.5-0.1
				c-0.2,0-0.3,0-0.5,0.1c-0.1,0-0.2,0.1-0.4,0.1c-0.1,0-0.2,0.1-0.3,0.2c-0.1,0.1-0.2,0.1-0.2,0.2L207.8,100.9z M210.3,102.8
				c-0.2,0-0.4,0-0.7,0c-0.2,0-0.4,0.1-0.6,0.1c-0.2,0.1-0.3,0.2-0.5,0.3s-0.2,0.3-0.2,0.5c0,0.3,0.1,0.5,0.3,0.6
				c0.2,0.1,0.4,0.2,0.7,0.2c0.2,0,0.5,0,0.6-0.1c0.2-0.1,0.3-0.2,0.4-0.3s0.2-0.3,0.2-0.4c0-0.2,0.1-0.3,0.1-0.5v-0.3H210.3z"/>
			<path style="fill:#333332;" d="M212.9,100.3h0.9v0.7h0c0.1-0.3,0.3-0.5,0.6-0.6c0.3-0.2,0.6-0.2,1-0.2c0.2,0,0.4,0,0.7,0.1
				c0.2,0.1,0.4,0.2,0.6,0.3c0.2,0.1,0.3,0.3,0.4,0.6c0.1,0.2,0.1,0.5,0.1,0.8v3h-0.9v-2.8c0-0.2,0-0.4-0.1-0.6
				c-0.1-0.2-0.1-0.3-0.2-0.4s-0.2-0.2-0.3-0.2c-0.1,0-0.3-0.1-0.4-0.1c-0.2,0-0.4,0-0.5,0.1c-0.2,0.1-0.3,0.2-0.4,0.3
				s-0.2,0.3-0.3,0.5c-0.1,0.2-0.1,0.4-0.1,0.7v2.4h-0.9V100.3z"/>
			<path style="fill:#333332;" d="M221.9,101.6c-0.2-0.2-0.3-0.3-0.5-0.4s-0.4-0.1-0.7-0.1c-0.2,0-0.5,0-0.6,0.1
				c-0.2,0.1-0.3,0.2-0.5,0.4c-0.1,0.2-0.2,0.3-0.3,0.5c-0.1,0.2-0.1,0.4-0.1,0.6c0,0.2,0,0.4,0.1,0.6c0.1,0.2,0.2,0.4,0.3,0.5
				s0.3,0.3,0.5,0.3c0.2,0.1,0.4,0.1,0.6,0.1c0.3,0,0.5,0,0.6-0.1c0.2-0.1,0.3-0.2,0.5-0.4l0.6,0.6c-0.2,0.3-0.5,0.4-0.8,0.6
				s-0.6,0.2-1,0.2c-0.4,0-0.7-0.1-1-0.2c-0.3-0.1-0.6-0.3-0.8-0.5c-0.2-0.2-0.4-0.5-0.5-0.8c-0.1-0.3-0.2-0.6-0.2-1s0.1-0.7,0.2-1
				s0.3-0.6,0.5-0.8c0.2-0.2,0.5-0.4,0.8-0.5c0.3-0.1,0.6-0.2,1-0.2c0.3,0,0.7,0.1,1,0.2c0.3,0.1,0.6,0.3,0.8,0.6L221.9,101.6z"/>
			<path style="fill:#333332;" d="M224,103c0,0.2,0,0.4,0.1,0.6c0.1,0.2,0.2,0.3,0.4,0.4c0.1,0.1,0.3,0.2,0.5,0.3
				c0.2,0.1,0.4,0.1,0.6,0.1c0.3,0,0.5-0.1,0.7-0.2s0.4-0.3,0.6-0.5l0.7,0.5c-0.5,0.6-1.2,1-2.1,1c-0.4,0-0.7-0.1-1-0.2
				c-0.3-0.1-0.6-0.3-0.8-0.5c-0.2-0.2-0.4-0.5-0.5-0.8c-0.1-0.3-0.2-0.6-0.2-1c0-0.4,0.1-0.7,0.2-1s0.3-0.6,0.5-0.8
				c0.2-0.2,0.5-0.4,0.8-0.5c0.3-0.1,0.6-0.2,1-0.2c0.4,0,0.8,0.1,1.1,0.2c0.3,0.1,0.5,0.3,0.7,0.6s0.3,0.5,0.4,0.8
				c0.1,0.3,0.1,0.6,0.1,0.9v0.3H224z M226.8,102.3c0-0.2,0-0.4-0.1-0.6c-0.1-0.2-0.1-0.3-0.3-0.4c-0.1-0.1-0.3-0.2-0.4-0.3
				c-0.2-0.1-0.4-0.1-0.6-0.1c-0.2,0-0.4,0-0.6,0.1c-0.2,0.1-0.3,0.2-0.5,0.3c-0.1,0.1-0.2,0.3-0.3,0.4c-0.1,0.2-0.1,0.3-0.1,0.5
				H226.8z"/>
			<path style="fill:#333332;" d="M233.6,105.1h-0.9v-0.7h0c-0.2,0.3-0.4,0.5-0.7,0.6c-0.3,0.1-0.6,0.2-0.9,0.2
				c-0.4,0-0.7-0.1-1-0.2c-0.3-0.1-0.6-0.3-0.8-0.5c-0.2-0.2-0.4-0.5-0.5-0.8c-0.1-0.3-0.2-0.6-0.2-1c0-0.4,0.1-0.7,0.2-1
				c0.1-0.3,0.3-0.6,0.5-0.8c0.2-0.2,0.5-0.4,0.8-0.5c0.3-0.1,0.6-0.2,1-0.2c0.3,0,0.7,0.1,1,0.2c0.3,0.1,0.5,0.3,0.7,0.6h0v-3.5
				h0.9V105.1z M231.2,104.4c0.2,0,0.5,0,0.6-0.1c0.2-0.1,0.4-0.2,0.5-0.3c0.1-0.1,0.2-0.3,0.3-0.5c0.1-0.2,0.1-0.4,0.1-0.7
				c0-0.2,0-0.5-0.1-0.7c-0.1-0.2-0.2-0.4-0.3-0.5c-0.1-0.1-0.3-0.3-0.5-0.3s-0.4-0.1-0.6-0.1c-0.2,0-0.5,0-0.7,0.1
				s-0.4,0.2-0.5,0.3c-0.1,0.1-0.2,0.3-0.3,0.5c-0.1,0.2-0.1,0.4-0.1,0.7c0,0.2,0,0.5,0.1,0.7c0.1,0.2,0.2,0.4,0.3,0.5
				c0.1,0.1,0.3,0.3,0.5,0.3C230.7,104.3,230.9,104.4,231.2,104.4z"/>
			<path style="fill:#333332;" d="M236,100.5h-0.8l0.7-2.5h1L236,100.5z M237.8,100.5H237l0.7-2.5h1L237.8,100.5z"/>
			<path style="fill:#333332;" d="M240.9,105.1c-0.2,0-0.3-0.1-0.5-0.2c-0.1-0.1-0.2-0.3-0.2-0.5c0-0.2,0.1-0.3,0.2-0.5
				c0.1-0.1,0.3-0.2,0.5-0.2c0.2,0,0.3,0.1,0.5,0.2s0.2,0.3,0.2,0.5c0,0.2-0.1,0.3-0.2,0.5C241.2,105.1,241.1,105.1,240.9,105.1z"/>
			<path style="fill:#333332;" d="M246,98h4.6v0.9h-3.6v2.1h3.4v0.9h-3.4v2.3h3.8v0.9H246V98z"/>
			<path style="fill:#333332;" d="M251.3,100.3h1l1.4,3.6l1.4-3.6h1l-1.9,4.7h-1L251.3,100.3z"/>
			<path style="fill:#333332;" d="M257.5,103c0,0.2,0,0.4,0.1,0.6c0.1,0.2,0.2,0.3,0.4,0.4c0.1,0.1,0.3,0.2,0.5,0.3
				c0.2,0.1,0.4,0.1,0.6,0.1c0.3,0,0.5-0.1,0.7-0.2s0.4-0.3,0.6-0.5l0.7,0.5c-0.5,0.6-1.2,1-2.1,1c-0.4,0-0.7-0.1-1-0.2
				c-0.3-0.1-0.6-0.3-0.8-0.5c-0.2-0.2-0.4-0.5-0.5-0.8c-0.1-0.3-0.2-0.6-0.2-1c0-0.4,0.1-0.7,0.2-1s0.3-0.6,0.5-0.8
				c0.2-0.2,0.5-0.4,0.8-0.5c0.3-0.1,0.6-0.2,1-0.2c0.4,0,0.8,0.1,1.1,0.2c0.3,0.1,0.5,0.3,0.7,0.6s0.3,0.5,0.4,0.8
				c0.1,0.3,0.1,0.6,0.1,0.9v0.3H257.5z M260.4,102.3c0-0.2,0-0.4-0.1-0.6c-0.1-0.2-0.1-0.3-0.3-0.4c-0.1-0.1-0.3-0.2-0.4-0.3
				c-0.2-0.1-0.4-0.1-0.6-0.1c-0.2,0-0.4,0-0.6,0.1c-0.2,0.1-0.3,0.2-0.5,0.3c-0.1,0.1-0.2,0.3-0.3,0.4c-0.1,0.2-0.1,0.3-0.1,0.5
				H260.4z"/>
			<path style="fill:#333332;" d="M262.4,100.3h0.9v0.7h0c0.1-0.1,0.1-0.2,0.2-0.3c0.1-0.1,0.2-0.2,0.3-0.3c0.1-0.1,0.3-0.1,0.4-0.2
				c0.1,0,0.3-0.1,0.4-0.1c0.1,0,0.3,0,0.4,0.1l0,1c-0.1,0-0.1,0-0.2,0c-0.1,0-0.1,0-0.2,0c-0.4,0-0.8,0.1-1,0.4
				c-0.2,0.2-0.4,0.6-0.4,1.1v2.4h-0.9V100.3z"/>
			<path style="fill:#333332;" d="M265.6,100.3h1l1.4,3.7h0l1.3-3.7h1l-2.2,5.8c-0.1,0.2-0.2,0.4-0.2,0.6c-0.1,0.2-0.2,0.3-0.3,0.4
				c-0.1,0.1-0.3,0.2-0.4,0.3c-0.2,0.1-0.4,0.1-0.6,0.1c-0.1,0-0.3,0-0.4,0c-0.1,0-0.3-0.1-0.4-0.1l0.1-0.8c0.2,0.1,0.4,0.1,0.5,0.1
				c0.1,0,0.3,0,0.4-0.1s0.2-0.1,0.2-0.2c0.1-0.1,0.1-0.2,0.2-0.2c0-0.1,0.1-0.2,0.1-0.3l0.3-0.8L265.6,100.3z"/>
			<path style="fill:#333332;" d="M273.3,100.3h1l1.4,3.7h0l1.3-3.7h1l-2.2,5.8c-0.1,0.2-0.2,0.4-0.2,0.6c-0.1,0.2-0.2,0.3-0.3,0.4
				c-0.1,0.1-0.3,0.2-0.4,0.3c-0.2,0.1-0.4,0.1-0.6,0.1c-0.1,0-0.3,0-0.4,0c-0.1,0-0.3-0.1-0.4-0.1l0.1-0.8c0.2,0.1,0.4,0.1,0.5,0.1
				c0.1,0,0.3,0,0.4-0.1s0.2-0.1,0.2-0.2c0.1-0.1,0.1-0.2,0.2-0.2c0-0.1,0.1-0.2,0.1-0.3l0.3-0.8L273.3,100.3z"/>
			<path style="fill:#333332;" d="M279.6,103c0,0.2,0,0.4,0.1,0.6c0.1,0.2,0.2,0.3,0.4,0.4c0.1,0.1,0.3,0.2,0.5,0.3
				c0.2,0.1,0.4,0.1,0.6,0.1c0.3,0,0.5-0.1,0.7-0.2s0.4-0.3,0.6-0.5l0.7,0.5c-0.5,0.6-1.2,1-2.1,1c-0.4,0-0.7-0.1-1-0.2
				c-0.3-0.1-0.6-0.3-0.8-0.5c-0.2-0.2-0.4-0.5-0.5-0.8c-0.1-0.3-0.2-0.6-0.2-1c0-0.4,0.1-0.7,0.2-1s0.3-0.6,0.5-0.8
				c0.2-0.2,0.5-0.4,0.8-0.5c0.3-0.1,0.6-0.2,1-0.2c0.4,0,0.8,0.1,1.1,0.2c0.3,0.1,0.5,0.3,0.7,0.6s0.3,0.5,0.4,0.8
				c0.1,0.3,0.1,0.6,0.1,0.9v0.3H279.6z M282.4,102.3c0-0.2,0-0.4-0.1-0.6c-0.1-0.2-0.1-0.3-0.3-0.4c-0.1-0.1-0.3-0.2-0.4-0.3
				c-0.2-0.1-0.4-0.1-0.6-0.1c-0.2,0-0.4,0-0.6,0.1c-0.2,0.1-0.3,0.2-0.5,0.3c-0.1,0.1-0.2,0.3-0.3,0.4c-0.1,0.2-0.1,0.3-0.1,0.5
				H282.4z"/>
			<path style="fill:#333332;" d="M284.5,100.9c0.3-0.2,0.5-0.4,0.9-0.5c0.3-0.1,0.7-0.2,1-0.2c0.3,0,0.6,0,0.9,0.1
				c0.2,0.1,0.5,0.2,0.6,0.4c0.2,0.1,0.3,0.3,0.4,0.5s0.1,0.4,0.1,0.6v2.4c0,0.2,0,0.3,0,0.5c0,0.1,0,0.3,0,0.4h-0.8
				c0-0.2,0-0.5,0-0.7h0c-0.2,0.3-0.4,0.5-0.7,0.7c-0.3,0.1-0.6,0.2-1,0.2c-0.2,0-0.4,0-0.6-0.1c-0.2-0.1-0.4-0.1-0.5-0.3
				c-0.1-0.1-0.3-0.3-0.4-0.4c-0.1-0.2-0.1-0.4-0.1-0.6c0-0.3,0.1-0.6,0.2-0.8s0.3-0.4,0.6-0.5c0.2-0.1,0.5-0.2,0.8-0.3
				s0.7-0.1,1-0.1h0.7v-0.2c0-0.1,0-0.2-0.1-0.4c0-0.1-0.1-0.2-0.2-0.3c-0.1-0.1-0.2-0.2-0.4-0.2c-0.1-0.1-0.3-0.1-0.5-0.1
				c-0.2,0-0.3,0-0.5,0.1c-0.1,0-0.2,0.1-0.4,0.1c-0.1,0-0.2,0.1-0.3,0.2c-0.1,0.1-0.2,0.1-0.2,0.2L284.5,100.9z M287,102.8
				c-0.2,0-0.4,0-0.7,0c-0.2,0-0.4,0.1-0.6,0.1c-0.2,0.1-0.3,0.2-0.5,0.3s-0.2,0.3-0.2,0.5c0,0.3,0.1,0.5,0.3,0.6
				c0.2,0.1,0.4,0.2,0.7,0.2c0.2,0,0.5,0,0.6-0.1c0.2-0.1,0.3-0.2,0.4-0.3s0.2-0.3,0.2-0.4c0-0.2,0.1-0.3,0.1-0.5v-0.3H287z"/>
			<path style="fill:#333332;" d="M289.6,100.3h0.9v0.7h0c0.1-0.1,0.1-0.2,0.2-0.3c0.1-0.1,0.2-0.2,0.3-0.3c0.1-0.1,0.3-0.1,0.4-0.2
				c0.1,0,0.3-0.1,0.4-0.1c0.1,0,0.3,0,0.4,0.1l0,1c-0.1,0-0.1,0-0.2,0c-0.1,0-0.1,0-0.2,0c-0.4,0-0.8,0.1-1,0.4
				c-0.2,0.2-0.4,0.6-0.4,1.1v2.4h-0.9V100.3z"/>
			<path style="fill:#333332;" d="M298.6,101.5c-0.1-0.1-0.2-0.2-0.4-0.3c-0.2-0.1-0.3-0.1-0.6-0.1c-0.2,0-0.4,0-0.6,0.1
				c-0.2,0.1-0.2,0.2-0.2,0.4c0,0.1,0,0.3,0.1,0.3c0.1,0.1,0.2,0.2,0.3,0.2c0.1,0.1,0.3,0.1,0.4,0.1c0.1,0,0.3,0,0.4,0.1
				c0.2,0,0.4,0.1,0.5,0.2c0.2,0.1,0.3,0.2,0.4,0.3c0.1,0.1,0.2,0.2,0.3,0.4c0.1,0.2,0.1,0.3,0.1,0.6c0,0.3-0.1,0.5-0.2,0.7
				s-0.3,0.3-0.4,0.5c-0.2,0.1-0.4,0.2-0.6,0.3s-0.5,0.1-0.7,0.1c-0.4,0-0.7-0.1-1-0.2c-0.3-0.1-0.6-0.3-0.8-0.7l0.7-0.6
				c0.1,0.1,0.3,0.3,0.5,0.4c0.2,0.1,0.4,0.2,0.7,0.2c0.1,0,0.2,0,0.3,0s0.2-0.1,0.3-0.1c0.1,0,0.2-0.1,0.2-0.2
				c0.1-0.1,0.1-0.2,0.1-0.3c0-0.1,0-0.2-0.1-0.3s-0.2-0.2-0.3-0.2s-0.2-0.1-0.4-0.1c-0.1,0-0.2-0.1-0.3-0.1c-0.2,0-0.4-0.1-0.6-0.2
				s-0.3-0.1-0.5-0.2c-0.1-0.1-0.2-0.2-0.3-0.4s-0.1-0.3-0.1-0.6c0-0.2,0.1-0.5,0.2-0.6c0.1-0.2,0.2-0.3,0.4-0.5s0.4-0.2,0.6-0.3
				s0.4-0.1,0.7-0.1c0.3,0,0.6,0.1,0.9,0.2c0.3,0.1,0.5,0.3,0.7,0.6L298.6,101.5z"/>
			<path style="fill:#333332;" d="M300.4,98.6c0-0.2,0.1-0.3,0.2-0.5c0.1-0.1,0.3-0.2,0.5-0.2c0.2,0,0.3,0.1,0.5,0.2
				c0.1,0.1,0.2,0.3,0.2,0.5s-0.1,0.3-0.2,0.5s-0.3,0.2-0.5,0.2c-0.2,0-0.3-0.1-0.5-0.2C300.5,99,300.4,98.8,300.4,98.6z
				 M300.6,100.3h0.9v4.7h-0.9V100.3z"/>
			<path style="fill:#333332;" d="M303,100.3h0.9v0.7h0c0.1-0.3,0.3-0.5,0.6-0.6c0.3-0.2,0.6-0.2,1-0.2c0.2,0,0.4,0,0.7,0.1
				c0.2,0.1,0.4,0.2,0.6,0.3c0.2,0.1,0.3,0.3,0.4,0.6c0.1,0.2,0.1,0.5,0.1,0.8v3h-0.9v-2.8c0-0.2,0-0.4-0.1-0.6
				c-0.1-0.2-0.1-0.3-0.2-0.4s-0.2-0.2-0.3-0.2c-0.1,0-0.3-0.1-0.4-0.1c-0.2,0-0.4,0-0.5,0.1c-0.2,0.1-0.3,0.2-0.4,0.3
				s-0.2,0.3-0.3,0.5c-0.1,0.2-0.1,0.4-0.1,0.7v2.4H303V100.3z"/>
			<path style="fill:#333332;" d="M311.9,101.6c-0.2-0.2-0.3-0.3-0.5-0.4s-0.4-0.1-0.7-0.1c-0.2,0-0.5,0-0.6,0.1
				c-0.2,0.1-0.3,0.2-0.5,0.4c-0.1,0.2-0.2,0.3-0.3,0.5c-0.1,0.2-0.1,0.4-0.1,0.6c0,0.2,0,0.4,0.1,0.6c0.1,0.2,0.2,0.4,0.3,0.5
				s0.3,0.3,0.5,0.3c0.2,0.1,0.4,0.1,0.6,0.1c0.3,0,0.5,0,0.6-0.1c0.2-0.1,0.3-0.2,0.5-0.4l0.6,0.6c-0.2,0.3-0.5,0.4-0.8,0.6
				s-0.6,0.2-1,0.2c-0.4,0-0.7-0.1-1-0.2c-0.3-0.1-0.6-0.3-0.8-0.5c-0.2-0.2-0.4-0.5-0.5-0.8c-0.1-0.3-0.2-0.6-0.2-1s0.1-0.7,0.2-1
				s0.3-0.6,0.5-0.8c0.2-0.2,0.5-0.4,0.8-0.5c0.3-0.1,0.6-0.2,1-0.2c0.3,0,0.7,0.1,1,0.2c0.3,0.1,0.6,0.3,0.8,0.6L311.9,101.6z"/>
			<path style="fill:#333332;" d="M314,103c0,0.2,0,0.4,0.1,0.6c0.1,0.2,0.2,0.3,0.4,0.4c0.1,0.1,0.3,0.2,0.5,0.3
				c0.2,0.1,0.4,0.1,0.6,0.1c0.3,0,0.5-0.1,0.7-0.2s0.4-0.3,0.6-0.5l0.7,0.5c-0.5,0.6-1.2,1-2.1,1c-0.4,0-0.7-0.1-1-0.2
				c-0.3-0.1-0.6-0.3-0.8-0.5c-0.2-0.2-0.4-0.5-0.5-0.8c-0.1-0.3-0.2-0.6-0.2-1c0-0.4,0.1-0.7,0.2-1s0.3-0.6,0.5-0.8
				c0.2-0.2,0.5-0.4,0.8-0.5c0.3-0.1,0.6-0.2,1-0.2c0.4,0,0.8,0.1,1.1,0.2c0.3,0.1,0.5,0.3,0.7,0.6s0.3,0.5,0.4,0.8
				c0.1,0.3,0.1,0.6,0.1,0.9v0.3H314z M316.9,102.3c0-0.2,0-0.4-0.1-0.6c-0.1-0.2-0.1-0.3-0.3-0.4c-0.1-0.1-0.3-0.2-0.4-0.3
				c-0.2-0.1-0.4-0.1-0.6-0.1c-0.2,0-0.4,0-0.6,0.1c-0.2,0.1-0.3,0.2-0.5,0.3c-0.1,0.1-0.2,0.3-0.3,0.4c-0.1,0.2-0.1,0.3-0.1,0.5
				H316.9z"/>
			<path style="fill:#333332;" d="M324.2,101.5c-0.1-0.1-0.2-0.2-0.4-0.3c-0.2-0.1-0.3-0.1-0.6-0.1c-0.2,0-0.4,0-0.6,0.1
				c-0.2,0.1-0.2,0.2-0.2,0.4c0,0.1,0,0.3,0.1,0.3c0.1,0.1,0.2,0.2,0.3,0.2c0.1,0.1,0.3,0.1,0.4,0.1c0.1,0,0.3,0,0.4,0.1
				c0.2,0,0.4,0.1,0.5,0.2c0.2,0.1,0.3,0.2,0.4,0.3c0.1,0.1,0.2,0.2,0.3,0.4c0.1,0.2,0.1,0.3,0.1,0.6c0,0.3-0.1,0.5-0.2,0.7
				s-0.3,0.3-0.4,0.5c-0.2,0.1-0.4,0.2-0.6,0.3s-0.5,0.1-0.7,0.1c-0.4,0-0.7-0.1-1-0.2c-0.3-0.1-0.6-0.3-0.8-0.7l0.7-0.6
				c0.1,0.1,0.3,0.3,0.5,0.4c0.2,0.1,0.4,0.2,0.7,0.2c0.1,0,0.2,0,0.3,0s0.2-0.1,0.3-0.1c0.1,0,0.2-0.1,0.2-0.2
				c0.1-0.1,0.1-0.2,0.1-0.3c0-0.1,0-0.2-0.1-0.3s-0.2-0.2-0.3-0.2s-0.2-0.1-0.4-0.1c-0.1,0-0.2-0.1-0.3-0.1c-0.2,0-0.4-0.1-0.6-0.2
				s-0.3-0.1-0.5-0.2c-0.1-0.1-0.2-0.2-0.3-0.4s-0.1-0.3-0.1-0.6c0-0.2,0.1-0.5,0.2-0.6c0.1-0.2,0.2-0.3,0.4-0.5s0.4-0.2,0.6-0.3
				s0.4-0.1,0.7-0.1c0.3,0,0.6,0.1,0.9,0.2c0.3,0.1,0.5,0.3,0.7,0.6L324.2,101.5z"/>
			<path style="fill:#333332;" d="M329.5,101.6c-0.2-0.2-0.3-0.3-0.5-0.4s-0.4-0.1-0.7-0.1c-0.2,0-0.5,0-0.6,0.1
				c-0.2,0.1-0.3,0.2-0.5,0.4c-0.1,0.2-0.2,0.3-0.3,0.5c-0.1,0.2-0.1,0.4-0.1,0.6c0,0.2,0,0.4,0.1,0.6c0.1,0.2,0.2,0.4,0.3,0.5
				s0.3,0.3,0.5,0.3c0.2,0.1,0.4,0.1,0.6,0.1c0.3,0,0.5,0,0.6-0.1c0.2-0.1,0.3-0.2,0.5-0.4l0.6,0.6c-0.2,0.3-0.5,0.4-0.8,0.6
				s-0.6,0.2-1,0.2c-0.4,0-0.7-0.1-1-0.2c-0.3-0.1-0.6-0.3-0.8-0.5c-0.2-0.2-0.4-0.5-0.5-0.8c-0.1-0.3-0.2-0.6-0.2-1s0.1-0.7,0.2-1
				s0.3-0.6,0.5-0.8c0.2-0.2,0.5-0.4,0.8-0.5c0.3-0.1,0.6-0.2,1-0.2c0.3,0,0.7,0.1,1,0.2c0.3,0.1,0.6,0.3,0.8,0.6L329.5,101.6z"/>
			<path style="fill:#333332;" d="M330.8,98.6c0-0.2,0.1-0.3,0.2-0.5c0.1-0.1,0.3-0.2,0.5-0.2c0.2,0,0.3,0.1,0.5,0.2
				c0.1,0.1,0.2,0.3,0.2,0.5s-0.1,0.3-0.2,0.5s-0.3,0.2-0.5,0.2c-0.2,0-0.3-0.1-0.5-0.2C330.9,99,330.8,98.8,330.8,98.6z M331,100.3
				h0.9v4.7H331V100.3z"/>
			<path style="fill:#333332;" d="M334,103c0,0.2,0,0.4,0.1,0.6c0.1,0.2,0.2,0.3,0.4,0.4c0.1,0.1,0.3,0.2,0.5,0.3
				c0.2,0.1,0.4,0.1,0.6,0.1c0.3,0,0.5-0.1,0.7-0.2s0.4-0.3,0.6-0.5l0.7,0.5c-0.5,0.6-1.2,1-2.1,1c-0.4,0-0.7-0.1-1-0.2
				c-0.3-0.1-0.6-0.3-0.8-0.5c-0.2-0.2-0.4-0.5-0.5-0.8c-0.1-0.3-0.2-0.6-0.2-1c0-0.4,0.1-0.7,0.2-1s0.3-0.6,0.5-0.8
				c0.2-0.2,0.5-0.4,0.8-0.5c0.3-0.1,0.6-0.2,1-0.2c0.4,0,0.8,0.1,1.1,0.2c0.3,0.1,0.5,0.3,0.7,0.6s0.3,0.5,0.4,0.8
				c0.1,0.3,0.1,0.6,0.1,0.9v0.3H334z M336.9,102.3c0-0.2,0-0.4-0.1-0.6c-0.1-0.2-0.1-0.3-0.3-0.4c-0.1-0.1-0.3-0.2-0.4-0.3
				c-0.2-0.1-0.4-0.1-0.6-0.1c-0.2,0-0.4,0-0.6,0.1c-0.2,0.1-0.3,0.2-0.5,0.3c-0.1,0.1-0.2,0.3-0.3,0.4c-0.1,0.2-0.1,0.3-0.1,0.5
				H336.9z"/>
			<path style="fill:#333332;" d="M338.9,100.3h0.9v0.7h0c0.1-0.3,0.3-0.5,0.6-0.6c0.3-0.2,0.6-0.2,1-0.2c0.2,0,0.4,0,0.7,0.1
				c0.2,0.1,0.4,0.2,0.6,0.3c0.2,0.1,0.3,0.3,0.4,0.6c0.1,0.2,0.1,0.5,0.1,0.8v3h-0.9v-2.8c0-0.2,0-0.4-0.1-0.6
				c-0.1-0.2-0.1-0.3-0.2-0.4s-0.2-0.2-0.3-0.2c-0.1,0-0.3-0.1-0.4-0.1c-0.2,0-0.4,0-0.5,0.1c-0.2,0.1-0.3,0.2-0.4,0.3
				s-0.2,0.3-0.3,0.5c-0.1,0.2-0.1,0.4-0.1,0.7v2.4h-0.9V100.3z"/>
			<path style="fill:#333332;" d="M347,101.1h-1.3v2.1c0,0.1,0,0.3,0,0.4s0,0.2,0.1,0.4c0,0.1,0.1,0.2,0.2,0.2
				c0.1,0.1,0.2,0.1,0.4,0.1c0.1,0,0.2,0,0.3,0s0.2-0.1,0.3-0.1v0.8c-0.1,0.1-0.2,0.1-0.4,0.1s-0.3,0-0.4,0c-0.3,0-0.6,0-0.8-0.1
				c-0.2-0.1-0.3-0.2-0.4-0.4c-0.1-0.2-0.1-0.3-0.2-0.5c0-0.2,0-0.4,0-0.6v-2.5h-1v-0.8h1V99h0.9v1.3h1.3V101.1z"/>
			<path style="fill:#333332;" d="M348,98.6c0-0.2,0.1-0.3,0.2-0.5c0.1-0.1,0.3-0.2,0.5-0.2c0.2,0,0.3,0.1,0.5,0.2
				c0.1,0.1,0.2,0.3,0.2,0.5s-0.1,0.3-0.2,0.5s-0.3,0.2-0.5,0.2c-0.2,0-0.3-0.1-0.5-0.2C348.1,99,348,98.8,348,98.6z M348.2,100.3
				h0.9v4.7h-0.9V100.3z"/>
			<path style="fill:#333332;" d="M353.1,101.5c-0.1-0.1-0.2-0.2-0.4-0.3c-0.2-0.1-0.3-0.1-0.6-0.1c-0.2,0-0.4,0-0.6,0.1
				c-0.2,0.1-0.2,0.2-0.2,0.4c0,0.1,0,0.3,0.1,0.3c0.1,0.1,0.2,0.2,0.3,0.2c0.1,0.1,0.3,0.1,0.4,0.1c0.1,0,0.3,0,0.4,0.1
				c0.2,0,0.4,0.1,0.5,0.2c0.2,0.1,0.3,0.2,0.4,0.3c0.1,0.1,0.2,0.2,0.3,0.4c0.1,0.2,0.1,0.3,0.1,0.6c0,0.3-0.1,0.5-0.2,0.7
				s-0.3,0.3-0.4,0.5c-0.2,0.1-0.4,0.2-0.6,0.3s-0.5,0.1-0.7,0.1c-0.4,0-0.7-0.1-1-0.2c-0.3-0.1-0.6-0.3-0.8-0.7l0.7-0.6
				c0.1,0.1,0.3,0.3,0.5,0.4c0.2,0.1,0.4,0.2,0.7,0.2c0.1,0,0.2,0,0.3,0s0.2-0.1,0.3-0.1c0.1,0,0.2-0.1,0.2-0.2
				c0.1-0.1,0.1-0.2,0.1-0.3c0-0.1,0-0.2-0.1-0.3s-0.2-0.2-0.3-0.2s-0.2-0.1-0.4-0.1c-0.1,0-0.2-0.1-0.3-0.1c-0.2,0-0.4-0.1-0.6-0.2
				s-0.3-0.1-0.5-0.2c-0.1-0.1-0.2-0.2-0.3-0.4s-0.1-0.3-0.1-0.6c0-0.2,0.1-0.5,0.2-0.6c0.1-0.2,0.2-0.3,0.4-0.5s0.4-0.2,0.6-0.3
				s0.4-0.1,0.7-0.1c0.3,0,0.6,0.1,0.9,0.2c0.3,0.1,0.5,0.3,0.7,0.6L353.1,101.5z"/>
			<path style="fill:#333332;" d="M357.5,101.1h-1.3v2.1c0,0.1,0,0.3,0,0.4s0,0.2,0.1,0.4c0,0.1,0.1,0.2,0.2,0.2
				c0.1,0.1,0.2,0.1,0.4,0.1c0.1,0,0.2,0,0.3,0s0.2-0.1,0.3-0.1v0.8c-0.1,0.1-0.2,0.1-0.4,0.1s-0.3,0-0.4,0c-0.3,0-0.6,0-0.8-0.1
				c-0.2-0.1-0.3-0.2-0.4-0.4c-0.1-0.2-0.1-0.3-0.2-0.5c0-0.2,0-0.4,0-0.6v-2.5h-1v-0.8h1V99h0.9v1.3h1.3V101.1z"/>
			<path style="fill:#333332;" d="M361.2,101.5c-0.1-0.1-0.2-0.2-0.4-0.3c-0.2-0.1-0.3-0.1-0.6-0.1c-0.2,0-0.4,0-0.6,0.1
				c-0.2,0.1-0.2,0.2-0.2,0.4c0,0.1,0,0.3,0.1,0.3c0.1,0.1,0.2,0.2,0.3,0.2c0.1,0.1,0.3,0.1,0.4,0.1c0.1,0,0.3,0,0.4,0.1
				c0.2,0,0.4,0.1,0.5,0.2c0.2,0.1,0.3,0.2,0.4,0.3c0.1,0.1,0.2,0.2,0.3,0.4c0.1,0.2,0.1,0.3,0.1,0.6c0,0.3-0.1,0.5-0.2,0.7
				s-0.3,0.3-0.4,0.5c-0.2,0.1-0.4,0.2-0.6,0.3s-0.5,0.1-0.7,0.1c-0.4,0-0.7-0.1-1-0.2c-0.3-0.1-0.6-0.3-0.8-0.7l0.7-0.6
				c0.1,0.1,0.3,0.3,0.5,0.4c0.2,0.1,0.4,0.2,0.7,0.2c0.1,0,0.2,0,0.3,0s0.2-0.1,0.3-0.1c0.1,0,0.2-0.1,0.2-0.2
				c0.1-0.1,0.1-0.2,0.1-0.3c0-0.1,0-0.2-0.1-0.3s-0.2-0.2-0.3-0.2s-0.2-0.1-0.4-0.1c-0.1,0-0.2-0.1-0.3-0.1c-0.2,0-0.4-0.1-0.6-0.2
				s-0.3-0.1-0.5-0.2c-0.1-0.1-0.2-0.2-0.3-0.4s-0.1-0.3-0.1-0.6c0-0.2,0.1-0.5,0.2-0.6c0.1-0.2,0.2-0.3,0.4-0.5s0.4-0.2,0.6-0.3
				s0.4-0.1,0.7-0.1c0.3,0,0.6,0.1,0.9,0.2c0.3,0.1,0.5,0.3,0.7,0.6L361.2,101.5z"/>
			<path style="fill:#333332;" d="M5.8,112.3h0.9v0.7h0c0.2-0.3,0.4-0.4,0.7-0.6s0.6-0.2,0.9-0.2c0.4,0,0.7,0.1,1,0.2
				c0.3,0.1,0.5,0.3,0.8,0.5c0.2,0.2,0.4,0.5,0.5,0.8c0.1,0.3,0.2,0.6,0.2,1c0,0.4-0.1,0.7-0.2,1c-0.1,0.3-0.3,0.6-0.5,0.8
				c-0.2,0.2-0.5,0.4-0.8,0.5c-0.3,0.1-0.6,0.2-1,0.2c-0.3,0-0.7-0.1-1-0.2c-0.3-0.1-0.5-0.3-0.7-0.6h0v3.5H5.8V112.3z M8.3,113.1
				c-0.2,0-0.5,0-0.6,0.1c-0.2,0.1-0.4,0.2-0.5,0.3c-0.1,0.1-0.2,0.3-0.3,0.5c-0.1,0.2-0.1,0.4-0.1,0.7c0,0.2,0,0.5,0.1,0.7
				c0.1,0.2,0.2,0.4,0.3,0.5c0.1,0.1,0.3,0.3,0.5,0.3c0.2,0.1,0.4,0.1,0.6,0.1c0.2,0,0.5,0,0.6-0.1c0.2-0.1,0.4-0.2,0.5-0.3
				c0.1-0.1,0.2-0.3,0.3-0.5c0.1-0.2,0.1-0.4,0.1-0.7c0-0.2,0-0.5-0.1-0.7c-0.1-0.2-0.2-0.4-0.3-0.5c-0.1-0.1-0.3-0.3-0.5-0.3
				S8.5,113.1,8.3,113.1z"/>
			<path style="fill:#333332;" d="M11.9,112.3h0.9v0.7h0c0.1-0.1,0.1-0.2,0.2-0.3c0.1-0.1,0.2-0.2,0.3-0.3c0.1-0.1,0.3-0.1,0.4-0.2
				c0.1,0,0.3-0.1,0.4-0.1c0.1,0,0.3,0,0.4,0.1l0,1c-0.1,0-0.1,0-0.2,0c-0.1,0-0.1,0-0.2,0c-0.4,0-0.8,0.1-1,0.4
				c-0.2,0.2-0.4,0.6-0.4,1.1v2.4h-0.9V112.3z"/>
			<path style="fill:#333332;" d="M15.2,114.7c0-0.3,0.1-0.7,0.2-1c0.1-0.3,0.3-0.6,0.5-0.8c0.2-0.2,0.5-0.4,0.8-0.5s0.6-0.2,1-0.2
				c0.4,0,0.7,0.1,1,0.2s0.6,0.3,0.8,0.5s0.4,0.5,0.5,0.8c0.1,0.3,0.2,0.6,0.2,1s-0.1,0.7-0.2,1s-0.3,0.6-0.5,0.8
				c-0.2,0.2-0.5,0.4-0.8,0.5c-0.3,0.1-0.6,0.2-1,0.2c-0.4,0-0.7-0.1-1-0.2c-0.3-0.1-0.6-0.3-0.8-0.5c-0.2-0.2-0.4-0.5-0.5-0.8
				S15.2,115.1,15.2,114.7z M16.2,114.7c0,0.2,0,0.5,0.1,0.7c0.1,0.2,0.2,0.4,0.3,0.5c0.1,0.1,0.3,0.3,0.5,0.3
				c0.2,0.1,0.4,0.1,0.7,0.1c0.2,0,0.5,0,0.6-0.1c0.2-0.1,0.4-0.2,0.5-0.3c0.1-0.1,0.2-0.3,0.3-0.5c0.1-0.2,0.1-0.4,0.1-0.7
				c0-0.2,0-0.5-0.1-0.7c-0.1-0.2-0.2-0.4-0.3-0.5c-0.1-0.1-0.3-0.3-0.5-0.3s-0.4-0.1-0.6-0.1c-0.2,0-0.5,0-0.7,0.1
				s-0.4,0.2-0.5,0.3c-0.1,0.1-0.2,0.3-0.3,0.5C16.2,114.2,16.2,114.5,16.2,114.7z"/>
			<path style="fill:#333332;" d="M20.8,112.3h1l1.4,3.6l1.4-3.6h1l-1.9,4.7h-1L20.8,112.3z"/>
			<path style="fill:#333332;" d="M27.1,115c0,0.2,0,0.4,0.1,0.6c0.1,0.2,0.2,0.3,0.4,0.4c0.1,0.1,0.3,0.2,0.5,0.3
				c0.2,0.1,0.4,0.1,0.6,0.1c0.3,0,0.5-0.1,0.7-0.2s0.4-0.3,0.6-0.5l0.7,0.5c-0.5,0.6-1.2,1-2.1,1c-0.4,0-0.7-0.1-1-0.2
				c-0.3-0.1-0.6-0.3-0.8-0.5c-0.2-0.2-0.4-0.5-0.5-0.8c-0.1-0.3-0.2-0.6-0.2-1c0-0.4,0.1-0.7,0.2-1s0.3-0.6,0.5-0.8
				c0.2-0.2,0.5-0.4,0.8-0.5c0.3-0.1,0.6-0.2,1-0.2c0.4,0,0.8,0.1,1.1,0.2c0.3,0.1,0.5,0.3,0.7,0.6s0.3,0.5,0.4,0.8
				c0.1,0.3,0.1,0.6,0.1,0.9v0.3H27.1z M29.9,114.3c0-0.2,0-0.4-0.1-0.6c-0.1-0.2-0.1-0.3-0.3-0.4c-0.1-0.1-0.3-0.2-0.4-0.3
				c-0.2-0.1-0.4-0.1-0.6-0.1c-0.2,0-0.4,0-0.6,0.1c-0.2,0.1-0.3,0.2-0.5,0.3c-0.1,0.1-0.2,0.3-0.3,0.4c-0.1,0.2-0.1,0.3-0.1,0.5
				H29.9z"/>
			<path style="fill:#333332;" d="M37.3,113.1H36v2.1c0,0.1,0,0.3,0,0.4s0,0.2,0.1,0.4c0,0.1,0.1,0.2,0.2,0.2
				c0.1,0.1,0.2,0.1,0.4,0.1c0.1,0,0.2,0,0.3,0s0.2-0.1,0.3-0.1v0.8c-0.1,0.1-0.2,0.1-0.4,0.1s-0.3,0-0.4,0c-0.3,0-0.6,0-0.8-0.1
				c-0.2-0.1-0.3-0.2-0.4-0.4c-0.1-0.2-0.1-0.3-0.2-0.5c0-0.2,0-0.4,0-0.6v-2.5h-1v-0.8h1V111H36v1.3h1.3V113.1z"/>
			<path style="fill:#333332;" d="M38.4,109.5h0.9v3.6h0c0.1-0.3,0.3-0.5,0.6-0.6c0.3-0.2,0.6-0.2,1-0.2c0.2,0,0.4,0,0.7,0.1
				c0.2,0.1,0.4,0.2,0.6,0.3c0.2,0.1,0.3,0.3,0.4,0.6c0.1,0.2,0.1,0.5,0.1,0.8v3h-0.9v-2.8c0-0.2,0-0.4-0.1-0.6
				c-0.1-0.2-0.1-0.3-0.2-0.4s-0.2-0.2-0.3-0.2c-0.1,0-0.3-0.1-0.4-0.1c-0.2,0-0.4,0-0.5,0.1c-0.2,0.1-0.3,0.2-0.4,0.3
				s-0.2,0.3-0.3,0.5c-0.1,0.2-0.1,0.4-0.1,0.7v2.4h-0.9V109.5z"/>
			<path style="fill:#333332;" d="M44,112.9c0.3-0.2,0.5-0.4,0.9-0.5c0.3-0.1,0.7-0.2,1-0.2c0.3,0,0.6,0,0.9,0.1
				c0.2,0.1,0.5,0.2,0.6,0.4c0.2,0.1,0.3,0.3,0.4,0.5s0.1,0.4,0.1,0.6v2.4c0,0.2,0,0.3,0,0.5c0,0.1,0,0.3,0,0.4h-0.8
				c0-0.2,0-0.5,0-0.7h0c-0.2,0.3-0.4,0.5-0.7,0.7c-0.3,0.1-0.6,0.2-1,0.2c-0.2,0-0.4,0-0.6-0.1c-0.2-0.1-0.4-0.1-0.5-0.3
				c-0.1-0.1-0.3-0.3-0.4-0.4c-0.1-0.2-0.1-0.4-0.1-0.6c0-0.3,0.1-0.6,0.2-0.8s0.3-0.4,0.6-0.5c0.2-0.1,0.5-0.2,0.8-0.3
				s0.7-0.1,1-0.1H47v-0.2c0-0.1,0-0.2-0.1-0.4c0-0.1-0.1-0.2-0.2-0.3c-0.1-0.1-0.2-0.2-0.4-0.2c-0.1-0.1-0.3-0.1-0.5-0.1
				c-0.2,0-0.3,0-0.5,0.1c-0.1,0-0.2,0.1-0.4,0.1c-0.1,0-0.2,0.1-0.3,0.2c-0.1,0.1-0.2,0.1-0.2,0.2L44,112.9z M46.6,114.8
				c-0.2,0-0.4,0-0.7,0c-0.2,0-0.4,0.1-0.6,0.1c-0.2,0.1-0.3,0.2-0.5,0.3s-0.2,0.3-0.2,0.5c0,0.3,0.1,0.5,0.3,0.6
				c0.2,0.1,0.4,0.2,0.7,0.2c0.2,0,0.5,0,0.6-0.1c0.2-0.1,0.3-0.2,0.4-0.3s0.2-0.3,0.2-0.4c0-0.2,0.1-0.3,0.1-0.5v-0.3H46.6z"/>
			<path style="fill:#333332;" d="M51.7,113.1h-1.3v2.1c0,0.1,0,0.3,0,0.4s0,0.2,0.1,0.4c0,0.1,0.1,0.2,0.2,0.2
				c0.1,0.1,0.2,0.1,0.4,0.1c0.1,0,0.2,0,0.3,0s0.2-0.1,0.3-0.1v0.8c-0.1,0.1-0.2,0.1-0.4,0.1s-0.3,0-0.4,0c-0.3,0-0.6,0-0.8-0.1
				c-0.2-0.1-0.3-0.2-0.4-0.4c-0.1-0.2-0.1-0.3-0.2-0.5c0-0.2,0-0.4,0-0.6v-2.5h-1v-0.8h1V111h0.9v1.3h1.3V113.1z"/>
			<path style="fill:#333332;" d="M58.2,113.5c-0.1-0.1-0.2-0.2-0.4-0.3c-0.2-0.1-0.3-0.1-0.6-0.1c-0.2,0-0.4,0-0.6,0.1
				c-0.2,0.1-0.2,0.2-0.2,0.4c0,0.1,0,0.3,0.1,0.3c0.1,0.1,0.2,0.2,0.3,0.2c0.1,0.1,0.3,0.1,0.4,0.1c0.1,0,0.3,0,0.4,0.1
				c0.2,0,0.4,0.1,0.5,0.2c0.2,0.1,0.3,0.2,0.4,0.3c0.1,0.1,0.2,0.2,0.3,0.4c0.1,0.2,0.1,0.3,0.1,0.6c0,0.3-0.1,0.5-0.2,0.7
				s-0.3,0.3-0.4,0.5c-0.2,0.1-0.4,0.2-0.6,0.3s-0.5,0.1-0.7,0.1c-0.4,0-0.7-0.1-1-0.2c-0.3-0.1-0.6-0.3-0.8-0.7l0.7-0.6
				c0.1,0.1,0.3,0.3,0.5,0.4c0.2,0.1,0.4,0.2,0.7,0.2c0.1,0,0.2,0,0.3,0s0.2-0.1,0.3-0.1c0.1,0,0.2-0.1,0.2-0.2
				c0.1-0.1,0.1-0.2,0.1-0.3c0-0.1,0-0.2-0.1-0.3s-0.2-0.2-0.3-0.2s-0.2-0.1-0.4-0.1c-0.1,0-0.2-0.1-0.3-0.1c-0.2,0-0.4-0.1-0.6-0.2
				s-0.3-0.1-0.5-0.2c-0.1-0.1-0.2-0.2-0.3-0.4s-0.1-0.3-0.1-0.6c0-0.2,0.1-0.5,0.2-0.6c0.1-0.2,0.2-0.3,0.4-0.5s0.4-0.2,0.6-0.3
				s0.4-0.1,0.7-0.1c0.3,0,0.6,0.1,0.9,0.2c0.3,0.1,0.5,0.3,0.7,0.6L58.2,113.5z"/>
			<path style="fill:#333332;" d="M59.9,114.7c0-0.3,0.1-0.7,0.2-1c0.1-0.3,0.3-0.6,0.5-0.8c0.2-0.2,0.5-0.4,0.8-0.5s0.6-0.2,1-0.2
				c0.4,0,0.7,0.1,1,0.2s0.6,0.3,0.8,0.5s0.4,0.5,0.5,0.8c0.1,0.3,0.2,0.6,0.2,1s-0.1,0.7-0.2,1s-0.3,0.6-0.5,0.8
				c-0.2,0.2-0.5,0.4-0.8,0.5c-0.3,0.1-0.6,0.2-1,0.2c-0.4,0-0.7-0.1-1-0.2c-0.3-0.1-0.6-0.3-0.8-0.5c-0.2-0.2-0.4-0.5-0.5-0.8
				S59.9,115.1,59.9,114.7z M60.8,114.7c0,0.2,0,0.5,0.1,0.7c0.1,0.2,0.2,0.4,0.3,0.5c0.1,0.1,0.3,0.3,0.5,0.3
				c0.2,0.1,0.4,0.1,0.7,0.1c0.2,0,0.5,0,0.6-0.1c0.2-0.1,0.4-0.2,0.5-0.3c0.1-0.1,0.2-0.3,0.3-0.5c0.1-0.2,0.1-0.4,0.1-0.7
				c0-0.2,0-0.5-0.1-0.7c-0.1-0.2-0.2-0.4-0.3-0.5c-0.1-0.1-0.3-0.3-0.5-0.3s-0.4-0.1-0.6-0.1c-0.2,0-0.5,0-0.7,0.1
				s-0.4,0.2-0.5,0.3c-0.1,0.1-0.2,0.3-0.3,0.5C60.9,114.2,60.8,114.5,60.8,114.7z"/>
			<path style="fill:#333332;" d="M66.1,112.3h0.8v0.7h0c0-0.1,0.1-0.1,0.2-0.2s0.2-0.2,0.3-0.3c0.1-0.1,0.3-0.2,0.5-0.2
				c0.2-0.1,0.4-0.1,0.6-0.1c0.4,0,0.6,0.1,0.9,0.2c0.2,0.1,0.4,0.4,0.6,0.7c0.2-0.3,0.4-0.5,0.6-0.7c0.3-0.1,0.6-0.2,0.9-0.2
				c0.4,0,0.7,0.1,0.9,0.2c0.2,0.1,0.4,0.3,0.6,0.5c0.1,0.2,0.2,0.4,0.3,0.7c0,0.2,0.1,0.5,0.1,0.8v2.8h-0.9v-2.6c0-0.2,0-0.4,0-0.5
				c0-0.2-0.1-0.3-0.1-0.4c-0.1-0.1-0.2-0.2-0.3-0.3c-0.1-0.1-0.3-0.1-0.5-0.1c-0.4,0-0.7,0.1-0.9,0.4c-0.2,0.3-0.3,0.6-0.3,1v2.6
				h-0.9v-2.5c0-0.2,0-0.4,0-0.6c0-0.2-0.1-0.3-0.1-0.5c-0.1-0.1-0.2-0.2-0.3-0.3s-0.3-0.1-0.5-0.1c-0.2,0-0.3,0-0.5,0.1
				c-0.2,0.1-0.3,0.2-0.4,0.3c-0.1,0.1-0.2,0.3-0.3,0.5c-0.1,0.2-0.1,0.4-0.1,0.7v2.5h-0.9V112.3z"/>
			<path style="fill:#333332;" d="M75.3,115c0,0.2,0,0.4,0.1,0.6c0.1,0.2,0.2,0.3,0.4,0.4c0.1,0.1,0.3,0.2,0.5,0.3
				c0.2,0.1,0.4,0.1,0.6,0.1c0.3,0,0.5-0.1,0.7-0.2s0.4-0.3,0.6-0.5l0.7,0.5c-0.5,0.6-1.2,1-2.1,1c-0.4,0-0.7-0.1-1-0.2
				c-0.3-0.1-0.6-0.3-0.8-0.5c-0.2-0.2-0.4-0.5-0.5-0.8c-0.1-0.3-0.2-0.6-0.2-1c0-0.4,0.1-0.7,0.2-1s0.3-0.6,0.5-0.8
				c0.2-0.2,0.5-0.4,0.8-0.5c0.3-0.1,0.6-0.2,1-0.2c0.4,0,0.8,0.1,1.1,0.2c0.3,0.1,0.5,0.3,0.7,0.6s0.3,0.5,0.4,0.8
				c0.1,0.3,0.1,0.6,0.1,0.9v0.3H75.3z M78.1,114.3c0-0.2,0-0.4-0.1-0.6c-0.1-0.2-0.1-0.3-0.3-0.4c-0.1-0.1-0.3-0.2-0.4-0.3
				c-0.2-0.1-0.4-0.1-0.6-0.1c-0.2,0-0.4,0-0.6,0.1c-0.2,0.1-0.3,0.2-0.5,0.3c-0.1,0.1-0.2,0.3-0.3,0.4c-0.1,0.2-0.1,0.3-0.1,0.5
				H78.1z"/>
			<path style="fill:#333332;" d="M82.9,112.3h0.9v0.7h0c0.2-0.3,0.4-0.4,0.7-0.6s0.6-0.2,0.9-0.2c0.4,0,0.7,0.1,1,0.2
				c0.3,0.1,0.5,0.3,0.8,0.5c0.2,0.2,0.4,0.5,0.5,0.8c0.1,0.3,0.2,0.6,0.2,1c0,0.4-0.1,0.7-0.2,1c-0.1,0.3-0.3,0.6-0.5,0.8
				c-0.2,0.2-0.5,0.4-0.8,0.5c-0.3,0.1-0.6,0.2-1,0.2c-0.3,0-0.7-0.1-1-0.2c-0.3-0.1-0.5-0.3-0.7-0.6h0v3.5h-0.9V112.3z M85.4,113.1
				c-0.2,0-0.5,0-0.6,0.1c-0.2,0.1-0.4,0.2-0.5,0.3c-0.1,0.1-0.2,0.3-0.3,0.5c-0.1,0.2-0.1,0.4-0.1,0.7c0,0.2,0,0.5,0.1,0.7
				c0.1,0.2,0.2,0.4,0.3,0.5c0.1,0.1,0.3,0.3,0.5,0.3c0.2,0.1,0.4,0.1,0.6,0.1c0.2,0,0.5,0,0.6-0.1c0.2-0.1,0.4-0.2,0.5-0.3
				c0.1-0.1,0.2-0.3,0.3-0.5c0.1-0.2,0.1-0.4,0.1-0.7c0-0.2,0-0.5-0.1-0.7c-0.1-0.2-0.2-0.4-0.3-0.5c-0.1-0.1-0.3-0.3-0.5-0.3
				S85.6,113.1,85.4,113.1z"/>
			<path style="fill:#333332;" d="M93.2,117.1h-0.9v-0.7h0c-0.1,0.3-0.3,0.5-0.6,0.6c-0.3,0.2-0.6,0.2-1,0.2c-0.2,0-0.5,0-0.7-0.1
				c-0.2-0.1-0.4-0.2-0.5-0.3c-0.2-0.1-0.3-0.3-0.4-0.6s-0.1-0.5-0.1-0.8v-3.1h0.9v2.8c0,0.2,0,0.4,0.1,0.6s0.1,0.3,0.2,0.4
				c0.1,0.1,0.2,0.2,0.3,0.2c0.1,0,0.3,0.1,0.4,0.1c0.2,0,0.4,0,0.5-0.1c0.2-0.1,0.3-0.2,0.4-0.3c0.1-0.1,0.2-0.3,0.3-0.5
				c0.1-0.2,0.1-0.4,0.1-0.7v-2.4h0.9V117.1z"/>
			<path style="fill:#333332;" d="M94.6,112.3h0.9v0.7h0c0.1-0.1,0.1-0.2,0.2-0.3c0.1-0.1,0.2-0.2,0.3-0.3c0.1-0.1,0.3-0.1,0.4-0.2
				c0.1,0,0.3-0.1,0.4-0.1c0.1,0,0.3,0,0.4,0.1l0,1c-0.1,0-0.1,0-0.2,0c-0.1,0-0.1,0-0.2,0c-0.4,0-0.8,0.1-1,0.4
				c-0.2,0.2-0.4,0.6-0.4,1.1v2.4h-0.9V112.3z"/>
			<path style="fill:#333332;" d="M98.8,115c0,0.2,0,0.4,0.1,0.6c0.1,0.2,0.2,0.3,0.4,0.4c0.1,0.1,0.3,0.2,0.5,0.3
				c0.2,0.1,0.4,0.1,0.6,0.1c0.3,0,0.5-0.1,0.7-0.2s0.4-0.3,0.6-0.5l0.7,0.5c-0.5,0.6-1.2,1-2.1,1c-0.4,0-0.7-0.1-1-0.2
				c-0.3-0.1-0.6-0.3-0.8-0.5c-0.2-0.2-0.4-0.5-0.5-0.8c-0.1-0.3-0.2-0.6-0.2-1c0-0.4,0.1-0.7,0.2-1s0.3-0.6,0.5-0.8
				c0.2-0.2,0.5-0.4,0.8-0.5c0.3-0.1,0.6-0.2,1-0.2c0.4,0,0.8,0.1,1.1,0.2c0.3,0.1,0.5,0.3,0.7,0.6s0.3,0.5,0.4,0.8
				c0.1,0.3,0.1,0.6,0.1,0.9v0.3H98.8z M101.6,114.3c0-0.2,0-0.4-0.1-0.6c-0.1-0.2-0.1-0.3-0.3-0.4c-0.1-0.1-0.3-0.2-0.4-0.3
				c-0.2-0.1-0.4-0.1-0.6-0.1c-0.2,0-0.4,0-0.6,0.1c-0.2,0.1-0.3,0.2-0.5,0.3c-0.1,0.1-0.2,0.3-0.3,0.4c-0.1,0.2-0.1,0.3-0.1,0.5
				H101.6z"/>
			<path style="fill:#333332;" d="M103.7,109.5h0.9v7.6h-0.9V109.5z"/>
			<path style="fill:#333332;" d="M105.5,112.3h1l1.4,3.7h0l1.3-3.7h1l-2.2,5.8c-0.1,0.2-0.2,0.4-0.2,0.6c-0.1,0.2-0.2,0.3-0.3,0.4
				c-0.1,0.1-0.3,0.2-0.4,0.3c-0.2,0.1-0.4,0.1-0.6,0.1c-0.1,0-0.3,0-0.4,0c-0.1,0-0.3-0.1-0.4-0.1l0.1-0.8c0.2,0.1,0.4,0.1,0.5,0.1
				c0.1,0,0.3,0,0.4-0.1s0.2-0.1,0.2-0.2c0.1-0.1,0.1-0.2,0.2-0.2c0-0.1,0.1-0.2,0.1-0.3l0.3-0.8L105.5,112.3z"/>
			<path style="fill:#333332;" d="M113.8,109.5h0.9v3.6h0c0.1-0.3,0.3-0.5,0.6-0.6c0.3-0.2,0.6-0.2,1-0.2c0.2,0,0.4,0,0.7,0.1
				c0.2,0.1,0.4,0.2,0.6,0.3c0.2,0.1,0.3,0.3,0.4,0.6c0.1,0.2,0.1,0.5,0.1,0.8v3h-0.9v-2.8c0-0.2,0-0.4-0.1-0.6
				c-0.1-0.2-0.1-0.3-0.2-0.4s-0.2-0.2-0.3-0.2c-0.1,0-0.3-0.1-0.4-0.1c-0.2,0-0.4,0-0.5,0.1c-0.2,0.1-0.3,0.2-0.4,0.3
				s-0.2,0.3-0.3,0.5c-0.1,0.2-0.1,0.4-0.1,0.7v2.4h-0.9V109.5z"/>
			<path style="fill:#333332;" d="M123.6,117.1h-0.9v-0.7h0c-0.1,0.3-0.3,0.5-0.6,0.6c-0.3,0.2-0.6,0.2-1,0.2c-0.2,0-0.5,0-0.7-0.1
				c-0.2-0.1-0.4-0.2-0.5-0.3c-0.2-0.1-0.3-0.3-0.4-0.6s-0.1-0.5-0.1-0.8v-3.1h0.9v2.8c0,0.2,0,0.4,0.1,0.6s0.1,0.3,0.2,0.4
				c0.1,0.1,0.2,0.2,0.3,0.2c0.1,0,0.3,0.1,0.4,0.1c0.2,0,0.4,0,0.5-0.1c0.2-0.1,0.3-0.2,0.4-0.3c0.1-0.1,0.2-0.3,0.3-0.5
				c0.1-0.2,0.1-0.4,0.1-0.7v-2.4h0.9V117.1z"/>
			<path style="fill:#333332;" d="M125,112.3h0.8v0.7h0c0-0.1,0.1-0.1,0.2-0.2s0.2-0.2,0.3-0.3c0.1-0.1,0.3-0.2,0.5-0.2
				c0.2-0.1,0.4-0.1,0.6-0.1c0.4,0,0.6,0.1,0.9,0.2c0.2,0.1,0.4,0.4,0.6,0.7c0.2-0.3,0.4-0.5,0.6-0.7c0.3-0.1,0.6-0.2,0.9-0.2
				c0.4,0,0.7,0.1,0.9,0.2c0.2,0.1,0.4,0.3,0.6,0.5c0.1,0.2,0.2,0.4,0.3,0.7c0,0.2,0.1,0.5,0.1,0.8v2.8h-0.9v-2.6c0-0.2,0-0.4,0-0.5
				c0-0.2-0.1-0.3-0.1-0.4c-0.1-0.1-0.2-0.2-0.3-0.3c-0.1-0.1-0.3-0.1-0.5-0.1c-0.4,0-0.7,0.1-0.9,0.4c-0.2,0.3-0.3,0.6-0.3,1v2.6
				h-0.9v-2.5c0-0.2,0-0.4,0-0.6c0-0.2-0.1-0.3-0.1-0.5c-0.1-0.1-0.2-0.2-0.3-0.3s-0.3-0.1-0.5-0.1c-0.2,0-0.3,0-0.5,0.1
				c-0.2,0.1-0.3,0.2-0.4,0.3c-0.1,0.1-0.2,0.3-0.3,0.5c-0.1,0.2-0.1,0.4-0.1,0.7v2.5H125V112.3z"/>
			<path style="fill:#333332;" d="M133.5,112.9c0.3-0.2,0.5-0.4,0.9-0.5c0.3-0.1,0.7-0.2,1-0.2c0.3,0,0.6,0,0.9,0.1
				c0.2,0.1,0.5,0.2,0.6,0.4c0.2,0.1,0.3,0.3,0.4,0.5s0.1,0.4,0.1,0.6v2.4c0,0.2,0,0.3,0,0.5c0,0.1,0,0.3,0,0.4h-0.8
				c0-0.2,0-0.5,0-0.7h0c-0.2,0.3-0.4,0.5-0.7,0.7c-0.3,0.1-0.6,0.2-1,0.2c-0.2,0-0.4,0-0.6-0.1c-0.2-0.1-0.4-0.1-0.5-0.3
				c-0.1-0.1-0.3-0.3-0.4-0.4c-0.1-0.2-0.1-0.4-0.1-0.6c0-0.3,0.1-0.6,0.2-0.8s0.3-0.4,0.6-0.5c0.2-0.1,0.5-0.2,0.8-0.3
				s0.7-0.1,1-0.1h0.7v-0.2c0-0.1,0-0.2-0.1-0.4c0-0.1-0.1-0.2-0.2-0.3c-0.1-0.1-0.2-0.2-0.4-0.2c-0.1-0.1-0.3-0.1-0.5-0.1
				c-0.2,0-0.3,0-0.5,0.1c-0.1,0-0.2,0.1-0.4,0.1c-0.1,0-0.2,0.1-0.3,0.2c-0.1,0.1-0.2,0.1-0.2,0.2L133.5,112.9z M136,114.8
				c-0.2,0-0.4,0-0.7,0c-0.2,0-0.4,0.1-0.6,0.1c-0.2,0.1-0.3,0.2-0.5,0.3s-0.2,0.3-0.2,0.5c0,0.3,0.1,0.5,0.3,0.6
				c0.2,0.1,0.4,0.2,0.7,0.2c0.2,0,0.5,0,0.6-0.1c0.2-0.1,0.3-0.2,0.4-0.3s0.2-0.3,0.2-0.4c0-0.2,0.1-0.3,0.1-0.5v-0.3H136z"/>
			<path style="fill:#333332;" d="M138.7,112.3h0.9v0.7h0c0.1-0.3,0.3-0.5,0.6-0.6c0.3-0.2,0.6-0.2,1-0.2c0.2,0,0.4,0,0.7,0.1
				c0.2,0.1,0.4,0.2,0.6,0.3c0.2,0.1,0.3,0.3,0.4,0.6c0.1,0.2,0.1,0.5,0.1,0.8v3H142v-2.8c0-0.2,0-0.4-0.1-0.6
				c-0.1-0.2-0.1-0.3-0.2-0.4s-0.2-0.2-0.3-0.2c-0.1,0-0.3-0.1-0.4-0.1c-0.2,0-0.4,0-0.5,0.1c-0.2,0.1-0.3,0.2-0.4,0.3
				s-0.2,0.3-0.3,0.5c-0.1,0.2-0.1,0.4-0.1,0.7v2.4h-0.9V112.3z"/>
			<path style="fill:#333332;" d="M149.6,113.1h-1.3v2.1c0,0.1,0,0.3,0,0.4s0,0.2,0.1,0.4c0,0.1,0.1,0.2,0.2,0.2
				c0.1,0.1,0.2,0.1,0.4,0.1c0.1,0,0.2,0,0.3,0s0.2-0.1,0.3-0.1v0.8c-0.1,0.1-0.2,0.1-0.4,0.1s-0.3,0-0.4,0c-0.3,0-0.6,0-0.8-0.1
				c-0.2-0.1-0.3-0.2-0.4-0.4c-0.1-0.2-0.1-0.3-0.2-0.5c0-0.2,0-0.4,0-0.6v-2.5h-1v-0.8h1V111h0.9v1.3h1.3V113.1z"/>
			<path style="fill:#333332;" d="M150.7,112.3h0.9v0.7h0c0.1-0.1,0.1-0.2,0.2-0.3c0.1-0.1,0.2-0.2,0.3-0.3c0.1-0.1,0.3-0.1,0.4-0.2
				c0.1,0,0.3-0.1,0.4-0.1c0.1,0,0.3,0,0.4,0.1l0,1c-0.1,0-0.1,0-0.2,0c-0.1,0-0.1,0-0.2,0c-0.4,0-0.8,0.1-1,0.4
				c-0.2,0.2-0.4,0.6-0.4,1.1v2.4h-0.9V112.3z"/>
			<path style="fill:#333332;" d="M154.4,112.9c0.3-0.2,0.5-0.4,0.9-0.5c0.3-0.1,0.7-0.2,1-0.2c0.3,0,0.6,0,0.9,0.1
				c0.2,0.1,0.5,0.2,0.6,0.4c0.2,0.1,0.3,0.3,0.4,0.5s0.1,0.4,0.1,0.6v2.4c0,0.2,0,0.3,0,0.5c0,0.1,0,0.3,0,0.4h-0.8
				c0-0.2,0-0.5,0-0.7h0c-0.2,0.3-0.4,0.5-0.7,0.7c-0.3,0.1-0.6,0.2-1,0.2c-0.2,0-0.4,0-0.6-0.1c-0.2-0.1-0.4-0.1-0.5-0.3
				c-0.1-0.1-0.3-0.3-0.4-0.4c-0.1-0.2-0.1-0.4-0.1-0.6c0-0.3,0.1-0.6,0.2-0.8s0.3-0.4,0.6-0.5c0.2-0.1,0.5-0.2,0.8-0.3
				s0.7-0.1,1-0.1h0.7v-0.2c0-0.1,0-0.2-0.1-0.4c0-0.1-0.1-0.2-0.2-0.3c-0.1-0.1-0.2-0.2-0.4-0.2c-0.1-0.1-0.3-0.1-0.5-0.1
				c-0.2,0-0.3,0-0.5,0.1c-0.1,0-0.2,0.1-0.4,0.1c-0.1,0-0.2,0.1-0.3,0.2c-0.1,0.1-0.2,0.1-0.2,0.2L154.4,112.9z M157,114.8
				c-0.2,0-0.4,0-0.7,0c-0.2,0-0.4,0.1-0.6,0.1c-0.2,0.1-0.3,0.2-0.5,0.3s-0.2,0.3-0.2,0.5c0,0.3,0.1,0.5,0.3,0.6
				c0.2,0.1,0.4,0.2,0.7,0.2c0.2,0,0.5,0,0.6-0.1c0.2-0.1,0.3-0.2,0.4-0.3s0.2-0.3,0.2-0.4c0-0.2,0.1-0.3,0.1-0.5v-0.3H157z"/>
			<path style="fill:#333332;" d="M159.5,110.6c0-0.2,0.1-0.3,0.2-0.5c0.1-0.1,0.3-0.2,0.5-0.2c0.2,0,0.3,0.1,0.5,0.2
				c0.1,0.1,0.2,0.3,0.2,0.5s-0.1,0.3-0.2,0.5s-0.3,0.2-0.5,0.2c-0.2,0-0.3-0.1-0.5-0.2C159.5,111,159.5,110.8,159.5,110.6z
				 M159.7,112.3h0.9v4.7h-0.9V112.3z"/>
			<path style="fill:#333332;" d="M164.5,113.1h-1.3v2.1c0,0.1,0,0.3,0,0.4s0,0.2,0.1,0.4c0,0.1,0.1,0.2,0.2,0.2
				c0.1,0.1,0.2,0.1,0.4,0.1c0.1,0,0.2,0,0.3,0s0.2-0.1,0.3-0.1v0.8c-0.1,0.1-0.2,0.1-0.4,0.1s-0.3,0-0.4,0c-0.3,0-0.6,0-0.8-0.1
				c-0.2-0.1-0.3-0.2-0.4-0.4c-0.1-0.2-0.1-0.3-0.2-0.5c0-0.2,0-0.4,0-0.6v-2.5h-1v-0.8h1V111h0.9v1.3h1.3V113.1z"/>
			<path style="fill:#333332;" d="M168.2,113.5c-0.1-0.1-0.2-0.2-0.4-0.3c-0.2-0.1-0.3-0.1-0.6-0.1c-0.2,0-0.4,0-0.6,0.1
				c-0.2,0.1-0.2,0.2-0.2,0.4c0,0.1,0,0.3,0.1,0.3c0.1,0.1,0.2,0.2,0.3,0.2c0.1,0.1,0.3,0.1,0.4,0.1c0.1,0,0.3,0,0.4,0.1
				c0.2,0,0.4,0.1,0.5,0.2c0.2,0.1,0.3,0.2,0.4,0.3c0.1,0.1,0.2,0.2,0.3,0.4c0.1,0.2,0.1,0.3,0.1,0.6c0,0.3-0.1,0.5-0.2,0.7
				s-0.3,0.3-0.4,0.5c-0.2,0.1-0.4,0.2-0.6,0.3s-0.5,0.1-0.7,0.1c-0.4,0-0.7-0.1-1-0.2c-0.3-0.1-0.6-0.3-0.8-0.7l0.7-0.6
				c0.1,0.1,0.3,0.3,0.5,0.4c0.2,0.1,0.4,0.2,0.7,0.2c0.1,0,0.2,0,0.3,0s0.2-0.1,0.3-0.1c0.1,0,0.2-0.1,0.2-0.2
				c0.1-0.1,0.1-0.2,0.1-0.3c0-0.1,0-0.2-0.1-0.3s-0.2-0.2-0.3-0.2s-0.2-0.1-0.4-0.1c-0.1,0-0.2-0.1-0.3-0.1c-0.2,0-0.4-0.1-0.6-0.2
				s-0.3-0.1-0.5-0.2c-0.1-0.1-0.2-0.2-0.3-0.4s-0.1-0.3-0.1-0.6c0-0.2,0.1-0.5,0.2-0.6c0.1-0.2,0.2-0.3,0.4-0.5s0.4-0.2,0.6-0.3
				s0.4-0.1,0.7-0.1c0.3,0,0.6,0.1,0.9,0.2c0.3,0.1,0.5,0.3,0.7,0.6L168.2,113.5z"/>
			<path style="fill:#333332;" d="M172.9,112.9c0.3-0.2,0.5-0.4,0.9-0.5c0.3-0.1,0.7-0.2,1-0.2c0.3,0,0.6,0,0.9,0.1
				c0.2,0.1,0.5,0.2,0.6,0.4c0.2,0.1,0.3,0.3,0.4,0.5s0.1,0.4,0.1,0.6v2.4c0,0.2,0,0.3,0,0.5c0,0.1,0,0.3,0,0.4H176
				c0-0.2,0-0.5,0-0.7h0c-0.2,0.3-0.4,0.5-0.7,0.7c-0.3,0.1-0.6,0.2-1,0.2c-0.2,0-0.4,0-0.6-0.1c-0.2-0.1-0.4-0.1-0.5-0.3
				c-0.1-0.1-0.3-0.3-0.4-0.4c-0.1-0.2-0.1-0.4-0.1-0.6c0-0.3,0.1-0.6,0.2-0.8s0.3-0.4,0.6-0.5c0.2-0.1,0.5-0.2,0.8-0.3
				s0.7-0.1,1-0.1h0.7v-0.2c0-0.1,0-0.2-0.1-0.4c0-0.1-0.1-0.2-0.2-0.3c-0.1-0.1-0.2-0.2-0.4-0.2c-0.1-0.1-0.3-0.1-0.5-0.1
				c-0.2,0-0.3,0-0.5,0.1c-0.1,0-0.2,0.1-0.4,0.1c-0.1,0-0.2,0.1-0.3,0.2c-0.1,0.1-0.2,0.1-0.2,0.2L172.9,112.9z M175.5,114.8
				c-0.2,0-0.4,0-0.7,0c-0.2,0-0.4,0.1-0.6,0.1c-0.2,0.1-0.3,0.2-0.5,0.3s-0.2,0.3-0.2,0.5c0,0.3,0.1,0.5,0.3,0.6
				c0.2,0.1,0.4,0.2,0.7,0.2c0.2,0,0.5,0,0.6-0.1c0.2-0.1,0.3-0.2,0.4-0.3s0.2-0.3,0.2-0.4c0-0.2,0.1-0.3,0.1-0.5v-0.3H175.5z"/>
			<path style="fill:#333332;" d="M178.1,112.3h0.9v0.7h0c0.1-0.1,0.1-0.2,0.2-0.3c0.1-0.1,0.2-0.2,0.3-0.3c0.1-0.1,0.3-0.1,0.4-0.2
				c0.1,0,0.3-0.1,0.4-0.1c0.1,0,0.3,0,0.4,0.1l0,1c-0.1,0-0.1,0-0.2,0c-0.1,0-0.1,0-0.2,0c-0.4,0-0.8,0.1-1,0.4
				c-0.2,0.2-0.4,0.6-0.4,1.1v2.4h-0.9V112.3z"/>
			<path style="fill:#333332;" d="M182.3,115c0,0.2,0,0.4,0.1,0.6c0.1,0.2,0.2,0.3,0.4,0.4c0.1,0.1,0.3,0.2,0.5,0.3
				c0.2,0.1,0.4,0.1,0.6,0.1c0.3,0,0.5-0.1,0.7-0.2s0.4-0.3,0.6-0.5l0.7,0.5c-0.5,0.6-1.2,1-2.1,1c-0.4,0-0.7-0.1-1-0.2
				c-0.3-0.1-0.6-0.3-0.8-0.5c-0.2-0.2-0.4-0.5-0.5-0.8c-0.1-0.3-0.2-0.6-0.2-1c0-0.4,0.1-0.7,0.2-1s0.3-0.6,0.5-0.8
				c0.2-0.2,0.5-0.4,0.8-0.5c0.3-0.1,0.6-0.2,1-0.2c0.4,0,0.8,0.1,1.1,0.2c0.3,0.1,0.5,0.3,0.7,0.6s0.3,0.5,0.4,0.8
				c0.1,0.3,0.1,0.6,0.1,0.9v0.3H182.3z M185.2,114.3c0-0.2,0-0.4-0.1-0.6c-0.1-0.2-0.1-0.3-0.3-0.4c-0.1-0.1-0.3-0.2-0.4-0.3
				c-0.2-0.1-0.4-0.1-0.6-0.1c-0.2,0-0.4,0-0.6,0.1c-0.2,0.1-0.3,0.2-0.5,0.3c-0.1,0.1-0.2,0.3-0.3,0.4c-0.1,0.2-0.1,0.3-0.1,0.5
				H185.2z"/>
			<path style="fill:#333332;" d="M190.3,113.1h-1v-0.8h1v-1.1c0-0.6,0.1-1.1,0.4-1.4c0.2-0.3,0.7-0.5,1.3-0.5c0.1,0,0.2,0,0.3,0
				c0.1,0,0.2,0,0.4,0.1l-0.1,0.8c-0.1,0-0.2-0.1-0.2-0.1c-0.1,0-0.2,0-0.3,0c-0.2,0-0.3,0-0.4,0.1c-0.1,0.1-0.2,0.1-0.2,0.2
				c-0.1,0.1-0.1,0.2-0.1,0.3s0,0.3,0,0.4v1.1h1.1v0.8h-1.1v4h-0.9V113.1z"/>
			<path style="fill:#333332;" d="M193.1,114.7c0-0.3,0.1-0.7,0.2-1c0.1-0.3,0.3-0.6,0.5-0.8c0.2-0.2,0.5-0.4,0.8-0.5s0.6-0.2,1-0.2
				c0.4,0,0.7,0.1,1,0.2s0.6,0.3,0.8,0.5s0.4,0.5,0.5,0.8c0.1,0.3,0.2,0.6,0.2,1s-0.1,0.7-0.2,1s-0.3,0.6-0.5,0.8
				c-0.2,0.2-0.5,0.4-0.8,0.5c-0.3,0.1-0.6,0.2-1,0.2c-0.4,0-0.7-0.1-1-0.2c-0.3-0.1-0.6-0.3-0.8-0.5c-0.2-0.2-0.4-0.5-0.5-0.8
				S193.1,115.1,193.1,114.7z M194,114.7c0,0.2,0,0.5,0.1,0.7c0.1,0.2,0.2,0.4,0.3,0.5c0.1,0.1,0.3,0.3,0.5,0.3
				c0.2,0.1,0.4,0.1,0.7,0.1c0.2,0,0.5,0,0.6-0.1c0.2-0.1,0.4-0.2,0.5-0.3c0.1-0.1,0.2-0.3,0.3-0.5c0.1-0.2,0.1-0.4,0.1-0.7
				c0-0.2,0-0.5-0.1-0.7c-0.1-0.2-0.2-0.4-0.3-0.5c-0.1-0.1-0.3-0.3-0.5-0.3s-0.4-0.1-0.6-0.1c-0.2,0-0.5,0-0.7,0.1
				s-0.4,0.2-0.5,0.3c-0.1,0.1-0.2,0.3-0.3,0.5C194.1,114.2,194,114.5,194,114.7z"/>
			<path style="fill:#333332;" d="M203.4,117.1h-0.9v-0.7h0c-0.1,0.3-0.3,0.5-0.6,0.6c-0.3,0.2-0.6,0.2-1,0.2c-0.2,0-0.5,0-0.7-0.1
				c-0.2-0.1-0.4-0.2-0.5-0.3c-0.2-0.1-0.3-0.3-0.4-0.6s-0.1-0.5-0.1-0.8v-3.1h0.9v2.8c0,0.2,0,0.4,0.1,0.6s0.1,0.3,0.2,0.4
				c0.1,0.1,0.2,0.2,0.3,0.2c0.1,0,0.3,0.1,0.4,0.1c0.2,0,0.4,0,0.5-0.1c0.2-0.1,0.3-0.2,0.4-0.3c0.1-0.1,0.2-0.3,0.3-0.5
				c0.1-0.2,0.1-0.4,0.1-0.7v-2.4h0.9V117.1z"/>
			<path style="fill:#333332;" d="M204.8,112.3h0.9v0.7h0c0.1-0.3,0.3-0.5,0.6-0.6c0.3-0.2,0.6-0.2,1-0.2c0.2,0,0.4,0,0.7,0.1
				c0.2,0.1,0.4,0.2,0.6,0.3c0.2,0.1,0.3,0.3,0.4,0.6c0.1,0.2,0.1,0.5,0.1,0.8v3h-0.9v-2.8c0-0.2,0-0.4-0.1-0.6
				c-0.1-0.2-0.1-0.3-0.2-0.4s-0.2-0.2-0.3-0.2c-0.1,0-0.3-0.1-0.4-0.1c-0.2,0-0.4,0-0.5,0.1c-0.2,0.1-0.3,0.2-0.4,0.3
				s-0.2,0.3-0.3,0.5c-0.1,0.2-0.1,0.4-0.1,0.7v2.4h-0.9V112.3z"/>
			<path style="fill:#333332;" d="M215.1,117.1h-0.9v-0.7h0c-0.2,0.3-0.4,0.5-0.7,0.6c-0.3,0.1-0.6,0.2-0.9,0.2
				c-0.4,0-0.7-0.1-1-0.2c-0.3-0.1-0.6-0.3-0.8-0.5c-0.2-0.2-0.4-0.5-0.5-0.8c-0.1-0.3-0.2-0.6-0.2-1c0-0.4,0.1-0.7,0.2-1
				c0.1-0.3,0.3-0.6,0.5-0.8c0.2-0.2,0.5-0.4,0.8-0.5c0.3-0.1,0.6-0.2,1-0.2c0.3,0,0.7,0.1,1,0.2c0.3,0.1,0.5,0.3,0.7,0.6h0v-3.5
				h0.9V117.1z M212.7,116.4c0.2,0,0.5,0,0.6-0.1c0.2-0.1,0.4-0.2,0.5-0.3c0.1-0.1,0.2-0.3,0.3-0.5c0.1-0.2,0.1-0.4,0.1-0.7
				c0-0.2,0-0.5-0.1-0.7c-0.1-0.2-0.2-0.4-0.3-0.5c-0.1-0.1-0.3-0.3-0.5-0.3s-0.4-0.1-0.6-0.1c-0.2,0-0.5,0-0.7,0.1
				s-0.4,0.2-0.5,0.3c-0.1,0.1-0.2,0.3-0.3,0.5c-0.1,0.2-0.1,0.4-0.1,0.7c0,0.2,0,0.5,0.1,0.7c0.1,0.2,0.2,0.4,0.3,0.5
				c0.1,0.1,0.3,0.3,0.5,0.3C212.2,116.3,212.4,116.4,212.7,116.4z"/>
			<path style="fill:#333332;" d="M219.1,110.6c0-0.2,0.1-0.3,0.2-0.5c0.1-0.1,0.3-0.2,0.5-0.2c0.2,0,0.3,0.1,0.5,0.2
				c0.1,0.1,0.2,0.3,0.2,0.5s-0.1,0.3-0.2,0.5s-0.3,0.2-0.5,0.2c-0.2,0-0.3-0.1-0.5-0.2C219.2,111,219.1,110.8,219.1,110.6z
				 M219.3,112.3h0.9v4.7h-0.9V112.3z"/>
			<path style="fill:#333332;" d="M221.7,112.3h0.9v0.7h0c0.1-0.3,0.3-0.5,0.6-0.6c0.3-0.2,0.6-0.2,1-0.2c0.2,0,0.4,0,0.7,0.1
				c0.2,0.1,0.4,0.2,0.6,0.3c0.2,0.1,0.3,0.3,0.4,0.6c0.1,0.2,0.1,0.5,0.1,0.8v3H225v-2.8c0-0.2,0-0.4-0.1-0.6
				c-0.1-0.2-0.1-0.3-0.2-0.4s-0.2-0.2-0.3-0.2c-0.1,0-0.3-0.1-0.4-0.1c-0.2,0-0.4,0-0.5,0.1c-0.2,0.1-0.3,0.2-0.4,0.3
				s-0.2,0.3-0.3,0.5c-0.1,0.2-0.1,0.4-0.1,0.7v2.4h-0.9V112.3z"/>
			<path style="fill:#333332;" d="M230,112.9c0.3-0.2,0.5-0.4,0.9-0.5c0.3-0.1,0.7-0.2,1-0.2c0.3,0,0.6,0,0.9,0.1
				c0.2,0.1,0.5,0.2,0.6,0.4c0.2,0.1,0.3,0.3,0.4,0.5s0.1,0.4,0.1,0.6v2.4c0,0.2,0,0.3,0,0.5c0,0.1,0,0.3,0,0.4h-0.8
				c0-0.2,0-0.5,0-0.7h0c-0.2,0.3-0.4,0.5-0.7,0.7c-0.3,0.1-0.6,0.2-1,0.2c-0.2,0-0.4,0-0.6-0.1c-0.2-0.1-0.4-0.1-0.5-0.3
				c-0.1-0.1-0.3-0.3-0.4-0.4c-0.1-0.2-0.1-0.4-0.1-0.6c0-0.3,0.1-0.6,0.2-0.8s0.3-0.4,0.6-0.5c0.2-0.1,0.5-0.2,0.8-0.3
				c0.3-0.1,0.7-0.1,1-0.1h0.7v-0.2c0-0.1,0-0.2-0.1-0.4c0-0.1-0.1-0.2-0.2-0.3c-0.1-0.1-0.2-0.2-0.4-0.2c-0.1-0.1-0.3-0.1-0.5-0.1
				c-0.2,0-0.3,0-0.5,0.1c-0.1,0-0.2,0.1-0.4,0.1c-0.1,0-0.2,0.1-0.3,0.2c-0.1,0.1-0.2,0.1-0.2,0.2L230,112.9z M232.6,114.8
				c-0.2,0-0.4,0-0.7,0c-0.2,0-0.4,0.1-0.6,0.1c-0.2,0.1-0.3,0.2-0.5,0.3s-0.2,0.3-0.2,0.5c0,0.3,0.1,0.5,0.3,0.6
				c0.2,0.1,0.4,0.2,0.7,0.2c0.2,0,0.5,0,0.6-0.1c0.2-0.1,0.3-0.2,0.4-0.3c0.1-0.1,0.2-0.3,0.2-0.4c0-0.2,0.1-0.3,0.1-0.5v-0.3
				H232.6z"/>
			<path style="fill:#333332;" d="M235.2,112.3h0.9v0.7h0c0.1-0.3,0.3-0.5,0.6-0.6c0.3-0.2,0.6-0.2,1-0.2c0.2,0,0.4,0,0.7,0.1
				c0.2,0.1,0.4,0.2,0.6,0.3c0.2,0.1,0.3,0.3,0.4,0.6c0.1,0.2,0.1,0.5,0.1,0.8v3h-0.9v-2.8c0-0.2,0-0.4-0.1-0.6
				c-0.1-0.2-0.1-0.3-0.2-0.4s-0.2-0.2-0.3-0.2c-0.1,0-0.3-0.1-0.4-0.1c-0.2,0-0.4,0-0.5,0.1c-0.2,0.1-0.3,0.2-0.4,0.3
				s-0.2,0.3-0.3,0.5c-0.1,0.2-0.1,0.4-0.1,0.7v2.4h-0.9V112.3z"/>
			<path style="fill:#333332;" d="M240.6,110.6c0-0.2,0.1-0.3,0.2-0.5c0.1-0.1,0.3-0.2,0.5-0.2c0.2,0,0.3,0.1,0.5,0.2
				c0.1,0.1,0.2,0.3,0.2,0.5s-0.1,0.3-0.2,0.5c-0.1,0.1-0.3,0.2-0.5,0.2c-0.2,0-0.3-0.1-0.5-0.2C240.7,111,240.6,110.8,240.6,110.6z
				 M240.8,112.3h0.9v4.7h-0.9V112.3z"/>
			<path style="fill:#333332;" d="M243.1,112.3h0.8v0.7h0c0-0.1,0.1-0.1,0.2-0.2s0.2-0.2,0.3-0.3c0.1-0.1,0.3-0.2,0.5-0.2
				c0.2-0.1,0.4-0.1,0.6-0.1c0.4,0,0.6,0.1,0.9,0.2c0.2,0.1,0.4,0.4,0.6,0.7c0.2-0.3,0.4-0.5,0.6-0.7c0.3-0.1,0.6-0.2,0.9-0.2
				c0.4,0,0.7,0.1,0.9,0.2c0.2,0.1,0.4,0.3,0.6,0.5c0.1,0.2,0.2,0.4,0.3,0.7c0,0.2,0.1,0.5,0.1,0.8v2.8h-0.9v-2.6c0-0.2,0-0.4,0-0.5
				c0-0.2-0.1-0.3-0.1-0.4c-0.1-0.1-0.2-0.2-0.3-0.3c-0.1-0.1-0.3-0.1-0.5-0.1c-0.4,0-0.7,0.1-0.9,0.4c-0.2,0.3-0.3,0.6-0.3,1v2.6
				h-0.9v-2.5c0-0.2,0-0.4,0-0.6c0-0.2-0.1-0.3-0.1-0.5c-0.1-0.1-0.2-0.2-0.3-0.3s-0.3-0.1-0.5-0.1c-0.2,0-0.3,0-0.5,0.1
				c-0.2,0.1-0.3,0.2-0.4,0.3c-0.1,0.1-0.2,0.3-0.3,0.5c-0.1,0.2-0.1,0.4-0.1,0.7v2.5h-0.9V112.3z"/>
			<path style="fill:#333332;" d="M251.7,112.9c0.3-0.2,0.5-0.4,0.9-0.5c0.3-0.1,0.7-0.2,1-0.2c0.3,0,0.6,0,0.9,0.1
				c0.2,0.1,0.5,0.2,0.6,0.4c0.2,0.1,0.3,0.3,0.4,0.5s0.1,0.4,0.1,0.6v2.4c0,0.2,0,0.3,0,0.5c0,0.1,0,0.3,0,0.4h-0.8
				c0-0.2,0-0.5,0-0.7h0c-0.2,0.3-0.4,0.5-0.7,0.7c-0.3,0.1-0.6,0.2-1,0.2c-0.2,0-0.4,0-0.6-0.1c-0.2-0.1-0.4-0.1-0.5-0.3
				c-0.1-0.1-0.3-0.3-0.4-0.4c-0.1-0.2-0.1-0.4-0.1-0.6c0-0.3,0.1-0.6,0.2-0.8s0.3-0.4,0.6-0.5c0.2-0.1,0.5-0.2,0.8-0.3
				s0.7-0.1,1-0.1h0.7v-0.2c0-0.1,0-0.2-0.1-0.4c0-0.1-0.1-0.2-0.2-0.3c-0.1-0.1-0.2-0.2-0.4-0.2c-0.1-0.1-0.3-0.1-0.5-0.1
				c-0.2,0-0.3,0-0.5,0.1c-0.1,0-0.2,0.1-0.4,0.1c-0.1,0-0.2,0.1-0.3,0.2c-0.1,0.1-0.2,0.1-0.2,0.2L251.7,112.9z M254.2,114.8
				c-0.2,0-0.4,0-0.7,0c-0.2,0-0.4,0.1-0.6,0.1c-0.2,0.1-0.3,0.2-0.5,0.3s-0.2,0.3-0.2,0.5c0,0.3,0.1,0.5,0.3,0.6
				c0.2,0.1,0.4,0.2,0.7,0.2c0.2,0,0.5,0,0.6-0.1c0.2-0.1,0.3-0.2,0.4-0.3s0.2-0.3,0.2-0.4c0-0.2,0.1-0.3,0.1-0.5v-0.3H254.2z"/>
			<path style="fill:#333332;" d="M256.9,109.5h0.9v7.6h-0.9V109.5z"/>
			<path style="fill:#333332;" d="M261.8,113.5c-0.1-0.1-0.2-0.2-0.4-0.3c-0.2-0.1-0.3-0.1-0.6-0.1c-0.2,0-0.4,0-0.6,0.1
				c-0.2,0.1-0.2,0.2-0.2,0.4c0,0.1,0,0.3,0.1,0.3c0.1,0.1,0.2,0.2,0.3,0.2c0.1,0.1,0.3,0.1,0.4,0.1c0.1,0,0.3,0,0.4,0.1
				c0.2,0,0.4,0.1,0.5,0.2c0.2,0.1,0.3,0.2,0.4,0.3c0.1,0.1,0.2,0.2,0.3,0.4c0.1,0.2,0.1,0.3,0.1,0.6c0,0.3-0.1,0.5-0.2,0.7
				s-0.3,0.3-0.4,0.5c-0.2,0.1-0.4,0.2-0.6,0.3s-0.5,0.1-0.7,0.1c-0.4,0-0.7-0.1-1-0.2c-0.3-0.1-0.6-0.3-0.8-0.7l0.7-0.6
				c0.1,0.1,0.3,0.3,0.5,0.4c0.2,0.1,0.4,0.2,0.7,0.2c0.1,0,0.2,0,0.3,0s0.2-0.1,0.3-0.1c0.1,0,0.2-0.1,0.2-0.2
				c0.1-0.1,0.1-0.2,0.1-0.3c0-0.1,0-0.2-0.1-0.3s-0.2-0.2-0.3-0.2s-0.2-0.1-0.4-0.1c-0.1,0-0.2-0.1-0.3-0.1c-0.2,0-0.4-0.1-0.6-0.2
				s-0.3-0.1-0.5-0.2c-0.1-0.1-0.2-0.2-0.3-0.4s-0.1-0.3-0.1-0.6c0-0.2,0.1-0.5,0.2-0.6c0.1-0.2,0.2-0.3,0.4-0.5s0.4-0.2,0.6-0.3
				s0.4-0.1,0.7-0.1c0.3,0,0.6,0.1,0.9,0.2c0.3,0.1,0.5,0.3,0.7,0.6L261.8,113.5z"/>
			<path style="fill:#333332;" d="M264.4,117.1c-0.2,0-0.3-0.1-0.5-0.2c-0.1-0.1-0.2-0.3-0.2-0.5c0-0.2,0.1-0.3,0.2-0.5
				c0.1-0.1,0.3-0.2,0.5-0.2c0.2,0,0.3,0.1,0.5,0.2s0.2,0.3,0.2,0.5c0,0.2-0.1,0.3-0.2,0.5C264.7,117.1,264.6,117.1,264.4,117.1z"/>
		</g>
	</g>
</g>
</svg>
