<svg xmlns="http://www.w3.org/2000/svg" xmlns:xlink="http://www.w3.org/1999/xlink" viewBox="0 0 396 72">
  <path fill="#92BFB8" d="M70.1 66.6h279.5c16.1 0 29.1-13.1 29.1-29.1S365.6 8.4 349.5 8.4H49.4c-16.1 0-29.1 13.1-29.1 29.1 0 16.1 13.1 29.1 29.1 29.1h10.3"/>
  <path fill="#FFF6C5" d="M346.6 5.4H46.5v58.3h300.2c16.1 0 29.1-13.1 29.1-29.1 0-16.2-13.1-29.2-29.2-29.2z"/>
  <circle cx="46.5" cy="34.5" r="27.7" fill="#6CC2D9"/>
  <defs>
    <circle id="a" cx="46.5" cy="34.5" r="27.7"/>
  </defs>
  <clipPath id="b">
    <use xlink:href="#a" overflow="visible"/>
  </clipPath>
  <path fill="#63B1C6" d="M56.9 18L78 31.2s-1.5 27.1-15.1 36.3L41.8 54.2" clip-path="url(#b)"/>
  <path fill="#FFCC5D" d="M47.7 14.8c-8.2 0-14.9 6.5-15.3 14.7L28.5 36c-.8 1.9 1.1 1.7 1.1 1.7h2.2v5.6c0 4.5 8.7 3.2 8.7 3.2l1.4 7.8 13.6-5.7v-4.8C59.2 41 63 35.1 63 30.2c-.1-8.6-6.9-15.4-15.3-15.4z"/>
  <path fill="#F26F6A" d="M48.2 39.7h-1.6c-.5 0-.9-.4-.9-.9V20.3c0-.5.4-.9.9-.9h1.6c.5 0 .9.4.9.9v18.5c0 .5-.4.9-.9.9z"/>
  <path fill="#F26F6A" d="M57.6 28.7v1.6c0 .5-.4.9-.9.9H38.1c-.5 0-.9-.4-.9-.9v-1.6c0-.5.4-.9.9-.9h18.5c.6.1 1 .5 1 .9z"/>
  <path fill="#FFF6C5" d="M46.5 63.6c-16.1 0-29.1-13.1-29.1-29.1s13-29.1 29.1-29.1 29.1 13.1 29.1 29.1-13.1 29.1-29.1 29.1zm0-55.4C32 8.2 20.2 20 20.2 34.5S32 60.8 46.5 60.8 72.8 49 72.8 34.5 61 8.2 46.5 8.2z"/>
  <path fill="none" d="M83.9 28.3h291.9v36.9H83.9z"/>
  <text transform="translate(83.926 35.833)">
    <tspan x="0" y="0" fill="#333332" font-family="'Avenir-Medium'" font-size="10">Clark&apos;s nutcrackers remember for at least half year where they </tspan><tspan x="0" y="12" fill="#333332" font-family="'Avenir-Medium'" font-size="10">put seeds and they use 5 thousand caches in a 15-mile area</tspan>
  </text>
  <text fill="#F26F6A" transform="translate(83.925 21.935)" font-family="'BebasNeue'" font-size="15">
    Long Term Memory
  </text>
</svg>
