<?xml version="1.0" encoding="utf-8"?>
<!-- Generator: Adobe Illustrator 19.2.0, SVG Export Plug-In . SVG Version: 6.00 Build 0)  -->
<!DOCTYPE svg PUBLIC "-//W3C//DTD SVG 1.1//EN" "http://www.w3.org/Graphics/SVG/1.1/DTD/svg11.dtd">
<svg version="1.1" id="Layer_1" xmlns="http://www.w3.org/2000/svg" xmlns:xlink="http://www.w3.org/1999/xlink" x="0px" y="0px"
	 width="216px" height="288px" viewBox="0 0 216 288" enable-background="new 0 0 216 288" xml:space="preserve">
<g>
	<path fill="#92BEB8" d="M143.7,93.3l-3.2,16.1l-0.2,1c-1.2-0.3-2.4-0.6-3.5-1l3.4-16.9C141.4,92.7,142.6,93,143.7,93.3z"/>
	<path fill="#92BEB8" d="M173.1,100c-0.8,0.7-1.6,1.3-2.5,1.9c-7.7-12.7-20.9-17-28.6-18.5c-3.7-0.7-6.1-0.7-6.1-0.7h3.7
		c0,0,2.4,0,6.1,0.7C153,84.8,165.2,88.7,173.1,100z"/>
	<path fill="#92BEB8" d="M179.9,136.2h-3.5l0.1-0.8h-0.2c0.9-8.1,0.5-15-0.7-20.8c1.2-0.6,2.3-1.2,3.3-1.8c0.1,0.2,0.1,0.4,0.2,0.6
		c0.1,0.4,0.2,0.8,0.3,1.2C180.6,120.7,181,127.8,179.9,136.2z"/>
	<path fill="#92BEB8" d="M75.6,111c0,1.1-0.1,2.3-0.1,3.5c-16.4,13.4-40.5,12.6-42,12.5C41.9,126.7,62.5,124.6,75.6,111z"/>
	<path fill="#92BEB8" d="M83.7,105.4c-2.3,3.6-5.1,6.5-8.2,9c0-1.2,0-2.3,0.1-3.5c2.8-2.9,5.3-6.4,7.2-10.5L83.7,105.4z"/>
	<path fill="#92BEB8" d="M163.7,216.6c-13.5,0.8-30.2-7-39.5-44.7l10.7-52.9c1.1,0.5,2.3,0.9,3.4,1.2l-10.4,51.7
		C136.4,206.3,151,215.8,163.7,216.6z"/>
	<path fill="#92BEB8" d="M185.3,217.6c-11.9,5.9-22.1,8-30.7,7.7c7.8-0.3,16.7-2.6,27-7.7c1-0.5,2-1,3-1.5L185.3,217.6z"/>
	<path fill="#DDD6AC" d="M108.4,188.8c-3.2,0.1-6.3,0.3-9.2,0.5c-0.1-0.1-0.1-0.2-0.2-0.3C101.9,188.9,105.1,188.8,108.4,188.8
		C108.4,188.8,108.4,188.8,108.4,188.8z"/>
	<path fill="#92BEB8" d="M55.6,252.6h-3.7c-4.9-15-14.2-59.4,47-63.5c0.1,0.1,0.1,0.2,0.2,0.3C41.8,194.9,50.8,237.9,55.6,252.6z"/>
	<g>
		<path fill="#262261" d="M176.3,135.5c0,0.3-0.1,0.5-0.1,0.8h-5c0,0,0.1-0.8,0.2-2.2c0.2-3.2,0.1-9.6-2-16.5
			c-0.1-0.4-0.3-0.9-0.4-1.3c-1-3-2.5-6.1-4.6-9.1c-0.2-0.3-0.4-0.6-0.6-0.9c-4.1-5.6-10.5-10.4-20.1-13c-1.1-0.3-2.3-0.6-3.5-0.8
			l-3.4,16.9c-8.5-3.1-14.7-9.9-18.4-15.2c-1.5-2.1-2.6-4-3.3-5.3l0.8-1.3l2.9-4.9h17.2c0,0,2.4,0,6.1,0.7
			c7.7,1.5,20.9,5.8,28.6,18.5c0.2,0.2,0.3,0.5,0.4,0.7c1.8,3.1,3.3,6.7,4.3,10.8c0.1,0.4,0.2,0.8,0.3,1.2
			C176.9,120.5,177.2,127.3,176.3,135.5z"/>
		<path fill="#262261" d="M117.7,96.6c-0.3-0.4-0.6-0.8-0.9-1.2c-0.1-0.2-0.3-0.4-0.4-0.5c0,0,0,0,0,0c-0.3-0.4-0.5-0.8-0.7-1.1
			c-0.2-0.4-0.4-0.7-0.6-1c-0.1-0.2-0.2-0.3-0.3-0.5c-0.4-0.6-0.6-1.1-0.9-1.6c-0.1-0.1-0.1-0.1-0.1-0.2c0-0.1-0.1-0.2-0.1-0.3
			c-0.2-0.3-0.3-0.6-0.4-0.8l1.1-1.8l2.9-4.9H79.7v0l0,0c0,0-0.1,0.7-0.3,2c0,0,0,0.1,0,0.1c-0.2,0.9-0.4,2-0.8,3.3c0,0,0,0,0,0.1
			c-2.9,10.6-12.6,33.3-42.8,34.2c0,0-0.1,0-0.1,0c0,0,0,0,0,0c0,0,0,0,0,0c-0.5,0-1.1,0-1.6,0h-0.6c-1.2,0-2.4,0-3.7-0.1
			c0,0,0,0,0,0v4.7h0c0.1,0,0.6,0,1.4,0c0.4,0,1,0,1.6,0c0.2,0,0.4,0,0.7,0h0c8.4-0.2,29-2.3,42.1-16c2.8-2.9,5.3-6.4,7.2-10.5
			l0.9,5l11.7,66.5h28.8l10.6-52.9l0.4-2.1l1.1-5.5C127.8,108.5,121.6,102,117.7,96.6z M93.3,90.7l0.1,0.5l-1.6,3.3H91l1.9-3.8
			l0.3-0.6L93.3,90.7z"/>
	</g>
	<path fill="#F16E6A" d="M186.3,98.7l-0.9,8.8c-1.6,1.1-5.2,3.5-10,6c-1-4.1-2.5-7.7-4.3-10.8c1.7-1.3,3.4-2.8,5.2-4.4L186.3,98.7z"
		/>
	<path fill="#92BEB8" d="M131.6,30l-0.3-1.1c0.6-0.7,1-1.5,1.1-2.5c0-0.2,0-0.4,0-0.6H91.2c-2.1,0-3.6,2-3,4L91.6,42
		c0.3,1,0.9,1.9,1.8,2.4c0.3,0.2,0.6,0.3,0.9,0.5l0.1,0.3l9.5,37.5h20.4l7.9-31.5h5.5L131.6,30z"/>
	<path fill="#92BEB8" d="M57.5,257.5H53c-0.7-1.7-1.4-3.3-2-4.9h4.7C56.6,255.6,57.5,257.5,57.5,257.5z"/>
	<polygon fill="#92BEB8" points="59.6,261.4 45.9,261.4 52.6,256.7 57.1,256.7 	"/>
	<path fill="#FFCB5C" d="M117.7,96.6l-1,4.1l-0.6,2.4l-5.3,22l-10.2-42.5h16.5l-2.9,4.9l-1,1.8c0.1,0.2,0.2,0.5,0.4,0.8
		c0,0.1,0.1,0.2,0.1,0.3c0,0.1,0.1,0.1,0.1,0.2c0.2,0.5,0.5,1,0.9,1.6c0.1,0.2,0.2,0.3,0.3,0.5c0.2,0.3,0.4,0.7,0.6,1
		c0.2,0.4,0.5,0.7,0.7,1.1c0,0,0,0,0,0c0.1,0.2,0.2,0.4,0.4,0.5C117.2,95.8,117.4,96.2,117.7,96.6z"/>
	<path fill="#FFCB5C" d="M121.1,82.7l-2.8,11.5c-1.5-2.1-2.6-4-3.3-5.3l0.8-1.3l2.9-4.9H121.1z"/>
	<path fill="#F16E6A" d="M167.8,118.2c-8.5,3.2-19,5.2-29.5,2.1c-1.2-0.3-2.3-0.8-3.4-1.2c-6.5-2.7-12.9-7.7-18.7-15.8
		c-2.6-3.8-5.1-8.2-7.4-13.5c-0.1-0.3-0.3-0.6-0.4-0.9h4.6c0,0,0.1,0.2,0.3,0.5c0.1,0.2,0.2,0.5,0.4,0.8c0,0.1,0.1,0.2,0.1,0.3
		c0,0.1,0.1,0.1,0.1,0.2c0.2,0.5,0.5,1,0.9,1.6c0.1,0.2,0.2,0.3,0.3,0.5c0.2,0.3,0.4,0.7,0.6,1c0.2,0.4,0.5,0.7,0.7,1.1c0,0,0,0,0,0
		c0.1,0.2,0.2,0.4,0.4,0.5c0.3,0.4,0.6,0.8,0.9,1.2c3.9,5.3,10.1,11.9,18.6,14.8c0.3,0.1,0.6,0.2,0.9,0.3c0.2,0.1,0.4,0.1,0.7,0.2
		c0.3,0.1,0.7,0.2,1,0.3c0.3,0.1,0.6,0.1,0.9,0.2h0c0,0,0,0,0,0c0.2,0.1,0.4,0.1,0.7,0.1c0.2,0,0.4,0.1,0.6,0.1
		c0.2,0,0.5,0.1,0.7,0.1c0.2,0,0.5,0.1,0.7,0.1c0.3,0,0.5,0.1,0.8,0.1c0.2,0,0.4,0,0.6,0c0.2,0,0.5,0,0.7,0c0.2,0,0.5,0,0.7,0
		c5.2,0,11-1.4,17.5-5c2,2.9,3.4,5.9,4.4,8.8c0,0,0,0,0,0.1C167.5,117.4,167.7,117.8,167.8,118.2z"/>
	<path fill="#F16E6A" d="M186.3,98.7l-0.9,8.8l-0.1,1.2c0,0-2.4,1.9-6.4,4.2c-1,0.6-2.1,1.2-3.3,1.8c-0.1-0.4-0.2-0.8-0.3-1.2
		c-1-4.1-2.5-7.7-4.3-10.8c0.4-0.3,0.8-0.6,1.2-1c0.2-0.2,0.4-0.3,0.6-0.5c0.2-0.2,0.4-0.3,0.6-0.5c0.9-0.8,1.8-1.6,2.7-2.4
		L186.3,98.7z"/>
	<path fill="#DCB151" d="M118.3,94.2l-0.6,2.4c-0.3-0.4-0.6-0.8-0.9-1.2c-0.1-0.2-0.3-0.4-0.4-0.5c0,0,0,0,0,0
		c-0.3-0.4-0.5-0.8-0.7-1.1c-0.2-0.4-0.4-0.7-0.6-1c-0.1-0.2-0.2-0.3-0.3-0.5c-0.3-0.6-0.6-1.1-0.9-1.6l0.8-1.3l0.3-0.5
		C115.7,90.2,116.8,92.1,118.3,94.2z"/>
	<polygon fill="#92BEB8" points="194.1,220.6 185.2,217.6 182.6,211.8 186.8,208.2 	"/>
	<path fill="#140B45" d="M136.8,109.4l-0.4,2c-8.5-2.9-14.7-9.5-18.6-14.8l0.6-2.4C122.1,99.5,128.2,106.3,136.8,109.4z"/>
	<path fill="#92BEB8" d="M164.4,107.2c-0.5,0.3-1,0.6-1.5,0.8c-8.9,4.9-16.6,5.7-23.1,4.4c-1.2-0.3-2.4-0.6-3.5-1l0.4-2
		c1.1,0.4,2.3,0.8,3.5,1c6.2,1.4,13.6,0.9,22-3.4c0.5-0.3,1-0.5,1.5-0.8C164,106.6,164.2,106.9,164.4,107.2z"/>
	<path fill="#92BEB8" d="M187.3,96.9l-1,10c0,0-0.3,0.2-0.9,0.7l0.9-8.8l-10-0.4c-0.9,0.8-1.8,1.6-2.7,2.4c-0.8,0.7-1.6,1.4-2.5,2
		c-0.1-0.3-0.3-0.5-0.4-0.7c0.8-0.6,1.6-1.2,2.5-1.9c1.4-1.1,2.8-2.3,4.2-3.6L187.3,96.9z"/>
	<path fill="#F16E6A" d="M163,108c2,2.9,3.4,5.9,4.4,8.8c-9.3,3.3-20.9,5-32.1,0.1c-6.5-2.8-12.8-7.9-18.5-16.2
		c-1.5-2.2-3-4.7-4.4-7.5c-0.2-0.4-0.4-0.8-0.7-1.3c-0.5-1-1-2.1-1.5-3.2c-0.3-0.6-0.5-1.2-0.8-1.8h4.6c0,0,0.1,0.2,0.3,0.6l-1,1.8
		c0.1,0.2,0.2,0.5,0.4,0.8c0,0.1,0.1,0.2,0.1,0.3c0,0.1,0.1,0.1,0.1,0.2c0.2,0.5,0.5,1,0.9,1.6c0.1,0.2,0.2,0.3,0.3,0.5
		c0.2,0.3,0.4,0.7,0.6,1c0.2,0.4,0.5,0.7,0.7,1.1c0,0,0,0,0,0c0.1,0.2,0.2,0.4,0.4,0.5c0.3,0.4,0.6,0.8,0.9,1.2
		c3.9,5.3,10.1,11.9,18.6,14.8C143.6,114,152.5,113.8,163,108z"/>
	<path fill="#FFD292" d="M92.6,45.1c-0.5,0-1-0.1-1.4-0.3l-4.2-16.6H128l0.2,0.6c-0.9,1-2.1,1.6-3.5,1.6H93.8
		c-1.6,0-2.8,1.5-2.4,3.1l2.8,11.6H92.6z"/>
	<path fill="#FFD292" d="M134.4,51.1H129l-7.9,31.5h-20.4l-9.5-37.5c0.6,0.4,1.4,0.6,2.1,0.6H95l-2.8-11.6c-0.4-1.6,0.8-3.1,2.4-3.1
		h30.9c1.2,0,2.2-0.4,3-1.1L134.4,51.1z"/>
	<path fill="#F4EDDA" d="M187,214.7c-0.8,0.5-1.6,0.9-2.5,1.4c-1,0.5-2,1-3,1.5l-1.9-4l-0.7-1.4c3.4-1.7,5.4-3.3,5.4-3.3L187,214.7z
		"/>
	<path fill="#F4EDDA" d="M53.8,257.5h-4.5c-0.7-1.7-1.4-3.3-2-4.9h4.7C53,255.6,53.8,257.5,53.8,257.5z"/>
	<path fill="#F16E6A" d="M181.6,217.6c-10.2,5.1-19.2,7.4-27,7.7h0c-34.1,1.4-45.8-35-46.2-36.4c0,0,0,0,0,0c-3.3,0-6.4,0.1-9.4,0.3
		c-61.2,4.1-52,48.5-47,63.5h-4.6c-24.5-63.8,23.7-77.2,41.7-80c3.9-0.6,6.4-0.7,6.4-0.7h28.8c9.3,37.8,26.1,45.6,39.5,44.8h0
		c6.1-0.4,11.5-2.5,15.3-4.5l0.7,1.4L181.6,217.6z"/>
	<polygon fill="#231F20" points="195.9,217.6 187,214.7 184.4,208.8 188.6,205.3 	"/>
	<polygon fill="#231F20" points="56.3,262.2 42.6,262.2 49.3,257.5 53.8,257.5 	"/>
	<path fill="#D05F5B" d="M169.4,117.5c-0.5,0.2-1.1,0.4-1.6,0.6c-0.1-0.4-0.3-0.8-0.4-1.2c0,0,0,0,0-0.1c-1-3-2.4-6-4.4-8.8
		c0.5-0.3,1-0.6,1.5-0.8c2,2.9,3.5,6,4.6,9.1C169.1,116.7,169.3,117.1,169.4,117.5z"/>
	<polygon fill="#F16E6A" points="117.3,82.7 114.3,87.6 113.3,89.4 111.7,92 111.6,92.1 110.9,93.3 108.8,89.7 104.6,82.7 	"/>
	<path fill="#DCB151" d="M118.7,82.7l-2.9,4.9l-0.8,1.3l-0.3,0.5l-0.8,1.3c0-0.1-0.1-0.1-0.1-0.2c-0.1-0.1-0.1-0.2-0.1-0.3
		c-0.2-0.3-0.3-0.6-0.4-0.8l1-1.8l2.9-4.9H118.7z"/>
	<polygon fill="#6CC1D9" points="97.7,95.9 88.4,95.9 86.9,90.7 92.9,90.7 91,94.5 91.7,94.5 93.4,91.2 93.3,90.7 96.3,90.7 
		97.1,93.5 97.3,94.5 	"/>
	<path fill="#92BEB8" d="M182.3,141.5c-0.8,0.5-2.5,1.4-3.8,0.1c-0.1-0.1-0.2-0.2-0.3-0.3c0,0,0,0.2-0.1,0.5c-0.1,0.8-0.1,2.3,0.7,3
		c0.1,0.1,0,0.2-0.1,0.2c-0.8-0.3-1.9-1.1-2.4-2.7c-0.1-0.4-0.2-0.9-0.2-1.5c0,0-0.4,0.6-0.4,1.5c0,0.3,0.1,0.7,0.2,1.1
		c0.1,0.1-0.1,0.3-0.2,0.2c-0.4-0.2-1.1-0.7-1.3-2.2c-0.2-0.9-0.2-2.2,0.2-4.1h1.4c0-0.1,0-0.2,0-0.4h-1.3c0-0.2,0.1-0.4,0.1-0.7h5
		c0,0-1.2,5.1,2.3,5C182.4,141.2,182.5,141.4,182.3,141.5z"/>
	<polygon fill="#5BA2B6" points="88,94.5 88.4,95.9 97.7,95.9 97.3,94.5 	"/>
	<path fill="#B1875F" d="M129.4,25.8c0,0.2,0,0.4,0,0.6c-0.1,1-0.5,1.8-1.1,2.5c-0.9,1-2.1,1.6-3.5,1.6H93.8c-1.6,0-2.8,1.5-2.4,3.1
		l2.8,11.6h-1.6c-0.5,0-1-0.1-1.4-0.3c-0.3-0.1-0.6-0.3-0.9-0.5c-0.8-0.6-1.5-1.4-1.8-2.4l-3.4-12.3c-0.6-2,1-4,3-4H129.4z"/>
	<path fill="#E6C086" d="M92.2,34.1L95,45.8h-1.6c-0.8,0-1.5-0.2-2.1-0.6l-0.1-0.3c0.5,0.2,0.9,0.3,1.4,0.3h1.6l-2.8-11.6
		c-0.4-1.6,0.8-3.1,2.4-3.1h30.9c1.4,0,2.6-0.6,3.5-1.6l0.3,1.1c-0.8,0.7-1.9,1.1-3,1.1H94.6C93,31.1,91.8,32.6,92.2,34.1z"/>
	<circle fill="#E6C086" cx="119.9" cy="38.3" r="2.3"/>
	<circle fill="#231F20" cx="119.9" cy="37.7" r="2.3"/>
	<polygon fill="#E6C086" points="129,51.1 124.6,51.1 124.1,70.6 	"/>
	<path fill="#FFD292" d="M171.8,138.5c-0.3,0-0.6-0.1-0.9-0.2c0.1-0.6,0.2-1.3,0.3-2h5c0,0-0.1,0.3-0.1,0.7h-2.2
		C173.7,137.8,172.8,138.5,171.8,138.5z"/>
	<path fill="#FFD292" d="M178.6,141.5C178.6,141.5,178.6,141.5,178.6,141.5c-0.2,0.1-0.3,0.2-0.4,0.3c-0.5,0.3-1.1,0.5-1.7,0.5
		c-0.2,0-0.4,0-0.6-0.1c-0.5-0.1-0.9-0.4-1.3-0.9c0,0,0,0,0,0.1c-0.1,0.5-0.3,2.5,0.7,3.4c0.1,0.1,0,0.2-0.1,0.2
		c-1-0.4-2.6-1.5-2.6-4.2c0,0-0.7,1.2-0.2,2.6c0.1,0.1-0.1,0.3-0.2,0.2c-0.6-0.3-1.7-1.2-1.3-4.9c0.3,0.1,0.6,0.2,1,0.2
		c1,0,1.8-0.7,2.1-1.6v0h2.2c-0.2,1.5,0,4,2.5,4C178.7,141.2,178.8,141.4,178.6,141.5z"/>
	<path fill="#FFD292" d="M29.8,122.2c0,0-3.2-1-4.2-2.2c-0.1-0.1-0.2,0-0.2,0.1c0.1,0.7,0.3,1.9,1.1,2.1c0,0-3.6,0.1-5.7,1.8
		c-0.2,0.1,0,0.4,0.2,0.4c1-0.1,2.9-0.4,3.6-0.4c0,0-3.2,0.9-4.6,2c-0.1,0.1,0,0.4,0.2,0.3c1.2-0.3,3.6-0.8,4.4-0.6
		c0,0-2.6,0.7-2.6,2.4c0,0.2,0.2,0.3,0.3,0.2c0.7-0.6,2.8-1.9,7.3-1.4V122.2z"/>
	<path fill="#DBB780" d="M176.1,136.9c0,0.1,0,0.2,0,0.4h-2.2v0c-0.3,0.9-1.1,1.6-2.1,1.6c-0.3,0-0.7-0.1-1-0.2c0-0.1,0-0.2,0-0.3
		c0.3,0.1,0.6,0.2,0.9,0.2c1,0,1.8-0.7,2.1-1.5H176.1z"/>
	<path fill="#DAAF50" d="M176.6,135.5l-0.1,0.4l-0.1,0.4l-0.1,0.7h-2.4l0-0.7l0-0.4l0-0.3c0,0,0,0,0,0H176.6z"/>
	<path fill="#FFCB5C" d="M174,136.2c0,0.2,0,0.5-0.1,0.7c-0.3,0.9-1.1,1.5-2.1,1.5c-0.3,0-0.6-0.1-0.9-0.2c-0.7-0.3-1.2-1-1.3-1.8
		c0-0.1,0-0.1,0-0.2c0-1.1,0.8-2,1.8-2.2c0.1,0,0.3,0,0.4,0c0.9,0,1.8,0.6,2.1,1.4c0,0,0,0,0,0c0,0.1,0.1,0.2,0.1,0.3
		C174,136,174,136.1,174,136.2z"/>
	<polygon fill="#FFCB5C" points="92.9,90.7 91,94.5 89.9,94.5 92,90.7 93,88.9 93.2,90.1 	"/>
	<polygon fill="#DCB151" points="94,94.5 91.7,94.5 93.4,91.2 	"/>
	<text transform="matrix(1 0 0 1 170.9424 137.1694)" fill="#96CDB3" font-family="'MyriadPro-Regular'" font-size="3.0422px">$</text>
	<polygon fill="#FFCB5C" points="97.3,94.5 91.7,94.5 93.4,91.2 93.7,90.7 94.9,88.3 95.4,87.3 97.1,93.5 	"/>
	<polygon fill="#DCB151" points="93.4,91.2 91.7,94.5 91,94.5 92.9,90.7 93.2,90.1 93.3,90.7 	"/>
	<circle fill="#FFCB5C" cx="32" cy="126.9" r="0.8"/>
	<circle fill="#FFCB5C" cx="176.6" cy="133.2" r="0.8"/>
</g>
</svg>
